<svg width="188" height="146" viewBox="0 0 188 146" fill="none" xmlns="http://www.w3.org/2000/svg">
<circle cx="115.659" cy="54.1536" r="53.9693" fill="#F5F5FA"/>
<path d="M131.792 110.335C137.865 109.102 143.262 105.657 146.937 100.668C150.612 95.6791 152.302 89.5027 151.679 83.3379C151.057 77.173 148.166 71.4594 143.567 67.3063C138.969 63.1532 132.991 60.8569 126.795 60.8631H120.499C118.843 54.4534 115.622 48.5551 111.123 43.6978C106.625 38.8405 100.991 35.1764 94.7274 33.0343C88.4635 30.8921 81.7656 30.3391 75.2351 31.4249C68.7046 32.5107 62.546 35.2012 57.3121 39.2549C52.0783 43.3087 47.9331 48.5988 45.2486 54.6502C42.5642 60.7016 41.4246 67.325 41.9321 73.9256C42.4396 80.5263 44.5784 86.8976 48.1564 92.4675C51.7344 98.0374 56.6396 102.632 62.4317 105.838" stroke="#ACAAC2" stroke-width="6.59918" stroke-linecap="round" stroke-linejoin="round"/>
<path d="M101.81 80.8525L81.8213 110.835H111.804L91.8156 140.818" stroke="#ACAAC2" stroke-width="6.59918" stroke-linecap="round" stroke-linejoin="round"/>
<path d="M29.8738 114.298C31.8538 113.894 33.6137 112.762 34.812 111.125C36.0103 109.487 36.5614 107.459 36.3584 105.435C36.1553 103.412 35.2126 101.536 33.7132 100.172C32.2139 98.809 30.2648 98.0551 28.2444 98.0571H26.1914C25.6515 95.9529 24.6011 94.0165 23.1344 92.4219C21.6678 90.8273 19.8307 89.6244 17.7883 88.9211C15.7458 88.2179 13.5618 88.0364 11.4325 88.3928C9.30311 88.7493 7.29499 89.6325 5.58842 90.9633C3.88184 92.2942 2.53023 94.0308 1.65492 96.0175C0.779624 98.0041 0.408036 100.179 0.573522 102.345C0.739009 104.512 1.43639 106.604 2.60305 108.433C3.76972 110.261 5.36914 111.769 7.25773 112.822" fill="#EEEEEE"/>
<path d="M180.939 43.656C182.919 43.2512 184.679 42.1201 185.877 40.4824C187.076 38.8446 187.627 36.8169 187.424 34.7931C187.221 32.7692 186.278 30.8935 184.779 29.5301C183.279 28.1666 181.33 27.4128 179.31 27.4148H177.257C176.717 25.3105 175.667 23.3742 174.2 21.7796C172.733 20.185 170.896 18.9821 168.854 18.2788C166.811 17.5756 164.627 17.394 162.498 17.7505C160.369 18.1069 158.36 18.9902 156.654 20.321C154.947 21.6518 153.596 23.3885 152.72 25.3752C151.845 27.3618 151.473 29.5362 151.639 31.7031C151.804 33.8701 152.502 35.9617 153.668 37.7903C154.835 39.6188 156.435 41.127 158.323 42.1795" fill="#CCCCCC"/>
</svg>
