<svg width="40" height="40" viewBox="0 0 40 40" fill="none" xmlns="http://www.w3.org/2000/svg">
<path d="M0 20C0 8.95431 8.95431 0 20 0C31.0457 0 40 8.95431 40 20C40 31.0457 31.0457 40 20 40C8.95431 40 0 31.0457 0 20Z" fill="#FEC863"/>
<path d="M21.6648 17.2225C21.6648 17.5521 21.5671 17.8744 21.3839 18.1484C21.2008 18.4225 20.9405 18.6361 20.6359 18.7623C20.3314 18.8884 19.9963 18.9214 19.673 18.8571C19.3497 18.7928 19.0527 18.6341 18.8196 18.401C18.5865 18.1679 18.4278 17.8709 18.3635 17.5476C18.2992 17.2243 18.3322 16.8892 18.4583 16.5847C18.5845 16.2801 18.7981 16.0198 19.0722 15.8367C19.3463 15.6536 19.6685 15.5558 19.9981 15.5558C20.4402 15.5558 20.8641 15.7314 21.1767 16.044C21.4892 16.3565 21.6648 16.7805 21.6648 17.2225ZM28.9615 23.6217C29.0601 23.7358 29.1259 23.8745 29.1518 24.023C29.1778 24.1716 29.1629 24.3244 29.1089 24.4652C29.0548 24.606 28.9636 24.7295 28.8449 24.8225C28.7262 24.9155 28.5844 24.9745 28.4348 24.9933L25.3748 25.3767L24.9915 28.4367C24.9708 28.6014 24.9015 28.7562 24.7923 28.8812C24.6831 29.0063 24.539 29.0958 24.3785 29.1385C24.2181 29.1811 24.0486 29.1748 23.8917 29.1204C23.7348 29.0661 23.5978 28.9661 23.4981 28.8333L19.9981 24.1667L16.4981 28.8333C16.3985 28.9661 16.2614 29.0661 16.1046 29.1204C15.9477 29.1748 15.7782 29.1811 15.6177 29.1385C15.4573 29.0958 15.3132 29.0063 15.204 28.8812C15.0948 28.7562 15.0254 28.6014 15.0048 28.4367L14.6215 25.3767L11.5615 24.9933C11.4118 24.9745 11.2701 24.9155 11.1514 24.8225C11.0327 24.7295 10.9415 24.606 10.8874 24.4652C10.8334 24.3244 10.8185 24.1716 10.8445 24.023C10.8704 23.8745 10.9362 23.7358 11.0348 23.6217L14.2231 19.9367C13.7622 18.9628 13.5551 17.8883 13.6209 16.8129C13.6868 15.7375 14.0235 14.6962 14.5998 13.7859C15.1761 12.8756 15.9732 12.1258 16.917 11.6062C17.8608 11.0867 18.9207 10.8142 19.9981 10.8142C21.0755 10.8142 22.1354 11.0867 23.0793 11.6062C24.0231 12.1258 24.8202 12.8756 25.3965 13.7859C25.9728 14.6962 26.3095 15.7375 26.3754 16.8129C26.4412 17.8883 26.2341 18.9628 25.7731 19.9367L28.9615 23.6217ZM18.4723 23.4233C18.4548 23.4233 18.4381 23.4108 18.4206 23.4058C17.164 23.0825 16.0353 22.385 15.184 21.4058C15.179 21.4 15.1723 21.3958 15.1673 21.3892L13.3148 23.5333L15.4715 23.8025C15.6556 23.8254 15.8268 23.909 15.9579 24.0402C16.0891 24.1714 16.1728 24.3426 16.1956 24.5267L16.4023 26.1833L18.4723 23.4233ZM24.7223 17.2225C24.7225 16.2885 24.4457 15.3754 23.9269 14.5988C23.4082 13.8221 22.6708 13.2166 21.808 12.859C20.9452 12.5014 19.9957 12.4077 19.0796 12.5897C18.1635 12.7717 17.322 13.2212 16.6614 13.8815C16.0008 14.5417 15.5508 15.383 15.3683 16.299C15.1858 17.215 15.2791 18.1645 15.6362 19.0275C15.9934 19.8905 16.5984 20.6283 17.3748 21.1474C18.1512 21.6666 19.0642 21.9438 19.9981 21.9442C21.2501 21.9428 22.4504 21.445 23.3357 20.5598C24.221 19.6746 24.7191 18.4744 24.7206 17.2225H24.7223ZM26.6815 23.5333L24.8315 21.3925C23.9772 22.3774 22.8438 23.0795 21.5815 23.4058C21.564 23.4108 21.5473 23.4192 21.5298 23.4233L23.5998 26.1833L23.8065 24.5267C23.8294 24.3426 23.913 24.1714 24.0442 24.0402C24.1754 23.909 24.3466 23.8254 24.5306 23.8025L26.6815 23.5333Z" fill="#282C3F"/>
</svg>
