<svg width="40" height="40" viewBox="0 0 40 40" fill="none" xmlns="http://www.w3.org/2000/svg">
<path d="M0 20C0 8.95431 8.95431 0 20 0C31.0457 0 40 8.95431 40 20C40 31.0457 31.0457 40 20 40C8.95431 40 0 31.0457 0 20Z" fill="#DE4B9B"/>
<path d="M36.706 31H18C11.9249 31 7 26.0751 7 20C7 13.9249 11.9249 9 18 9H22.8955C24.5524 9 25.8955 10.3431 25.8955 12C25.8955 13.6569 24.5524 15 22.8955 15H18C15.2386 15 13 17.2386 13 20C13 22.7614 15.2386 25 18 25H39.3699C38.8131 27.1633 37.9035 29.185 36.706 31Z" fill="#FE9FD3"/>
<path fill-rule="evenodd" clip-rule="evenodd" d="M25 8C26.6569 8 28 9.34315 28 11V29C28 30.6569 26.6569 32 25 32C23.3431 32 22 30.6569 22 29V11C22 9.34315 23.3431 8 25 8Z" fill="#F8DBEB"/>
</svg>
