<svg width="20" height="20" viewBox="0 0 20 20" fill="none" xmlns="http://www.w3.org/2000/svg">
<path d="M3.33333 19.1663C3.11232 19.1663 2.90036 19.0785 2.74408 18.9223C2.5878 18.766 2.5 18.554 2.5 18.333V15.833C2.5 15.612 2.5878 15.4 2.74408 15.2438C2.90036 15.0875 3.11232 14.9997 3.33333 14.9997C3.55435 14.9997 3.76631 15.0875 3.92259 15.2438C4.07887 15.4 4.16667 15.612 4.16667 15.833V18.333C4.16667 18.554 4.07887 18.766 3.92259 18.9223C3.76631 19.0785 3.55435 19.1663 3.33333 19.1663ZM10.8333 18.333V12.4997C10.8333 12.2787 10.7455 12.0667 10.5893 11.9104C10.433 11.7541 10.221 11.6663 10 11.6663C9.77899 11.6663 9.56702 11.7541 9.41074 11.9104C9.25446 12.0667 9.16667 12.2787 9.16667 12.4997V18.333C9.16667 18.554 9.25446 18.766 9.41074 18.9223C9.56702 19.0785 9.77899 19.1663 10 19.1663C10.221 19.1663 10.433 19.0785 10.5893 18.9223C10.7455 18.766 10.8333 18.554 10.8333 18.333ZM16.6667 9.16634C16.4457 9.16634 16.2337 9.25414 16.0774 9.41042C15.9211 9.5667 15.8333 9.77866 15.8333 9.99967V18.333C15.8333 18.554 15.9211 18.766 16.0774 18.9223C16.2337 19.0785 16.4457 19.1663 16.6667 19.1663C16.8877 19.1663 17.0996 19.0785 17.2559 18.9223C17.4122 18.766 17.5 18.554 17.5 18.333V9.99967C17.5 9.77866 17.4122 9.5667 17.2559 9.41042C17.0996 9.25414 16.8877 9.16634 16.6667 9.16634ZM16.985 0.897174C16.8842 0.854928 16.776 0.833118 16.6667 0.833008H13.3333C13.1123 0.833008 12.9004 0.920805 12.7441 1.07709C12.5878 1.23337 12.5 1.44533 12.5 1.66634C12.5 1.88735 12.5878 2.09932 12.7441 2.2556C12.9004 2.41188 13.1123 2.49967 13.3333 2.49967H14.655L10 7.15467L7.25583 4.41051C7.09956 4.25428 6.88764 4.16652 6.66667 4.16652C6.4457 4.16652 6.23377 4.25428 6.0775 4.41051L2.74417 7.74384C2.59237 7.90101 2.50837 8.11151 2.51027 8.33001C2.51217 8.54851 2.59981 8.75752 2.75432 8.91202C2.90882 9.06653 3.11783 9.15417 3.33633 9.15607C3.55483 9.15797 3.76533 9.07397 3.9225 8.92217L6.66667 6.17801L9.41083 8.92217C9.56711 9.0784 9.77903 9.16616 10 9.16616C10.221 9.16616 10.4329 9.0784 10.5892 8.92217L15.8333 3.67801V4.99967C15.8333 5.22069 15.9211 5.43265 16.0774 5.58893C16.2337 5.74521 16.4457 5.83301 16.6667 5.83301C16.8877 5.83301 17.0996 5.74521 17.2559 5.58893C17.4122 5.43265 17.5 5.22069 17.5 4.99967V1.66634C17.4998 1.50158 17.4508 1.34058 17.3591 1.20368C17.2675 1.06677 17.1373 0.960112 16.985 0.897174Z" fill="#282C3F"/>
</svg>
