<svg width="16" height="12" viewBox="0 0 16 12" fill="none" xmlns="http://www.w3.org/2000/svg">
<path d="M9.80463 11.8048C9.67889 11.9262 9.51049 11.9934 9.33569 11.9919C9.16089 11.9904 8.99368 11.9203 8.87008 11.7967C8.74647 11.673 8.67636 11.5058 8.67484 11.331C8.67332 11.1562 8.74052 10.9878 8.86196 10.8621L13.0573 6.66678H1.33329C1.15648 6.66678 0.986912 6.59654 0.861888 6.47151C0.736864 6.34649 0.666626 6.17692 0.666626 6.00011C0.666626 5.8233 0.736864 5.65373 0.861888 5.5287C0.986912 5.40368 1.15648 5.33344 1.33329 5.33344H13.0573L8.86196 1.13811C8.74052 1.01237 8.67332 0.843972 8.67484 0.669174C8.67636 0.494377 8.74647 0.327168 8.87008 0.203563C8.99368 0.0799576 9.16089 0.00984493 9.33569 0.00832598C9.51049 0.00680704 9.67889 0.0740032 9.80463 0.195442L15.138 5.52878C15.1997 5.59084 15.2487 5.66446 15.282 5.74544C15.3158 5.82607 15.3333 5.91265 15.3333 6.00011C15.3333 6.08757 15.3158 6.17415 15.282 6.25478C15.2487 6.33575 15.1997 6.40938 15.138 6.47144L9.80463 11.8048Z" fill="white"/>
</svg>
