<svg width="40" height="40" viewBox="0 0 40 40" fill="none" xmlns="http://www.w3.org/2000/svg">
<path d="M0 20C0 8.95431 8.95431 0 20 0C31.0457 0 40 8.95431 40 20C40 31.0457 31.0457 40 20 40C8.95431 40 0 31.0457 0 20Z" fill="#2E4F97"/>
<path opacity="0.5" fill-rule="evenodd" clip-rule="evenodd" d="M20 16C21.6569 16 23 17.3431 23 19V31C23 32.6569 21.6569 34 20 34C18.3431 34 17 32.6569 17 31V19C17 17.3431 18.3431 16 20 16Z" fill="#BCD1FF"/>
<path fill-rule="evenodd" clip-rule="evenodd" d="M20 14C18.3431 14 17 12.6569 17 11L17 9C17 7.34315 18.3431 6 20 6C21.6569 6 23 7.34315 23 9L23 11C23 12.6569 21.6569 14 20 14Z" fill="#ECF2FF"/>
</svg>
