<svg width="42" height="42" viewBox="0 0 42 42" fill="none" xmlns="http://www.w3.org/2000/svg">
<circle cx="21" cy="21" r="20" stroke="#535665" stroke-width="2"/>
<path d="M13.8621 21.4712C13.8003 21.4092 13.7514 21.3355 13.7181 21.2546C13.6842 21.1739 13.6667 21.0873 13.6667 20.9999C13.6667 20.9124 13.6842 20.8259 13.7181 20.7452C13.7514 20.6642 13.8003 20.5906 13.8621 20.5286L19.1954 15.1952C19.2569 15.1316 19.3305 15.0808 19.4118 15.0458C19.4932 15.0109 19.5806 14.9925 19.6692 14.9917C19.7577 14.991 19.8455 15.0078 19.9274 15.0413C20.0093 15.0749 20.0838 15.1244 20.1463 15.187C20.2089 15.2496 20.2584 15.324 20.292 15.4059C20.3255 15.4879 20.3424 15.5756 20.3416 15.6642C20.3408 15.7527 20.3224 15.8402 20.2875 15.9215C20.2525 16.0028 20.2018 16.0764 20.1381 16.1379L15.9428 20.3332H27.6668C27.8436 20.3332 28.0131 20.4035 28.1382 20.5285C28.2632 20.6535 28.3334 20.8231 28.3334 20.9999C28.3334 21.1767 28.2632 21.3463 28.1382 21.4713C28.0131 21.5963 27.8436 21.6666 27.6668 21.6666H15.9428L20.1381 25.8619C20.2595 25.9876 20.3267 26.156 20.3252 26.3308C20.3237 26.5056 20.2536 26.6728 20.13 26.7964C20.0064 26.92 19.8392 26.9902 19.6644 26.9917C19.4896 26.9932 19.3212 26.926 19.1954 26.8046L13.8621 21.4712Z" fill="white"/>
</svg>
