<svg width="54" height="54" viewBox="0 0 54 54" fill="none" xmlns="http://www.w3.org/2000/svg">
<path d="M0 27C0 12.0883 12.0883 0 27 0C41.9117 0 54 12.0883 54 27C54 41.9117 41.9117 54 27 54C12.0883 54 0 41.9117 0 27Z" fill="#00B3B3"/>
<path fill-rule="evenodd" clip-rule="evenodd" d="M29.7992 22.8C33.6652 22.8 36.7992 25.934 36.7992 29.8C36.7992 33.666 33.6652 36.8 29.7992 36.8H21.5455C19.2259 36.8 17.3455 38.6804 17.3455 41C17.3455 43.3196 19.2259 45.2 21.5455 45.2H29.7992C38.3044 45.2 45.1992 38.3052 45.1992 29.8C45.1992 21.2948 38.3044 14.4 29.7992 14.4H10.1992C7.87962 14.4 5.99922 16.2804 5.99922 18.6C5.99922 20.9196 7.87962 22.8 10.1992 22.8H29.7992Z" fill="#CCF0F0"/>
<path d="M25.2008 0C22.2409 0.293873 19.4167 1.04867 16.8008 2.19159V43.2617C16.8008 45.5813 18.6812 47.4617 21.0008 47.4617C23.3204 47.4617 25.2008 45.5813 25.2008 43.2617V0Z" fill="#7FEEEE"/>
</svg>
