<svg width="62" height="80" viewBox="0 0 62 80" fill="none" xmlns="http://www.w3.org/2000/svg">
<path d="M56.4324 79.37H4.73792C2.46894 79.37 0.629883 77.5307 0.629883 75.262V4.73791C0.629568 2.46925 2.46894 0.629883 4.73792 0.629883H56.4324C58.7014 0.629883 60.5404 2.46925 60.5404 4.73791V75.2617C60.5407 77.5307 58.7014 79.37 56.4324 79.37Z" fill="#E0EBFC"/>
<path d="M5.76514 27.1617V7.4767C5.76514 6.53119 6.53144 5.76489 7.47695 5.76489H27.162C28.1075 5.76489 28.8738 6.53119 28.8738 7.4767V27.1617C28.8738 28.1073 28.1075 28.8736 27.162 28.8736H7.47695C6.53144 28.8736 5.76514 28.1073 5.76514 27.1617Z" fill="#4671C6"/>
<path d="M19.2875 59.9996H7.1341C6.37788 59.9996 5.76465 59.3864 5.76465 58.6302C5.76465 57.874 6.37788 57.2607 7.1341 57.2607H19.2875C20.0437 57.2607 20.6569 57.874 20.6569 58.6302C20.6569 59.3864 20.044 59.9996 19.2875 59.9996Z" fill="#A4C9FF"/>
<path d="M23.3965 67.608H7.13507C6.37885 67.608 5.76562 66.9948 5.76562 66.2386C5.76562 65.4824 6.37885 64.8691 7.13507 64.8691H23.3965C24.1527 64.8691 24.7659 65.4824 24.7659 66.2386C24.7659 66.9948 24.1527 67.608 23.3965 67.608Z" fill="#A4C9FF"/>
<path d="M23.3965 74.6334H7.13507C6.37885 74.6334 5.76562 74.0202 5.76562 73.264C5.76562 72.5078 6.37885 71.8945 7.13507 71.8945H23.3965C24.1527 71.8945 24.7659 72.5078 24.7659 73.264C24.7659 74.0205 24.1527 74.6334 23.3965 74.6334Z" fill="#A4C9FF"/>
<path d="M54.0365 67.608H30.2435C29.4873 67.608 28.874 66.9948 28.874 66.2386C28.874 65.4824 29.4873 64.8691 30.2435 64.8691H54.0365C54.7928 64.8691 55.406 65.4824 55.406 66.2386C55.4057 66.9948 54.7928 67.608 54.0365 67.608Z" fill="#A4C9FF"/>
<path d="M54.0365 74.6334H30.2435C29.4873 74.6334 28.874 74.0202 28.874 73.264C28.874 72.5078 29.4873 71.8945 30.2435 71.8945H54.0365C54.7928 71.8945 55.406 72.5078 55.406 73.264C55.4057 74.0205 54.7928 74.6334 54.0365 74.6334Z" fill="#A4C9FF"/>
<path d="M7.1341 40.3185H30.9272C31.6834 40.3185 32.2966 39.7053 32.2966 38.949C32.2966 38.1928 31.6834 37.5796 30.9272 37.5796H7.1341C6.37788 37.5796 5.76465 38.1928 5.76465 38.949C5.76496 39.7056 6.37788 40.3185 7.1341 40.3185Z" fill="#A4C9FF"/>
<path d="M7.1341 48.2374H30.9272C31.6834 48.2374 32.2966 47.6242 32.2966 46.868C32.2966 46.1118 31.6834 45.4985 30.9272 45.4985H7.1341C6.37788 45.4985 5.76465 46.1118 5.76465 46.868C5.76496 47.6245 6.37788 48.2374 7.1341 48.2374Z" fill="#A4C9FF"/>
<path d="M17.3192 20.0002C20.3405 20.0002 22.7897 17.5509 22.7897 14.5296C22.7897 11.5083 20.3405 9.05908 17.3192 9.05908C14.2979 9.05908 11.8486 11.5083 11.8486 14.5296C11.8486 17.5509 14.2979 20.0002 17.3192 20.0002Z" fill="#F9CFCF"/>
<path d="M24.1889 28.8588H10.4487V26.8707C10.4487 23.0764 13.5246 20.0005 17.319 20.0005C21.1133 20.0005 24.1892 23.0764 24.1892 26.8707V28.8588H24.1889Z" fill="#F9A7A7"/>
<path d="M45.4214 32.9248V42.9087H35.4375C35.4375 37.3947 39.9074 32.9248 45.4214 32.9248Z" fill="#4671C6"/>
<path d="M45.4214 32.9248C50.9355 32.9248 55.4054 37.3947 55.4054 42.9087C55.4054 48.4228 50.9355 52.8927 45.4214 52.8927C39.9074 52.8927 35.4375 48.4228 35.4375 42.9087H45.4214V32.9248Z" fill="#6BDDDD"/>
<path d="M54.0363 22.8208C36.6306 22.8208 41.613 22.8208 33.8958 22.8208C33.1396 22.8208 32.5264 23.4337 32.5264 24.1902C32.5264 24.9465 33.1396 25.5597 33.8958 25.5597C40.4344 25.5597 46.3377 25.5597 54.0363 25.5597C54.7925 25.5597 55.4057 24.9465 55.4057 24.1902C55.4054 23.4337 54.7925 22.8208 54.0363 22.8208Z" fill="#A4C9FF"/>
<path d="M33.8953 10.9254C38.0947 10.9254 28.564 10.9254 49.9278 10.9254C50.684 10.9254 51.2972 10.3125 51.2972 9.55597C51.2972 8.79975 50.684 8.18652 49.9278 8.18652C35.7712 8.18652 40.2043 8.18652 33.8953 8.18652C33.1391 8.18652 32.5259 8.79975 32.5259 9.55597C32.5259 10.3122 33.1391 10.9254 33.8953 10.9254Z" fill="#A4C9FF"/>
<path d="M33.8953 18.5338C40.4339 18.5338 46.3372 18.5338 54.0358 18.5338C54.792 18.5338 55.4053 17.9209 55.4053 17.1644C55.4053 16.4082 54.792 15.7949 54.0358 15.7949C36.6301 15.7949 41.6125 15.7949 33.8953 15.7949C33.1391 15.7949 32.5259 16.4082 32.5259 17.1644C32.5259 17.9206 33.1391 18.5338 33.8953 18.5338Z" fill="#A4C9FF"/>
<path d="M56.4324 80H4.73795C2.12535 80 3.49963e-08 77.8743 3.49963e-08 75.262V4.73795C-0.000314926 2.12567 2.12535 0 4.73795 0H56.4328C59.0453 0 61.1707 2.12567 61.1707 4.73795V75.2617C61.1707 77.8743 59.045 80 56.4324 80ZM4.73795 1.25984C2.82016 1.25984 1.25984 2.82016 1.25984 4.73795V75.2617C1.25984 77.1795 2.82016 78.7398 4.73795 78.7398H56.4328C58.3505 78.7398 59.9109 77.1795 59.9109 75.2617V4.73795C59.9109 2.82016 58.3505 1.25984 56.4324 1.25984H4.73795Z" fill="#3762CC"/>
<path d="M27.1615 29.5035H7.4765C6.18516 29.5035 5.13477 28.4531 5.13477 27.1618V7.47674C5.13477 6.1854 6.18516 5.13501 7.4765 5.13501H27.1615C28.4529 5.13501 29.5033 6.1854 29.5033 7.47674V27.1618C29.5033 28.4531 28.4529 29.5035 27.1615 29.5035ZM7.4765 6.39485C6.87996 6.39485 6.39461 6.88021 6.39461 7.47674V27.1618C6.39461 27.7583 6.87996 28.2437 7.4765 28.2437H27.1615C27.7581 28.2437 28.2434 27.7583 28.2434 27.1618V7.47674C28.2434 6.88021 27.7581 6.39485 27.1615 6.39485H7.4765Z" fill="#3762CC"/>
<path d="M17.3187 20.6301C13.955 20.6301 11.2183 17.8935 11.2183 14.5297C11.2183 11.1659 13.955 8.4292 17.3187 8.4292C20.6825 8.4292 23.4192 11.1659 23.4192 14.5297C23.4192 17.8935 20.6825 20.6301 17.3187 20.6301ZM17.3187 9.68936C14.6498 9.68936 12.4781 11.861 12.4781 14.53C12.4781 17.199 14.6498 19.3706 17.3187 19.3706C19.9877 19.3706 22.1594 17.199 22.1594 14.53C22.1594 11.861 19.9877 9.68936 17.3187 9.68936Z" fill="#3762CC"/>
<path d="M24.1892 29.4885H10.4488C10.1011 29.4885 9.81885 29.2063 9.81885 28.8586V26.8703C9.81885 22.7348 13.1836 19.3701 17.319 19.3701C21.4544 19.3701 24.8192 22.7345 24.8192 26.8703V28.8586C24.8192 29.2063 24.5373 29.4885 24.1892 29.4885ZM11.0787 28.2287H23.5593V26.8703C23.5593 23.4293 20.7599 20.63 17.319 20.63C13.8781 20.63 11.0787 23.4293 11.0787 26.8703V28.2287Z" fill="#3762CC"/>
</svg>
