<svg width="40" height="40" viewBox="0 0 40 40" fill="none" xmlns="http://www.w3.org/2000/svg">
<path d="M0 20C0 8.95431 8.95431 0 20 0C31.0457 0 40 8.95431 40 20C40 31.0457 31.0457 40 20 40C8.95431 40 0 31.0457 0 20Z" fill="#5054CF"/>
<path fill-rule="evenodd" clip-rule="evenodd" d="M19.5749 13.4238C17.241 12.0234 14.3866 11.7947 11.8594 12.8056C11.4914 12.9528 11.25 13.3093 11.25 13.7057V23.4215C11.25 24.0723 11.9073 24.5173 12.5116 24.2756C14.581 23.4478 16.9185 23.6351 18.8297 24.7818L19.7758 25.3495C19.8479 25.3928 19.9251 25.4117 20 25.4104C20.0749 25.4117 20.1521 25.3928 20.2242 25.3495L21.1703 24.7818C23.0815 23.6351 25.419 23.4478 27.4884 24.2756C28.0927 24.5173 28.75 24.0723 28.75 23.4215V13.7057C28.75 13.3093 28.5086 12.9528 28.1406 12.8056C25.6134 11.7947 22.759 12.0234 20.4251 13.4238L20 13.6788L19.5749 13.4238ZM20.625 15.4148C20.625 15.0696 20.3452 14.7898 20 14.7898C19.6548 14.7898 19.375 15.0696 19.375 15.4148V23.3314C19.375 23.6766 19.6548 23.9564 20 23.9564C20.3452 23.9564 20.625 23.6766 20.625 23.3314V15.4148Z" fill="white"/>
<path d="M12.2707 25.8666C13.9572 24.8828 16.0428 24.8828 17.7293 25.8666L18.6353 26.3952C19.4786 26.8871 20.5214 26.8871 21.3647 26.3952L22.2707 25.8666C23.9572 24.8828 26.0428 24.8828 27.7293 25.8666L27.8149 25.9166C28.1131 26.0905 28.2138 26.4732 28.0399 26.7713C27.8659 27.0695 27.4832 27.1702 27.1851 26.9963L27.0995 26.9463C25.8021 26.1896 24.1979 26.1896 22.9005 26.9463L21.9945 27.4749C20.762 28.1938 19.238 28.1938 18.0055 27.4749L17.0995 26.9463C15.8021 26.1896 14.1979 26.1896 12.9005 26.9463L12.8149 26.9963C12.5168 27.1702 12.1341 27.0695 11.9601 26.7713C11.7862 26.4732 11.8869 26.0905 12.1851 25.9166L12.2707 25.8666Z" fill="white"/>
</svg>
