<svg width="24" height="24" viewBox="0 0 24 24" fill="none" xmlns="http://www.w3.org/2000/svg">
<path d="M7.29243 15.2929L10.5854 11.9999L7.29243 8.70692C7.19692 8.61467 7.12074 8.50433 7.06833 8.38232C7.01592 8.26032 6.98833 8.1291 6.98718 7.99632C6.98603 7.86354 7.01133 7.73186 7.06161 7.60897C7.11189 7.48607 7.18614 7.37442 7.28004 7.28052C7.37393 7.18663 7.48558 7.11238 7.60848 7.0621C7.73137 7.01182 7.86305 6.98651 7.99583 6.98767C8.12861 6.98882 8.25983 7.01641 8.38183 7.06882C8.50384 7.12123 8.61418 7.19741 8.70643 7.29292L11.9994 10.5859L15.2924 7.29292C15.3847 7.19741 15.495 7.12123 15.617 7.06882C15.739 7.01641 15.8702 6.98882 16.003 6.98767C16.1358 6.98651 16.2675 7.01182 16.3904 7.0621C16.5133 7.11238 16.6249 7.18663 16.7188 7.28052C16.8127 7.37442 16.887 7.48607 16.9373 7.60897C16.9875 7.73186 17.0128 7.86354 17.0117 7.99632C17.0105 8.1291 16.9829 8.26032 16.9305 8.38232C16.8781 8.50433 16.8019 8.61467 16.7064 8.70692L13.4134 11.9999L16.7064 15.2929C16.8019 15.3852 16.8781 15.4955 16.9305 15.6175C16.9829 15.7395 17.0105 15.8707 17.0117 16.0035C17.0128 16.1363 16.9875 16.268 16.9373 16.3909C16.887 16.5138 16.8127 16.6254 16.7188 16.7193C16.6249 16.8132 16.5133 16.8875 16.3904 16.9377C16.2675 16.988 16.1358 17.0133 16.003 17.0122C15.8702 17.011 15.739 16.9834 15.617 16.931C15.495 16.8786 15.3847 16.8024 15.2924 16.7069L11.9994 13.4139L8.70643 16.7069C8.61418 16.8024 8.50384 16.8786 8.38183 16.931C8.25983 16.9834 8.12861 17.011 7.99583 17.0122C7.86305 17.0133 7.73137 16.988 7.60848 16.9377C7.48558 16.8875 7.37393 16.8132 7.28004 16.7193C7.18614 16.6254 7.11189 16.5138 7.06161 16.3909C7.01133 16.268 6.98603 16.1363 6.98718 16.0035C6.98833 15.8707 7.01592 15.7395 7.06833 15.6175C7.12074 15.4955 7.19692 15.3852 7.29243 15.2929Z" fill="white"/>
</svg>
