<svg width="66" height="66" viewBox="0 0 66 66" fill="none" xmlns="http://www.w3.org/2000/svg">
<rect width="66" height="66" rx="33" fill="#0061FF"/>
<path d="M45.3781 23.8198C45.588 24.065 45.7507 24.3521 45.857 24.6647C45.9634 24.9773 46.0112 25.3093 45.9978 25.6418C45.9844 25.9742 45.9101 26.3005 45.779 26.6022C45.6479 26.9038 45.4627 27.1748 45.2339 27.3997L31.0519 41.3338C30.6028 41.7751 30.0122 42.0136 29.4031 41.9994C28.7941 41.9852 28.2136 41.7196 27.7829 41.2578L20.6919 33.6574C20.2486 33.182 19.9998 32.5374 20 31.8653C20.0002 31.1932 20.2495 30.5488 20.693 30.0738C21.1366 29.5987 21.738 29.332 22.365 29.3322C22.992 29.3324 23.5933 29.5996 24.0365 30.075L29.5273 35.9603L42.0406 23.6653C42.5025 23.2118 43.1134 22.9734 43.7392 23.0024C44.365 23.0313 44.9544 23.3254 45.3781 23.8198Z" fill="white"/>
</svg>
