<svg width="66" height="66" viewBox="0 0 66 66" fill="none" xmlns="http://www.w3.org/2000/svg">
<path d="M25.1527 38.4885L30.6411 33.0002L25.1527 27.5119C24.9936 27.3581 24.8666 27.1742 24.7792 26.9709C24.6919 26.7675 24.6459 26.5488 24.644 26.3275C24.6421 26.1062 24.6842 25.8868 24.768 25.6819C24.8518 25.4771 24.9756 25.291 25.1321 25.1345C25.2886 24.978 25.4747 24.8543 25.6795 24.7705C25.8843 24.6867 26.1038 24.6445 26.3251 24.6464C26.5464 24.6484 26.7651 24.6943 26.9684 24.7817C27.1718 24.869 27.3557 24.996 27.5094 25.1552L32.9977 30.6435L38.4861 25.1552C38.6398 24.996 38.8237 24.869 39.0271 24.7817C39.2304 24.6943 39.4491 24.6484 39.6704 24.6464C39.8917 24.6445 40.1112 24.6867 40.316 24.7705C40.5208 24.8543 40.7069 24.978 40.8634 25.1345C41.0199 25.291 41.1437 25.4771 41.2275 25.6819C41.3113 25.8868 41.3534 26.1062 41.3515 26.3275C41.3496 26.5488 41.3036 26.7675 41.2163 26.9709C41.1289 27.1742 41.0019 27.3581 40.8427 27.5119L35.3544 33.0002L40.8427 38.4885C41.0019 38.6423 41.1289 38.8262 41.2163 39.0295C41.3036 39.2329 41.3496 39.4516 41.3515 39.6729C41.3534 39.8942 41.3113 40.1136 41.2275 40.3184C41.1437 40.5233 41.0199 40.7094 40.8634 40.8658C40.7069 41.0223 40.5208 41.1461 40.316 41.2299C40.1112 41.3137 39.8917 41.3559 39.6704 41.3539C39.4491 41.352 39.2304 41.306 39.0271 41.2187C38.8237 41.1313 38.6398 41.0044 38.4861 40.8452L32.9977 35.3569L27.5094 40.8452C27.3557 41.0044 27.1718 41.1313 26.9684 41.2187C26.7651 41.306 26.5464 41.352 26.3251 41.3539C26.1038 41.3559 25.8843 41.3137 25.6795 41.2299C25.4747 41.1461 25.2886 41.0223 25.1321 40.8658C24.9756 40.7094 24.8518 40.5233 24.768 40.3184C24.6842 40.1136 24.6421 39.8942 24.644 39.6729C24.6459 39.4516 24.6919 39.2329 24.7792 39.0295C24.8666 38.8262 24.9936 38.6423 25.1527 38.4885Z" fill="white"/>
<rect x="0.5" y="0.5" width="65" height="65" rx="32.5" stroke="#0061FF"/>
</svg>
