<svg width="32" height="32" viewBox="0 0 32 32" fill="none" xmlns="http://www.w3.org/2000/svg">
<circle cx="16" cy="16" r="16" fill="white"/>
<path d="M17.831 16.782C17.6001 16.551 17.4704 16.2377 17.4704 15.911C17.4704 15.5844 17.6001 15.2711 17.831 15.04L22.605 10.265C22.6739 10.1962 22.7284 10.1145 22.7657 10.0246C22.8029 9.93472 22.8221 9.83834 22.8221 9.74103C22.8221 9.64371 22.8029 9.54737 22.7657 9.45746C22.7284 9.36755 22.6739 9.28585 22.605 9.21704C22.5362 9.14823 22.4545 9.09364 22.3646 9.0564C22.2747 9.01916 22.1784 9 22.081 9C21.9837 9 21.8874 9.01916 21.7975 9.0564C21.7076 9.09364 21.6259 9.14823 21.557 9.21704L16.7831 13.992C16.552 14.223 16.2387 14.3527 15.912 14.3527C15.5854 14.3527 15.2721 14.223 15.041 13.992L10.265 9.21704C10.1261 9.07807 9.93758 9 9.74105 9C9.54451 9 9.35602 9.07807 9.21705 9.21704C9.07808 9.35601 9 9.54449 9 9.74103C9 9.93757 9.07808 10.1261 9.21705 10.265L13.9921 15.04C14.1065 15.1544 14.1973 15.2902 14.2593 15.4396C14.3213 15.5891 14.3531 15.7493 14.3531 15.911C14.3531 16.0728 14.3213 16.233 14.2593 16.3825C14.1973 16.5319 14.1065 16.6677 13.9921 16.782L9.21705 21.557C9.14824 21.6258 9.09365 21.7075 9.05641 21.7975C9.01917 21.8874 9 21.9837 9 22.081C9 22.1783 9.01917 22.2747 9.05641 22.3646C9.09365 22.4545 9.14824 22.5362 9.21705 22.605C9.28586 22.6739 9.36755 22.7284 9.45746 22.7657C9.54737 22.8029 9.64373 22.8221 9.74105 22.8221C9.83836 22.8221 9.93473 22.8029 10.0246 22.7657C10.1145 22.7284 10.1962 22.6739 10.265 22.605L15.041 17.83C15.1554 17.7156 15.2912 17.6247 15.4406 17.5628C15.5901 17.5008 15.7503 17.4689 15.912 17.4689C16.0738 17.4689 16.234 17.5008 16.3835 17.5628C16.5329 17.6247 16.6687 17.7156 16.7831 17.83L21.557 22.605C21.696 22.744 21.8845 22.8221 22.081 22.8221C22.2776 22.8221 22.4661 22.744 22.605 22.605C22.744 22.4661 22.8221 22.2776 22.8221 22.081C22.8221 21.8845 22.744 21.696 22.605 21.557L17.831 16.782Z" fill="#282C3F"/>
</svg>
