<svg width="14" height="14" viewBox="0 0 14 14" fill="none" xmlns="http://www.w3.org/2000/svg">
<path d="M0.577677 12.2443L5.82184 7.00015L0.577677 1.75598C0.425878 1.59881 0.341883 1.38831 0.343782 1.16981C0.34568 0.951317 0.433321 0.742307 0.587828 0.5878C0.742335 0.433293 0.951345 0.345652 1.16984 0.343754C1.38834 0.341855 1.59884 0.425851 1.75601 0.577649L7.00018 5.82182L12.2443 0.577649C12.3212 0.498057 12.4132 0.434572 12.5148 0.390898C12.6165 0.347224 12.7259 0.324235 12.8365 0.323274C12.9472 0.322312 13.0569 0.343397 13.1593 0.385297C13.2617 0.427198 13.3548 0.489076 13.433 0.56732C13.5112 0.645564 13.5731 0.738607 13.615 0.841021C13.6569 0.943434 13.678 1.05317 13.6771 1.16382C13.6761 1.27447 13.6531 1.38382 13.6094 1.48549C13.5658 1.58716 13.5023 1.67911 13.4227 1.75598L8.17851 7.00015L13.4227 12.2443C13.5023 12.3212 13.5658 12.4131 13.6094 12.5148C13.6531 12.6165 13.6761 12.7258 13.6771 12.8365C13.678 12.9471 13.6569 13.0569 13.615 13.1593C13.5731 13.2617 13.5112 13.3547 13.433 13.433C13.3548 13.5112 13.2617 13.5731 13.1593 13.615C13.0569 13.6569 12.9472 13.678 12.8365 13.677C12.7259 13.6761 12.6165 13.6531 12.5148 13.6094C12.4132 13.5657 12.3212 13.5022 12.2443 13.4226L7.00018 8.17848L1.75601 13.4226C1.59884 13.5744 1.38834 13.6584 1.16984 13.6565C0.951345 13.6546 0.742335 13.567 0.587828 13.4125C0.433321 13.258 0.34568 13.049 0.343782 12.8305C0.341883 12.612 0.425878 12.4015 0.577677 12.2443Z" fill="black"/>
</svg>
