<svg width="16" height="16" viewBox="0 0 16 16" fill="none" xmlns="http://www.w3.org/2000/svg">
<path d="M11.1377 5.80488L8.94239 8.00022L11.1377 10.1956C11.2014 10.257 11.2522 10.3306 11.2871 10.4119C11.3221 10.4933 11.3405 10.5808 11.3412 10.6693C11.342 10.7578 11.3251 10.8456 11.2916 10.9275C11.2581 11.0095 11.2086 11.0839 11.146 11.1465C11.0834 11.2091 11.009 11.2586 10.927 11.2921C10.8451 11.3256 10.7573 11.3425 10.6688 11.3417C10.5803 11.3409 10.4928 11.3226 10.4115 11.2876C10.3301 11.2527 10.2566 11.2019 10.1951 11.1382L7.99973 8.94288L5.80439 11.1382C5.7429 11.2019 5.66933 11.2527 5.588 11.2876C5.50666 11.3226 5.41918 11.3409 5.33066 11.3417C5.24214 11.3425 5.15436 11.3256 5.07243 11.2921C4.99049 11.2586 4.91606 11.2091 4.85347 11.1465C4.79087 11.0839 4.74137 11.0095 4.70785 10.9275C4.67433 10.8456 4.65746 10.7578 4.65823 10.6693C4.659 10.5808 4.67739 10.4933 4.71233 10.4119C4.74727 10.3306 4.79806 10.257 4.86173 10.1956L7.05706 8.00022L4.86173 5.80488C4.79806 5.74339 4.74727 5.66982 4.71233 5.58849C4.67739 5.50715 4.659 5.41967 4.65823 5.33115C4.65746 5.24263 4.67433 5.15485 4.70785 5.07291C4.74137 4.99098 4.79087 4.91655 4.85347 4.85395C4.91606 4.79136 4.99049 4.74186 5.07243 4.70834C5.15436 4.67482 5.24214 4.65795 5.33066 4.65872C5.41918 4.65949 5.50666 4.67788 5.588 4.71282C5.66933 4.74776 5.7429 4.79854 5.80439 4.86222L7.99973 7.05755L10.1951 4.86222C10.2566 4.79854 10.3301 4.74776 10.4115 4.71282C10.4928 4.67788 10.5803 4.65949 10.6688 4.65872C10.7573 4.65795 10.8451 4.67482 10.927 4.70834C11.009 4.74186 11.0834 4.79136 11.146 4.85395C11.2086 4.91655 11.2581 4.99098 11.2916 5.07291C11.3251 5.15485 11.342 5.24263 11.3412 5.33115C11.3405 5.41967 11.3221 5.50715 11.2871 5.58849C11.2522 5.66982 11.2014 5.74339 11.1377 5.80488Z" fill="#282C3F"/>
</svg>
