<svg width="40" height="40" viewBox="0 0 40 40" fill="none" xmlns="http://www.w3.org/2000/svg">
<path d="M20.8346 8.74935C20.8346 6.21768 18.783 4.16602 16.2513 4.16602C13.7196 4.16602 11.668 6.21768 11.668 8.74935C11.668 8.89102 11.6763 9.03018 11.6888 9.16852C11.6821 9.16852 11.6755 9.16602 11.668 9.16602C9.36713 9.16602 7.5013 11.0318 7.5013 13.3327C7.5013 13.9902 7.66713 14.6043 7.9388 15.1577C5.77297 15.706 4.16797 17.6627 4.16797 19.9993C4.16797 22.336 5.77297 24.2927 7.9388 24.841C7.66713 25.3943 7.5013 26.0085 7.5013 26.666C7.5013 28.9668 9.36713 30.8327 11.668 30.8327C11.6755 30.8327 11.6821 30.8302 11.6888 30.8302C11.6763 30.9685 11.668 31.1077 11.668 31.2493C11.668 33.781 13.7196 35.8327 16.2513 35.8327C18.783 35.8327 20.8346 33.781 20.8346 31.2493C20.8346 31.1085 20.8346 8.89018 20.8346 8.74935Z" fill="#F55376"/>
<path d="M6.4043 24.1673C6.8668 24.4748 7.38513 24.7032 7.9393 24.8432C8.61846 23.4615 10.0268 22.5007 11.6668 22.5007V20.834C9.34596 20.834 7.34346 22.1998 6.4043 24.1673Z" fill="#EB0000"/>
<path d="M11.883 7.36133C11.743 7.79966 11.668 8.26633 11.668 8.75049C11.668 8.89216 11.6763 9.03133 11.6888 9.16966C11.688 9.16966 11.6871 9.16966 11.6855 9.16966C12.5496 9.7855 13.078 10.783 13.078 11.8822H14.7446C14.7446 9.9255 13.6321 8.18549 11.883 7.36133Z" fill="#EB0000"/>
<path d="M29.9987 34.166H27.4987V29.166H20.832V26.666H29.9987V34.166Z" fill="#8100EF"/>
<path d="M28.7513 30.834C29.9013 30.834 30.8346 31.7673 30.8346 32.9173C30.8346 34.0673 29.9013 35.0007 28.7513 35.0007C27.6013 35.0007 26.668 34.0673 26.668 32.9173C26.668 31.7673 27.6013 30.834 28.7513 30.834Z" fill="#3DD9EB"/>
<path d="M27.4987 16.666H20.832V19.166H27.4987V16.666Z" fill="#8100EF"/>
<path d="M28.7513 15.834C29.9013 15.834 30.8346 16.7673 30.8346 17.9173C30.8346 19.0673 29.9013 20.0007 28.7513 20.0007C27.6013 20.0007 26.668 19.0673 26.668 17.9173C26.668 16.7673 27.6013 15.834 28.7513 15.834Z" fill="#3DD9EB"/>
<path d="M32.4987 21.666H20.832V24.166H32.4987V21.666Z" fill="#8100EF"/>
<path d="M33.7513 20.834C34.9013 20.834 35.8346 21.7673 35.8346 22.9173C35.8346 24.0673 34.9013 25.0007 33.7513 25.0007C32.6013 25.0007 31.668 24.0673 31.668 22.9173C31.668 21.7673 32.6013 20.834 33.7513 20.834Z" fill="#3DD9EB"/>
<path d="M29.1654 13.334H20.832V10.834H26.6654V5.83398H29.1654V13.334Z" fill="#8100EF"/>
<path d="M27.9154 9.16667C26.7654 9.16667 25.832 8.23333 25.832 7.08333C25.832 5.93333 26.7654 5 27.9154 5C29.0654 5 29.9987 5.93333 29.9987 7.08333C29.9987 8.23333 29.0654 9.16667 27.9154 9.16667Z" fill="#3DD9EB"/>
<path d="M20.832 10.834H18.332V13.334H20.832V10.834Z" fill="#EB0000"/>
<path d="M20.832 16.666H18.332V19.166H20.832V16.666Z" fill="#EB0000"/>
<path d="M20.832 21.666H18.332V24.166H20.832V21.666Z" fill="#EB0000"/>
<path d="M20.832 26.666H18.332V29.166H20.832V26.666Z" fill="#EB0000"/>
</svg>
