<svg width="40" height="40" viewBox="0 0 40 40" fill="none" xmlns="http://www.w3.org/2000/svg">
<path d="M4.16602 35.834H33.3327C33.7927 35.834 34.166 36.2073 34.166 36.6673C34.166 37.1273 33.7927 37.5007 33.3327 37.5007H4.16602V35.834Z" fill="url(#paint0_linear_13562_199970)"/>
<path d="M37.0158 12.3313L27.6692 2.98375C27.0242 2.33875 25.9775 2.33875 25.3317 2.98375L7.5 20.8162L12.5 27.4996L19.1367 32.4996L37.0158 14.6679C37.6617 14.0229 37.6617 12.9763 37.0158 12.3313Z" fill="url(#paint1_linear_13562_199970)"/>
<path d="M4.16525 37.4993C3.73108 37.4993 3.30525 37.3293 2.98691 37.011C2.51608 36.5402 2.37025 35.8327 2.65525 35.1185L5.98858 26.7852L10.8319 29.166L13.1652 33.9993L4.78441 37.3802C4.58358 37.4602 4.37358 37.4993 4.16525 37.4993Z" fill="url(#paint2_linear_13562_199970)"/>
<path d="M6 26.834L7.5 20.834L19.1667 32.5007L13.1667 34.0007L6 26.834Z" fill="url(#paint3_linear_13562_199970)"/>
<defs>
<linearGradient id="paint0_linear_13562_199970" x1="34.166" y1="36.6673" x2="4.16602" y2="36.6673" gradientUnits="userSpaceOnUse">
<stop stop-color="#FED100"/>
<stop offset="1" stop-color="#EB6001"/>
</linearGradient>
<linearGradient id="paint1_linear_13562_199970" x1="8.79917" y1="3.95625" x2="30.125" y2="25.2821" gradientUnits="userSpaceOnUse">
<stop stop-color="#FFD747"/>
<stop offset="0.482" stop-color="#FFD645"/>
<stop offset="1" stop-color="#F5BC00"/>
</linearGradient>
<linearGradient id="paint2_linear_13562_199970" x1="4.23441" y1="28.5118" x2="11.1052" y2="40.4118" gradientUnits="userSpaceOnUse">
<stop stop-color="#FED100"/>
<stop offset="1" stop-color="#E36001"/>
</linearGradient>
<linearGradient id="paint3_linear_13562_199970" x1="5.625" y1="22.709" x2="17.2917" y2="34.3757" gradientUnits="userSpaceOnUse">
<stop stop-color="#889097"/>
<stop offset="1" stop-color="#4C5963"/>
</linearGradient>
</defs>
</svg>
