<svg width="40" height="40" viewBox="0 0 40 40" fill="none" xmlns="http://www.w3.org/2000/svg">
<path d="M0 20C0 8.95431 8.95431 0 20 0C31.0457 0 40 8.95431 40 20C40 31.0457 31.0457 40 20 40C8.95431 40 0 31.0457 0 20Z" fill="#4A35C3"/>
<path d="M36.1795 31.7592C35.8175 31.9142 35.4187 32 35 32L20 32C13.3726 32 8 26.6274 8 20C8 13.3726 13.3726 8 20 8H23.8955C25.5524 8 26.8955 9.34315 26.8955 11C26.8955 12.6569 25.5524 14 23.8955 14L20 14C16.6863 14 14 16.6863 14 20C14 23.3137 16.6863 26 20 26L35 26C36.5725 26 37.8624 27.2098 37.9897 28.7494C37.4737 29.8084 36.8669 30.8151 36.1795 31.7592Z" fill="#9788F2"/>
<path d="M39.0844 26C38.398 28.1855 37.3465 30.2093 36.0015 32L20.5 32C18.8431 32 17.5 30.6569 17.5 29C17.5 27.3432 18.8431 26 20.5 26L39.0844 26Z" fill="#D6CFFE"/>
</svg>
