<svg width="16" height="16" viewBox="0 0 16 16" fill="none" xmlns="http://www.w3.org/2000/svg">
<g clip-path="url(#clip0_15296_206364)">
<path d="M0.665365 14C0.665365 13.8231 0.735602 13.6536 0.860627 13.5286C0.985651 13.4035 1.15522 13.3333 1.33203 13.3333L14.6654 13.3333C14.8422 13.3333 15.0117 13.4035 15.1368 13.5286C15.2618 13.6536 15.332 13.8231 15.332 14C15.332 14.1768 15.2618 14.3463 15.1368 14.4714C15.0117 14.5964 14.8422 14.6666 14.6654 14.6666L1.33203 14.6666C1.15522 14.6666 0.985651 14.5964 0.860627 14.4714C0.735602 14.3463 0.665365 14.1768 0.665365 14ZM6.66537 5.33329C6.84218 5.33329 7.01175 5.40353 7.13677 5.52855C7.26179 5.65358 7.33203 5.82315 7.33203 5.99996L7.33203 11.3333C7.33203 11.5101 7.26179 11.6797 7.13677 11.8047C7.01175 11.9297 6.84218 12 6.66537 12L2.66537 12C2.48855 12 2.31899 11.9297 2.19396 11.8047C2.06894 11.6797 1.9987 11.5101 1.9987 11.3333L1.9987 5.99996C1.9987 5.82315 2.06894 5.65358 2.19396 5.52855C2.31899 5.40353 2.48855 5.33329 2.66537 5.33329L6.66537 5.33329ZM5.9987 6.66663L3.33203 6.66662L3.33203 10.6666L5.9987 10.6666L5.9987 6.66663ZM13.9987 1.99996L13.9987 11.3333C13.9987 11.5101 13.9285 11.6797 13.8034 11.8047C13.6784 11.9297 13.5088 12 13.332 12L9.33203 12C9.15522 12 8.98565 11.9297 8.86063 11.8047C8.7356 11.6797 8.66537 11.5101 8.66537 11.3333L8.66537 1.99996C8.66537 1.82315 8.7356 1.65358 8.86063 1.52855C8.98565 1.40353 9.15522 1.33329 9.33203 1.33329L13.332 1.33329C13.5088 1.33329 13.6784 1.40353 13.8034 1.52855C13.9285 1.65358 13.9987 1.82315 13.9987 1.99996ZM12.6654 2.66663L9.9987 2.66663L9.9987 10.6666L12.6654 10.6666L12.6654 2.66663Z" fill="#282C3F"/>
</g>
<defs>
<clipPath id="clip0_15296_206364">
<rect width="16" height="16" fill="white" transform="translate(16 16) rotate(-180)"/>
</clipPath>
</defs>
</svg>
