<svg width="16" height="20" viewBox="0 0 16 20" fill="none" xmlns="http://www.w3.org/2000/svg">
<path d="M4.23675 12.2627H2.86035V15.0623H4.25293C4.69395 15.0623 4.97828 14.9627 5.10377 14.7641C5.2298 14.5649 5.29221 14.1162 5.29221 13.4177C5.29221 12.9899 5.21426 12.6905 5.05703 12.5194C4.90153 12.3485 4.62726 12.2627 4.23671 12.2627L4.23675 12.2627ZM4.64173 14.4401C4.56727 14.5565 4.40294 14.6153 4.14847 14.6153H3.39192V12.7103H4.1809C4.42867 12.7103 4.58588 12.7662 4.65247 12.8777C4.7197 12.9905 4.75331 13.2528 4.75331 13.665C4.75331 14.0652 4.71608 14.3231 4.64175 14.4401L4.64173 14.4401Z" fill="black"/>
<path d="M6.84389 12.2383C6.27269 12.2383 5.91334 12.3241 5.76749 12.495C5.62111 12.6661 5.54785 13.0848 5.54785 13.7526C5.54785 14.313 5.62232 14.6754 5.77165 14.8399C5.92044 15.0043 6.24924 15.0871 6.75804 15.0871C7.3227 15.0871 7.67841 15.0037 7.82546 14.8369C7.97252 14.6702 8.04564 14.2664 8.04564 13.6243C8.04564 13.0381 7.97238 12.6607 7.82667 12.4916C7.67975 12.3236 7.3527 12.2383 6.8439 12.2383L6.84389 12.2383ZM7.40786 14.4938C7.3425 14.5855 7.14509 14.6317 6.81509 14.6317C6.47062 14.6317 6.26302 14.5909 6.19288 14.5088C6.1227 14.4265 6.08734 14.1848 6.08734 13.7827C6.08734 13.2403 6.11734 12.9224 6.17734 12.8312C6.23734 12.74 6.4456 12.6938 6.80251 12.6938C7.14698 12.6938 7.35029 12.7358 7.41334 12.8215C7.47575 12.9074 7.50629 13.1839 7.50629 13.6537C7.50629 14.1217 7.47388 14.4013 7.40785 14.4937L7.40786 14.4938Z" fill="black"/>
<path d="M10.1368 14.1891C10.1368 14.3751 10.0971 14.4957 10.0185 14.5503C9.9399 14.605 9.76887 14.6325 9.50556 14.6325C9.17972 14.6325 8.98833 14.5834 8.92833 14.485C8.86886 14.3865 8.83954 14.0698 8.83954 13.5334C8.83954 13.1356 8.87248 12.8962 8.93918 12.8158C9.00521 12.7348 9.20262 12.6953 9.53263 12.6953C9.77866 12.6953 9.9359 12.7205 10.0048 12.772C10.0738 12.823 10.1081 12.94 10.1081 13.1236V13.1956H10.6416L10.6404 13.132C10.6404 12.7762 10.5738 12.5393 10.4388 12.4193C10.305 12.2998 10.038 12.2393 9.63962 12.2393C9.09119 12.2393 8.73064 12.3125 8.55842 12.4577C8.38619 12.6035 8.2998 12.9071 8.2998 13.3698C8.2998 14.1546 8.36342 14.637 8.49065 14.8175C8.61788 14.9981 8.95738 15.0881 9.5089 15.0881C9.99614 15.0881 10.3105 15.031 10.4522 14.917C10.5949 14.8031 10.6651 14.551 10.6651 14.161V14.065H10.1317L10.1368 14.1891Z" fill="black"/>
<path d="M13.3587 12.2627H12.7311L12.3578 12.8886C12.2925 12.9984 12.2378 13.0949 12.194 13.1796L12.143 13.2762C12.1316 13.2977 12.1148 13.3308 12.0915 13.3746H12.083L12.0315 13.2762L11.9804 13.1777C11.9282 13.0817 11.873 12.9845 11.8149 12.8862L11.4411 12.2627H10.8075L11.6608 13.6187L10.7422 15.0624H11.3818L11.7856 14.3898C11.8756 14.241 11.9566 14.0994 12.028 13.9656L12.0874 13.8541H12.0959L12.1554 13.9632L12.2129 14.0742C12.2693 14.181 12.3276 14.2866 12.39 14.3898L12.7921 15.0624H13.4145L12.5181 13.6187L13.3587 12.2627Z" fill="black"/>
<path d="M0.765625 0.400391V19.6004H15.2647V4.41388L11.2512 0.400391H0.765625ZM11.5049 2.35159L13.3151 4.16177H11.5049V2.35159ZM1.96562 18.4004V1.60039H10.3056V5.36256H14.0647V18.4004H1.96562Z" fill="black"/>
</svg>
