<svg width="24" height="16" viewBox="0 0 24 16" fill="none" xmlns="http://www.w3.org/2000/svg">
<path d="M6.19526 12.4712C5.93491 12.2109 5.93491 11.7888 6.19526 11.5284L9.72386 7.99984L6.19526 4.47124C5.93491 4.21089 5.93491 3.78878 6.19526 3.52843C6.45561 3.26808 6.87772 3.26808 7.13807 3.52843L11.1381 7.52843C11.3984 7.78878 11.3984 8.21089 11.1381 8.47124L7.13807 12.4712C6.87772 12.7316 6.45561 12.7316 6.19526 12.4712Z" fill="white"/>
<path d="M14.1953 12.4712C13.9349 12.2109 13.9349 11.7888 14.1953 11.5284L17.7239 7.99984L14.1953 4.47124C13.9349 4.21089 13.9349 3.78878 14.1953 3.52843C14.4556 3.26808 14.8777 3.26808 15.1381 3.52843L19.1381 7.52843C19.3984 7.78878 19.3984 8.21089 19.1381 8.47124L15.1381 12.4712C14.8777 12.7316 14.4556 12.7316 14.1953 12.4712Z" fill="white"/>
</svg>
