<svg width="24" height="24" viewBox="0 0 24 24" fill="none" xmlns="http://www.w3.org/2000/svg">
<rect width="24" height="24" rx="12" fill="#0B0427"/>
<path d="M17.7273 6H6.27273C5.57273 6 5 6.6 5 7.33333V9.33333H6.27273V7.33333H17.7273V16.6667H13.2727V18H17.7273C18.4273 18 19 17.4 19 16.6667V7.33333C19 6.6 18.4273 6 17.7273 6ZM5 16V18H6.90909C6.90909 16.8933 6.05636 16 5 16ZM5 13.3333V14.6667C6.75636 14.6667 8.18182 16.16 8.18182 18H9.45455C9.45455 15.42 7.46273 13.3333 5 13.3333ZM5 10.6667V12C8.16273 12 10.7273 14.6867 10.7273 18H12C12 13.9467 8.86273 10.6667 5 10.6667ZM11.3636 11.3933V12.7267L13.5909 14L15.8182 12.7267V11.3933L13.5909 12.6667L11.3636 11.3933ZM13.5909 8L10.0909 10L13.5909 12L17.0909 10L13.5909 8Z" fill="white"/>
</svg>
