<svg width="16" height="16" viewBox="0 0 16 16" fill="none" xmlns="http://www.w3.org/2000/svg">
<path d="M14.9153 2.68932C12.7025 1.7996 10.2376 1.76585 8.0013 2.59465C5.76496 1.76585 3.30011 1.7996 1.0873 2.68932C0.963489 2.73879 0.857351 2.82424 0.782601 2.93464C0.70785 3.04504 0.66792 3.17532 0.667969 3.30865V13.3333C0.667929 13.4423 0.694588 13.5496 0.745614 13.6458C0.79664 13.7421 0.870477 13.8243 0.960665 13.8855C1.05085 13.9466 1.15464 13.9847 1.26296 13.9964C1.37127 14.0081 1.4808 13.9931 1.58197 13.9527C3.56215 13.1558 5.77379 13.1558 7.75397 13.9527C7.82814 13.9808 7.90666 13.9957 7.98597 13.9967C7.9913 13.9967 7.99597 13.9967 8.0013 13.9967C8.00664 13.9967 8.0113 13.9967 8.01663 13.9967C8.09595 13.9957 8.17447 13.9808 8.24864 13.9527C10.2288 13.1558 12.4405 13.1558 14.4206 13.9527C14.5218 13.9932 14.6313 14.0083 14.7396 13.9966C14.8479 13.985 14.9517 13.947 15.042 13.886C15.1322 13.8248 15.2061 13.7425 15.2571 13.6461C15.3082 13.5497 15.3348 13.4423 15.3346 13.3333V3.30865C15.3347 3.17532 15.2948 3.04504 15.22 2.93464C15.1453 2.82424 15.0391 2.73879 14.9153 2.68932ZM7.33463 12.406C5.59372 11.896 3.74336 11.8939 2.0013 12.4V3.77265C3.73109 3.18548 5.60676 3.18853 7.33463 3.78132V12.406ZM14.0013 12.4C12.2593 11.8953 10.4099 11.8953 8.66797 12.4V3.78132C10.3958 3.18853 12.2715 3.18548 14.0013 3.77265V12.4Z" fill="#282C3F"/>
</svg>
