<svg width="10" height="6" viewBox="0 0 10 6" fill="none" xmlns="http://www.w3.org/2000/svg">
<path d="M8.72288 0.0742233C8.58145 0.0742233 8.44583 0.130383 8.34583 0.230473C8.24574 0.330473 8.18958 0.466107 8.18958 0.607524V2.74092C8.18958 2.88235 8.13342 3.01797 8.03333 3.11797C7.93333 3.21806 7.7977 3.27422 7.65628 3.27422H2.54154L3.23484 2.58617H3.23493C3.3702 2.4509 3.42306 2.25376 3.3735 2.06894C3.32395 1.88412 3.17966 1.73984 2.99485 1.69029C2.81003 1.64073 2.61288 1.69359 2.47762 1.82886L0.877616 3.42886C0.829044 3.47957 0.790919 3.53939 0.765563 3.60484C0.71226 3.73475 0.71226 3.88038 0.765563 4.01019C0.790921 4.07564 0.829044 4.13546 0.877616 4.18617L2.47762 5.78617C2.5777 5.88715 2.71405 5.94394 2.85627 5.94394C2.99841 5.94394 3.13476 5.88715 3.23492 5.78617C3.3359 5.68608 3.39269 5.54974 3.39269 5.40752C3.39269 5.26538 3.3359 5.12903 3.23492 5.02887L2.54152 4.34091H7.65627C8.08054 4.34091 8.48751 4.17234 8.78761 3.87225C9.0877 3.57216 9.25627 3.16519 9.25627 2.74091V0.607519C9.25627 0.466091 9.20002 0.330468 9.10002 0.230468C9.00002 0.130379 8.86438 0.0742188 8.72288 0.0742188L8.72288 0.0742233Z" fill="#535665"/>
</svg>
