<svg width="41" height="40" viewBox="0 0 41 40" fill="none" xmlns="http://www.w3.org/2000/svg">
<circle cx="6.125" cy="20.625" r="2.5" fill="url(#paint0_radial_10392_6970)"/>
<ellipse rx="2.5" ry="2.5" transform="matrix(-1 0 0 1 34.875 20.625)" fill="url(#paint1_radial_10392_6970)"/>
<circle cx="20.5" cy="21.875" r="15" fill="url(#paint2_radial_10392_6970)"/>
<circle cx="20.5" cy="21.875" r="15" fill="url(#paint3_radial_10392_6970)"/>
<g filter="url(#filter0_f_10392_6970)">
<path d="M19.5625 34.3747C27.329 34.3747 33.625 28.0787 33.625 20.3122C33.625 18.8475 33.4011 17.4351 32.9856 16.1074C33.7971 17.8613 34.2499 19.8151 34.2499 21.8746C34.2499 29.4685 28.0938 35.6246 20.4999 35.6246C16.0207 35.6246 12.0417 33.4829 9.53125 30.1676C12.0827 32.7642 15.6345 34.3747 19.5625 34.3747Z" fill="#C1092A" fill-opacity="0.6"/>
</g>
<g filter="url(#filter1_i_10392_6970)">
<path d="M20.5 30C25.474 30 29.6116 26.4683 30.4749 21.809C30.6579 20.8212 29.8149 20 28.7967 20H12.2033C11.1851 20 10.3421 20.8212 10.5251 21.809C11.3884 26.4683 15.526 30 20.5 30Z" fill="url(#paint4_linear_10392_6970)"/>
</g>
<g filter="url(#filter2_i_10392_6970)">
<path d="M27.2878 27.4288C25.4904 29.0271 23.1102 30 20.4995 30C17.8887 30 15.5083 29.027 13.7109 27.4287C14.235 25.3434 17.0748 23.75 20.4993 23.75C23.924 23.75 26.7638 25.3434 27.2878 27.4288Z" fill="url(#paint5_linear_10392_6970)"/>
</g>
<g filter="url(#filter3_d_10392_6970)">
<path d="M13.1799 6.10684C12.9927 5.83465 12.6528 5.71009 12.3318 5.7961C12.0108 5.8821 11.7787 6.15995 11.7527 6.48926L11.1451 8.93297L8.4898 10.1647C8.15681 10.2539 7.92093 10.5489 7.90878 10.8913C7.89663 11.2337 8.11108 11.543 8.437 11.6531L11.0171 12.9943L11.0478 15.4201C11.0214 15.7544 11.2133 16.0673 11.524 16.1965C11.8347 16.3258 12.1945 16.2424 12.4168 15.9896L14.4451 13.6832L17.3548 14.6664C17.6738 14.7742 18.0271 14.6666 18.2315 14.3992C18.436 14.1319 18.4458 13.7651 18.2558 13.4887L17.0693 11.3726L18.6333 8.92105C18.8605 8.66272 18.8915 8.28764 18.7098 7.99719C18.5281 7.70673 18.1763 7.56919 17.8433 7.65841L14.9278 7.91942L13.1799 6.10684Z" fill="url(#paint6_linear_10392_6970)"/>
</g>
<g filter="url(#filter4_d_10392_6970)">
<path d="M27.8221 6.10684C28.0092 5.83464 28.3492 5.71009 28.6702 5.7961C28.9912 5.8821 29.2233 6.15995 29.2493 6.48926L29.8568 8.93297L32.5122 10.1647C32.8451 10.2539 33.081 10.5489 33.0932 10.8913C33.1053 11.2337 32.8909 11.543 32.565 11.6531L29.9849 12.9943L29.9542 15.4201C29.9806 15.7544 29.7887 16.0673 29.478 16.1965C29.1672 16.3258 28.8075 16.2424 28.5851 15.9896L26.5568 13.6832L23.6471 14.6664C23.3281 14.7742 22.9749 14.6666 22.7704 14.3992C22.5659 14.1319 22.5562 13.7651 22.7462 13.4887L23.9326 11.3726L22.3687 8.92105C22.1415 8.66272 22.1104 8.28764 22.2922 7.99718C22.4739 7.70673 22.8257 7.56919 23.1587 7.65841L26.0742 7.91942L27.8221 6.10684Z" fill="url(#paint7_linear_10392_6970)"/>
</g>
<defs>
<filter id="filter0_f_10392_6970" x="-62.4688" y="-55.8926" width="168.719" height="163.518" filterUnits="userSpaceOnUse" color-interpolation-filters="sRGB">
<feFlood flood-opacity="0" result="BackgroundImageFix"/>
<feBlend mode="normal" in="SourceGraphic" in2="BackgroundImageFix" result="shape"/>
<feGaussianBlur stdDeviation="36" result="effect1_foregroundBlur_10392_6970"/>
</filter>
<filter id="filter1_i_10392_6970" x="10.5" y="20" width="36" height="26" filterUnits="userSpaceOnUse" color-interpolation-filters="sRGB">
<feFlood flood-opacity="0" result="BackgroundImageFix"/>
<feBlend mode="normal" in="SourceGraphic" in2="BackgroundImageFix" result="shape"/>
<feColorMatrix in="SourceAlpha" type="matrix" values="0 0 0 0 0 0 0 0 0 0 0 0 0 0 0 0 0 0 127 0" result="hardAlpha"/>
<feOffset dx="16" dy="16"/>
<feGaussianBlur stdDeviation="16"/>
<feComposite in2="hardAlpha" operator="arithmetic" k2="-1" k3="1"/>
<feColorMatrix type="matrix" values="0 0 0 0 0 0 0 0 0 0 0 0 0 0 0 0 0 0 0.25 0"/>
<feBlend mode="normal" in2="shape" result="effect1_innerShadow_10392_6970"/>
</filter>
<filter id="filter2_i_10392_6970" x="13.7109" y="23.75" width="13.5762" height="14.25" filterUnits="userSpaceOnUse" color-interpolation-filters="sRGB">
<feFlood flood-opacity="0" result="BackgroundImageFix"/>
<feBlend mode="normal" in="SourceGraphic" in2="BackgroundImageFix" result="shape"/>
<feColorMatrix in="SourceAlpha" type="matrix" values="0 0 0 0 0 0 0 0 0 0 0 0 0 0 0 0 0 0 127 0" result="hardAlpha"/>
<feOffset dy="8"/>
<feGaussianBlur stdDeviation="8"/>
<feComposite in2="hardAlpha" operator="arithmetic" k2="-1" k3="1"/>
<feColorMatrix type="matrix" values="0 0 0 0 0.51276 0 0 0 0 0.0415645 0 0 0 0 0.0415645 0 0 0 0.4 0"/>
<feBlend mode="normal" in2="shape" result="effect1_innerShadow_10392_6970"/>
</filter>
<filter id="filter3_d_10392_6970" x="-8.0918" y="5.76953" width="42.9199" height="42.4873" filterUnits="userSpaceOnUse" color-interpolation-filters="sRGB">
<feFlood flood-opacity="0" result="BackgroundImageFix"/>
<feColorMatrix in="SourceAlpha" type="matrix" values="0 0 0 0 0 0 0 0 0 0 0 0 0 0 0 0 0 0 127 0" result="hardAlpha"/>
<feOffset dy="16"/>
<feGaussianBlur stdDeviation="8"/>
<feComposite in2="hardAlpha" operator="out"/>
<feColorMatrix type="matrix" values="0 0 0 0 0.68776 0 0 0 0 0.0242277 0 0 0 0 0.501971 0 0 0 0.4 0"/>
<feBlend mode="normal" in2="BackgroundImageFix" result="effect1_dropShadow_10392_6970"/>
<feBlend mode="normal" in="SourceGraphic" in2="effect1_dropShadow_10392_6970" result="shape"/>
</filter>
<filter id="filter4_d_10392_6970" x="6.17383" y="5.76953" width="42.9199" height="42.4873" filterUnits="userSpaceOnUse" color-interpolation-filters="sRGB">
<feFlood flood-opacity="0" result="BackgroundImageFix"/>
<feColorMatrix in="SourceAlpha" type="matrix" values="0 0 0 0 0 0 0 0 0 0 0 0 0 0 0 0 0 0 127 0" result="hardAlpha"/>
<feOffset dy="16"/>
<feGaussianBlur stdDeviation="8"/>
<feComposite in2="hardAlpha" operator="out"/>
<feColorMatrix type="matrix" values="0 0 0 0 0.68776 0 0 0 0 0.0242277 0 0 0 0 0.501971 0 0 0 0.4 0"/>
<feBlend mode="normal" in2="BackgroundImageFix" result="effect1_dropShadow_10392_6970"/>
<feBlend mode="normal" in="SourceGraphic" in2="effect1_dropShadow_10392_6970" result="shape"/>
</filter>
<radialGradient id="paint0_radial_10392_6970" cx="0" cy="0" r="1" gradientUnits="userSpaceOnUse" gradientTransform="translate(4.25 19.6875) rotate(61.3895) scale(3.91561)">
<stop stop-color="#FFCE21"/>
<stop offset="1" stop-color="#F2911E"/>
</radialGradient>
<radialGradient id="paint1_radial_10392_6970" cx="0" cy="0" r="1" gradientUnits="userSpaceOnUse" gradientTransform="translate(0.625 1.5625) rotate(61.3895) scale(3.91561)">
<stop stop-color="#FFCE21"/>
<stop offset="1" stop-color="#F2911E"/>
</radialGradient>
<radialGradient id="paint2_radial_10392_6970" cx="0" cy="0" r="1" gradientUnits="userSpaceOnUse" gradientTransform="translate(15.1875 10.625) rotate(78.559) scale(26.7822)">
<stop stop-color="#FFEA9F"/>
<stop offset="0.122763" stop-color="#FFE380"/>
<stop offset="0.415997" stop-color="#FFD250"/>
<stop offset="0.643669" stop-color="#FFC122"/>
<stop offset="1" stop-color="#FFB422"/>
</radialGradient>
<radialGradient id="paint3_radial_10392_6970" cx="0" cy="0" r="1" gradientUnits="userSpaceOnUse" gradientTransform="translate(15.1875 10.625) rotate(78.559) scale(26.7822)">
<stop offset="0.557292" stop-color="#E35D12" stop-opacity="0"/>
<stop offset="1" stop-color="#FF24F6" stop-opacity="0.3"/>
</radialGradient>
<linearGradient id="paint4_linear_10392_6970" x1="20.5" y1="20" x2="20.5" y2="30" gradientUnits="userSpaceOnUse">
<stop stop-color="#60310F"/>
<stop offset="0.450755" stop-color="#7D3807"/>
</linearGradient>
<linearGradient id="paint5_linear_10392_6970" x1="20.4994" y1="23.75" x2="20.4994" y2="30" gradientUnits="userSpaceOnUse">
<stop stop-color="#F04343"/>
<stop offset="0.231992" stop-color="#EF4343"/>
<stop offset="0.377834" stop-color="#E13737"/>
<stop offset="1" stop-color="#C72121"/>
</linearGradient>
<linearGradient id="paint6_linear_10392_6970" x1="12.3318" y1="5.7961" x2="14.92" y2="15.4554" gradientUnits="userSpaceOnUse">
<stop stop-color="#F439F8"/>
<stop offset="1" stop-color="#B129E0"/>
</linearGradient>
<linearGradient id="paint7_linear_10392_6970" x1="28.6702" y1="5.7961" x2="26.082" y2="15.4554" gradientUnits="userSpaceOnUse">
<stop stop-color="#F439F8"/>
<stop offset="1" stop-color="#B129E0"/>
</linearGradient>
</defs>
</svg>
