<svg width="16" height="16" viewBox="0 0 16 16" fill="none" xmlns="http://www.w3.org/2000/svg">
<path d="M3.33203 14.6667H12.6654C13.1958 14.6667 13.7045 14.456 14.0796 14.0809C14.4547 13.7058 14.6654 13.1971 14.6654 12.6667V6.00001C14.6654 5.46958 14.4547 4.96087 14.0796 4.5858C13.7045 4.21072 13.1958 4.00001 12.6654 4.00001H11.332V2.66668C11.332 2.31305 11.1916 1.97392 10.9415 1.72387C10.6915 1.47382 10.3523 1.33334 9.9987 1.33334H5.9987C5.64508 1.33334 5.30594 1.47382 5.05589 1.72387C4.80584 1.97392 4.66536 2.31305 4.66536 2.66668V4.00001H3.33203C2.8016 4.00001 2.29289 4.21072 1.91782 4.5858C1.54274 4.96087 1.33203 5.46958 1.33203 6.00001V12.6667C1.33203 13.1971 1.54274 13.7058 1.91782 14.0809C2.29289 14.456 2.8016 14.6667 3.33203 14.6667ZM5.9987 2.66668H9.9987V4.00001H5.9987V2.66668ZM2.66536 6.00001C2.66536 5.8232 2.7356 5.65363 2.86063 5.52861C2.98565 5.40358 3.15522 5.33334 3.33203 5.33334H12.6654C12.8422 5.33334 13.0117 5.40358 13.1368 5.52861C13.2618 5.65363 13.332 5.8232 13.332 6.00001V12.6667C13.332 12.8435 13.2618 13.0131 13.1368 13.1381C13.0117 13.2631 12.8422 13.3333 12.6654 13.3333H3.33203C3.15522 13.3333 2.98565 13.2631 2.86063 13.1381C2.7356 13.0131 2.66536 12.8435 2.66536 12.6667V6.00001ZM3.9987 8.00001C3.9987 7.8232 4.06894 7.65363 4.19396 7.52861C4.31898 7.40358 4.48855 7.33334 4.66536 7.33334H11.332C11.5088 7.33334 11.6784 7.40358 11.8034 7.52861C11.9285 7.65363 11.9987 7.8232 11.9987 8.00001C11.9987 8.17682 11.9285 8.34639 11.8034 8.47141C11.6784 8.59644 11.5088 8.66668 11.332 8.66668H4.66536C4.48855 8.66668 4.31898 8.59644 4.19396 8.47141C4.06894 8.34639 3.9987 8.17682 3.9987 8.00001ZM3.9987 10.6667C3.9987 10.4899 4.06894 10.3203 4.19396 10.1953C4.31898 10.0702 4.48855 10 4.66536 10H11.332C11.5088 10 11.6784 10.0702 11.8034 10.1953C11.9285 10.3203 11.9987 10.4899 11.9987 10.6667C11.9987 10.8435 11.9285 11.0131 11.8034 11.1381C11.6784 11.2631 11.5088 11.3333 11.332 11.3333H4.66536C4.48855 11.3333 4.31898 11.2631 4.19396 11.1381C4.06894 11.0131 3.9987 10.8435 3.9987 10.6667Z" fill="#282C3F"/>
</svg>
