<svg width="24" height="24" viewBox="0 0 24 24" fill="none" xmlns="http://www.w3.org/2000/svg">
<rect width="24" height="24" rx="12" fill="#0B0427"/>
<path d="M18.4 7.15789H16V5.57895C16 4.70263 15.288 4 14.4 4H9.6C8.712 4 8 4.70263 8 5.57895V7.15789H5.6C4.712 7.15789 4 7.86053 4 8.73684V17.4211C4 18.2974 4.712 19 5.6 19H18.4C19.288 19 20 18.2974 20 17.4211V8.73684C20 7.86053 19.288 7.15789 18.4 7.15789ZM9.6 5.57895H14.4V7.15789H9.6V5.57895ZM18.4 17.4211H5.6V15.8421H18.4V17.4211ZM18.4 13.4737H5.6V8.73684H8V10.3158H9.6V8.73684H14.4V10.3158H16V8.73684H18.4V13.4737Z" fill="white"/>
</svg>
