<svg width="14" height="14" viewBox="0 0 14 14" fill="none" xmlns="http://www.w3.org/2000/svg">
<path d="M0.724053 11.3907L5.11472 7.00005L0.724053 2.60939C0.596706 2.48639 0.495132 2.33927 0.425253 2.17659C0.355374 2.01392 0.318592 1.83896 0.317053 1.66192C0.315515 1.48488 0.34925 1.30931 0.416291 1.14545C0.483332 0.981588 0.582338 0.832718 0.707528 0.707528C0.832718 0.582338 0.981588 0.483332 1.14545 0.416291C1.30931 0.34925 1.48488 0.315515 1.66192 0.317053C1.83896 0.318592 2.01392 0.355374 2.17659 0.425253C2.33927 0.495132 2.48639 0.596706 2.60939 0.724053L7.00005 5.11472L11.3907 0.724053C11.5137 0.596706 11.6608 0.495132 11.8235 0.425253C11.9862 0.355374 12.1611 0.318592 12.3382 0.317053C12.5152 0.315515 12.6908 0.34925 12.8547 0.416291C13.0185 0.483332 13.1674 0.582338 13.2926 0.707528C13.4178 0.832718 13.5168 0.981588 13.5838 1.14545C13.6509 1.30931 13.6846 1.48488 13.6831 1.66192C13.6815 1.83896 13.6447 2.01392 13.5749 2.17659C13.505 2.33927 13.4034 2.48639 13.2761 2.60939L8.88539 7.00005L13.2761 11.3907C13.4034 11.5137 13.505 11.6608 13.5749 11.8235C13.6447 11.9862 13.6815 12.1611 13.6831 12.3382C13.6846 12.5152 13.6509 12.6908 13.5838 12.8547C13.5168 13.0185 13.4178 13.1674 13.2926 13.2926C13.1674 13.4178 13.0185 13.5168 12.8547 13.5838C12.6908 13.6509 12.5152 13.6846 12.3382 13.6831C12.1611 13.6815 11.9862 13.6447 11.8235 13.5749C11.6608 13.505 11.5137 13.4034 11.3907 13.2761L7.00005 8.88539L2.60939 13.2761C2.48639 13.4034 2.33927 13.505 2.17659 13.5749C2.01392 13.6447 1.83896 13.6815 1.66192 13.6831C1.48488 13.6846 1.30931 13.6509 1.14545 13.5838C0.981588 13.5168 0.832718 13.4178 0.707528 13.2926C0.582338 13.1674 0.483332 13.0185 0.416291 12.8547C0.34925 12.6908 0.315515 12.5152 0.317053 12.3382C0.318592 12.1611 0.355374 11.9862 0.425253 11.8235C0.495132 11.6608 0.596706 11.5137 0.724053 11.3907Z" fill="#282C3F"/>
</svg>
