<svg width="16" height="18" viewBox="0 0 16 18" fill="none" xmlns="http://www.w3.org/2000/svg">
<path d="M11 16C11.5523 16 12 15.5523 12 15C12 14.4477 11.5523 14 11 14C10.4477 14 10 14.4477 10 15C10 15.5523 10.4477 16 11 16ZM13.8293 16C13.4175 17.1652 12.3062 18 11 18C9.69378 18 8.58254 17.1652 8.17071 16L1 16C0.447715 16 0 15.5523 0 15C0 14.4477 0.447715 14 1 14L8.17071 14C8.58254 12.8348 9.69378 12 11 12C12.3062 12 13.4175 12.8348 13.8293 14H15C15.5523 14 16 14.4477 16 15C16 15.5523 15.5523 16 15 16H13.8293ZM5 10C5.55229 10 6 9.55228 6 9C6 8.44771 5.55229 8 5 8C4.44771 8 4 8.44771 4 9C4 9.55228 4.44771 10 5 10ZM7.82929 10C7.41746 11.1652 6.30622 12 5 12C3.69378 12 2.58254 11.1652 2.17071 10H1C0.447715 10 0 9.55228 0 9C0 8.44771 0.447715 8 1 8L2.17071 8C2.58254 6.83481 3.69378 6 5 6C6.30622 6 7.41746 6.83481 7.82929 8L15 8C15.5523 8 16 8.44771 16 9C16 9.55228 15.5523 10 15 10L7.82929 10ZM11 4C11.5523 4 12 3.55229 12 3C12 2.44771 11.5523 2 11 2C10.4477 2 10 2.44771 10 3C10 3.55229 10.4477 4 11 4ZM13.8293 4C13.4175 5.16519 12.3062 6 11 6C9.69378 6 8.58254 5.16519 8.17071 4L1 4C0.447715 4 0 3.55229 0 3C0 2.44771 0.447715 2 1 2L8.17071 2C8.58254 0.834808 9.69378 0 11 0C12.3062 0 13.4175 0.834808 13.8293 2H15C15.5523 2 16 2.44771 16 3C16 3.55229 15.5523 4 15 4H13.8293Z" fill="#282C3F"/>
</svg>
