<svg width="54" height="54" viewBox="0 0 54 54" fill="none" xmlns="http://www.w3.org/2000/svg">
<path d="M0 27C0 12.0883 12.0883 0 27 0C41.9117 0 54 12.0883 54 27C54 41.9117 41.9117 54 27 54C12.0883 54 0 41.9117 0 27Z" fill="#FF986C"/>
<path fill-rule="evenodd" clip-rule="evenodd" d="M21.4 20C21.4 16.1697 24.5717 13 28.4736 13C32.2947 13 35.4 16.1042 35.4 19.8537C35.4 22.1733 37.2804 24.0537 39.6 24.0537C41.9196 24.0537 43.8 22.1733 43.8 19.8537C43.8 11.3936 36.8621 4.59998 28.4736 4.59998C20.0043 4.59998 13 11.4591 13 20L13 42.4C13 44.7196 14.8804 46.6 17.2 46.6C19.5196 46.6 21.4 44.7196 21.4 42.4L21.4 20Z" fill="#FFF0EA"/>
<path d="M1.28179 36.4C0.454441 33.7658 0.00589771 30.9639 0 28.0581C0.227627 28.0199 0.461463 28 0.699941 28H28.6999C31.0195 28 32.8999 29.8804 32.8999 32.2C32.8999 34.5196 31.0195 36.4 28.6999 36.4H1.28179Z" fill="#FFC7B0"/>
</svg>
