<svg width="22" height="22" viewBox="0 0 22 22" fill="none" xmlns="http://www.w3.org/2000/svg">
<path d="M10.9779 0.93927C5.19918 0.93927 0.421387 5.6729 0.421387 11.4917C0.421387 16.395 3.87095 20.725 8.6235 21.7873C8.75274 21.8145 8.88723 21.7838 8.99116 21.7011C9.09421 21.6176 9.15447 21.4918 9.15447 21.3582V18.9663C9.15447 18.7236 8.95885 18.5266 8.71781 18.5266H7.8445C6.75462 18.5266 6.01318 17.4863 5.3582 16.5691C5.29095 16.475 5.22458 16.3809 5.15734 16.2895C5.46736 16.4548 5.73372 16.6544 5.99659 16.8505C6.5197 17.241 7.06115 17.6446 7.78075 17.6446C7.78337 17.6446 7.78687 17.6446 7.78949 17.6446C7.84538 17.6507 8.35539 17.7035 8.75012 17.3544C8.93527 17.19 9.15447 16.8795 9.15447 16.3282V16.0213C9.15447 15.8243 9.02522 15.6519 8.83658 15.5983C6.4149 14.908 4.78793 13.0807 4.78793 11.052C4.78793 9.99674 5.21847 8.98987 6.03239 8.13952C6.15815 8.0085 6.19046 7.81416 6.11448 7.64883C5.78961 6.94358 5.8586 5.98419 6.24373 5.40821C6.75374 5.60783 7.41484 6.02728 7.8445 6.54083C7.9624 6.68241 8.15628 6.73341 8.32832 6.6701C9.96577 6.0651 11.8373 6.0651 13.4747 6.6701C13.6485 6.73341 13.8415 6.68153 13.9585 6.54083C14.3882 6.02728 15.0493 5.60783 15.5584 5.40733C15.9444 5.98332 16.0134 6.94358 15.6877 7.64883C15.6117 7.81416 15.644 8.0085 15.7698 8.13952C16.5837 8.98987 17.0142 9.99674 17.0142 11.052C17.0142 13.1818 15.2065 15.0892 12.6189 15.6898C12.487 15.7205 12.3761 15.8111 12.3202 15.9351C12.2643 16.0591 12.2678 16.2024 12.3316 16.3229C12.5473 16.7362 12.6477 17.2964 12.6477 18.0869V21.3582C12.6477 21.4918 12.708 21.6176 12.811 21.7011C12.8896 21.7644 12.9857 21.7978 13.0844 21.7978C13.1158 21.7978 13.1472 21.7943 13.1787 21.7873C17.9312 20.725 21.3808 16.395 21.3808 11.4917C21.3808 5.6729 16.7565 0.93927 10.9779 0.93927Z" fill="url(#paint0_linear_2458_3822)"/>
<defs>
<linearGradient id="paint0_linear_2458_3822" x1="4.65419" y1="-7.20199" x2="-13.1583" y2="15.9496" gradientUnits="userSpaceOnUse">
<stop stop-color="#01DCBA"/>
<stop offset="1" stop-color="#7F30CB"/>
</linearGradient>
</defs>
</svg>
