<svg width="40" height="40" viewBox="0 0 40 40" fill="none" xmlns="http://www.w3.org/2000/svg">
<rect width="40" height="40" rx="20" fill="#027858"/>
<path d="M23.0498 20.81L14.5598 12.32C14.1698 11.93 13.5398 11.93 13.1498 12.32L10.3198 15.15C9.92984 15.54 9.92984 16.17 10.3198 16.56L18.8098 25.05C19.1998 25.44 19.8298 25.44 20.2198 25.05L23.0498 22.22C23.4398 21.83 23.4398 21.2 23.0498 20.81Z" fill="white"/>
<path d="M23.754 24.342L22.3398 25.7562L26.5824 29.9988L27.9966 28.5846L23.754 24.342Z" fill="white"/>
<path d="M26.5 17C28.433 17 30 15.433 30 13.5C30 11.567 28.433 10 26.5 10C24.567 10 23 11.567 23 13.5C23 15.433 24.567 17 26.5 17Z" fill="white"/>
</svg>
