<svg width="32" height="32" viewBox="0 0 32 32" fill="none" xmlns="http://www.w3.org/2000/svg">
<g clip-path="url(#clip0_13884_201229)">
<path d="M26 27.3335C26 28.0702 25.4033 28.6668 24.6667 28.6668H7.33333C6.59667 28.6668 6 28.0702 6 27.3335V4.66683C6 3.93016 6.59667 3.3335 7.33333 3.3335H24.6667C25.4033 3.3335 26 3.93016 26 4.66683V27.3335Z" fill="#50E6FF"/>
<path d="M22.3332 23.3333H16.9998C16.8158 23.3333 16.6665 23.184 16.6665 23V22.3333C16.6665 22.1493 16.8158 22 16.9998 22H22.3332C22.5172 22 22.6665 22.1493 22.6665 22.3333V23C22.6665 23.184 22.5172 23.3333 22.3332 23.3333Z" fill="#35C1F1"/>
<path d="M21.4931 24.6699H23.9965V31.3366C23.9965 31.7046 24.2951 32.0033 24.6631 32.0033H27.3298C27.6978 32.0033 27.9965 31.7046 27.9965 31.3366V24.6699H30.4998C31.0771 24.6699 31.3811 23.9866 30.9951 23.5573L26.9878 19.1046C26.4585 18.5159 25.5351 18.5159 25.0058 19.1046L20.9985 23.5573C20.6118 23.9866 20.9165 24.6699 21.4931 24.6699Z" fill="url(#paint0_linear_13884_201229)"/>
<path d="M14.0002 11.3333H10.0002C9.63216 11.3333 9.3335 11.0347 9.3335 10.6667V6.66667C9.3335 6.29867 9.63216 6 10.0002 6H14.0002C14.3682 6 14.6668 6.29867 14.6668 6.66667V10.6667C14.6668 11.0347 14.3682 11.3333 14.0002 11.3333Z" fill="#199BE2"/>
<path d="M14.0002 18.6668H10.0002C9.63216 18.6668 9.3335 18.3682 9.3335 18.0002V14.0002C9.3335 13.6322 9.63216 13.3335 10.0002 13.3335H14.0002C14.3682 13.3335 14.6668 13.6322 14.6668 14.0002V18.0002C14.6668 18.3682 14.3682 18.6668 14.0002 18.6668Z" fill="#199BE2"/>
<path d="M14.0002 25.9998H10.0002C9.63216 25.9998 9.3335 25.7012 9.3335 25.3332V21.3332C9.3335 20.9652 9.63216 20.6665 10.0002 20.6665H14.0002C14.3682 20.6665 14.6668 20.9652 14.6668 21.3332V25.3332C14.6668 25.7012 14.3682 25.9998 14.0002 25.9998Z" fill="#199BE2"/>
<path d="M22.3332 8.66683H16.9998C16.8158 8.66683 16.6665 8.5175 16.6665 8.3335V7.66683C16.6665 7.48283 16.8158 7.3335 16.9998 7.3335H22.3332C22.5172 7.3335 22.6665 7.48283 22.6665 7.66683V8.3335C22.6665 8.5175 22.5172 8.66683 22.3332 8.66683Z" fill="#35C1F1"/>
<path d="M22.3332 15.9998H16.9998C16.8158 15.9998 16.6665 15.8505 16.6665 15.6665V14.9998C16.6665 14.8158 16.8158 14.6665 16.9998 14.6665H22.3332C22.5172 14.6665 22.6665 14.8158 22.6665 14.9998V15.6665C22.6665 15.8505 22.5172 15.9998 22.3332 15.9998Z" fill="#35C1F1"/>
</g>
<defs>
<linearGradient id="paint0_linear_13884_201229" x1="29.9385" y1="31.9093" x2="22.9085" y2="19.2659" gradientUnits="userSpaceOnUse">
<stop stop-color="#C965EB"/>
<stop offset="1" stop-color="#C767E5"/>
</linearGradient>
<clipPath id="clip0_13884_201229">
<rect width="32" height="32" fill="white"/>
</clipPath>
</defs>
</svg>
