<svg width="32" height="32" viewBox="0 0 32 32" fill="none" xmlns="http://www.w3.org/2000/svg">
<path d="M10 15.3335H4V10.0002C4 9.60016 4.26667 9.3335 4.66667 9.3335H9.33333C9.73333 9.3335 10 9.60016 10 10.0002V15.3335Z" fill="#37C6D0"/>
<path d="M10 27.3335H4.66667C4.26667 27.3335 4 27.0668 4 26.6668V21.3335H10V27.3335Z" fill="#37C6D0"/>
<path d="M21.3333 27.3335H16V21.3335H21.3333C21.7333 21.3335 22 21.6002 22 22.0002V26.6668C22 27.0668 21.7333 27.3335 21.3333 27.3335Z" fill="#37C6D0"/>
<path d="M10 15.3335H4V21.3335H10V15.3335Z" fill="#1A9BA1"/>
<path d="M16 21.3335H10V27.3335H16V21.3335Z" fill="#1A9BA1"/>
<path d="M16 21.3335H10V15.3335H15.3333C15.7333 15.3335 16 15.6002 16 16.0002V21.3335Z" fill="#37C6D0"/>
<path d="M27.3333 10H22.6667C22.2667 10 22 9.73333 22 9.33333V4.66667C22 4.26667 22.2667 4 22.6667 4H27.3333C27.7333 4 28 4.26667 28 4.66667V9.33333C28 9.73333 27.7333 10 27.3333 10Z" fill="#37C6D0"/>
<path d="M15.2001 12.8L11.9334 9.5333C11.6667 9.26663 11.6667 8.86663 11.9334 8.59997L15.2001 5.3333C15.4667 5.06663 15.8667 5.06663 16.1334 5.3333L19.4001 8.59997C19.6667 8.86663 19.6667 9.26663 19.4001 9.5333L16.1334 12.8C15.8667 13 15.4667 13 15.2001 12.8Z" fill="#37C6D0"/>
<path d="M27.3999 17.8668L22.9333 19.2001C22.5999 19.3334 22.1999 19.1334 22.1333 18.7334L20.7999 14.2668C20.6666 13.9334 20.8666 13.5334 21.2666 13.4668L25.7333 12.1334C26.0666 12.0001 26.4666 12.2001 26.5333 12.6001L27.8666 17.0668C27.9999 17.4001 27.7999 17.8001 27.3999 17.8668Z" fill="#37C6D0"/>
</svg>
