<svg width="128" height="92" viewBox="0 0 128 92" fill="none" xmlns="http://www.w3.org/2000/svg">
<mask id="mask0_14514_208473" style="mask-type:alpha" maskUnits="userSpaceOnUse" x="19" y="-83" width="148" height="153">
<path d="M19.7449 -19.5184C28.0098 -55.2858 109.787 -101.357 145.469 -75.1905C181.152 -49.0236 168.056 47.9807 128.167 66.7253C88.2791 85.4699 11.4807 16.2498 19.7449 -19.5184Z" fill="white"/>
</mask>
<g mask="url(#mask0_14514_208473)">
<path d="M224.962 -42.0645L86.6822 123.365L-29.5325 26.2232L108.747 -139.206L224.962 -42.0645Z" fill="#635BFF" fill-opacity="0.1"/>
</g>
<mask id="mask1_14514_208473" style="mask-type:alpha" maskUnits="userSpaceOnUse" x="67" y="-56" width="149" height="147">
<path d="M92.5835 -51.6507C125.327 -68.2484 213.122 -35.052 215.93 9.10791C218.738 53.2678 135.912 105.432 95.9477 86.8487C55.9839 68.2657 59.8399 -35.052 92.5835 -51.6507Z" fill="white"/>
</mask>
<g mask="url(#mask1_14514_208473)">
<path d="M241.496 91.3438L25.8848 91.3437L25.8848 -60.1237L241.496 -60.1237L241.496 91.3438Z" fill="#635BFF" fill-opacity="0.25"/>
</g>
</svg>
