<svg width="32" height="32" viewBox="0 0 32 32" fill="none" xmlns="http://www.w3.org/2000/svg">
<path d="M17.3332 2.6665H14.6665V5.33317H17.3332V2.6665Z" fill="url(#paint0_linear_13884_201232)"/>
<path d="M25.4738 9.52584L23.8071 7.85917L24.9998 6.6665L26.6665 8.33317L25.4738 9.52584Z" fill="url(#paint1_linear_13884_201232)"/>
<path d="M18.0002 3.33317H14.0002C13.6322 3.33317 13.3335 3.0345 13.3335 2.6665V1.33317C13.3335 0.965171 13.6322 0.666504 14.0002 0.666504H18.0002C18.3682 0.666504 18.6668 0.965171 18.6668 1.33317V2.6665C18.6668 3.0345 18.3682 3.33317 18.0002 3.33317Z" fill="url(#paint2_linear_13884_201232)"/>
<path d="M26.6665 8.47849L24.8545 6.66649C24.6045 6.41649 24.6045 6.01049 24.8545 5.76049L25.7605 4.85449C26.0105 4.60449 26.4165 4.60449 26.6665 4.85449L28.4785 6.66649C28.7285 6.91649 28.7285 7.32249 28.4785 7.57249L27.5725 8.47849C27.3225 8.72916 26.9165 8.72916 26.6665 8.47849Z" fill="url(#paint3_linear_13884_201232)"/>
<path d="M16.0002 29.9998C22.9958 29.9998 28.6668 24.3288 28.6668 17.3332C28.6668 10.3376 22.9958 4.6665 16.0002 4.6665C9.00456 4.6665 3.3335 10.3376 3.3335 17.3332C3.3335 24.3288 9.00456 29.9998 16.0002 29.9998Z" fill="url(#paint4_linear_13884_201232)"/>
<path d="M16.0002 28.9998C22.4435 28.9998 27.6668 23.7765 27.6668 17.3332C27.6668 10.8898 22.4435 5.6665 16.0002 5.6665C9.55684 5.6665 4.3335 10.8898 4.3335 17.3332C4.3335 23.7765 9.55684 28.9998 16.0002 28.9998Z" fill="url(#paint5_radial_13884_201232)"/>
<path d="M16.0002 27.9998C21.8912 27.9998 26.6668 23.2242 26.6668 17.3332C26.6668 11.4421 21.8912 6.6665 16.0002 6.6665C10.1091 6.6665 5.3335 11.4421 5.3335 17.3332C5.3335 23.2242 10.1091 27.9998 16.0002 27.9998Z" fill="url(#paint6_radial_13884_201232)"/>
<path d="M15.9998 17.9999C15.8291 17.9999 15.6584 17.9346 15.5284 17.8046L9.87177 12.1479C9.6111 11.8873 9.6111 11.4659 9.87177 11.2053C10.1324 10.9446 10.5538 10.9446 10.8144 11.2053L16.4711 16.8619C16.7318 17.1226 16.7318 17.5439 16.4711 17.8046C16.3411 17.9346 16.1704 17.9999 15.9998 17.9999Z" fill="#45494D"/>
<path d="M15.9998 18.6667C16.7362 18.6667 17.3332 18.0697 17.3332 17.3333C17.3332 16.597 16.7362 16 15.9998 16C15.2635 16 14.6665 16.597 14.6665 17.3333C14.6665 18.0697 15.2635 18.6667 15.9998 18.6667Z" fill="#1E2021"/>
<defs>
<linearGradient id="paint0_linear_13884_201232" x1="15.9998" y1="2.6605" x2="15.9998" y2="5.3385" gradientUnits="userSpaceOnUse">
<stop stop-color="#484B4F"/>
<stop offset="1" stop-color="#5D646A"/>
</linearGradient>
<linearGradient id="paint1_linear_13884_201232" x1="25.8357" y1="7.49756" x2="24.6383" y2="8.6949" gradientUnits="userSpaceOnUse">
<stop stop-color="#484B4F"/>
<stop offset="1" stop-color="#5D646A"/>
</linearGradient>
<linearGradient id="paint2_linear_13884_201232" x1="15.4062" y1="0.515171" x2="16.4515" y2="3.12717" gradientUnits="userSpaceOnUse">
<stop stop-color="#8795A1"/>
<stop offset="1" stop-color="#6D7882"/>
</linearGradient>
<linearGradient id="paint3_linear_13884_201232" x1="25.7658" y1="4.77783" x2="27.6472" y2="8.72249" gradientUnits="userSpaceOnUse">
<stop stop-color="#8795A1"/>
<stop offset="1" stop-color="#6D7882"/>
</linearGradient>
<linearGradient id="paint4_linear_13884_201232" x1="7.0435" y1="8.3765" x2="24.9568" y2="26.2898" gradientUnits="userSpaceOnUse">
<stop stop-color="#889097"/>
<stop offset="1" stop-color="#64717C"/>
</linearGradient>
<radialGradient id="paint5_radial_13884_201232" cx="0" cy="0" r="1" gradientUnits="userSpaceOnUse" gradientTransform="translate(15.9992 17.3321) scale(11.6661)">
<stop offset="0.842" stop-opacity="0.2"/>
<stop offset="1" stop-opacity="0"/>
</radialGradient>
<radialGradient id="paint6_radial_13884_201232" cx="0" cy="0" r="1" gradientUnits="userSpaceOnUse" gradientTransform="translate(15.9317 6.91426) scale(23.7703)">
<stop stop-color="#FAFAFB"/>
<stop offset="1" stop-color="#C8CDD1"/>
</radialGradient>
</defs>
</svg>
