<svg width="33" height="32" viewBox="0 0 33 32" fill="none" xmlns="http://www.w3.org/2000/svg">
<g clip-path="url(#clip0_13690_199402)">
<path d="M5.45652 10.667V15.3757L1.93652 18.309L3.64319 20.3583L9.45652 15.5137V10.667H5.45652Z" fill="#6C19FF"/>
<path d="M16.1234 2C19.0687 2 21.4567 4.388 21.4567 7.33333V10H10.79V7.33333C10.79 4.38733 13.178 2 16.1234 2Z" fill="#3DD9EB"/>
<path d="M30.31 18.309L26.79 15.3757V10.667H22.79V15.5137L28.6034 20.3583L30.31 18.309Z" fill="#6C19FF"/>
<path d="M29.458 21.333C30.5626 21.333 31.458 20.4376 31.458 19.333C31.458 18.2284 30.5626 17.333 29.458 17.333C28.3534 17.333 27.458 18.2284 27.458 19.333C27.458 20.4376 28.3534 21.333 29.458 21.333Z" fill="#6C19FF"/>
<path d="M13.458 5.33301H18.7913V7.99967H13.458V5.33301Z" fill="#6C19FF"/>
<path d="M5.45801 8V12H8.12467V24H24.1247V12H26.7913V8H5.45801Z" fill="#3DD9EB"/>
<path d="M18.7913 22H13.458V29.3333H18.7913V22Z" fill="#6C19FF"/>
<path d="M18.7913 22H13.458V24H18.7913V22Z" fill="#00B3D7"/>
<path d="M2.79004 21.333C3.89461 21.333 4.79004 20.4376 4.79004 19.333C4.79004 18.2284 3.89461 17.333 2.79004 17.333C1.68547 17.333 0.790039 18.2284 0.790039 19.333C0.790039 20.4376 1.68547 21.333 2.79004 21.333Z" fill="#6C19FF"/>
<path d="M21.4567 8H10.79V10H21.4567V8Z" fill="#00B3D7"/>
<path d="M17.4567 0H14.79V3.33333H17.4567V0Z" fill="#3DD9EB"/>
</g>
<defs>
<clipPath id="clip0_13690_199402">
<rect width="32" height="32" fill="white" transform="translate(0.124023)"/>
</clipPath>
</defs>
</svg>
