<svg width="33" height="32" viewBox="0 0 33 32" fill="none" xmlns="http://www.w3.org/2000/svg">
<path d="M16.7913 6.99967C16.7913 4.97434 15.15 3.33301 13.1247 3.33301C11.0993 3.33301 9.45801 4.97434 9.45801 6.99967C9.45801 7.11301 9.46467 7.22434 9.47467 7.33501C9.46934 7.33501 9.46401 7.33301 9.45801 7.33301C7.61734 7.33301 6.12467 8.82567 6.12467 10.6663C6.12467 11.1923 6.25734 11.6837 6.47467 12.1263C4.74201 12.565 3.45801 14.1303 3.45801 15.9997C3.45801 17.869 4.74201 19.4343 6.47467 19.873C6.25734 20.3157 6.12467 20.807 6.12467 21.333C6.12467 23.1737 7.61734 24.6663 9.45801 24.6663C9.46401 24.6663 9.46934 24.6643 9.47467 24.6643C9.46467 24.775 9.45801 24.8863 9.45801 24.9997C9.45801 27.025 11.0993 28.6663 13.1247 28.6663C15.15 28.6663 16.7913 27.025 16.7913 24.9997C16.7913 24.887 16.7913 7.11234 16.7913 6.99967Z" fill="#F55376"/>
<path d="M5.24707 19.3337C5.61707 19.5797 6.03174 19.7623 6.47507 19.8743C7.0184 18.769 8.14507 18.0003 9.45707 18.0003V16.667C7.6004 16.667 5.9984 17.7597 5.24707 19.3337Z" fill="#EB0000"/>
<path d="M9.63001 5.88867C9.51801 6.23934 9.45801 6.61267 9.45801 7C9.45801 7.11334 9.46467 7.22467 9.47467 7.33534C9.47401 7.33534 9.47334 7.33534 9.47201 7.33534C10.1633 7.828 10.586 8.626 10.586 9.50534H11.9193C11.9193 7.94001 11.0293 6.54801 9.63001 5.88867Z" fill="#EB0000"/>
<path d="M24.1234 27.333H22.1234V23.333H16.79V21.333H24.1234V27.333Z" fill="#8100EF"/>
<path d="M23.1247 24.667C24.0447 24.667 24.7913 25.4137 24.7913 26.3337C24.7913 27.2537 24.0447 28.0003 23.1247 28.0003C22.2047 28.0003 21.458 27.2537 21.458 26.3337C21.458 25.4137 22.2047 24.667 23.1247 24.667Z" fill="#3DD9EB"/>
<path d="M22.1234 13.333H16.79V15.333H22.1234V13.333Z" fill="#8100EF"/>
<path d="M23.1247 12.667C24.0447 12.667 24.7913 13.4137 24.7913 14.3337C24.7913 15.2537 24.0447 16.0003 23.1247 16.0003C22.2047 16.0003 21.458 15.2537 21.458 14.3337C21.458 13.4137 22.2047 12.667 23.1247 12.667Z" fill="#3DD9EB"/>
<path d="M26.1234 17.333H16.79V19.333H26.1234V17.333Z" fill="#8100EF"/>
<path d="M27.1247 16.667C28.0447 16.667 28.7913 17.4137 28.7913 18.3337C28.7913 19.2537 28.0447 20.0003 27.1247 20.0003C26.2047 20.0003 25.458 19.2537 25.458 18.3337C25.458 17.4137 26.2047 16.667 27.1247 16.667Z" fill="#3DD9EB"/>
<path d="M23.4567 10.667H16.79V8.66699H21.4567V4.66699H23.4567V10.667Z" fill="#8100EF"/>
<path d="M22.4567 7.33333C21.5367 7.33333 20.79 6.58667 20.79 5.66667C20.79 4.74667 21.5367 4 22.4567 4C23.3767 4 24.1234 4.74667 24.1234 5.66667C24.1234 6.58667 23.3767 7.33333 22.4567 7.33333Z" fill="#3DD9EB"/>
<path d="M16.79 8.66699H14.79V10.667H16.79V8.66699Z" fill="#EB0000"/>
<path d="M16.79 13.333H14.79V15.333H16.79V13.333Z" fill="#EB0000"/>
<path d="M16.79 17.333H14.79V19.333H16.79V17.333Z" fill="#EB0000"/>
<path d="M16.79 21.333H14.79V23.333H16.79V21.333Z" fill="#EB0000"/>
</svg>
