<svg width="120" height="95" viewBox="0 0 120 95" fill="none" xmlns="http://www.w3.org/2000/svg">
<mask id="mask0_13690_199343" style="mask-type:alpha" maskUnits="userSpaceOnUse" x="19" y="-80" width="148" height="153">
<path d="M19.7449 -16.5184C28.0098 -52.2858 109.787 -98.3574 145.469 -72.1905C181.152 -46.0236 168.056 50.9807 128.167 69.7253C88.2791 88.4699 11.4807 19.2498 19.7449 -16.5184Z" fill="white"/>
</mask>
<g mask="url(#mask0_13690_199343)">
<path d="M224.962 -39.0646L86.6822 126.365L-29.5325 29.2231L108.747 -136.206L224.962 -39.0646Z" fill="#00C8FF" fill-opacity="0.25"/>
</g>
<mask id="mask1_13690_199343" style="mask-type:alpha" maskUnits="userSpaceOnUse" x="67" y="-53" width="149" height="147">
<path d="M92.5835 -48.6507C125.327 -65.2484 213.122 -32.052 215.93 12.1079C218.738 56.2678 135.912 108.432 95.9477 89.8487C55.9839 71.2657 59.8399 -32.052 92.5835 -48.6507Z" fill="white"/>
</mask>
<g mask="url(#mask1_13690_199343)">
<path d="M241.496 94.3438L25.8848 94.3437L25.8848 -57.1237L241.496 -57.1237L241.496 94.3438Z" fill="#00C8FF" fill-opacity="0.25"/>
</g>
</svg>
