<svg width="32" height="32" viewBox="0 0 32 32" fill="none" xmlns="http://www.w3.org/2000/svg">
<path d="M8.10635 14L6.95568 15.1507C6.61502 15.4913 6.37302 15.918 6.25502 16.3853L4.79102 22.2007L6.33302 25.6667L9.78835 27.2027L15.6063 25.738C16.0737 25.62 16.5003 25.378 16.8417 25.0373L17.9997 23.8733L8.10635 14Z" fill="url(#paint0_linear_13884_201242)"/>
<path d="M4.79254 22.2012L3.38121 27.7985C3.25788 28.2878 3.70121 28.7312 4.19054 28.6078L9.78588 27.1972L4.79254 22.2012Z" fill="url(#paint1_linear_13884_201242)"/>
<path d="M20.107 2L7.20703 14.9C8.4497 15.3847 9.3337 16.586 9.3337 18C9.3337 18 9.3337 18.1493 9.3337 18.3333C9.3337 18.5173 9.48303 18.6667 9.66703 18.6667C9.85103 18.6667 10.0004 18.6667 10.0004 18.6667C11.841 18.6667 13.3337 20.1593 13.3337 22C13.3337 22 13.3337 22.1493 13.3337 22.3333C13.3337 22.5173 13.483 22.6667 13.667 22.6667C13.851 22.6667 14.0004 22.6667 14.0004 22.6667C15.411 22.6667 16.6097 23.546 17.097 24.7833L30.0004 11.8733L20.107 2Z" fill="#EDBE00"/>
<path d="M9.43103 18.5693L23.0564 4.944L20.107 2L7.20703 14.9C8.4497 15.3847 9.3337 16.586 9.3337 18C9.3337 18 9.3337 18.1493 9.3337 18.3333C9.3337 18.4253 9.37103 18.5087 9.43103 18.5693Z" fill="url(#paint2_linear_13884_201242)"/>
<path d="M13.4307 22.5695C13.4913 22.6295 13.5747 22.6668 13.6667 22.6668C13.8507 22.6668 14 22.6668 14 22.6668C15.4107 22.6668 16.6093 23.5461 17.0967 24.7835L30 11.8735L27.0607 8.93945L13.4307 22.5695Z" fill="url(#paint3_linear_13884_201242)"/>
<defs>
<linearGradient id="paint0_linear_13884_201242" x1="1.54302" y1="14.1467" x2="18.6603" y2="31.2633" gradientUnits="userSpaceOnUse">
<stop stop-color="#F9F9F9"/>
<stop offset="1" stop-color="#C2C8CC"/>
</linearGradient>
<linearGradient id="paint1_linear_13884_201242" x1="2.92588" y1="24.0685" x2="7.92055" y2="29.0632" gradientUnits="userSpaceOnUse">
<stop stop-color="#787878"/>
<stop offset="1" stop-color="#666666"/>
</linearGradient>
<linearGradient id="paint2_linear_13884_201242" x1="16.8137" y1="12.326" x2="12.9617" y2="8.474" gradientUnits="userSpaceOnUse">
<stop stop-color="#FEDE00"/>
<stop offset="1" stop-color="#FFD000"/>
</linearGradient>
<linearGradient id="paint3_linear_13884_201242" x1="23.1873" y1="18.6928" x2="9.90933" y2="5.41545" gradientUnits="userSpaceOnUse">
<stop stop-color="#EBA601"/>
<stop offset="1" stop-color="#C18310"/>
</linearGradient>
</defs>
</svg>
