<svg width="33" height="32" viewBox="0 0 33 32" fill="none" xmlns="http://www.w3.org/2000/svg">
<path d="M5.04819 1.51851L5.60419 3.18651L7.27219 3.74251C7.51952 3.82517 7.51952 4.17451 7.27219 4.25651L5.60419 4.81317L5.04819 6.48117C4.96552 6.72851 4.61619 6.72851 4.53419 6.48117L3.97752 4.81317L2.30952 4.25717C2.06219 4.17451 2.06219 3.82517 2.30952 3.74317L3.97752 3.18651L4.53352 1.51851C4.61619 1.27117 4.96552 1.27117 5.04819 1.51851Z" fill="#E756F7"/>
<path d="M15.458 28.667C22.0854 28.667 27.458 23.2944 27.458 16.667C27.458 10.0396 22.0854 4.66699 15.458 4.66699C8.83059 4.66699 3.45801 10.0396 3.45801 16.667C3.45801 23.2944 8.83059 28.667 15.458 28.667Z" fill="url(#paint0_linear_13690_199426)"/>
<path d="M26.3916 11.7315L20.3916 5.73152L23.2616 2.86152C23.5223 2.60085 23.9443 2.60085 24.2043 2.86152L29.2616 7.91885C29.5223 8.17951 29.5223 8.60152 29.2616 8.86152L26.3916 11.7315Z" fill="url(#paint1_linear_13690_199426)"/>
<path d="M25.3762 9.13794L22.9855 6.74728C22.7249 6.48661 22.7249 6.06461 22.9855 5.80461L25.0655 3.72461L28.3989 7.05794L26.3189 9.13794C26.0582 9.39861 25.6362 9.39861 25.3762 9.13794Z" fill="url(#paint2_linear_13690_199426)"/>
<path d="M26.8708 2.86152L29.2614 5.25218C29.5221 5.51285 29.5221 5.93485 29.2614 6.19485L28.3988 7.05752L25.0654 3.72418L25.9281 2.86152C26.1888 2.60085 26.6108 2.60085 26.8708 2.86152Z" fill="url(#paint3_linear_13690_199426)"/>
<path d="M14.3157 6.80552L14.7331 8.05685L15.9844 8.47418C16.1697 8.53618 16.1697 8.79818 15.9844 8.86018L14.7331 9.27752L14.3157 10.5288C14.2537 10.7142 13.9917 10.7142 13.9297 10.5288L13.5124 9.27752L12.2611 8.86018C12.0757 8.79818 12.0757 8.53618 12.2611 8.47418L13.5124 8.05685L13.9297 6.80552C13.9917 6.61952 14.2544 6.61952 14.3157 6.80552Z" fill="url(#paint4_linear_13690_199426)"/>
<path d="M22.9994 24.2094C24.7194 22.4894 25.7294 20.328 26.0287 18.0894C26.0287 5.33336 7.45671 20 7.91404 9.12402C3.74871 13.2894 3.74871 20.0434 7.91404 24.2087C12.0794 28.374 18.8334 28.3747 22.9994 24.2094Z" fill="url(#paint5_linear_13690_199426)"/>
<path d="M22.9994 24.2094C24.7194 22.4894 25.7294 20.328 26.0287 18.0894C25.4567 22 22.782 16.2834 19.4567 15.3334C14.79 14 6.12337 18.6667 7.91404 9.12402C3.74871 13.2894 3.74871 20.0434 7.91404 24.2087C12.0794 28.374 18.8334 28.3747 22.9994 24.2094Z" fill="url(#paint6_linear_13690_199426)"/>
<defs>
<linearGradient id="paint0_linear_13690_199426" x1="7.16267" y1="8.37166" x2="23.84" y2="25.049" gradientUnits="userSpaceOnUse">
<stop stop-color="#63D6FF"/>
<stop offset="1" stop-color="#0A85D9"/>
</linearGradient>
<linearGradient id="paint1_linear_13690_199426" x1="22.2587" y1="4.25918" x2="28.111" y2="10.1115" gradientUnits="userSpaceOnUse">
<stop stop-color="#5CCBF2"/>
<stop offset="1" stop-color="#1EA2E4"/>
</linearGradient>
<linearGradient id="paint2_linear_13690_199426" x1="23.8275" y1="5.03861" x2="27.0875" y2="8.29794" gradientUnits="userSpaceOnUse">
<stop stop-color="#ADA311"/>
<stop offset="0.999" stop-color="#918215"/>
</linearGradient>
<linearGradient id="paint3_linear_13690_199426" x1="25.8034" y1="3.12818" x2="29.0554" y2="6.38018" gradientUnits="userSpaceOnUse">
<stop stop-color="#EBA600"/>
<stop offset="1" stop-color="#C28200"/>
</linearGradient>
<linearGradient id="paint4_linear_13690_199426" x1="10.6164" y1="5.15952" x2="26.4637" y2="21.0068" gradientUnits="userSpaceOnUse">
<stop stop-color="#D160F6"/>
<stop offset="1" stop-color="#C545ED"/>
</linearGradient>
<linearGradient id="paint5_linear_13690_199426" x1="15.4092" y1="9.32834" x2="15.4094" y2="27.2224" gradientUnits="userSpaceOnUse">
<stop stop-color="#D160F6"/>
<stop offset="1" stop-color="#C545ED"/>
</linearGradient>
<linearGradient id="paint6_linear_13690_199426" x1="15.4092" y1="9.32834" x2="15.4094" y2="27.2224" gradientUnits="userSpaceOnUse">
<stop stop-color="#D160F6"/>
<stop offset="1" stop-color="#9014B8"/>
</linearGradient>
</defs>
</svg>
