<svg width="32" height="32" viewBox="0 0 32 32" fill="none" xmlns="http://www.w3.org/2000/svg">
<path d="M27.333 4.6665H4.66634C3.93301 4.6665 3.33301 5.2665 3.33301 5.99984V25.3332H28.6663V5.99984C28.6663 5.2665 28.0663 4.6665 27.333 4.6665Z" fill="url(#paint0_linear_13884_201248)"/>
<path d="M28.9997 27.9998H2.99967C2.07901 27.9998 1.33301 27.2538 1.33301 26.3332C1.33301 25.4125 2.07901 24.6665 2.99967 24.6665H28.9997C29.9203 24.6665 30.6663 25.4125 30.6663 26.3332C30.6663 27.2538 29.9203 27.9998 28.9997 27.9998Z" fill="#46494C"/>
<path d="M25.6663 24.6665H22.333C21.781 24.6665 21.333 24.2185 21.333 23.6665C21.333 23.1145 21.781 22.6665 22.333 22.6665H25.6663C26.2183 22.6665 26.6663 23.1145 26.6663 23.6665C26.6663 24.2185 26.2183 24.6665 25.6663 24.6665Z" fill="white"/>
<path d="M7 17.6667L13 13L16.6667 17.3333L24.3333 11" stroke="white" stroke-width="3" stroke-miterlimit="10" stroke-linecap="round" stroke-linejoin="round"/>
<defs>
<linearGradient id="paint0_linear_13884_201248" x1="14.229" y1="0.46717" x2="17.1677" y2="25.6292" gradientUnits="userSpaceOnUse">
<stop stop-color="#21AD64"/>
<stop offset="1" stop-color="#088242"/>
</linearGradient>
</defs>
</svg>
