<svg width="32" height="32" viewBox="0 0 32 32" fill="none" xmlns="http://www.w3.org/2000/svg">
<circle cx="16" cy="16" r="16" fill="#007AB7"/>
<path fill-rule="evenodd" clip-rule="evenodd" d="M12.8278 13.6589H10.4453L10.4453 21.3318H12.8278L12.8278 13.6589ZM13.0211 11.2275C13.0211 10.4647 12.4011 9.84375 11.6395 9.84375C10.8734 9.84375 10.2578 10.4647 10.2578 11.2275C10.2578 11.9904 10.8734 12.6113 11.6395 12.6113C12.4011 12.6113 13.0211 11.9904 13.0211 11.2275ZM16.6048 13.6589H14.3286L14.3286 21.3318H16.7067V17.5353C16.7067 16.5374 16.8927 15.5661 18.1326 15.5661C19.3548 15.5661 19.3681 16.7104 19.3681 17.6018V21.3318H21.7462V17.1273C21.7462 15.0605 21.2989 13.4727 18.8899 13.4727C17.7296 13.4727 16.9547 14.1069 16.6358 14.7101H16.6048V13.6589Z" fill="white"/>
</svg>
