<svg width="12" height="4" viewBox="0 0 12 4" fill="none" xmlns="http://www.w3.org/2000/svg">
<path d="M2.02656 3.10938C1.72495 3.10938 1.46643 3.00331 1.25099 2.79119C1.03556 2.57907 0.929496 2.32055 0.93281 2.01562C0.929496 1.71733 1.03556 1.46212 1.25099 1.25C1.46643 1.03788 1.72495 0.931818 2.02656 0.931818C2.31823 0.931818 2.57178 1.03788 2.78721 1.25C3.00596 1.46212 3.117 1.71733 3.12031 2.01562C3.117 2.2178 3.06397 2.40175 2.96122 2.56747C2.86179 2.73319 2.72921 2.86577 2.56349 2.9652C2.40109 3.06132 2.22211 3.10938 2.02656 3.10938ZM6.00311 3.10938C5.7015 3.10938 5.44297 3.00331 5.22754 2.79119C5.0121 2.57907 4.90604 2.32055 4.90936 2.01562C4.90604 1.71733 5.0121 1.46212 5.22754 1.25C5.44297 1.03788 5.7015 0.931818 6.00311 0.931818C6.29477 0.931818 6.54833 1.03788 6.76376 1.25C6.98251 1.46212 7.09354 1.71733 7.09686 2.01562C7.09354 2.2178 7.04051 2.40175 6.93777 2.56747C6.83833 2.73319 6.70576 2.86577 6.54004 2.9652C6.37763 3.06132 6.19866 3.10938 6.00311 3.10938ZM9.97965 3.10938C9.67804 3.10938 9.41952 3.00331 9.20409 2.79119C8.98865 2.57907 8.88259 2.32055 8.8859 2.01562C8.88259 1.71733 8.98865 1.46212 9.20409 1.25C9.41952 1.03788 9.67804 0.931818 9.97965 0.931818C10.2713 0.931818 10.5249 1.03788 10.7403 1.25C10.9591 1.46212 11.0701 1.71733 11.0734 2.01562C11.0701 2.2178 11.0171 2.40175 10.9143 2.56747C10.8149 2.73319 10.6823 2.86577 10.5166 2.9652C10.3542 3.06132 10.1752 3.10938 9.97965 3.10938Z" fill="#212B36"/>
</svg>
