<svg width="40" height="40" viewBox="0 0 40 40" fill="none" xmlns="http://www.w3.org/2000/svg">
<path d="M0 20C0 8.95431 8.95431 0 20 0C31.0457 0 40 8.95431 40 20C40 31.0457 31.0457 40 20 40C8.95431 40 0 31.0457 0 20Z" fill="#6D6C84"/>
<path d="M18 0.0987549C15.8858 0.308664 13.8685 0.847804 12 1.66418V30C12 31.6569 13.3431 33 15 33C16.6569 33 18 31.6569 18 30V0.0987549Z" fill="#E2E2E6"/>
<path fill-rule="evenodd" clip-rule="evenodd" d="M30 30C30 31.6569 28.6569 33 27 33H15C13.3431 33 12 31.6569 12 30C12 28.3431 13.3431 27 15 27H27C28.6569 27 30 28.3431 30 30Z" fill="#B9B8C6"/>
</svg>
