<svg width="656" height="216" viewBox="0 0 656 216" fill="none" xmlns="http://www.w3.org/2000/svg">
<g filter="url(#filter0_dd_8827_174544)">
<g clip-path="url(#clip0_8827_174544)">
<rect x="1" y="1" width="654" height="212" rx="8" fill="white"/>
<path d="M70.9318 70.6678L78.8668 72.7939L73.058 78.6027L70.9318 70.6678Z" fill="#F5F5FA"/>
<path d="M111.4 44.2694L113.427 54.4844L103.567 51.1322L111.4 44.2694Z" fill="#F5F5FA"/>
<path d="M161.624 35.5174L152.531 35.9105L156.737 27.8392L161.624 35.5174Z" fill="#F5F5FA"/>
<path d="M22.7858 61.0699L21.5706 67.4953L16.6136 63.2302L22.7858 61.0699Z" fill="#E8F0FE"/>
<circle cx="108.274" cy="105.046" r="3.15916" fill="#F5F5FA"/>
<circle cx="46.8662" cy="107.073" r="1.92679" fill="#F5F5FA"/>
<path fill-rule="evenodd" clip-rule="evenodd" d="M144.861 62.6953L149.84 57.7169L151.707 59.5838L146.728 64.5622L144.861 62.6953ZM143.305 74.8301L148.283 69.8516L150.15 71.7186L145.172 76.697L143.305 74.8301ZM144.861 62.6956L142.994 64.5625L150.151 71.719L152.018 69.8521L144.861 62.6956Z" fill="#F5F5FA"/>
<path d="M221.932 149.668L229.867 151.794L224.058 157.603L221.932 149.668Z" fill="#F5F5FA"/>
<path d="M262.4 123.269L264.427 133.484L254.567 130.132L262.4 123.269Z" fill="#F5F5FA"/>
<path d="M312.624 114.517L303.531 114.91L307.737 106.839L312.624 114.517Z" fill="#F5F5FA"/>
<path d="M173.786 140.07L172.571 146.495L167.614 142.23L173.786 140.07Z" fill="#F5F5FA"/>
<circle cx="259.274" cy="184.046" r="3.15916" fill="#F5F5FA"/>
<circle cx="197.866" cy="186.073" r="1.92679" fill="#F5F5FA"/>
<path fill-rule="evenodd" clip-rule="evenodd" d="M295.861 141.695L300.84 136.717L302.707 138.584L297.728 143.562L295.861 141.695ZM294.305 153.83L299.283 148.852L301.15 150.719L296.172 155.697L294.305 153.83ZM295.861 141.696L293.994 143.563L301.151 150.719L303.018 148.852L295.861 141.696Z" fill="#F5F5FA"/>
<path fill-rule="evenodd" clip-rule="evenodd" d="M205.986 126.885L208.3 128.156L211.9 121.598L218.071 124.986L219.342 122.672L213.17 119.283L213.17 119.284L210.856 118.014L205.986 126.885ZM205.985 126.884L199.814 123.496L201.085 121.182L207.256 124.57L205.985 126.884Z" fill="#C1DCE7" fill-opacity="0.5"/>
<path fill-rule="evenodd" clip-rule="evenodd" d="M49.2754 189.814L54.2538 194.793L52.3869 196.66L47.4085 191.681L49.2754 189.814ZM37.1406 188.258L42.1191 193.236L40.2522 195.103L35.2737 190.125L37.1406 188.258ZM49.2751 189.814L47.4082 187.947L40.2517 195.104L42.1186 196.971L49.2751 189.814Z" fill="#D0AAFC" fill-opacity="0.5"/>
<path fill-rule="evenodd" clip-rule="evenodd" d="M637.002 187.846L641.98 192.824L640.113 194.691L635.135 189.713L637.002 187.846ZM624.867 186.289L629.846 191.268L627.979 193.134L623 188.156L624.867 186.289ZM637.002 187.845L635.135 185.979L627.978 193.135L629.845 195.002L637.002 187.845Z" fill="#94BDFF" fill-opacity="0.5"/>
<path d="M351.932 60.6678L359.867 62.7939L354.058 68.6027L351.932 60.6678Z" fill="#F5F5FA"/>
<path d="M392.4 34.2694L394.427 44.4844L384.567 41.1322L392.4 34.2694Z" fill="#C1DCE7" fill-opacity="0.5"/>
<path d="M442.624 25.5174L433.531 25.9105L437.737 17.8392L442.624 25.5174Z" fill="#F5F5FA"/>
<path d="M303.786 51.0699L302.571 57.4953L297.614 53.2302L303.786 51.0699Z" fill="#F5F5FA"/>
<circle cx="389.274" cy="95.0459" r="3.15916" fill="#F5F5FA"/>
<circle cx="327.866" cy="97.0733" r="1.92679" fill="#F5F5FA"/>
<path fill-rule="evenodd" clip-rule="evenodd" d="M335.986 37.8852L338.3 39.1559L341.9 32.5979L348.071 35.9859L349.342 33.6716L343.17 30.2832L343.17 30.2839L340.856 29.0136L335.986 37.8852ZM335.985 37.8844L329.814 34.4959L331.085 32.1816L337.256 35.5701L335.985 37.8844Z" fill="#F5F5FA"/>
<path d="M481.932 156.668L489.867 158.794L484.058 164.603L481.932 156.668Z" fill="#A257FA" fill-opacity="0.5"/>
<path d="M522.4 130.269L524.427 140.484L514.567 137.132L522.4 130.269Z" fill="#F5F5FA"/>
<path d="M572.624 121.517L563.531 121.91L567.737 113.839L572.624 121.517Z" fill="#F5F5FA"/>
<path d="M433.786 147.07L432.571 153.495L427.614 149.23L433.786 147.07Z" fill="#F5F5FA"/>
<circle cx="519.274" cy="191.046" r="3.15916" fill="#F5F5FA"/>
<circle cx="457.866" cy="193.073" r="1.92679" fill="#F5F5FA"/>
<path d="M561.932 51.6678L569.867 53.7939L564.058 59.6027L561.932 51.6678Z" fill="#F5F5FA"/>
<path d="M602.4 25.2694L604.427 35.4844L594.567 32.1322L602.4 25.2694Z" fill="#F5F5FA"/>
<path d="M513.786 42.0699L512.571 48.4953L507.614 44.2302L513.786 42.0699Z" fill="#F5F5FA"/>
<circle cx="599.274" cy="86.0459" r="3.15916" fill="#F5F5FA"/>
<circle cx="537.866" cy="88.0733" r="1.92679" fill="#F5F5FA"/>
<rect x="131" y="55" width="432" height="4" fill="#635BFF" fill-opacity="0.1"/>
<rect x="100" y="55" width="122" height="4" rx="2" fill="#635BFF"/>
<circle cx="562" cy="55" r="28" fill="#EEF6E6"/>
<g opacity="0.25">
<path d="M553.555 70.6927C553.045 70.6927 552.571 70.5294 552.153 70.2377C552.099 70.2013 552.062 70.1648 552.026 70.1283C551.989 70.1108 551.97 70.0744 551.953 70.0554C551.88 70 551.843 69.9461 551.789 69.8921C551.753 69.8556 551.734 69.8192 551.699 69.7827L551.682 69.7652C551.645 69.7288 551.626 69.6923 551.609 69.6559L551.572 69.6004C551.499 69.4911 551.445 69.3817 551.39 69.2723C551.372 69.2184 551.353 69.163 551.334 69.109C551.317 69.0536 551.298 68.9821 551.28 68.9267C551.262 68.8538 551.244 68.7634 551.225 68.6715C551.225 68.635 551.208 68.5811 551.208 68.5446C551.208 68.4717 551.19 68.3988 551.19 68.3259C551.19 68.199 551.208 68.0707 551.227 67.9249L552.629 59.7642L546.709 53.9894C546.599 53.88 546.49 53.7532 546.4 53.6248C546.29 53.4615 546.217 53.3332 546.163 53.1873C546.146 53.1334 546.109 53.0605 546.09 52.9686C546.035 52.7499 546 52.5311 546 52.2949C546 52.222 546 52.168 546 52.0951C546 51.9857 546.018 51.8763 546.054 51.767C546.054 51.7495 546.071 51.713 546.071 51.6941C546.09 51.6386 546.09 51.5847 546.108 51.5307C546.108 51.5132 546.125 51.4753 546.144 51.4214C546.162 51.3659 546.181 51.312 546.217 51.258C546.271 51.1487 546.327 51.0393 546.417 50.9124C546.454 50.8395 546.507 50.7855 546.563 50.7301C546.563 50.7301 546.563 50.7126 546.58 50.7126L546.872 50.2387H547.127C547.164 50.2197 547.181 50.2022 547.218 50.1833C547.254 50.1658 547.327 50.1293 547.381 50.0928C547.454 50.0564 547.544 50.0199 547.654 49.9835C547.69 49.966 547.744 49.947 547.8 49.947C547.872 49.9295 547.945 49.9106 548.036 49.8916L556.233 48.7075L559.839 41.33C560.24 40.5104 561.06 40 561.97 40C562.626 40 563.263 40.2727 563.718 40.7466C563.791 40.8371 563.864 40.91 563.918 41.0018C563.991 41.1112 564.064 41.2206 564.118 41.33L567.78 48.725L575.958 49.9091C576.869 50.036 577.616 50.6747 577.888 51.5482C577.907 51.6036 577.925 51.6386 577.925 51.6941C577.925 51.7116 577.925 51.7116 577.942 51.7305C577.96 51.7859 577.979 51.8399 577.979 51.9128C577.979 51.9303 577.979 51.9303 577.979 51.9493C577.996 52.0222 577.996 52.0761 577.996 52.149C578.015 52.4947 577.96 52.8592 577.814 53.1873C577.759 53.3332 577.687 53.46 577.595 53.5884L577.576 53.6059C577.486 53.7327 577.377 53.8611 577.267 53.9705L571.347 59.7453L572.749 67.8869C572.895 68.7794 572.55 69.6719 571.802 70.2188C571.619 70.3456 571.401 70.474 571.182 70.5469C571.163 70.5469 571.145 70.5658 571.109 70.5658C570.873 70.6387 570.635 70.6752 570.399 70.6752C570.017 70.6752 569.633 70.5848 569.287 70.4025L561.965 66.5584L554.643 70.4025C554.32 70.6023 553.937 70.6927 553.555 70.6927Z" fill="#20495A"/>
<path d="M561.974 41.1641V56.2282L556.945 49.7986L560.88 41.8393C561.117 41.4018 561.555 41.1641 561.974 41.1641Z" fill="#6D91A0"/>
<path d="M576.78 51.9333L561.988 56.2324L567.015 49.8027L575.795 51.0773C576.288 51.1677 576.634 51.5133 576.78 51.9333Z" fill="#20495A"/>
<path d="M571.116 69.289L561.973 56.2285L570.097 59.3434L571.59 68.0874C571.698 68.5978 571.479 69.0338 571.116 69.289Z" fill="#6D91A0"/>
<path d="M561.973 56.2285V65.2451L554.122 69.3794C553.667 69.6156 553.193 69.5427 552.828 69.289L561.973 56.2285Z" fill="#20495A"/>
<path d="M566.997 49.7986L561.969 56.2282V41.1641C562.297 41.1641 562.625 41.2909 562.861 41.5461C562.898 41.5826 562.934 41.6365 562.971 41.692C563.007 41.7474 563.044 41.8013 563.061 41.8553L566.997 49.7986Z" fill="#20495A"/>
<path d="M576.742 52.7513C576.705 52.8242 576.669 52.8971 576.632 52.97C576.577 53.0429 576.523 53.0969 576.469 53.1698L570.112 59.3632L561.988 56.2483L576.78 51.9492C576.78 51.9667 576.797 51.9857 576.797 52.0046C576.797 52.0236 576.816 52.0411 576.816 52.0775C576.816 52.0965 576.816 52.0965 576.816 52.0965C576.816 52.114 576.816 52.133 576.816 52.1505C576.816 52.1869 576.816 52.2059 576.816 52.2409C576.834 52.4042 576.815 52.5865 576.742 52.7513Z" fill="#20495A"/>
<path d="M571.114 69.289C571.023 69.3619 570.914 69.4159 570.786 69.4523C570.768 69.4523 570.768 69.4523 570.749 69.4698C570.457 69.5602 570.129 69.5427 569.82 69.3794L561.969 65.2451V56.2285L571.114 69.289Z" fill="#20495A"/>
<path d="M561.968 56.2285L552.824 69.289C552.807 69.27 552.788 69.2525 552.77 69.2336C552.753 69.2161 552.734 69.1971 552.715 69.1782C552.697 69.1607 552.678 69.1417 552.642 69.1052C552.623 69.0877 552.605 69.0688 552.586 69.0498C552.567 69.0309 552.569 69.0323 552.569 69.0134C552.551 68.9959 552.532 68.9769 552.532 68.958C552.496 68.904 552.459 68.8486 552.442 68.7946C552.424 68.7771 552.424 68.7392 552.406 68.7042C552.388 68.6678 552.388 68.6488 552.369 68.6138C552.352 68.5773 552.352 68.5234 552.352 68.4869C552.352 68.4694 552.352 68.4315 552.352 68.414C552.352 68.3776 552.352 68.3411 552.352 68.3046C552.352 68.2317 552.352 68.1588 552.369 68.0859L553.862 59.342L561.968 56.2285Z" fill="#6D91A0"/>
<path d="M561.971 56.2285L547.18 51.9295C547.18 51.912 547.197 51.893 547.197 51.8741C547.215 51.8376 547.215 51.8011 547.234 51.7836C547.27 51.7107 547.307 51.6568 547.343 51.6014C547.361 51.5649 547.379 51.5459 547.416 51.5109C547.435 51.4934 547.452 51.4555 547.489 51.438C547.506 51.4205 547.544 51.3841 547.562 51.3651C547.579 51.3462 547.616 51.3287 547.635 51.3097C547.671 51.2922 547.708 51.2543 547.744 51.2368C547.762 51.2193 547.798 51.2003 547.834 51.2003C547.89 51.1828 547.925 51.1639 547.98 51.1449C547.998 51.1449 548.017 51.1274 548.053 51.1274C548.09 51.1099 548.144 51.1099 548.199 51.091L556.979 49.8164L561.971 56.2285Z" fill="#20495A"/>
<path d="M561.971 56.2287L553.866 59.3611L547.509 53.1677C547.436 53.1123 547.4 53.0408 547.346 52.9679C547.309 52.895 547.255 52.8221 547.236 52.7492C547.219 52.7127 547.2 52.6763 547.2 52.6398C547.163 52.5304 547.145 52.4036 547.145 52.2942C547.145 52.2577 547.145 52.2213 547.145 52.1848C547.145 52.1309 547.145 52.0944 547.163 52.039C547.163 52.0215 547.181 52.0025 547.181 51.9661C547.181 51.9486 547.198 51.9296 547.198 51.9121L561.971 56.2287Z" fill="#20495A"/>
</g>
<path opacity="0.25" d="M530.648 109V97.3636H532.756V107.233H537.881V109H530.648ZM543.307 109.17C542.432 109.17 541.676 108.989 541.04 108.625C540.407 108.258 539.921 107.739 539.58 107.068C539.239 106.394 539.068 105.6 539.068 104.688C539.068 103.79 539.239 103.002 539.58 102.324C539.924 101.642 540.405 101.112 541.023 100.733C541.64 100.35 542.366 100.159 543.199 100.159C543.737 100.159 544.244 100.246 544.722 100.42C545.203 100.591 545.627 100.856 545.994 101.216C546.366 101.576 546.657 102.034 546.869 102.591C547.082 103.144 547.188 103.803 547.188 104.568V105.199H540.034V103.812H545.216C545.212 103.419 545.127 103.068 544.96 102.761C544.794 102.451 544.561 102.206 544.262 102.028C543.966 101.85 543.621 101.761 543.227 101.761C542.807 101.761 542.438 101.864 542.119 102.068C541.801 102.269 541.553 102.534 541.375 102.864C541.201 103.189 541.112 103.547 541.108 103.938V105.148C541.108 105.655 541.201 106.091 541.387 106.455C541.572 106.814 541.832 107.091 542.165 107.284C542.498 107.473 542.888 107.568 543.335 107.568C543.635 107.568 543.905 107.527 544.148 107.443C544.39 107.356 544.601 107.229 544.779 107.062C544.957 106.896 545.091 106.689 545.182 106.443L547.102 106.659C546.981 107.167 546.75 107.61 546.409 107.989C546.072 108.364 545.64 108.655 545.114 108.864C544.587 109.068 543.985 109.17 543.307 109.17ZM556.297 100.273L553.189 109H550.916L547.809 100.273H550.002L552.007 106.756H552.098L554.11 100.273H556.297ZM561.111 109.17C560.236 109.17 559.481 108.989 558.844 108.625C558.212 108.258 557.725 107.739 557.384 107.068C557.043 106.394 556.873 105.6 556.873 104.688C556.873 103.79 557.043 103.002 557.384 102.324C557.729 101.642 558.21 101.112 558.827 100.733C559.445 100.35 560.17 100.159 561.003 100.159C561.541 100.159 562.049 100.246 562.526 100.42C563.007 100.591 563.431 100.856 563.799 101.216C564.17 101.576 564.462 102.034 564.674 102.591C564.886 103.144 564.992 103.803 564.992 104.568V105.199H557.838V103.812H563.02C563.017 103.419 562.931 103.068 562.765 102.761C562.598 102.451 562.365 102.206 562.066 102.028C561.77 101.85 561.426 101.761 561.032 101.761C560.611 101.761 560.242 101.864 559.924 102.068C559.606 102.269 559.357 102.534 559.179 102.864C559.005 103.189 558.916 103.547 558.912 103.938V105.148C558.912 105.655 559.005 106.091 559.191 106.455C559.376 106.814 559.636 107.091 559.969 107.284C560.302 107.473 560.693 107.568 561.14 107.568C561.439 107.568 561.71 107.527 561.952 107.443C562.195 107.356 562.405 107.229 562.583 107.062C562.761 106.896 562.895 106.689 562.986 106.443L564.907 106.659C564.785 107.167 564.554 107.61 564.213 107.989C563.876 108.364 563.445 108.655 562.918 108.864C562.392 109.068 561.789 109.17 561.111 109.17ZM568.613 97.3636V109H566.556V97.3636H568.613ZM578.623 109.222C577.687 109.222 576.884 108.985 576.214 108.511C575.547 108.034 575.034 107.347 574.674 106.449C574.318 105.547 574.14 104.462 574.14 103.193C574.144 101.924 574.324 100.845 574.68 99.9545C575.04 99.0606 575.553 98.3788 576.22 97.9091C576.89 97.4394 577.691 97.2045 578.623 97.2045C579.555 97.2045 580.356 97.4394 581.026 97.9091C581.697 98.3788 582.21 99.0606 582.566 99.9545C582.926 100.848 583.106 101.928 583.106 103.193C583.106 104.466 582.926 105.553 582.566 106.455C582.21 107.352 581.697 108.038 581.026 108.511C580.36 108.985 579.559 109.222 578.623 109.222ZM578.623 107.443C579.35 107.443 579.924 107.085 580.345 106.369C580.769 105.65 580.981 104.591 580.981 103.193C580.981 102.269 580.884 101.492 580.691 100.864C580.498 100.235 580.225 99.7614 579.873 99.4432C579.521 99.1212 579.104 98.9602 578.623 98.9602C577.899 98.9602 577.328 99.3201 576.907 100.04C576.487 100.756 576.274 101.807 576.271 103.193C576.267 104.121 576.36 104.902 576.549 105.534C576.742 106.167 577.015 106.644 577.367 106.966C577.72 107.284 578.138 107.443 578.623 107.443ZM588.994 109.159C588.176 109.159 587.448 109.019 586.812 108.739C586.179 108.458 585.679 108.068 585.312 107.568C584.945 107.068 584.75 106.491 584.727 105.835H586.863C586.882 106.15 586.986 106.424 587.176 106.659C587.365 106.89 587.617 107.07 587.931 107.199C588.246 107.328 588.598 107.392 588.988 107.392C589.405 107.392 589.774 107.32 590.096 107.176C590.418 107.028 590.67 106.824 590.852 106.562C591.034 106.301 591.123 106 591.119 105.659C591.123 105.307 591.032 104.996 590.846 104.727C590.661 104.458 590.392 104.248 590.039 104.097C589.691 103.945 589.27 103.869 588.778 103.869H587.75V102.244H588.778C589.183 102.244 589.537 102.174 589.84 102.034C590.147 101.894 590.388 101.697 590.562 101.443C590.736 101.186 590.822 100.888 590.818 100.551C590.822 100.222 590.748 99.9356 590.596 99.6932C590.448 99.447 590.238 99.2557 589.965 99.1193C589.697 98.983 589.38 98.9148 589.017 98.9148C588.661 98.9148 588.331 98.9792 588.028 99.108C587.725 99.2367 587.481 99.4205 587.295 99.6591C587.109 99.8939 587.011 100.174 587 100.5H584.971C584.986 99.8485 585.174 99.2765 585.534 98.7841C585.897 98.2879 586.382 97.9015 586.988 97.625C587.594 97.3447 588.274 97.2045 589.028 97.2045C589.804 97.2045 590.479 97.3504 591.051 97.642C591.626 97.9299 592.072 98.3182 592.386 98.8068C592.7 99.2955 592.857 99.8352 592.857 100.426C592.861 101.081 592.668 101.631 592.278 102.074C591.892 102.517 591.384 102.807 590.755 102.943V103.034C591.573 103.148 592.2 103.451 592.636 103.943C593.075 104.432 593.293 105.04 593.289 105.767C593.289 106.419 593.104 107.002 592.732 107.517C592.365 108.028 591.857 108.43 591.21 108.722C590.566 109.013 589.827 109.159 588.994 109.159Z" fill="#282C3F"/>
<path opacity="0.25" d="M509.193 133C509.084 132.665 508.94 132.365 508.761 132.1C508.585 131.832 508.375 131.603 508.129 131.414C507.887 131.225 507.612 131.081 507.304 130.982C506.996 130.882 506.658 130.832 506.29 130.832C505.687 130.832 505.138 130.988 504.644 131.3C504.15 131.611 503.758 132.07 503.466 132.677C503.174 133.283 503.028 134.027 503.028 134.909C503.028 135.791 503.176 136.535 503.471 137.141C503.766 137.748 504.165 138.207 504.669 138.518C505.173 138.83 505.74 138.986 506.369 138.986C506.953 138.986 507.466 138.862 507.911 138.613C508.358 138.361 508.706 138.006 508.955 137.549C509.206 137.088 509.332 136.546 509.332 135.923L509.71 136.003H506.648V134.909H510.526V136.003C510.526 136.841 510.347 137.571 509.989 138.19C509.634 138.81 509.143 139.291 508.517 139.632C507.894 139.97 507.178 140.139 506.369 140.139C505.468 140.139 504.676 139.927 503.993 139.503C503.313 139.079 502.783 138.475 502.402 137.693C502.024 136.911 501.835 135.983 501.835 134.909C501.835 134.104 501.943 133.379 502.158 132.737C502.377 132.09 502.685 131.54 503.083 131.086C503.481 130.632 503.951 130.284 504.495 130.042C505.039 129.8 505.637 129.679 506.29 129.679C506.827 129.679 507.327 129.76 507.791 129.923C508.259 130.082 508.674 130.309 509.039 130.604C509.407 130.895 509.714 131.245 509.959 131.653C510.204 132.057 510.373 132.506 510.466 133H509.193ZM515.596 140.159C514.86 140.159 514.225 139.997 513.692 139.672C513.161 139.344 512.752 138.886 512.464 138.3C512.179 137.71 512.036 137.024 512.036 136.241C512.036 135.459 512.179 134.77 512.464 134.173C512.752 133.573 513.153 133.106 513.667 132.771C514.184 132.433 514.787 132.264 515.477 132.264C515.874 132.264 516.267 132.33 516.655 132.463C517.043 132.596 517.396 132.811 517.714 133.109C518.032 133.404 518.285 133.795 518.474 134.283C518.663 134.77 518.758 135.37 518.758 136.082V136.58H512.871V135.565H517.565C517.565 135.134 517.478 134.75 517.306 134.412C517.137 134.074 516.895 133.807 516.58 133.612C516.269 133.416 515.901 133.318 515.477 133.318C515.009 133.318 514.605 133.434 514.263 133.666C513.925 133.895 513.665 134.193 513.483 134.561C513.301 134.929 513.21 135.323 513.21 135.744V136.42C513.21 136.997 513.309 137.486 513.508 137.887C513.71 138.285 513.99 138.588 514.348 138.797C514.706 139.002 515.122 139.105 515.596 139.105C515.904 139.105 516.183 139.062 516.431 138.976C516.683 138.886 516.9 138.754 517.082 138.578C517.265 138.399 517.406 138.177 517.505 137.912L518.638 138.23C518.519 138.615 518.319 138.953 518.037 139.244C517.755 139.533 517.407 139.758 516.993 139.92C516.579 140.08 516.113 140.159 515.596 140.159ZM523.78 132.364V133.358H519.822V132.364H523.78ZM520.976 130.534H522.149V137.812C522.149 138.144 522.197 138.393 522.293 138.558C522.393 138.721 522.518 138.83 522.671 138.886C522.827 138.939 522.991 138.966 523.163 138.966C523.292 138.966 523.398 138.959 523.481 138.946C523.564 138.929 523.63 138.916 523.68 138.906L523.919 139.96C523.839 139.99 523.728 140.02 523.586 140.05C523.443 140.083 523.263 140.099 523.044 140.099C522.712 140.099 522.388 140.028 522.069 139.886C521.755 139.743 521.493 139.526 521.284 139.234C521.078 138.943 520.976 138.575 520.976 138.131V130.534ZM530.487 135.406V140H529.314V129.818H530.487V133.557H530.587C530.766 133.162 531.034 132.849 531.392 132.617C531.753 132.382 532.234 132.264 532.834 132.264C533.354 132.264 533.81 132.369 534.201 132.577C534.592 132.783 534.895 133.099 535.111 133.527C535.33 133.951 535.439 134.491 535.439 135.148V140H534.266V135.227C534.266 134.621 534.108 134.152 533.793 133.82C533.482 133.486 533.049 133.318 532.496 133.318C532.111 133.318 531.767 133.399 531.462 133.562C531.16 133.724 530.922 133.961 530.746 134.273C530.574 134.584 530.487 134.962 530.487 135.406ZM537.502 140V132.364H538.675V140H537.502ZM538.098 131.091C537.869 131.091 537.672 131.013 537.506 130.857C537.344 130.701 537.263 130.514 537.263 130.295C537.263 130.077 537.344 129.889 537.506 129.734C537.672 129.578 537.869 129.5 538.098 129.5C538.327 129.5 538.522 129.578 538.685 129.734C538.85 129.889 538.933 130.077 538.933 130.295C538.933 130.514 538.85 130.701 538.685 130.857C538.522 131.013 538.327 131.091 538.098 131.091ZM540.74 140V132.364H541.873V133.517H541.953C542.092 133.139 542.344 132.833 542.709 132.597C543.073 132.362 543.484 132.244 543.941 132.244C544.028 132.244 544.135 132.246 544.265 132.249C544.394 132.253 544.492 132.258 544.558 132.264V133.457C544.518 133.447 544.427 133.433 544.285 133.413C544.145 133.389 543.998 133.378 543.842 133.378C543.471 133.378 543.139 133.456 542.848 133.612C542.559 133.764 542.331 133.976 542.162 134.248C541.996 134.516 541.913 134.823 541.913 135.168V140H540.74ZM548.834 140.159C548.098 140.159 547.464 139.997 546.93 139.672C546.4 139.344 545.99 138.886 545.702 138.3C545.417 137.71 545.274 137.024 545.274 136.241C545.274 135.459 545.417 134.77 545.702 134.173C545.99 133.573 546.391 133.106 546.905 132.771C547.422 132.433 548.025 132.264 548.715 132.264C549.112 132.264 549.505 132.33 549.893 132.463C550.281 132.596 550.634 132.811 550.952 133.109C551.27 133.404 551.524 133.795 551.713 134.283C551.902 134.77 551.996 135.37 551.996 136.082V136.58H546.11V135.565H550.803C550.803 135.134 550.717 134.75 550.544 134.412C550.375 134.074 550.133 133.807 549.818 133.612C549.507 133.416 549.139 133.318 548.715 133.318C548.247 133.318 547.843 133.434 547.502 133.666C547.164 133.895 546.903 134.193 546.721 134.561C546.539 134.929 546.448 135.323 546.448 135.744V136.42C546.448 136.997 546.547 137.486 546.746 137.887C546.948 138.285 547.228 138.588 547.586 138.797C547.944 139.002 548.36 139.105 548.834 139.105C549.142 139.105 549.421 139.062 549.669 138.976C549.921 138.886 550.138 138.754 550.321 138.578C550.503 138.399 550.644 138.177 550.743 137.912L551.877 138.23C551.757 138.615 551.557 138.953 551.275 139.244C550.993 139.533 550.645 139.758 550.231 139.92C549.817 140.08 549.351 140.159 548.834 140.159ZM556.58 140.159C555.944 140.159 555.382 139.998 554.895 139.677C554.408 139.352 554.027 138.895 553.751 138.305C553.476 137.711 553.339 137.01 553.339 136.202C553.339 135.4 553.476 134.704 553.751 134.114C554.027 133.524 554.409 133.068 554.9 132.746C555.39 132.425 555.957 132.264 556.6 132.264C557.097 132.264 557.49 132.347 557.778 132.513C558.07 132.675 558.292 132.861 558.445 133.07C558.6 133.275 558.721 133.444 558.808 133.577H558.907V129.818H560.08V140H558.947V138.827H558.808C558.721 138.966 558.599 139.142 558.44 139.354C558.281 139.562 558.054 139.75 557.759 139.915C557.464 140.078 557.071 140.159 556.58 140.159ZM556.739 139.105C557.21 139.105 557.608 138.982 557.933 138.737C558.257 138.489 558.504 138.146 558.673 137.708C558.842 137.267 558.927 136.759 558.927 136.182C558.927 135.612 558.844 135.113 558.678 134.685C558.513 134.254 558.267 133.92 557.943 133.681C557.618 133.439 557.217 133.318 556.739 133.318C556.242 133.318 555.828 133.446 555.497 133.701C555.168 133.953 554.921 134.296 554.756 134.73C554.593 135.161 554.512 135.645 554.512 136.182C554.512 136.725 554.595 137.219 554.761 137.663C554.93 138.104 555.178 138.455 555.506 138.717C555.838 138.976 556.249 139.105 556.739 139.105ZM566.142 140V139.105L569.503 135.426C569.897 134.995 570.222 134.621 570.477 134.303C570.732 133.981 570.921 133.679 571.044 133.398C571.17 133.113 571.233 132.814 571.233 132.503C571.233 132.145 571.146 131.835 570.974 131.573C570.805 131.311 570.573 131.109 570.278 130.967C569.983 130.824 569.652 130.753 569.284 130.753C568.893 130.753 568.551 130.834 568.26 130.996C567.971 131.156 567.748 131.379 567.588 131.668C567.433 131.956 567.355 132.294 567.355 132.682H566.181C566.181 132.085 566.319 131.562 566.594 131.111C566.869 130.66 567.244 130.309 567.718 130.057C568.195 129.805 568.73 129.679 569.324 129.679C569.92 129.679 570.449 129.805 570.909 130.057C571.37 130.309 571.731 130.648 571.993 131.076C572.255 131.504 572.386 131.979 572.386 132.503C572.386 132.877 572.318 133.244 572.182 133.602C572.05 133.956 571.818 134.352 571.486 134.79C571.158 135.224 570.702 135.754 570.119 136.381L567.832 138.827V138.906H572.565V140H566.142ZM575.429 132.364L577.259 135.486L579.088 132.364H580.441L577.975 136.182L580.441 140H579.088L577.259 137.037L575.429 140H574.077L576.503 136.182L574.077 132.364H575.429ZM589.285 132.364V133.358H585.168V132.364H589.285ZM586.401 140V131.31C586.401 130.872 586.504 130.508 586.709 130.216C586.915 129.924 587.182 129.705 587.51 129.56C587.838 129.414 588.184 129.341 588.549 129.341C588.837 129.341 589.073 129.364 589.255 129.411C589.437 129.457 589.573 129.5 589.663 129.54L589.325 130.554C589.265 130.534 589.182 130.509 589.076 130.479C588.973 130.45 588.837 130.435 588.668 130.435C588.281 130.435 588 130.532 587.828 130.728C587.659 130.924 587.575 131.21 587.575 131.588V140H586.401ZM592.874 140.179C592.39 140.179 591.95 140.088 591.556 139.906C591.162 139.72 590.848 139.453 590.616 139.105C590.384 138.754 590.268 138.33 590.268 137.832C590.268 137.395 590.355 137.04 590.527 136.768C590.699 136.493 590.93 136.278 591.218 136.122C591.506 135.966 591.825 135.85 592.173 135.774C592.524 135.695 592.877 135.632 593.231 135.585C593.696 135.526 594.072 135.481 594.36 135.451C594.652 135.418 594.864 135.363 594.996 135.287C595.132 135.211 595.2 135.078 595.2 134.889V134.849C595.2 134.359 595.066 133.978 594.798 133.706C594.532 133.434 594.13 133.298 593.589 133.298C593.029 133.298 592.59 133.421 592.272 133.666C591.954 133.911 591.73 134.173 591.601 134.452L590.487 134.054C590.686 133.59 590.951 133.229 591.283 132.97C591.617 132.708 591.982 132.526 592.376 132.423C592.774 132.317 593.165 132.264 593.55 132.264C593.795 132.264 594.077 132.294 594.395 132.354C594.716 132.41 595.026 132.528 595.325 132.707C595.626 132.886 595.876 133.156 596.075 133.517C596.274 133.878 596.374 134.362 596.374 134.969V140H595.2V138.966H595.141C595.061 139.132 594.928 139.309 594.743 139.498C594.557 139.687 594.31 139.848 594.002 139.98C593.694 140.113 593.318 140.179 592.874 140.179ZM593.053 139.125C593.517 139.125 593.908 139.034 594.226 138.852C594.547 138.669 594.789 138.434 594.952 138.146C595.117 137.857 595.2 137.554 595.2 137.236V136.162C595.151 136.222 595.041 136.276 594.872 136.326C594.706 136.372 594.514 136.414 594.295 136.45C594.08 136.483 593.87 136.513 593.664 136.54C593.462 136.563 593.298 136.583 593.172 136.599C592.867 136.639 592.582 136.704 592.317 136.793C592.055 136.879 591.843 137.01 591.68 137.186C591.521 137.358 591.442 137.594 591.442 137.892C591.442 138.3 591.593 138.608 591.894 138.817C592.199 139.022 592.585 139.125 593.053 139.125ZM603.84 134.074L602.786 134.372C602.72 134.196 602.622 134.026 602.493 133.86C602.367 133.691 602.195 133.552 601.976 133.442C601.757 133.333 601.477 133.278 601.136 133.278C600.668 133.278 600.279 133.386 599.967 133.602C599.659 133.814 599.505 134.084 599.505 134.412C599.505 134.704 599.611 134.934 599.823 135.103C600.035 135.272 600.367 135.413 600.817 135.526L601.951 135.804C602.634 135.97 603.142 136.223 603.477 136.565C603.812 136.903 603.979 137.339 603.979 137.872C603.979 138.31 603.853 138.701 603.602 139.045C603.353 139.39 603.005 139.662 602.557 139.861C602.11 140.06 601.59 140.159 600.996 140.159C600.218 140.159 599.573 139.99 599.062 139.652C598.552 139.314 598.229 138.82 598.093 138.17L599.207 137.892C599.313 138.303 599.513 138.611 599.808 138.817C600.106 139.022 600.496 139.125 600.977 139.125C601.523 139.125 601.958 139.009 602.279 138.777C602.604 138.542 602.766 138.26 602.766 137.932C602.766 137.667 602.673 137.445 602.488 137.266C602.302 137.083 602.017 136.947 601.633 136.858L600.36 136.56C599.661 136.394 599.147 136.137 598.819 135.789C598.494 135.438 598.332 134.999 598.332 134.472C598.332 134.041 598.453 133.66 598.695 133.328C598.94 132.997 599.273 132.737 599.694 132.548C600.118 132.359 600.599 132.264 601.136 132.264C601.891 132.264 602.485 132.43 602.915 132.761C603.35 133.093 603.658 133.53 603.84 134.074ZM608.983 132.364V133.358H605.025V132.364H608.983ZM606.179 130.534H607.352V137.812C607.352 138.144 607.4 138.393 607.496 138.558C607.595 138.721 607.721 138.83 607.874 138.886C608.03 138.939 608.194 138.966 608.366 138.966C608.495 138.966 608.601 138.959 608.684 138.946C608.767 138.929 608.833 138.916 608.883 138.906L609.122 139.96C609.042 139.99 608.931 140.02 608.789 140.05C608.646 140.083 608.465 140.099 608.247 140.099C607.915 140.099 607.59 140.028 607.272 139.886C606.957 139.743 606.696 139.526 606.487 139.234C606.281 138.943 606.179 138.575 606.179 138.131V130.534ZM613.783 140.159C613.047 140.159 612.413 139.997 611.879 139.672C611.349 139.344 610.939 138.886 610.651 138.3C610.366 137.71 610.223 137.024 610.223 136.241C610.223 135.459 610.366 134.77 610.651 134.173C610.939 133.573 611.34 133.106 611.854 132.771C612.371 132.433 612.974 132.264 613.664 132.264C614.062 132.264 614.454 132.33 614.842 132.463C615.23 132.596 615.583 132.811 615.901 133.109C616.219 133.404 616.473 133.795 616.662 134.283C616.851 134.77 616.945 135.37 616.945 136.082V136.58H611.059V135.565H615.752C615.752 135.134 615.666 134.75 615.493 134.412C615.324 134.074 615.082 133.807 614.767 133.612C614.456 133.416 614.088 133.318 613.664 133.318C613.196 133.318 612.792 133.434 612.451 133.666C612.113 133.895 611.852 134.193 611.67 134.561C611.488 134.929 611.397 135.323 611.397 135.744V136.42C611.397 136.997 611.496 137.486 611.695 137.887C611.897 138.285 612.177 138.588 612.535 138.797C612.893 139.002 613.309 139.105 613.783 139.105C614.091 139.105 614.37 139.062 614.618 138.976C614.87 138.886 615.087 138.754 615.27 138.578C615.452 138.399 615.593 138.177 615.692 137.912L616.826 138.23C616.706 138.615 616.506 138.953 616.224 139.244C615.942 139.533 615.594 139.758 615.18 139.92C614.766 140.08 614.3 140.159 613.783 140.159ZM618.646 140V132.364H619.779V133.517H619.859C619.998 133.139 620.25 132.833 620.615 132.597C620.979 132.362 621.39 132.244 621.848 132.244C621.934 132.244 622.041 132.246 622.171 132.249C622.3 132.253 622.398 132.258 622.464 132.264V133.457C622.424 133.447 622.333 133.433 622.191 133.413C622.051 133.389 621.904 133.378 621.748 133.378C621.377 133.378 621.045 133.456 620.754 133.612C620.465 133.764 620.237 133.976 620.068 134.248C619.902 134.516 619.819 134.823 619.819 135.168V140H618.646Z" fill="#535665"/>
<circle cx="99.5" cy="55" r="28" fill="#E8F0FE"/>
<path d="M91.0554 70.6927C90.545 70.6927 90.0711 70.5294 89.6525 70.2377C89.5986 70.2013 89.5621 70.1648 89.5257 70.1283C89.4892 70.1108 89.4703 70.0744 89.4528 70.0554C89.3798 70 89.3434 69.9461 89.2894 69.8921C89.253 69.8556 89.234 69.8192 89.199 69.7827L89.1815 69.7652C89.1451 69.7288 89.1261 69.6923 89.1086 69.6559L89.0721 69.6004C88.9992 69.4911 88.9453 69.3817 88.8899 69.2723C88.8724 69.2184 88.8534 69.163 88.8344 69.109C88.8169 69.0536 88.798 68.9821 88.7805 68.9267C88.7615 68.8538 88.744 68.7634 88.7251 68.6715C88.7251 68.635 88.7076 68.5811 88.7076 68.5446C88.7076 68.4717 88.6901 68.3988 88.6901 68.3259C88.6901 68.199 88.7076 68.0707 88.7265 67.9249L90.1294 59.7642L84.2087 53.9894C84.0994 53.88 83.99 53.7532 83.8996 53.6248C83.7902 53.4615 83.7173 53.3332 83.6633 53.1873C83.6458 53.1334 83.6094 53.0605 83.5904 52.9686C83.535 52.7499 83.5 52.5311 83.5 52.2949C83.5 52.222 83.5 52.168 83.5 52.0951C83.5 51.9857 83.5175 51.8763 83.554 51.767C83.554 51.7495 83.5715 51.713 83.5715 51.6941C83.5904 51.6386 83.5904 51.5847 83.6079 51.5307C83.6079 51.5132 83.6254 51.4753 83.6444 51.4214C83.6619 51.3659 83.6808 51.312 83.7173 51.258C83.7712 51.1487 83.8267 51.0393 83.9171 50.9124C83.9535 50.8395 84.0075 50.7855 84.0629 50.7301C84.0629 50.7301 84.0629 50.7126 84.0804 50.7126L84.3721 50.2387H84.6273C84.6637 50.2197 84.6812 50.2022 84.7177 50.1833C84.7541 50.1658 84.827 50.1293 84.881 50.0928C84.9539 50.0564 85.0443 50.0199 85.1537 49.9835C85.1902 49.966 85.2441 49.947 85.2995 49.947C85.3724 49.9295 85.4454 49.9106 85.5358 49.8916L93.7328 48.7075L97.3392 41.33C97.7402 40.5104 98.5598 40 99.4698 40C100.126 40 100.763 40.2727 101.218 40.7466C101.291 40.8371 101.364 40.91 101.418 41.0018C101.491 41.1112 101.564 41.2206 101.618 41.33L105.28 48.725L113.458 49.9091C114.369 50.036 115.116 50.6747 115.388 51.5482C115.407 51.6036 115.425 51.6386 115.425 51.6941C115.425 51.7116 115.425 51.7116 115.442 51.7305C115.46 51.7859 115.479 51.8399 115.479 51.9128C115.479 51.9303 115.479 51.9303 115.479 51.9493C115.496 52.0222 115.496 52.0761 115.496 52.149C115.515 52.4947 115.46 52.8592 115.314 53.1873C115.259 53.3332 115.187 53.46 115.095 53.5884L115.076 53.6059C114.986 53.7327 114.877 53.8611 114.767 53.9705L108.847 59.7453L110.249 67.8869C110.395 68.7794 110.05 69.6719 109.302 70.2188C109.119 70.3456 108.901 70.474 108.682 70.5469C108.663 70.5469 108.645 70.5658 108.609 70.5658C108.373 70.6387 108.135 70.6752 107.899 70.6752C107.517 70.6752 107.133 70.5848 106.787 70.4025L99.4654 66.5584L92.1433 70.4025C91.8196 70.6023 91.4375 70.6927 91.0554 70.6927Z" fill="#5F9CFF"/>
<path d="M99.4735 41.1641V56.2282L94.4453 49.7986L98.3798 41.8393C98.6175 41.4018 99.055 41.1641 99.4735 41.1641Z" fill="#91BBFF"/>
<path d="M114.28 51.9333L99.4883 56.2324L104.515 49.8027L113.295 51.0773C113.788 51.1677 114.134 51.5133 114.28 51.9333Z" fill="#5F9CFF"/>
<path d="M108.616 69.289L99.4727 56.2285L107.597 59.3434L109.09 68.0874C109.198 68.5978 108.979 69.0338 108.616 69.289Z" fill="#94BDFF"/>
<path d="M99.4731 56.2285V65.2451L91.6216 69.3794C91.1666 69.6156 90.6927 69.5427 90.3281 69.289L99.4731 56.2285Z" fill="#5F9CFF"/>
<path d="M104.497 49.7986L99.4688 56.2282V41.1641C99.7969 41.1641 100.125 41.2909 100.361 41.5461C100.398 41.5826 100.434 41.6365 100.471 41.692C100.507 41.7474 100.544 41.8013 100.561 41.8553L104.497 49.7986Z" fill="#5F9CFF"/>
<path d="M114.242 52.7513C114.205 52.8242 114.169 52.8971 114.132 52.97C114.077 53.0429 114.023 53.0969 113.969 53.1698L107.612 59.3632L99.4883 56.2483L114.28 51.9492C114.28 51.9667 114.297 51.9857 114.297 52.0046C114.297 52.0236 114.316 52.0411 114.316 52.0775C114.316 52.0965 114.316 52.0965 114.316 52.0965C114.316 52.114 114.316 52.133 114.316 52.1505C114.316 52.1869 114.316 52.2059 114.316 52.2409C114.334 52.4042 114.315 52.5865 114.242 52.7513Z" fill="#5F9CFF"/>
<path d="M108.614 69.289C108.523 69.3619 108.414 69.4159 108.286 69.4523C108.268 69.4523 108.268 69.4523 108.249 69.4698C107.957 69.5602 107.629 69.5427 107.32 69.3794L99.4688 65.2451V56.2285L108.614 69.289Z" fill="#5F9CFF"/>
<path d="M99.4675 56.2285L90.324 69.289C90.3065 69.27 90.2876 69.2525 90.2701 69.2336C90.2526 69.2161 90.2336 69.1971 90.2147 69.1782C90.1972 69.1607 90.1782 69.1417 90.1418 69.1052C90.1228 69.0877 90.1053 69.0688 90.0863 69.0498C90.0674 69.0309 90.0688 69.0323 90.0688 69.0134C90.0513 68.9959 90.0324 68.9769 90.0324 68.958C89.9959 68.904 89.9595 68.8486 89.942 68.7946C89.9245 68.7771 89.9245 68.7392 89.9055 68.7042C89.888 68.6678 89.888 68.6488 89.8691 68.6138C89.8516 68.5773 89.8516 68.5234 89.8516 68.4869C89.8516 68.4694 89.8516 68.4315 89.8516 68.414C89.8516 68.3776 89.8516 68.3411 89.8516 68.3046C89.8516 68.2317 89.8516 68.1588 89.8691 68.0859L91.3624 59.342L99.4675 56.2285Z" fill="#9CC1FF"/>
<path d="M99.4712 56.2285L84.6797 51.9295C84.6797 51.912 84.6972 51.893 84.6972 51.8741C84.7147 51.8376 84.7147 51.8011 84.7336 51.7836C84.7701 51.7107 84.8066 51.6568 84.843 51.6014C84.8605 51.5649 84.8795 51.5459 84.9159 51.5109C84.9349 51.4934 84.9524 51.4555 84.9888 51.438C85.0063 51.4205 85.0443 51.3841 85.0618 51.3651C85.0793 51.3462 85.1157 51.3287 85.1347 51.3097C85.1711 51.2922 85.2076 51.2543 85.244 51.2368C85.2615 51.2193 85.298 51.2003 85.3345 51.2003C85.3899 51.1828 85.4249 51.1639 85.4803 51.1449C85.4978 51.1449 85.5167 51.1274 85.5532 51.1274C85.5897 51.1099 85.6436 51.1099 85.699 51.091L94.4794 49.8164L99.4712 56.2285Z" fill="#5F9CFF"/>
<path d="M99.471 56.2287L91.3658 59.3611L85.0091 53.1677C84.9362 53.1123 84.8997 53.0408 84.8458 52.9679C84.8093 52.895 84.7554 52.8221 84.7364 52.7492C84.7189 52.7127 84.6999 52.6763 84.6999 52.6398C84.6635 52.5304 84.6445 52.4036 84.6445 52.2942C84.6445 52.2577 84.6445 52.2213 84.6445 52.1848C84.6445 52.1309 84.6445 52.0944 84.6635 52.039C84.6635 52.0215 84.681 52.0025 84.681 51.9661C84.681 51.9486 84.6985 51.9296 84.6985 51.9121L99.471 56.2287Z" fill="#5F9CFF"/>
<path d="M69.6477 109V97.3636H71.7557V107.233H76.8807V109H69.6477ZM82.307 109.17C81.432 109.17 80.6763 108.989 80.0399 108.625C79.4073 108.258 78.9206 107.739 78.5797 107.068C78.2388 106.394 78.0683 105.6 78.0683 104.688C78.0683 103.79 78.2388 103.002 78.5797 102.324C78.9244 101.642 79.4054 101.112 80.0229 100.733C80.6403 100.35 81.3657 100.159 82.199 100.159C82.7369 100.159 83.2445 100.246 83.7217 100.42C84.2028 100.591 84.627 100.856 84.9945 101.216C85.3657 101.576 85.6573 102.034 85.8695 102.591C86.0816 103.144 86.1876 103.803 86.1876 104.568V105.199H79.0342V103.812H84.216C84.2123 103.419 84.127 103.068 83.9604 102.761C83.7937 102.451 83.5607 102.206 83.2615 102.028C82.966 101.85 82.6213 101.761 82.2274 101.761C81.807 101.761 81.4376 101.864 81.1195 102.068C80.8013 102.269 80.5532 102.534 80.3751 102.864C80.2009 103.189 80.1119 103.547 80.1081 103.938V105.148C80.1081 105.655 80.2009 106.091 80.3865 106.455C80.5721 106.814 80.8316 107.091 81.1649 107.284C81.4982 107.473 81.8884 107.568 82.3354 107.568C82.6346 107.568 82.9054 107.527 83.1479 107.443C83.3903 107.356 83.6005 107.229 83.7785 107.062C83.9566 106.896 84.091 106.689 84.182 106.443L86.1024 106.659C85.9812 107.167 85.7501 107.61 85.4092 107.989C85.0721 108.364 84.6403 108.655 84.1138 108.864C83.5873 109.068 82.985 109.17 82.307 109.17ZM95.2971 100.273L92.1892 109H89.9165L86.8085 100.273H89.0017L91.0074 106.756H91.0983L93.1096 100.273H95.2971ZM100.111 109.17C99.2362 109.17 98.4805 108.989 97.8442 108.625C97.2116 108.258 96.7248 107.739 96.3839 107.068C96.043 106.394 95.8726 105.6 95.8726 104.688C95.8726 103.79 96.043 103.002 96.3839 102.324C96.7286 101.642 97.2097 101.112 97.8271 100.733C98.4445 100.35 99.1699 100.159 100.003 100.159C100.541 100.159 101.049 100.246 101.526 100.42C102.007 100.591 102.431 100.856 102.799 101.216C103.17 101.576 103.462 102.034 103.674 102.591C103.886 103.144 103.992 103.803 103.992 104.568V105.199H96.8385V103.812H102.02C102.017 103.419 101.931 103.068 101.765 102.761C101.598 102.451 101.365 102.206 101.066 102.028C100.77 101.85 100.426 101.761 100.032 101.761C99.6112 101.761 99.2419 101.864 98.9237 102.068C98.6055 102.269 98.3574 102.534 98.1794 102.864C98.0051 103.189 97.9161 103.547 97.9123 103.938V105.148C97.9123 105.655 98.0051 106.091 98.1908 106.455C98.3764 106.814 98.6358 107.091 98.9692 107.284C99.3025 107.473 99.6926 107.568 100.14 107.568C100.439 107.568 100.71 107.527 100.952 107.443C101.195 107.356 101.405 107.229 101.583 107.062C101.761 106.896 101.895 106.689 101.986 106.443L103.907 106.659C103.785 107.167 103.554 107.61 103.213 107.989C102.876 108.364 102.445 108.655 101.918 108.864C101.392 109.068 100.789 109.17 100.111 109.17ZM107.613 97.3636V109H105.556V97.3636H107.613ZM117.623 109.222C116.687 109.222 115.884 108.985 115.214 108.511C114.547 108.034 114.034 107.347 113.674 106.449C113.318 105.547 113.14 104.462 113.14 103.193C113.144 101.924 113.324 100.845 113.68 99.9545C114.04 99.0606 114.553 98.3788 115.22 97.9091C115.89 97.4394 116.691 97.2045 117.623 97.2045C118.555 97.2045 119.356 97.4394 120.026 97.9091C120.697 98.3788 121.21 99.0606 121.566 99.9545C121.926 100.848 122.106 101.928 122.106 103.193C122.106 104.466 121.926 105.553 121.566 106.455C121.21 107.352 120.697 108.038 120.026 108.511C119.36 108.985 118.559 109.222 117.623 109.222ZM117.623 107.443C118.35 107.443 118.924 107.085 119.345 106.369C119.769 105.65 119.981 104.591 119.981 103.193C119.981 102.269 119.884 101.492 119.691 100.864C119.498 100.235 119.225 99.7614 118.873 99.4432C118.521 99.1212 118.104 98.9602 117.623 98.9602C116.899 98.9602 116.328 99.3201 115.907 100.04C115.487 100.756 115.274 101.807 115.271 103.193C115.267 104.121 115.36 104.902 115.549 105.534C115.742 106.167 116.015 106.644 116.367 106.966C116.72 107.284 117.138 107.443 117.623 107.443ZM128.551 97.3636V109H126.443V99.4148H126.375L123.653 101.153V99.2216L126.545 97.3636H128.551Z" fill="#282C3F"/>
<path d="M41.1932 133C41.0838 132.665 40.9396 132.365 40.7607 132.1C40.585 131.832 40.3745 131.603 40.1293 131.414C39.8873 131.225 39.6122 131.081 39.304 130.982C38.9957 130.882 38.6577 130.832 38.2898 130.832C37.6866 130.832 37.138 130.988 36.6442 131.3C36.1503 131.611 35.7576 132.07 35.4659 132.677C35.1742 133.283 35.0284 134.027 35.0284 134.909C35.0284 135.791 35.1759 136.535 35.4709 137.141C35.7659 137.748 36.1652 138.207 36.669 138.518C37.1728 138.83 37.7396 138.986 38.3693 138.986C38.9527 138.986 39.4664 138.862 39.9105 138.613C40.358 138.361 40.706 138.006 40.9545 137.549C41.2064 137.088 41.3324 136.546 41.3324 135.923L41.7102 136.003H38.6477V134.909H42.5256V136.003C42.5256 136.841 42.3466 137.571 41.9886 138.19C41.634 138.81 41.1435 139.291 40.517 139.632C39.8939 139.97 39.178 140.139 38.3693 140.139C37.4678 140.139 36.6757 139.927 35.9929 139.503C35.3134 139.079 34.7831 138.475 34.402 137.693C34.0241 136.911 33.8352 135.983 33.8352 134.909C33.8352 134.104 33.9429 133.379 34.1584 132.737C34.3771 132.09 34.6854 131.54 35.0831 131.086C35.4808 130.632 35.9515 130.284 36.495 130.042C37.0386 129.8 37.6368 129.679 38.2898 129.679C38.8267 129.679 39.3272 129.76 39.7912 129.923C40.2585 130.082 40.6745 130.309 41.0391 130.604C41.407 130.895 41.7135 131.245 41.9588 131.653C42.2041 132.057 42.3731 132.506 42.4659 133H41.1932ZM47.5959 140.159C46.8601 140.159 46.2254 139.997 45.6917 139.672C45.1614 139.344 44.7521 138.886 44.4638 138.3C44.1787 137.71 44.0362 137.024 44.0362 136.241C44.0362 135.459 44.1787 134.77 44.4638 134.173C44.7521 133.573 45.1532 133.106 45.6669 132.771C46.1839 132.433 46.7872 132.264 47.4765 132.264C47.8743 132.264 48.267 132.33 48.6548 132.463C49.0426 132.596 49.3956 132.811 49.7138 133.109C50.0319 133.404 50.2855 133.795 50.4744 134.283C50.6633 134.77 50.7578 135.37 50.7578 136.082V136.58H44.8714V135.565H49.5646C49.5646 135.134 49.4784 134.75 49.3061 134.412C49.1371 134.074 48.8951 133.807 48.5802 133.612C48.2687 133.416 47.9008 133.318 47.4765 133.318C47.0092 133.318 46.6049 133.434 46.2635 133.666C45.9254 133.895 45.6652 134.193 45.4829 134.561C45.3006 134.929 45.2095 135.323 45.2095 135.744V136.42C45.2095 136.997 45.3089 137.486 45.5078 137.887C45.71 138.285 45.99 138.588 46.348 138.797C46.706 139.002 47.1219 139.105 47.5959 139.105C47.9041 139.105 48.1825 139.062 48.4311 138.976C48.683 138.886 48.9001 138.754 49.0824 138.578C49.2647 138.399 49.4055 138.177 49.505 137.912L50.6385 138.23C50.5192 138.615 50.3186 138.953 50.0369 139.244C49.7552 139.533 49.4072 139.758 48.9929 139.92C48.5786 140.08 48.1129 140.159 47.5959 140.159ZM55.7796 132.364V133.358H51.8222V132.364H55.7796ZM52.9756 130.534H54.1489V137.812C54.1489 138.144 54.197 138.393 54.2931 138.558C54.3925 138.721 54.5185 138.83 54.671 138.886C54.8267 138.939 54.9908 138.966 55.1631 138.966C55.2924 138.966 55.3985 138.959 55.4813 138.946C55.5642 138.929 55.6305 138.916 55.6802 138.906L55.9188 139.96C55.8393 139.99 55.7282 140.02 55.5857 140.05C55.4432 140.083 55.2626 140.099 55.0438 140.099C54.7124 140.099 54.3876 140.028 54.0694 139.886C53.7545 139.743 53.4927 139.526 53.2839 139.234C53.0784 138.943 52.9756 138.575 52.9756 138.131V130.534ZM61.314 142.864V132.364H62.4476V133.577H62.5868C62.6729 133.444 62.7923 133.275 62.9447 133.07C63.1005 132.861 63.3226 132.675 63.6109 132.513C63.9026 132.347 64.297 132.264 64.7941 132.264C65.4371 132.264 66.0039 132.425 66.4944 132.746C66.985 133.068 67.3678 133.524 67.6429 134.114C67.918 134.704 68.0555 135.4 68.0555 136.202C68.0555 137.01 67.918 137.711 67.6429 138.305C67.3678 138.895 66.9866 139.352 66.4994 139.677C66.0122 139.998 65.4504 140.159 64.814 140.159C64.3235 140.159 63.9307 140.078 63.6358 139.915C63.3408 139.75 63.1138 139.562 62.9547 139.354C62.7956 139.142 62.6729 138.966 62.5868 138.827H62.4873V142.864H61.314ZM62.4674 136.182C62.4674 136.759 62.552 137.267 62.721 137.708C62.89 138.146 63.137 138.489 63.4618 138.737C63.7866 138.982 64.1843 139.105 64.6549 139.105C65.1455 139.105 65.5548 138.976 65.8829 138.717C66.2144 138.455 66.4629 138.104 66.6287 137.663C66.7977 137.219 66.8822 136.725 66.8822 136.182C66.8822 135.645 66.7994 135.161 66.6336 134.73C66.4712 134.296 66.2243 133.953 65.8929 133.701C65.5647 133.446 65.1521 133.318 64.6549 133.318C64.1777 133.318 63.7766 133.439 63.4518 133.681C63.127 133.92 62.8817 134.254 62.716 134.685C62.5503 135.113 62.4674 135.612 62.4674 136.182ZM69.7613 140V132.364H70.8948V133.517H70.9744C71.1136 133.139 71.3655 132.833 71.73 132.597C72.0946 132.362 72.5056 132.244 72.963 132.244C73.0492 132.244 73.1569 132.246 73.2861 132.249C73.4154 132.253 73.5132 132.258 73.5795 132.264V133.457C73.5397 133.447 73.4486 133.433 73.306 133.413C73.1668 133.389 73.0193 133.378 72.8636 133.378C72.4923 133.378 72.1609 133.456 71.8692 133.612C71.5809 133.764 71.3522 133.976 71.1832 134.248C71.0174 134.516 70.9346 134.823 70.9346 135.168V140H69.7613ZM77.7561 140.159C77.0667 140.159 76.4618 139.995 75.9415 139.667C75.4244 139.339 75.0201 138.88 74.7284 138.29C74.4401 137.7 74.2959 137.01 74.2959 136.222C74.2959 135.426 74.4401 134.732 74.7284 134.138C75.0201 133.545 75.4244 133.085 75.9415 132.756C76.4618 132.428 77.0667 132.264 77.7561 132.264C78.4455 132.264 79.0487 132.428 79.5658 132.756C80.0861 133.085 80.4905 133.545 80.7788 134.138C81.0705 134.732 81.2163 135.426 81.2163 136.222C81.2163 137.01 81.0705 137.7 80.7788 138.29C80.4905 138.88 80.0861 139.339 79.5658 139.667C79.0487 139.995 78.4455 140.159 77.7561 140.159ZM77.7561 139.105C78.2798 139.105 78.7107 138.971 79.0487 138.702C79.3868 138.434 79.637 138.081 79.7994 137.643C79.9618 137.206 80.0431 136.732 80.0431 136.222C80.0431 135.711 79.9618 135.236 79.7994 134.795C79.637 134.354 79.3868 133.998 79.0487 133.726C78.7107 133.454 78.2798 133.318 77.7561 133.318C77.2324 133.318 76.8016 133.454 76.4635 133.726C76.1254 133.998 75.8752 134.354 75.7128 134.795C75.5504 135.236 75.4692 135.711 75.4692 136.222C75.4692 136.732 75.5504 137.206 75.7128 137.643C75.8752 138.081 76.1254 138.434 76.4635 138.702C76.8016 138.971 77.2324 139.105 77.7561 139.105ZM86.3239 132.364V133.358H82.2075V132.364H86.3239ZM83.4404 140V131.31C83.4404 130.872 83.5432 130.508 83.7486 130.216C83.9541 129.924 84.2209 129.705 84.5491 129.56C84.8772 129.414 85.2236 129.341 85.5881 129.341C85.8765 129.341 86.1118 129.364 86.2941 129.411C86.4764 129.457 86.6123 129.5 86.7018 129.54L86.3637 130.554C86.304 130.534 86.2212 130.509 86.1151 130.479C86.0124 130.45 85.8765 130.435 85.7075 130.435C85.3197 130.435 85.0396 130.532 84.8673 130.728C84.6982 130.924 84.6137 131.21 84.6137 131.588V140H83.4404ZM87.8843 140V132.364H89.0576V140H87.8843ZM88.4809 131.091C88.2522 131.091 88.055 131.013 87.8893 130.857C87.7269 130.701 87.6456 130.514 87.6456 130.295C87.6456 130.077 87.7269 129.889 87.8893 129.734C88.055 129.578 88.2522 129.5 88.4809 129.5C88.7096 129.5 88.9051 129.578 89.0675 129.734C89.2332 129.889 89.3161 130.077 89.3161 130.295C89.3161 130.514 89.2332 130.701 89.0675 130.857C88.9051 131.013 88.7096 131.091 88.4809 131.091ZM92.2958 129.818V140H91.1226V129.818H92.2958ZM97.5625 140.159C96.8267 140.159 96.192 139.997 95.6584 139.672C95.1281 139.344 94.7188 138.886 94.4304 138.3C94.1454 137.71 94.0029 137.024 94.0029 136.241C94.0029 135.459 94.1454 134.77 94.4304 134.173C94.7188 133.573 95.1198 133.106 95.6335 132.771C96.1506 132.433 96.7538 132.264 97.4432 132.264C97.8409 132.264 98.2337 132.33 98.6215 132.463C99.0093 132.596 99.3622 132.811 99.6804 133.109C99.9986 133.404 100.252 133.795 100.441 134.283C100.63 134.77 100.724 135.37 100.724 136.082V136.58H94.8381V135.565H99.5313C99.5313 135.134 99.4451 134.75 99.2727 134.412C99.1037 134.074 98.8618 133.807 98.5469 133.612C98.2353 133.416 97.8674 133.318 97.4432 133.318C96.9759 133.318 96.5715 133.434 96.2301 133.666C95.8921 133.895 95.6319 134.193 95.4496 134.561C95.2673 134.929 95.1762 135.323 95.1762 135.744V136.42C95.1762 136.997 95.2756 137.486 95.4745 137.887C95.6766 138.285 95.9567 138.588 96.3147 138.797C96.6726 139.002 97.0886 139.105 97.5625 139.105C97.8708 139.105 98.1492 139.062 98.3977 138.976C98.6496 138.886 98.8667 138.754 99.049 138.578C99.2313 138.399 99.3722 138.177 99.4716 137.912L100.605 138.23C100.486 138.615 100.285 138.953 100.004 139.244C99.7218 139.533 99.3738 139.758 98.9595 139.92C98.5452 140.08 98.0796 140.159 97.5625 140.159ZM111.688 134.074L110.634 134.372C110.568 134.196 110.47 134.026 110.341 133.86C110.215 133.691 110.042 133.552 109.823 133.442C109.605 133.333 109.325 133.278 108.983 133.278C108.516 133.278 108.127 133.386 107.815 133.602C107.507 133.814 107.353 134.084 107.353 134.412C107.353 134.704 107.459 134.934 107.671 135.103C107.883 135.272 108.214 135.413 108.665 135.526L109.799 135.804C110.481 135.97 110.99 136.223 111.325 136.565C111.66 136.903 111.827 137.339 111.827 137.872C111.827 138.31 111.701 138.701 111.449 139.045C111.201 139.39 110.853 139.662 110.405 139.861C109.958 140.06 109.437 140.159 108.844 140.159C108.065 140.159 107.421 139.99 106.91 139.652C106.4 139.314 106.077 138.82 105.941 138.17L107.054 137.892C107.16 138.303 107.361 138.611 107.656 138.817C107.954 139.022 108.344 139.125 108.824 139.125C109.371 139.125 109.805 139.009 110.127 138.777C110.452 138.542 110.614 138.26 110.614 137.932C110.614 137.667 110.521 137.445 110.336 137.266C110.15 137.083 109.865 136.947 109.48 136.858L108.208 136.56C107.508 136.394 106.995 136.137 106.667 135.789C106.342 135.438 106.179 134.999 106.179 134.472C106.179 134.041 106.3 133.66 106.542 133.328C106.788 132.997 107.121 132.737 107.542 132.548C107.966 132.359 108.446 132.264 108.983 132.264C109.739 132.264 110.332 132.43 110.763 132.761C111.197 133.093 111.506 133.53 111.688 134.074ZM118.322 136.878V132.364H119.495V140H118.322V138.707H118.242C118.063 139.095 117.785 139.425 117.407 139.697C117.029 139.965 116.552 140.099 115.975 140.099C115.498 140.099 115.074 139.995 114.702 139.786C114.331 139.574 114.04 139.256 113.827 138.832C113.615 138.404 113.509 137.866 113.509 137.216V132.364H114.683V137.136C114.683 137.693 114.838 138.137 115.15 138.469C115.465 138.8 115.866 138.966 116.353 138.966C116.645 138.966 116.941 138.891 117.243 138.742C117.548 138.593 117.803 138.364 118.008 138.056C118.217 137.748 118.322 137.355 118.322 136.878ZM121.56 140V132.364H122.693V133.557H122.793C122.952 133.149 123.209 132.833 123.564 132.607C123.918 132.379 124.344 132.264 124.841 132.264C125.345 132.264 125.764 132.379 126.099 132.607C126.437 132.833 126.701 133.149 126.89 133.557H126.969C127.165 133.162 127.458 132.849 127.849 132.617C128.24 132.382 128.709 132.264 129.256 132.264C129.939 132.264 130.497 132.478 130.931 132.906C131.366 133.33 131.583 133.991 131.583 134.889V140H130.409V134.889C130.409 134.326 130.255 133.923 129.947 133.681C129.639 133.439 129.276 133.318 128.858 133.318C128.321 133.318 127.905 133.481 127.61 133.805C127.315 134.127 127.168 134.535 127.168 135.028V140H125.975V134.77C125.975 134.336 125.834 133.986 125.552 133.721C125.27 133.452 124.908 133.318 124.463 133.318C124.158 133.318 123.873 133.399 123.608 133.562C123.346 133.724 123.134 133.95 122.972 134.238C122.813 134.523 122.733 134.853 122.733 135.227V140H121.56ZM133.644 140V132.364H134.777V133.557H134.877C135.036 133.149 135.293 132.833 135.647 132.607C136.002 132.379 136.428 132.264 136.925 132.264C137.429 132.264 137.848 132.379 138.183 132.607C138.521 132.833 138.785 133.149 138.973 133.557H139.053C139.249 133.162 139.542 132.849 139.933 132.617C140.324 132.382 140.793 132.264 141.34 132.264C142.023 132.264 142.581 132.478 143.015 132.906C143.45 133.33 143.667 133.991 143.667 134.889V140H142.493V134.889C142.493 134.326 142.339 133.923 142.031 133.681C141.723 133.439 141.36 133.318 140.942 133.318C140.405 133.318 139.989 133.481 139.694 133.805C139.399 134.127 139.252 134.535 139.252 135.028V140H138.059V134.77C138.059 134.336 137.918 133.986 137.636 133.721C137.354 133.452 136.991 133.318 136.547 133.318C136.242 133.318 135.957 133.399 135.692 133.562C135.43 133.724 135.218 133.95 135.056 134.238C134.897 134.523 134.817 134.853 134.817 135.227V140H133.644ZM147.975 140.179C147.491 140.179 147.052 140.088 146.658 139.906C146.263 139.72 145.95 139.453 145.718 139.105C145.486 138.754 145.37 138.33 145.37 137.832C145.37 137.395 145.456 137.04 145.628 136.768C145.801 136.493 146.031 136.278 146.32 136.122C146.608 135.966 146.926 135.85 147.274 135.774C147.625 135.695 147.978 135.632 148.333 135.585C148.797 135.526 149.173 135.481 149.462 135.451C149.753 135.418 149.965 135.363 150.098 135.287C150.234 135.211 150.302 135.078 150.302 134.889V134.849C150.302 134.359 150.168 133.978 149.899 133.706C149.634 133.434 149.231 133.298 148.691 133.298C148.131 133.298 147.692 133.421 147.374 133.666C147.055 133.911 146.832 134.173 146.702 134.452L145.589 134.054C145.788 133.59 146.053 133.229 146.384 132.97C146.719 132.708 147.083 132.526 147.478 132.423C147.876 132.317 148.267 132.264 148.651 132.264C148.896 132.264 149.178 132.294 149.496 132.354C149.818 132.41 150.128 132.528 150.426 132.707C150.728 132.886 150.978 133.156 151.177 133.517C151.376 133.878 151.475 134.362 151.475 134.969V140H150.302V138.966H150.242C150.163 139.132 150.03 139.309 149.844 139.498C149.659 139.687 149.412 139.848 149.104 139.98C148.795 140.113 148.419 140.179 147.975 140.179ZM148.154 139.125C148.618 139.125 149.009 139.034 149.327 138.852C149.649 138.669 149.891 138.434 150.053 138.146C150.219 137.857 150.302 137.554 150.302 137.236V136.162C150.252 136.222 150.143 136.276 149.974 136.326C149.808 136.372 149.616 136.414 149.397 136.45C149.182 136.483 148.971 136.513 148.766 136.54C148.563 136.563 148.399 136.583 148.273 136.599C147.968 136.639 147.683 136.704 147.418 136.793C147.156 136.879 146.944 137.01 146.782 137.186C146.623 137.358 146.543 137.594 146.543 137.892C146.543 138.3 146.694 138.608 146.996 138.817C147.301 139.022 147.687 139.125 148.154 139.125ZM153.533 140V132.364H154.666V133.517H154.746C154.885 133.139 155.137 132.833 155.501 132.597C155.866 132.362 156.277 132.244 156.734 132.244C156.82 132.244 156.928 132.246 157.057 132.249C157.187 132.253 157.284 132.258 157.351 132.264V133.457C157.311 133.447 157.22 133.433 157.077 133.413C156.938 133.389 156.791 133.378 156.635 133.378C156.264 133.378 155.932 133.456 155.641 133.612C155.352 133.764 155.123 133.976 154.954 134.248C154.789 134.516 154.706 134.823 154.706 135.168V140H153.533ZM159.646 142.864C159.447 142.864 159.269 142.847 159.114 142.814C158.958 142.784 158.85 142.754 158.791 142.724L159.089 141.69C159.374 141.763 159.626 141.79 159.845 141.77C160.063 141.75 160.257 141.652 160.426 141.477C160.599 141.304 160.756 141.024 160.899 140.636L161.117 140.04L158.293 132.364H159.566L161.674 138.449H161.754L163.862 132.364H165.134L161.893 141.114C161.747 141.508 161.566 141.835 161.351 142.093C161.135 142.355 160.885 142.549 160.6 142.675C160.318 142.801 160 142.864 159.646 142.864Z" fill="#535665"/>
<path d="M99.5 181C105.023 181 109.5 176.523 109.5 171C109.5 165.477 105.023 161 99.5 161C93.977 161 89.5 165.477 89.5 171C89.5 176.523 93.977 181 99.5 181Z" fill="#01B460"/>
<path d="M95.5 171.818L97.6333 174L103.5 168" stroke="white" stroke-width="2" stroke-linecap="round" stroke-linejoin="round"/>
<circle cx="334.5" cy="55" r="28" fill="#EEECFC"/>
<path d="M326.055 70.6927C325.545 70.6927 325.071 70.5294 324.653 70.2377C324.599 70.2013 324.562 70.1648 324.526 70.1283C324.489 70.1108 324.47 70.0744 324.453 70.0554C324.38 70 324.343 69.9461 324.289 69.8921C324.253 69.8556 324.234 69.8192 324.199 69.7827L324.182 69.7652C324.145 69.7288 324.126 69.6923 324.109 69.6559L324.072 69.6004C323.999 69.4911 323.945 69.3817 323.89 69.2723C323.872 69.2184 323.853 69.163 323.834 69.109C323.817 69.0536 323.798 68.9821 323.78 68.9267C323.762 68.8538 323.744 68.7634 323.725 68.6715C323.725 68.635 323.708 68.5811 323.708 68.5446C323.708 68.4717 323.69 68.3988 323.69 68.3259C323.69 68.199 323.708 68.0707 323.727 67.9249L325.129 59.7642L319.209 53.9894C319.099 53.88 318.99 53.7532 318.9 53.6248C318.79 53.4615 318.717 53.3332 318.663 53.1873C318.646 53.1334 318.609 53.0605 318.59 52.9686C318.535 52.7499 318.5 52.5311 318.5 52.2949C318.5 52.222 318.5 52.168 318.5 52.0951C318.5 51.9857 318.518 51.8763 318.554 51.767C318.554 51.7495 318.571 51.713 318.571 51.6941C318.59 51.6386 318.59 51.5847 318.608 51.5307C318.608 51.5132 318.625 51.4753 318.644 51.4214C318.662 51.3659 318.681 51.312 318.717 51.258C318.771 51.1487 318.827 51.0393 318.917 50.9124C318.954 50.8395 319.007 50.7855 319.063 50.7301C319.063 50.7301 319.063 50.7126 319.08 50.7126L319.372 50.2387H319.627C319.664 50.2197 319.681 50.2022 319.718 50.1833C319.754 50.1658 319.827 50.1293 319.881 50.0928C319.954 50.0564 320.044 50.0199 320.154 49.9835C320.19 49.966 320.244 49.947 320.3 49.947C320.372 49.9295 320.445 49.9106 320.536 49.8916L328.733 48.7075L332.339 41.33C332.74 40.5104 333.56 40 334.47 40C335.126 40 335.763 40.2727 336.218 40.7466C336.291 40.8371 336.364 40.91 336.418 41.0018C336.491 41.1112 336.564 41.2206 336.618 41.33L340.28 48.725L348.458 49.9091C349.369 50.036 350.116 50.6747 350.388 51.5482C350.407 51.6036 350.425 51.6386 350.425 51.6941C350.425 51.7116 350.425 51.7116 350.442 51.7305C350.46 51.7859 350.479 51.8399 350.479 51.9128C350.479 51.9303 350.479 51.9303 350.479 51.9493C350.496 52.0222 350.496 52.0761 350.496 52.149C350.515 52.4947 350.46 52.8592 350.314 53.1873C350.259 53.3332 350.187 53.46 350.095 53.5884L350.076 53.6059C349.986 53.7327 349.877 53.8611 349.767 53.9705L343.847 59.7453L345.249 67.8869C345.395 68.7794 345.05 69.6719 344.302 70.2188C344.119 70.3456 343.901 70.474 343.682 70.5469C343.663 70.5469 343.645 70.5658 343.609 70.5658C343.373 70.6387 343.135 70.6752 342.899 70.6752C342.517 70.6752 342.133 70.5848 341.787 70.4025L334.465 66.5584L327.143 70.4025C326.82 70.6023 326.437 70.6927 326.055 70.6927Z" fill="#560BAD"/>
<path d="M334.474 41.1641V56.2282L329.445 49.7986L333.38 41.8393C333.617 41.4018 334.055 41.1641 334.474 41.1641Z" fill="#A257FA"/>
<path d="M349.28 51.9333L334.488 56.2324L339.515 49.8027L348.295 51.0773C348.788 51.1677 349.134 51.5133 349.28 51.9333Z" fill="#560BAD"/>
<path d="M343.616 69.289L334.473 56.2285L342.597 59.3434L344.09 68.0874C344.198 68.5978 343.979 69.0338 343.616 69.289Z" fill="#A257FA"/>
<path d="M334.473 56.2285V65.2451L326.622 69.3794C326.167 69.6156 325.693 69.5427 325.328 69.289L334.473 56.2285Z" fill="#560BAD"/>
<path d="M339.497 49.7986L334.469 56.2282V41.1641C334.797 41.1641 335.125 41.2909 335.361 41.5461C335.398 41.5826 335.434 41.6365 335.471 41.692C335.507 41.7474 335.544 41.8013 335.561 41.8553L339.497 49.7986Z" fill="#560BAD"/>
<path d="M349.242 52.7513C349.205 52.8242 349.169 52.8971 349.132 52.97C349.077 53.0429 349.023 53.0969 348.969 53.1698L342.612 59.3632L334.488 56.2483L349.28 51.9492C349.28 51.9667 349.297 51.9857 349.297 52.0046C349.297 52.0236 349.316 52.0411 349.316 52.0775C349.316 52.0965 349.316 52.0965 349.316 52.0965C349.316 52.114 349.316 52.133 349.316 52.1505C349.316 52.1869 349.316 52.2059 349.316 52.2409C349.334 52.4042 349.315 52.5865 349.242 52.7513Z" fill="#560BAD"/>
<path d="M343.614 69.289C343.523 69.3619 343.414 69.4159 343.286 69.4523C343.268 69.4523 343.268 69.4523 343.249 69.4698C342.957 69.5602 342.629 69.5427 342.32 69.3794L334.469 65.2451V56.2285L343.614 69.289Z" fill="#560BAD"/>
<path d="M334.468 56.2285L325.324 69.289C325.307 69.27 325.288 69.2525 325.27 69.2336C325.253 69.2161 325.234 69.1971 325.215 69.1782C325.197 69.1607 325.178 69.1417 325.142 69.1052C325.123 69.0877 325.105 69.0688 325.086 69.0498C325.067 69.0309 325.069 69.0323 325.069 69.0134C325.051 68.9959 325.032 68.9769 325.032 68.958C324.996 68.904 324.959 68.8486 324.942 68.7946C324.924 68.7771 324.924 68.7392 324.906 68.7042C324.888 68.6678 324.888 68.6488 324.869 68.6138C324.852 68.5773 324.852 68.5234 324.852 68.4869C324.852 68.4694 324.852 68.4315 324.852 68.414C324.852 68.3776 324.852 68.3411 324.852 68.3046C324.852 68.2317 324.852 68.1588 324.869 68.0859L326.362 59.342L334.468 56.2285Z" fill="#A257FA"/>
<path d="M334.471 56.2285L319.68 51.9295C319.68 51.912 319.697 51.893 319.697 51.8741C319.715 51.8376 319.715 51.8011 319.734 51.7836C319.77 51.7107 319.807 51.6568 319.843 51.6014C319.861 51.5649 319.879 51.5459 319.916 51.5109C319.935 51.4934 319.952 51.4555 319.989 51.438C320.006 51.4205 320.044 51.3841 320.062 51.3651C320.079 51.3462 320.116 51.3287 320.135 51.3097C320.171 51.2922 320.208 51.2543 320.244 51.2368C320.262 51.2193 320.298 51.2003 320.334 51.2003C320.39 51.1828 320.425 51.1639 320.48 51.1449C320.498 51.1449 320.517 51.1274 320.553 51.1274C320.59 51.1099 320.644 51.1099 320.699 51.091L329.479 49.8164L334.471 56.2285Z" fill="#560BAD"/>
<path d="M334.471 56.2287L326.366 59.3611L320.009 53.1677C319.936 53.1123 319.9 53.0408 319.846 52.9679C319.809 52.895 319.755 52.8221 319.736 52.7492C319.719 52.7127 319.7 52.6763 319.7 52.6398C319.663 52.5304 319.645 52.4036 319.645 52.2942C319.645 52.2577 319.645 52.2213 319.645 52.1848C319.645 52.1309 319.645 52.0944 319.663 52.039C319.663 52.0215 319.681 52.0025 319.681 51.9661C319.681 51.9486 319.698 51.9296 319.698 51.9121L334.471 56.2287Z" fill="#560BAD"/>
<path d="M303.148 109V97.3636H305.256V107.233H310.381V109H303.148ZM315.807 109.17C314.932 109.17 314.176 108.989 313.54 108.625C312.907 108.258 312.421 107.739 312.08 107.068C311.739 106.394 311.568 105.6 311.568 104.688C311.568 103.79 311.739 103.002 312.08 102.324C312.424 101.642 312.905 101.112 313.523 100.733C314.14 100.35 314.866 100.159 315.699 100.159C316.237 100.159 316.744 100.246 317.222 100.42C317.703 100.591 318.127 100.856 318.494 101.216C318.866 101.576 319.157 102.034 319.369 102.591C319.582 103.144 319.688 103.803 319.688 104.568V105.199H312.534V103.812H317.716C317.712 103.419 317.627 103.068 317.46 102.761C317.294 102.451 317.061 102.206 316.762 102.028C316.466 101.85 316.121 101.761 315.727 101.761C315.307 101.761 314.938 101.864 314.619 102.068C314.301 102.269 314.053 102.534 313.875 102.864C313.701 103.189 313.612 103.547 313.608 103.938V105.148C313.608 105.655 313.701 106.091 313.887 106.455C314.072 106.814 314.332 107.091 314.665 107.284C314.998 107.473 315.388 107.568 315.835 107.568C316.135 107.568 316.405 107.527 316.648 107.443C316.89 107.356 317.101 107.229 317.279 107.062C317.457 106.896 317.591 106.689 317.682 106.443L319.602 106.659C319.481 107.167 319.25 107.61 318.909 107.989C318.572 108.364 318.14 108.655 317.614 108.864C317.087 109.068 316.485 109.17 315.807 109.17ZM328.797 100.273L325.689 109H323.416L320.309 100.273H322.502L324.507 106.756H324.598L326.61 100.273H328.797ZM333.611 109.17C332.736 109.17 331.981 108.989 331.344 108.625C330.712 108.258 330.225 107.739 329.884 107.068C329.543 106.394 329.373 105.6 329.373 104.688C329.373 103.79 329.543 103.002 329.884 102.324C330.229 101.642 330.71 101.112 331.327 100.733C331.945 100.35 332.67 100.159 333.503 100.159C334.041 100.159 334.549 100.246 335.026 100.42C335.507 100.591 335.931 100.856 336.299 101.216C336.67 101.576 336.962 102.034 337.174 102.591C337.386 103.144 337.492 103.803 337.492 104.568V105.199H330.338V103.812H335.52C335.517 103.419 335.431 103.068 335.265 102.761C335.098 102.451 334.865 102.206 334.566 102.028C334.27 101.85 333.926 101.761 333.532 101.761C333.111 101.761 332.742 101.864 332.424 102.068C332.106 102.269 331.857 102.534 331.679 102.864C331.505 103.189 331.416 103.547 331.412 103.938V105.148C331.412 105.655 331.505 106.091 331.691 106.455C331.876 106.814 332.136 107.091 332.469 107.284C332.802 107.473 333.193 107.568 333.64 107.568C333.939 107.568 334.21 107.527 334.452 107.443C334.695 107.356 334.905 107.229 335.083 107.062C335.261 106.896 335.395 106.689 335.486 106.443L337.407 106.659C337.285 107.167 337.054 107.61 336.713 107.989C336.376 108.364 335.945 108.655 335.418 108.864C334.892 109.068 334.289 109.17 333.611 109.17ZM341.113 97.3636V109H339.056V97.3636H341.113ZM351.123 109.222C350.187 109.222 349.384 108.985 348.714 108.511C348.047 108.034 347.534 107.347 347.174 106.449C346.818 105.547 346.64 104.462 346.64 103.193C346.644 101.924 346.824 100.845 347.18 99.9545C347.54 99.0606 348.053 98.3788 348.72 97.9091C349.39 97.4394 350.191 97.2045 351.123 97.2045C352.055 97.2045 352.856 97.4394 353.526 97.9091C354.197 98.3788 354.71 99.0606 355.066 99.9545C355.426 100.848 355.606 101.928 355.606 103.193C355.606 104.466 355.426 105.553 355.066 106.455C354.71 107.352 354.197 108.038 353.526 108.511C352.86 108.985 352.059 109.222 351.123 109.222ZM351.123 107.443C351.85 107.443 352.424 107.085 352.845 106.369C353.269 105.65 353.481 104.591 353.481 103.193C353.481 102.269 353.384 101.492 353.191 100.864C352.998 100.235 352.725 99.7614 352.373 99.4432C352.021 99.1212 351.604 98.9602 351.123 98.9602C350.399 98.9602 349.828 99.3201 349.407 100.04C348.987 100.756 348.774 101.807 348.771 103.193C348.767 104.121 348.86 104.902 349.049 105.534C349.242 106.167 349.515 106.644 349.867 106.966C350.22 107.284 350.638 107.443 351.123 107.443ZM357.318 109V107.477L361.357 103.517C361.744 103.127 362.066 102.78 362.323 102.477C362.581 102.174 362.774 101.881 362.903 101.597C363.032 101.312 363.096 101.009 363.096 100.688C363.096 100.32 363.013 100.006 362.846 99.7443C362.679 99.4792 362.45 99.2746 362.159 99.1307C361.867 98.9867 361.536 98.9148 361.164 98.9148C360.782 98.9148 360.447 98.9943 360.159 99.1534C359.871 99.3087 359.647 99.5303 359.488 99.8182C359.333 100.106 359.255 100.449 359.255 100.847H357.25C357.25 100.108 357.418 99.4659 357.755 98.9205C358.092 98.375 358.556 97.9527 359.147 97.6534C359.742 97.3542 360.424 97.2045 361.193 97.2045C361.973 97.2045 362.659 97.3504 363.25 97.642C363.84 97.9337 364.299 98.3333 364.625 98.8409C364.954 99.3485 365.119 99.928 365.119 100.58C365.119 101.015 365.036 101.443 364.869 101.864C364.702 102.284 364.409 102.75 363.988 103.261C363.572 103.773 362.986 104.392 362.232 105.119L360.227 107.159V107.239H365.295V109H357.318Z" fill="#282C3F"/>
<path d="M272.233 140V129.818H273.466V134.869H273.585L278.159 129.818H279.77L275.494 134.412L279.77 140H278.278L274.739 135.267L273.466 136.699V140H272.233ZM282.296 135.406V140H281.123V132.364H282.256V133.557H282.356C282.535 133.169 282.806 132.857 283.171 132.622C283.536 132.384 284.006 132.264 284.583 132.264C285.1 132.264 285.552 132.37 285.94 132.582C286.328 132.791 286.63 133.109 286.845 133.537C287.06 133.961 287.168 134.498 287.168 135.148V140H285.995V135.227C285.995 134.627 285.839 134.16 285.528 133.825C285.216 133.487 284.788 133.318 284.245 133.318C283.87 133.318 283.536 133.399 283.241 133.562C282.949 133.724 282.719 133.961 282.55 134.273C282.38 134.584 282.296 134.962 282.296 135.406ZM292.33 140.159C291.641 140.159 291.036 139.995 290.516 139.667C289.999 139.339 289.594 138.88 289.303 138.29C289.014 137.7 288.87 137.01 288.87 136.222C288.87 135.426 289.014 134.732 289.303 134.138C289.594 133.545 289.999 133.085 290.516 132.756C291.036 132.428 291.641 132.264 292.33 132.264C293.02 132.264 293.623 132.428 294.14 132.756C294.66 133.085 295.065 133.545 295.353 134.138C295.645 134.732 295.791 135.426 295.791 136.222C295.791 137.01 295.645 137.7 295.353 138.29C295.065 138.88 294.66 139.339 294.14 139.667C293.623 139.995 293.02 140.159 292.33 140.159ZM292.33 139.105C292.854 139.105 293.285 138.971 293.623 138.702C293.961 138.434 294.211 138.081 294.374 137.643C294.536 137.206 294.617 136.732 294.617 136.222C294.617 135.711 294.536 135.236 294.374 134.795C294.211 134.354 293.961 133.998 293.623 133.726C293.285 133.454 292.854 133.318 292.33 133.318C291.807 133.318 291.376 133.454 291.038 133.726C290.7 133.998 290.449 134.354 290.287 134.795C290.125 135.236 290.043 135.711 290.043 136.222C290.043 136.732 290.125 137.206 290.287 137.643C290.449 138.081 290.7 138.434 291.038 138.702C291.376 138.971 291.807 139.105 292.33 139.105ZM298.968 140L296.641 132.364H297.874L299.525 138.21H299.604L301.235 132.364H302.488L304.099 138.19H304.178L305.829 132.364H307.062L304.735 140H303.582L301.911 134.134H301.792L300.121 140H298.968ZM318.11 132.364C318.05 131.86 317.808 131.469 317.384 131.19C316.96 130.912 316.439 130.773 315.823 130.773C315.372 130.773 314.978 130.846 314.639 130.991C314.305 131.137 314.043 131.338 313.854 131.593C313.668 131.848 313.576 132.138 313.576 132.463C313.576 132.735 313.64 132.969 313.769 133.164C313.902 133.356 314.071 133.517 314.277 133.646C314.482 133.772 314.697 133.877 314.923 133.96C315.148 134.039 315.355 134.104 315.544 134.153L316.578 134.432C316.844 134.501 317.139 134.598 317.463 134.72C317.791 134.843 318.105 135.01 318.403 135.222C318.705 135.431 318.953 135.7 319.149 136.028C319.344 136.356 319.442 136.759 319.442 137.236C319.442 137.786 319.298 138.283 319.01 138.727C318.724 139.171 318.307 139.524 317.757 139.786C317.21 140.048 316.545 140.179 315.763 140.179C315.034 140.179 314.403 140.061 313.869 139.826C313.339 139.591 312.921 139.263 312.616 138.842C312.314 138.421 312.144 137.932 312.104 137.375H313.377C313.41 137.759 313.539 138.078 313.764 138.33C313.993 138.578 314.282 138.764 314.63 138.886C314.981 139.006 315.359 139.065 315.763 139.065C316.234 139.065 316.656 138.989 317.031 138.837C317.405 138.681 317.702 138.465 317.921 138.19C318.139 137.912 318.249 137.587 318.249 137.216C318.249 136.878 318.154 136.603 317.965 136.391C317.777 136.179 317.528 136.006 317.22 135.874C316.912 135.741 316.578 135.625 316.22 135.526L314.968 135.168C314.172 134.939 313.542 134.612 313.078 134.188C312.614 133.764 312.382 133.209 312.382 132.523C312.382 131.953 312.537 131.455 312.845 131.031C313.156 130.604 313.574 130.272 314.098 130.037C314.625 129.798 315.213 129.679 315.862 129.679C316.519 129.679 317.102 129.797 317.612 130.032C318.123 130.264 318.527 130.582 318.826 130.987C319.127 131.391 319.286 131.85 319.303 132.364H318.11ZM323.473 140.179C322.989 140.179 322.55 140.088 322.156 139.906C321.761 139.72 321.448 139.453 321.216 139.105C320.984 138.754 320.868 138.33 320.868 137.832C320.868 137.395 320.954 137.04 321.127 136.768C321.299 136.493 321.529 136.278 321.818 136.122C322.106 135.966 322.424 135.85 322.772 135.774C323.124 135.695 323.477 135.632 323.831 135.585C324.295 135.526 324.671 135.481 324.96 135.451C325.251 135.418 325.464 135.363 325.596 135.287C325.732 135.211 325.8 135.078 325.8 134.889V134.849C325.8 134.359 325.666 133.978 325.397 133.706C325.132 133.434 324.729 133.298 324.189 133.298C323.629 133.298 323.19 133.421 322.872 133.666C322.554 133.911 322.33 134.173 322.201 134.452L321.087 134.054C321.286 133.59 321.551 133.229 321.882 132.97C322.217 132.708 322.582 132.526 322.976 132.423C323.374 132.317 323.765 132.264 324.149 132.264C324.395 132.264 324.676 132.294 324.995 132.354C325.316 132.41 325.626 132.528 325.924 132.707C326.226 132.886 326.476 133.156 326.675 133.517C326.874 133.878 326.973 134.362 326.973 134.969V140H325.8V138.966H325.74C325.661 139.132 325.528 139.309 325.343 139.498C325.157 139.687 324.91 139.848 324.602 139.98C324.294 140.113 323.917 140.179 323.473 140.179ZM323.652 139.125C324.116 139.125 324.507 139.034 324.826 138.852C325.147 138.669 325.389 138.434 325.551 138.146C325.717 137.857 325.8 137.554 325.8 137.236V136.162C325.75 136.222 325.641 136.276 325.472 136.326C325.306 136.372 325.114 136.414 324.895 136.45C324.68 136.483 324.469 136.513 324.264 136.54C324.062 136.563 323.898 136.583 323.772 136.599C323.467 136.639 323.182 136.704 322.916 136.793C322.655 136.879 322.442 137.01 322.28 137.186C322.121 137.358 322.041 137.594 322.041 137.892C322.041 138.3 322.192 138.608 322.494 138.817C322.799 139.022 323.185 139.125 323.652 139.125ZM330.204 129.818V140H329.031V129.818H330.204ZM334.516 140.179C334.032 140.179 333.593 140.088 333.199 139.906C332.804 139.72 332.491 139.453 332.259 139.105C332.027 138.754 331.911 138.33 331.911 137.832C331.911 137.395 331.997 137.04 332.17 136.768C332.342 136.493 332.572 136.278 332.861 136.122C333.149 135.966 333.467 135.85 333.815 135.774C334.167 135.695 334.52 135.632 334.874 135.585C335.338 135.526 335.714 135.481 336.003 135.451C336.294 135.418 336.507 135.363 336.639 135.287C336.775 135.211 336.843 135.078 336.843 134.889V134.849C336.843 134.359 336.709 133.978 336.44 133.706C336.175 133.434 335.772 133.298 335.232 133.298C334.672 133.298 334.233 133.421 333.915 133.666C333.596 133.911 333.373 134.173 333.243 134.452L332.13 134.054C332.329 133.59 332.594 133.229 332.925 132.97C333.26 132.708 333.625 132.526 334.019 132.423C334.417 132.317 334.808 132.264 335.192 132.264C335.438 132.264 335.719 132.294 336.038 132.354C336.359 132.41 336.669 132.528 336.967 132.707C337.269 132.886 337.519 133.156 337.718 133.517C337.917 133.878 338.016 134.362 338.016 134.969V140H336.843V138.966H336.783C336.704 139.132 336.571 139.309 336.386 139.498C336.2 139.687 335.953 139.848 335.645 139.98C335.337 140.113 334.96 140.179 334.516 140.179ZM334.695 139.125C335.159 139.125 335.55 139.034 335.868 138.852C336.19 138.669 336.432 138.434 336.594 138.146C336.76 137.857 336.843 137.554 336.843 137.236V136.162C336.793 136.222 336.684 136.276 336.515 136.326C336.349 136.372 336.157 136.414 335.938 136.45C335.723 136.483 335.512 136.513 335.307 136.54C335.105 136.563 334.94 136.583 334.815 136.599C334.51 136.639 334.225 136.704 333.959 136.793C333.698 136.879 333.485 137.01 333.323 137.186C333.164 137.358 333.084 137.594 333.084 137.892C333.084 138.3 333.235 138.608 333.537 138.817C333.842 139.022 334.228 139.125 334.695 139.125ZM340.074 140V132.364H341.207V133.517H341.287C341.426 133.139 341.678 132.833 342.042 132.597C342.407 132.362 342.818 132.244 343.275 132.244C343.362 132.244 343.469 132.246 343.599 132.249C343.728 132.253 343.826 132.258 343.892 132.264V133.457C343.852 133.447 343.761 133.433 343.618 133.413C343.479 133.389 343.332 133.378 343.176 133.378C342.805 133.378 342.473 133.456 342.182 133.612C341.893 133.764 341.665 133.976 341.496 134.248C341.33 134.516 341.247 134.823 341.247 135.168V140H340.074ZM346.187 142.864C345.988 142.864 345.811 142.847 345.655 142.814C345.499 142.784 345.391 142.754 345.332 142.724L345.63 141.69C345.915 141.763 346.167 141.79 346.386 141.77C346.604 141.75 346.798 141.652 346.967 141.477C347.14 141.304 347.297 141.024 347.44 140.636L347.658 140.04L344.835 132.364H346.107L348.215 138.449H348.295L350.403 132.364H351.675L348.434 141.114C348.288 141.508 348.108 141.835 347.892 142.093C347.677 142.355 347.426 142.549 347.141 142.675C346.86 142.801 346.541 142.864 346.187 142.864ZM360.315 132.364V133.358H356.357V132.364H360.315ZM357.511 130.534H358.684V137.812C358.684 138.144 358.732 138.393 358.828 138.558C358.928 138.721 359.053 138.83 359.206 138.886C359.362 138.939 359.526 138.966 359.698 138.966C359.827 138.966 359.933 138.959 360.016 138.946C360.099 138.929 360.165 138.916 360.215 138.906L360.454 139.96C360.374 139.99 360.263 140.02 360.121 140.05C359.978 140.083 359.798 140.099 359.579 140.099C359.247 140.099 358.923 140.028 358.604 139.886C358.29 139.743 358.028 139.526 357.819 139.234C357.613 138.943 357.511 138.575 357.511 138.131V130.534ZM361.996 140V132.364H363.129V133.517H363.209C363.348 133.139 363.6 132.833 363.964 132.597C364.329 132.362 364.74 132.244 365.197 132.244C365.283 132.244 365.391 132.246 365.52 132.249C365.65 132.253 365.747 132.258 365.814 132.264V133.457C365.774 133.447 365.683 133.433 365.54 133.413C365.401 133.389 365.254 133.378 365.098 133.378C364.727 133.378 364.395 133.456 364.103 133.612C363.815 133.764 363.586 133.976 363.417 134.248C363.252 134.516 363.169 134.823 363.169 135.168V140H361.996ZM370.09 140.159C369.354 140.159 368.719 139.997 368.186 139.672C367.655 139.344 367.246 138.886 366.958 138.3C366.673 137.71 366.53 137.024 366.53 136.241C366.53 135.459 366.673 134.77 366.958 134.173C367.246 133.573 367.647 133.106 368.161 132.771C368.678 132.433 369.281 132.264 369.97 132.264C370.368 132.264 370.761 132.33 371.149 132.463C371.537 132.596 371.89 132.811 372.208 133.109C372.526 133.404 372.779 133.795 372.968 134.283C373.157 134.77 373.252 135.37 373.252 136.082V136.58H367.365V135.565H372.059C372.059 135.134 371.972 134.75 371.8 134.412C371.631 134.074 371.389 133.807 371.074 133.612C370.763 133.416 370.395 133.318 369.97 133.318C369.503 133.318 369.099 133.434 368.757 133.666C368.419 133.895 368.159 134.193 367.977 134.561C367.795 134.929 367.703 135.323 367.703 135.744V136.42C367.703 136.997 367.803 137.486 368.002 137.887C368.204 138.285 368.484 138.588 368.842 138.797C369.2 139.002 369.616 139.105 370.09 139.105C370.398 139.105 370.676 139.062 370.925 138.976C371.177 138.886 371.394 138.754 371.576 138.578C371.759 138.399 371.899 138.177 371.999 137.912L373.132 138.23C373.013 138.615 372.813 138.953 372.531 139.244C372.249 139.533 371.901 139.758 371.487 139.92C371.073 140.08 370.607 140.159 370.09 140.159ZM376.126 135.406V140H374.953V132.364H376.086V133.557H376.185C376.364 133.169 376.636 132.857 377.001 132.622C377.365 132.384 377.836 132.264 378.413 132.264C378.93 132.264 379.382 132.37 379.77 132.582C380.158 132.791 380.459 133.109 380.675 133.537C380.89 133.961 380.998 134.498 380.998 135.148V140H379.825V135.227C379.825 134.627 379.669 134.16 379.357 133.825C379.046 133.487 378.618 133.318 378.075 133.318C377.7 133.318 377.365 133.399 377.07 133.562C376.779 133.724 376.548 133.961 376.379 134.273C376.21 134.584 376.126 134.962 376.126 135.406ZM385.942 140.159C385.305 140.159 384.743 139.998 384.256 139.677C383.769 139.352 383.388 138.895 383.113 138.305C382.838 137.711 382.7 137.01 382.7 136.202C382.7 135.4 382.838 134.704 383.113 134.114C383.388 133.524 383.771 133.068 384.261 132.746C384.752 132.425 385.318 132.264 385.961 132.264C386.459 132.264 386.851 132.347 387.14 132.513C387.431 132.675 387.653 132.861 387.806 133.07C387.962 133.275 388.083 133.444 388.169 133.577H388.268V129.818H389.442V140H388.308V138.827H388.169C388.083 138.966 387.96 139.142 387.801 139.354C387.642 139.562 387.415 139.75 387.12 139.915C386.825 140.078 386.432 140.159 385.942 140.159ZM386.101 139.105C386.571 139.105 386.969 138.982 387.294 138.737C387.619 138.489 387.866 138.146 388.035 137.708C388.204 137.267 388.288 136.759 388.288 136.182C388.288 135.612 388.205 135.113 388.04 134.685C387.874 134.254 387.629 133.92 387.304 133.681C386.979 133.439 386.578 133.318 386.101 133.318C385.603 133.318 385.189 133.446 384.858 133.701C384.53 133.953 384.283 134.296 384.117 134.73C383.955 135.161 383.873 135.645 383.873 136.182C383.873 136.725 383.956 137.219 384.122 137.663C384.291 138.104 384.54 138.455 384.868 138.717C385.199 138.976 385.61 139.105 386.101 139.105ZM397.078 134.074L396.024 134.372C395.958 134.196 395.86 134.026 395.731 133.86C395.605 133.691 395.433 133.552 395.214 133.442C394.995 133.333 394.715 133.278 394.374 133.278C393.907 133.278 393.517 133.386 393.206 133.602C392.897 133.814 392.743 134.084 392.743 134.412C392.743 134.704 392.849 134.934 393.061 135.103C393.273 135.272 393.605 135.413 394.056 135.526L395.189 135.804C395.872 135.97 396.381 136.223 396.715 136.565C397.05 136.903 397.218 137.339 397.218 137.872C397.218 138.31 397.092 138.701 396.84 139.045C396.591 139.39 396.243 139.662 395.796 139.861C395.348 140.06 394.828 140.159 394.235 140.159C393.456 140.159 392.811 139.99 392.301 139.652C391.79 139.314 391.467 138.82 391.331 138.17L392.445 137.892C392.551 138.303 392.751 138.611 393.046 138.817C393.345 139.022 393.734 139.125 394.215 139.125C394.762 139.125 395.196 139.009 395.517 138.777C395.842 138.542 396.005 138.26 396.005 137.932C396.005 137.667 395.912 137.445 395.726 137.266C395.541 137.083 395.255 136.947 394.871 136.858L393.598 136.56C392.899 136.394 392.385 136.137 392.057 135.789C391.732 135.438 391.57 134.999 391.57 134.472C391.57 134.041 391.691 133.66 391.933 133.328C392.178 132.997 392.511 132.737 392.932 132.548C393.356 132.359 393.837 132.264 394.374 132.264C395.13 132.264 395.723 132.43 396.154 132.761C396.588 133.093 396.896 133.53 397.078 134.074Z" fill="#535665"/>
<rect x="295.5" y="155.5" width="78" height="31" rx="3.5" fill="white"/>
<path d="M318.423 165.818H320.267V172.47C320.267 173.199 320.095 173.841 319.75 174.394C319.409 174.948 318.928 175.38 318.308 175.692C317.688 176 316.964 176.154 316.136 176.154C315.304 176.154 314.578 176 313.958 175.692C313.338 175.38 312.858 174.948 312.516 174.394C312.175 173.841 312.004 173.199 312.004 172.47V165.818H313.849V172.316C313.849 172.74 313.942 173.118 314.127 173.45C314.316 173.781 314.581 174.041 314.923 174.23C315.264 174.416 315.668 174.509 316.136 174.509C316.603 174.509 317.007 174.416 317.349 174.23C317.693 174.041 317.959 173.781 318.144 173.45C318.33 173.118 318.423 172.74 318.423 172.316V165.818ZM323.908 171.526V176H322.108V168.364H323.828V169.661H323.918C324.094 169.234 324.374 168.894 324.758 168.642C325.146 168.39 325.625 168.264 326.195 168.264C326.722 168.264 327.181 168.377 327.572 168.602C327.966 168.828 328.271 169.154 328.487 169.582C328.706 170.009 328.813 170.528 328.81 171.138V176H327.01V171.416C327.01 170.906 326.878 170.506 326.613 170.218C326.351 169.93 325.988 169.786 325.524 169.786C325.209 169.786 324.929 169.855 324.684 169.994C324.442 170.13 324.251 170.327 324.112 170.586C323.976 170.844 323.908 171.158 323.908 171.526ZM332.355 165.818V176H330.556V165.818H332.355ZM337.453 176.149C336.707 176.149 336.061 175.985 335.514 175.657C334.967 175.329 334.543 174.87 334.241 174.28C333.943 173.69 333.794 173 333.794 172.212C333.794 171.423 333.943 170.732 334.241 170.138C334.543 169.545 334.967 169.085 335.514 168.756C336.061 168.428 336.707 168.264 337.453 168.264C338.199 168.264 338.845 168.428 339.392 168.756C339.939 169.085 340.361 169.545 340.66 170.138C340.961 170.732 341.112 171.423 341.112 172.212C341.112 173 340.961 173.69 340.66 174.28C340.361 174.87 339.939 175.329 339.392 175.657C338.845 175.985 338.199 176.149 337.453 176.149ZM337.463 174.707C337.867 174.707 338.205 174.596 338.477 174.374C338.749 174.149 338.951 173.847 339.084 173.469C339.219 173.092 339.287 172.671 339.287 172.207C339.287 171.739 339.219 171.317 339.084 170.939C338.951 170.558 338.749 170.254 338.477 170.029C338.205 169.804 337.867 169.691 337.463 169.691C337.049 169.691 336.704 169.804 336.429 170.029C336.157 170.254 335.953 170.558 335.817 170.939C335.685 171.317 335.618 171.739 335.618 172.207C335.618 172.671 335.685 173.092 335.817 173.469C335.953 173.847 336.157 174.149 336.429 174.374C336.704 174.596 337.049 174.707 337.463 174.707ZM345.886 176.149C345.124 176.149 344.47 175.982 343.923 175.647C343.379 175.312 342.96 174.85 342.665 174.26C342.373 173.667 342.227 172.984 342.227 172.212C342.227 171.436 342.377 170.752 342.675 170.158C342.973 169.562 343.394 169.098 343.938 168.766C344.484 168.432 345.131 168.264 345.877 168.264C346.496 168.264 347.045 168.379 347.522 168.607C348.003 168.833 348.386 169.152 348.671 169.567C348.956 169.978 349.118 170.458 349.158 171.009H347.438C347.368 170.641 347.202 170.334 346.94 170.089C346.682 169.84 346.336 169.716 345.901 169.716C345.533 169.716 345.21 169.815 344.932 170.014C344.654 170.21 344.436 170.491 344.281 170.859C344.128 171.227 344.052 171.668 344.052 172.182C344.052 172.702 344.128 173.15 344.281 173.524C344.433 173.895 344.647 174.182 344.922 174.384C345.2 174.583 345.527 174.683 345.901 174.683C346.167 174.683 346.404 174.633 346.612 174.533C346.824 174.431 347.002 174.283 347.144 174.091C347.287 173.899 347.385 173.665 347.438 173.39H349.158C349.115 173.93 348.956 174.409 348.681 174.827C348.405 175.241 348.031 175.566 347.557 175.801C347.083 176.033 346.526 176.149 345.886 176.149ZM352.192 173.604L352.187 171.431H352.476L355.22 168.364H357.323L353.947 172.122H353.574L352.192 173.604ZM350.552 176V165.818H352.351V176H350.552ZM355.344 176L352.858 172.525L354.071 171.257L357.497 176H355.344Z" fill="#282C3F"/>
<rect x="295.5" y="155.5" width="78" height="31" rx="3.5" stroke="#535665"/>
</g>
</g>
<defs>
<filter id="filter0_dd_8827_174544" x="0" y="0" width="656" height="216" filterUnits="userSpaceOnUse" color-interpolation-filters="sRGB">
<feFlood flood-opacity="0" result="BackgroundImageFix"/>
<feColorMatrix in="SourceAlpha" type="matrix" values="0 0 0 0 0 0 0 0 0 0 0 0 0 0 0 0 0 0 127 0" result="hardAlpha"/>
<feOffset/>
<feGaussianBlur stdDeviation="0.5"/>
<feColorMatrix type="matrix" values="0 0 0 0 0 0 0 0 0 0 0 0 0 0 0 0 0 0 0.25 0"/>
<feBlend mode="normal" in2="BackgroundImageFix" result="effect1_dropShadow_8827_174544"/>
<feColorMatrix in="SourceAlpha" type="matrix" values="0 0 0 0 0 0 0 0 0 0 0 0 0 0 0 0 0 0 127 0" result="hardAlpha"/>
<feOffset dy="2"/>
<feGaussianBlur stdDeviation="0.5"/>
<feColorMatrix type="matrix" values="0 0 0 0 0 0 0 0 0 0 0 0 0 0 0 0 0 0 0.05 0"/>
<feBlend mode="normal" in2="effect1_dropShadow_8827_174544" result="effect2_dropShadow_8827_174544"/>
<feBlend mode="normal" in="SourceGraphic" in2="effect2_dropShadow_8827_174544" result="shape"/>
</filter>
<clipPath id="clip0_8827_174544">
<rect x="1" y="1" width="654" height="212" rx="8" fill="white"/>
</clipPath>
</defs>
</svg>
