<svg width="22" height="23" viewBox="0 0 22 23" fill="none" xmlns="http://www.w3.org/2000/svg">
<path fill-rule="evenodd" clip-rule="evenodd" d="M3.09163 6.21547C4.53858 6.21547 5.71157 5.03435 5.71157 3.57737C5.71157 2.12039 4.53858 0.93927 3.09163 0.93927C1.64467 0.93927 0.47168 2.12039 0.47168 3.57737C0.47168 5.03435 1.64467 6.21547 3.09163 6.21547ZM5.27496 7.97421H0.908383C0.667348 7.97421 0.471726 8.17119 0.471726 8.41389V21.6044C0.471726 21.8471 0.667348 22.0441 0.908383 22.0441H5.27496C5.516 22.0441 5.71162 21.8471 5.71162 21.6044V8.41389C5.71162 8.17119 5.516 7.97421 5.27496 7.97421ZM12.6841 8.30396C14.084 7.29005 16.4183 6.72462 18.2846 7.36832C19.6932 7.85373 21.3813 9.19124 21.4311 12.8046V21.6044C21.4311 21.8471 21.2355 22.0441 20.9945 22.0441H16.6279C16.3869 22.0441 16.1913 21.8471 16.1913 21.6044V13.6901C16.1913 12.692 15.7782 11.9428 15.0569 11.6359C14.3128 11.3176 13.4037 11.5128 12.6981 12.1248V21.6044C12.6981 21.8471 12.5024 22.0441 12.2614 22.0441H7.89488C7.65385 22.0441 7.45823 21.8471 7.45823 21.6044V8.41388C7.45823 8.17118 7.65385 7.9742 7.89488 7.9742H12.2614C12.4649 7.9742 12.6361 8.1149 12.6841 8.30396Z" fill="url(#paint0_linear_2458_3815)"/>
<defs>
<linearGradient id="paint0_linear_2458_3815" x1="6.83273" y1="-9.80284" x2="-18.2274" y2="14.589" gradientUnits="userSpaceOnUse">
<stop stop-color="#01DCBA"/>
<stop offset="1" stop-color="#7F30CB"/>
</linearGradient>
</defs>
</svg>
