<svg width="14" height="20" viewBox="0 0 14 20" fill="none" xmlns="http://www.w3.org/2000/svg">
<path d="M6.99982 10.888C5.05783 10.888 3.47772 9.25333 3.47772 7.24398C3.47772 5.23462 5.05783 3.59993 6.99982 3.59993C8.94229 3.59993 10.5219 5.23462 10.5219 7.24398C10.5219 9.25333 8.94229 10.888 6.99982 10.888ZM6.99982 0C3.13985 0 0 3.24976 0 7.24398C0 12.2006 6.26432 19.4764 6.53059 19.7837C6.7816 20.0727 7.21887 20.0715 7.46905 19.7837C7.73579 19.4764 14 12.2006 14 7.24398C14 3.24976 10.8598 0 6.99982 0Z" fill="#101214"/>
</svg>
