<svg width="18" height="12" viewBox="0 0 18 12" fill="none" xmlns="http://www.w3.org/2000/svg">
<path fill-rule="evenodd" clip-rule="evenodd" d="M2.17275 0.17688H15.4683C16.4326 0.17688 17.2177 0.967464 17.2177 1.93843V9.68925C17.2177 10.6602 16.4326 11.4508 15.4683 11.4508H2.17275C1.20848 11.4508 0.42334 10.6602 0.42334 9.68925V1.93843C0.42334 0.967464 1.20848 0.17688 2.17275 0.17688ZM2.39673 9.95985L6.59532 6.43674C6.74367 6.31272 6.76396 6.09006 6.6401 5.93998C6.51624 5.7913 6.29512 5.77087 6.14677 5.89488L1.94818 9.41799C1.79983 9.54271 1.77953 9.76537 1.90339 9.91475C1.97267 9.9986 2.07204 10.0416 2.1728 10.0416C2.25188 10.0416 2.33165 10.0148 2.39673 9.95985ZM8.82053 6.53045C8.43566 6.53045 8.05009 6.41489 7.7142 6.18307L1.97542 2.22945C1.81587 2.11953 1.77528 1.90039 1.88375 1.73974C1.99221 1.57909 2.20984 1.53751 2.37008 1.64814L8.10887 5.60176C8.54062 5.89911 9.09904 5.89911 9.53149 5.60176L15.2703 1.64814C15.4305 1.53892 15.6481 1.57909 15.7566 1.73974C15.8658 1.90039 15.8252 2.11953 15.6656 2.22945L9.92686 6.18307C9.59097 6.41489 9.2054 6.53045 8.82053 6.53045ZM15.4683 10.0416C15.5684 10.0416 15.6678 9.9986 15.737 9.91475C15.8609 9.76537 15.8406 9.54271 15.6929 9.41799L11.4943 5.89488C11.3453 5.77087 11.1249 5.7913 11.001 5.93998C10.8771 6.09006 10.8974 6.31202 11.0458 6.43674L15.2444 9.95985C15.3102 10.0148 15.3892 10.0416 15.4683 10.0416Z" fill="url(#paint0_linear_2458_3793)"/>
<defs>
<linearGradient id="paint0_linear_2458_3793" x1="6.80048" y1="-6.2897" x2="-4.8255" y2="12.439" gradientUnits="userSpaceOnUse">
<stop stop-color="#01DCBA"/>
<stop offset="1" stop-color="#7F30CB"/>
</linearGradient>
</defs>
</svg>
