<svg width="20" height="20" viewBox="0 0 20 20" fill="none" xmlns="http://www.w3.org/2000/svg">
<path d="M3.33398 3.33366C3.33398 2.41319 4.08018 1.66699 5.00065 1.66699H11.6673C11.8883 1.66699 12.1003 1.75479 12.2566 1.91107L16.4232 6.07774C16.5795 6.23402 16.6673 6.44598 16.6673 6.66699V16.667C16.6673 17.5875 15.9211 18.3337 15.0007 18.3337H5.00065C4.08018 18.3337 3.33398 17.5875 3.33398 16.667V3.33366ZM14.6555 6.66699L11.6673 3.67884V6.66699H14.6555ZM10.0007 3.33366L5.00065 3.33366V16.667H15.0007V8.33366H10.834C10.3737 8.33366 10.0007 7.96056 10.0007 7.50033V3.33366Z" fill="#282C3F"/>
</svg>
