<svg width="217" height="279" viewBox="0 0 217 279" fill="none" xmlns="http://www.w3.org/2000/svg">
<circle cx="108.354" cy="108.354" r="108.354" fill="#F5F5FA"/>
<rect x="65.8473" y="106.146" width="106.081" height="148.513" rx="10.6081" transform="rotate(2.5 65.8473 106.146)" fill="#E1E1ED" stroke="#ACAAC2" stroke-width="3.03089"/>
<rect x="2.78214" y="97.2622" width="112.143" height="154.575" rx="13.639" transform="rotate(-7.5 2.78214 97.2622)" fill="#FAFAFA" stroke="#ACAAC2" stroke-width="3.03089"/>
<path d="M6.06486 110.587C5.1909 103.948 9.86388 97.8584 16.5023 96.9845L100.641 85.9074C107.279 85.0334 113.369 89.7064 114.243 96.3448L117.21 118.882L9.03194 133.124L6.06486 110.587Z" fill="#E1E1ED"/>
<rect x="136.188" y="88.8704" width="4.54633" height="15.1544" rx="2.27317" transform="rotate(82.5 136.188 88.8704)" fill="#999999"/>
<rect x="94.6689" y="63.7661" width="4.54633" height="15.1544" rx="2.27317" transform="rotate(-7.5 94.6689 63.7661)" fill="#999999"/>
<rect x="121.307" y="67.9019" width="4.54633" height="15.1544" rx="2.27317" transform="rotate(37.5 121.307 67.9019)" fill="#999999"/>
<rect x="20.3398" y="137.75" width="87.8957" height="6.06177" rx="3.03089" transform="rotate(-7.5 20.3398 137.75)" fill="#ACAAC2"/>
<rect x="24.2979" y="167.799" width="87.8957" height="6.06177" rx="3.03089" transform="rotate(-7.5 24.2979 167.799)" fill="#ACAAC2"/>
<rect x="28.2529" y="197.848" width="87.8957" height="6.06177" rx="3.03089" transform="rotate(-7.5 28.2529 197.848)" fill="#ACAAC2"/>
<rect x="21.9238" y="149.769" width="31.8243" height="6.06177" rx="3.03089" transform="rotate(-7.5 21.9238 149.769)" fill="#EEEEEE"/>
<rect x="25.8799" y="179.819" width="31.8243" height="6.06177" rx="3.03089" transform="rotate(-7.5 25.8799 179.819)" fill="#EEEEEE"/>
<rect x="29.835" y="209.868" width="31.8243" height="6.06177" rx="3.03089" transform="rotate(-7.5 29.835 209.868)" fill="#EEEEEE"/>
</svg>
