<svg width="54" height="54" viewBox="0 0 54 54" fill="none" xmlns="http://www.w3.org/2000/svg">
<path d="M0 27C0 12.0883 12.0883 0 27 0C41.9117 0 54 12.0883 54 27C54 41.9117 41.9117 54 27 54C12.0883 54 0 41.9117 0 27Z" fill="#54A4FF"/>
<path fill-rule="evenodd" clip-rule="evenodd" d="M26.9992 18.6C22.36 18.6 18.5992 22.3608 18.5992 27C18.5992 31.6391 22.36 35.4 26.9992 35.4C31.6384 35.4 35.3992 31.6391 35.3992 27C35.3992 22.3608 31.6384 18.6 26.9992 18.6ZM10.1992 27C10.1992 17.7216 17.7208 10.2 26.9992 10.2C36.2776 10.2 43.7992 17.7216 43.7992 27C43.7992 36.2783 36.2776 43.7999 26.9992 43.7999C17.7208 43.7999 10.1992 36.2783 10.1992 27Z" fill="#99C9FF"/>
<path fill-rule="evenodd" clip-rule="evenodd" d="M39.5988 22.8C41.9184 22.8 43.7988 24.6805 43.7988 27C43.7988 36.2784 36.2772 43.8 26.9988 43.8C24.6792 43.8 22.7988 41.9196 22.7988 39.6C22.7988 37.2805 24.6792 35.4 26.9988 35.4C31.638 35.4 35.3988 31.6392 35.3988 27C35.3988 24.6805 37.2792 22.8 39.5988 22.8Z" fill="#EBF4FF"/>
</svg>
