<svg width="54" height="54" viewBox="0 0 54 54" fill="none" xmlns="http://www.w3.org/2000/svg">
<rect width="54" height="54" rx="27" fill="#FF986C"/>
<path d="M25 19C25 19.3956 24.8827 19.7822 24.6629 20.1111C24.4432 20.44 24.1308 20.6964 23.7654 20.8478C23.3999 20.9991 22.9978 21.0387 22.6098 20.9616C22.2219 20.8844 21.8655 20.6939 21.5858 20.4142C21.3061 20.1345 21.1156 19.7781 21.0384 19.3902C20.9613 19.0022 21.0009 18.6001 21.1522 18.2346C21.3036 17.8692 21.56 17.5568 21.8889 17.3371C22.2178 17.1173 22.6044 17 23 17C23.5304 17 24.0391 17.2107 24.4142 17.5858C24.7893 17.9609 25 18.4696 25 19ZM23 25C22.6044 25 22.2178 25.1173 21.8889 25.3371C21.56 25.5568 21.3036 25.8692 21.1522 26.2346C21.0009 26.6001 20.9613 27.0022 21.0384 27.3902C21.1156 27.7781 21.3061 28.1345 21.5858 28.4142C21.8655 28.6939 22.2219 28.8844 22.6098 28.9616C22.9978 29.0387 23.3999 28.9991 23.7654 28.8478C24.1308 28.6964 24.4432 28.44 24.6629 28.1111C24.8827 27.7822 25 27.3956 25 27C25 26.4696 24.7893 25.9609 24.4142 25.5858C24.0391 25.2107 23.5304 25 23 25ZM23 33C22.6044 33 22.2178 33.1173 21.8889 33.3371C21.56 33.5568 21.3036 33.8692 21.1522 34.2346C21.0009 34.6001 20.9613 35.0022 21.0384 35.3902C21.1156 35.7781 21.3061 36.1345 21.5858 36.4142C21.8655 36.6939 22.2219 36.8844 22.6098 36.9616C22.9978 37.0387 23.3999 36.9991 23.7654 36.8478C24.1308 36.6964 24.4432 36.44 24.6629 36.1111C24.8827 35.7822 25 35.3956 25 35C25 34.4696 24.7893 33.9609 24.4142 33.5858C24.0391 33.2107 23.5304 33 23 33ZM31 21C31.3956 21 31.7822 20.8827 32.1111 20.6629C32.44 20.4432 32.6964 20.1308 32.8478 19.7654C32.9991 19.3999 33.0387 18.9978 32.9616 18.6098C32.8844 18.2219 32.6939 17.8655 32.4142 17.5858C32.1345 17.3061 31.7781 17.1156 31.3902 17.0384C31.0022 16.9613 30.6001 17.0009 30.2346 17.1522C29.8692 17.3036 29.5568 17.56 29.3371 17.8889C29.1173 18.2178 29 18.6044 29 19C29 19.5304 29.2107 20.0391 29.5858 20.4142C29.9609 20.7893 30.4696 21 31 21ZM31 29C31.3956 29 31.7822 28.8827 32.1111 28.6629C32.44 28.4432 32.6964 28.1308 32.8478 27.7654C32.9991 27.3999 33.0387 26.9978 32.9616 26.6098C32.8844 26.2219 32.6939 25.8655 32.4142 25.5858C32.1345 25.3061 31.7781 25.1156 31.3902 25.0384C31.0022 24.9613 30.6001 25.0009 30.2346 25.1522C29.8692 25.3036 29.5568 25.56 29.3371 25.8889C29.1173 26.2178 29 26.6044 29 27C29 27.5304 29.2107 28.0391 29.5858 28.4142C29.9609 28.7893 30.4696 29 31 29ZM31 37C31.3956 37 31.7822 36.8827 32.1111 36.6629C32.44 36.4432 32.6964 36.1308 32.8478 35.7654C32.9991 35.3999 33.0387 34.9978 32.9616 34.6098C32.8844 34.2219 32.6939 33.8655 32.4142 33.5858C32.1345 33.3061 31.7781 33.1156 31.3902 33.0384C31.0022 32.9613 30.6001 33.0009 30.2346 33.1522C29.8692 33.3036 29.5568 33.56 29.3371 33.8889C29.1173 34.2178 29 34.6044 29 35C29 35.5304 29.2107 36.0391 29.5858 36.4142C29.9609 36.7893 30.4696 37 31 37Z" fill="white"/>
</svg>
