<svg width="14" height="20" viewBox="0 0 14 20" fill="none" xmlns="http://www.w3.org/2000/svg">
<path d="M6.7166 6.73484C6.77646 6.71994 6.8138 6.71804 6.83282 6.71804H6.83819C6.84889 6.73856 6.87101 6.79655 6.87478 6.92974C6.87933 7.09052 6.85706 7.35871 6.7577 7.79828C6.71665 7.63007 6.68643 7.47168 6.66853 7.32602C6.64187 7.10928 6.6479 6.96005 6.66531 6.8646C6.67403 6.81681 6.68545 6.78331 6.69649 6.76179C6.70201 6.75102 6.70712 6.74386 6.71124 6.73947C6.71557 6.73485 6.71755 6.73461 6.7166 6.73484ZM6.7166 6.73484C6.71659 6.73485 6.71659 6.73485 6.71658 6.73485L6.71054 6.71059L6.7166 6.73484ZM9.89978 12.7755H9.89964L9.89937 12.7755M9.89978 12.7755L9.63616 12.7626C9.72872 12.7556 9.81642 12.7518 9.89925 12.7505V12.7755L9.89937 12.7755M9.89978 12.7755C10.5488 12.7649 10.9009 12.91 11.0072 12.963C11.134 13.0263 11.1929 13.0867 11.2163 13.1192C11.193 13.1376 11.1472 13.1645 11.0702 13.1887C10.9739 13.219 10.8302 13.2446 10.6241 13.2446C10.3367 13.2446 10.008 13.0761 9.66331 12.7857M9.89978 12.7755L9.66331 12.7857M9.89937 12.7755C9.82469 12.7767 9.746 12.7799 9.66331 12.7857M9.89937 12.7755L9.66331 12.7857M8.71476 0.512202H1.53217L1.53215 0.512109C0.714442 0.512109 0.0492187 1.17546 0.0492187 1.99103V18.0004C0.0492187 18.816 0.714441 19.4793 1.53205 19.4793H12.4404C13.2581 19.4793 13.9233 18.816 13.9233 18.0004V5.90886C13.9233 5.80837 13.8844 5.71176 13.8145 5.6392L8.995 0.631428C8.92172 0.555283 8.82053 0.512202 8.71476 0.512202ZM0.826899 1.99076C0.826899 1.61123 1.13182 1.30074 1.51115 1.28962H1.53215H8.05263V5.99399C8.05263 6.20869 8.22669 6.38273 8.44137 6.38273H13.1457V18.0001C13.1457 18.3867 12.8295 18.7016 12.4406 18.7016H1.53222C1.14318 18.7016 0.826899 18.3868 0.826899 18.0001V1.99076ZM6.79167 5.9404L6.79244 5.94158C6.7121 5.94425 6.62413 5.95636 6.52809 5.98039C6.38116 6.01713 6.18895 6.10747 6.05073 6.32572C5.91271 6.54364 5.83076 6.88555 5.89662 7.42092C5.95459 7.89177 6.12626 8.4895 6.37988 9.13198C6.24352 9.55878 6.09194 10.0048 5.94279 10.4435L5.93586 10.4638C5.79861 10.8675 5.65696 11.2842 5.53025 11.6781H5.53011L5.52454 11.6954C5.42004 12.0209 5.32425 12.3285 5.23384 12.6192C5.10827 13.023 4.99438 13.389 4.8827 13.7206C3.91332 14.2717 3.23333 14.7866 2.78913 15.2382C2.34439 15.6904 2.13326 16.0819 2.10879 16.3849C2.08872 16.632 2.18551 16.849 2.37606 16.9777C2.47156 17.0421 2.60752 17.0959 2.79493 17.0959C2.98298 17.0959 3.22172 17.0418 3.52209 16.8916C4.57816 16.3635 5.07689 15.4908 5.5189 14.2566C5.88986 14.0539 6.30981 13.8421 6.78525 13.6227C7.5336 13.2774 8.17137 13.0632 8.70759 12.9366C9.33132 13.5889 9.99564 14.0222 10.624 14.0222C11.3026 14.0222 11.7932 13.7979 11.9542 13.3942L11.931 13.3849L11.9542 13.3942C12.0731 13.096 11.9811 12.7665 11.7144 12.5135C11.3368 12.1555 10.6697 11.9752 9.84208 11.9988L9.84279 12.0238L9.84207 11.9988C9.57115 12.0067 9.28518 12.0369 8.98677 12.0887C8.30812 11.2711 7.64937 10.1401 7.205 9.09706C7.43274 8.36129 7.5888 7.75079 7.63578 7.26678C7.68288 6.78162 7.62105 6.41725 7.40466 6.18222C7.29635 6.0646 7.11721 5.94443 6.83856 5.94098L6.79167 5.9404ZM6.67919 10.6936C6.73854 10.5193 6.79597 10.3498 6.85128 10.185C7.21733 10.9187 7.66316 11.654 8.14848 12.282C7.60965 12.4348 7.04219 12.6475 6.45954 12.9165C6.25388 13.0114 6.05652 13.1058 5.86764 13.1993C5.89361 13.1164 5.91986 13.0322 5.9465 12.9468C5.9565 12.9147 5.96655 12.8825 5.97666 12.8501L5.97667 12.85C6.0664 12.5614 6.16146 12.256 6.26521 11.9333L6.27571 11.9006H6.27559C6.40059 11.513 6.54083 11.1005 6.67675 10.7008L6.67918 10.6936C6.67919 10.6936 6.67919 10.6936 6.67919 10.6936ZM3.17443 16.196C3.07739 16.2446 2.9999 16.274 2.94003 16.2917C3.07418 16.0422 3.47107 15.5631 4.39209 14.9385C4.09386 15.5141 3.73169 15.9174 3.17444 16.196L3.17443 16.196ZM8.83018 1.58125L12.7027 5.60507H8.83018V1.58125Z" fill="black" stroke="black" stroke-width="0.05"/>
</svg>
