<svg width="16" height="16" viewBox="0 0 16 16" fill="none" xmlns="http://www.w3.org/2000/svg">
<path d="M8 7.33332C8.65927 7.33332 9.30374 7.13783 9.8519 6.77156C10.4001 6.40528 10.8273 5.88469 11.0796 5.2756C11.3319 4.66652 11.3979 3.99629 11.2693 3.34969C11.1407 2.70309 10.8232 2.10914 10.357 1.64297C9.89085 1.17679 9.2969 0.859324 8.6503 0.730707C8.0037 0.60209 7.33348 0.668101 6.72439 0.920393C6.1153 1.17269 5.59471 1.59993 5.22843 2.14809C4.86216 2.69625 4.66667 3.34072 4.66667 3.99999C4.66773 4.88372 5.01925 5.73095 5.64415 6.35584C6.26904 6.98074 7.11627 7.33227 8 7.33332ZM8 1.99999C8.39556 1.99999 8.78224 2.11729 9.11114 2.33705C9.44004 2.55681 9.69638 2.86917 9.84776 3.23462C9.99913 3.60008 10.0387 4.00221 9.96157 4.39017C9.8844 4.77813 9.69392 5.1345 9.41421 5.41421C9.13451 5.69391 8.77814 5.88439 8.39018 5.96156C8.00222 6.03873 7.60009 5.99913 7.23463 5.84775C6.86918 5.69638 6.55682 5.44003 6.33706 5.11113C6.1173 4.78223 6 4.39555 6 3.99999C6 3.46956 6.21071 2.96085 6.58579 2.58578C6.96086 2.21071 7.46957 1.99999 8 1.99999ZM2.66667 15.3333H13.3333C13.5101 15.3333 13.6797 15.2631 13.8047 15.1381C13.9298 15.013 14 14.8435 14 14.6667V12C13.9989 11.1163 13.6474 10.269 13.0225 9.64414C12.3976 9.01925 11.5504 8.66772 10.6667 8.66666H5.33333C4.4496 8.66772 3.60237 9.01925 2.97748 9.64414C2.35259 10.269 2.00106 11.1163 2 12V14.6667C2 14.8435 2.07024 15.013 2.19526 15.1381C2.32029 15.2631 2.48986 15.3333 2.66667 15.3333ZM3.33333 12C3.33333 11.4696 3.54405 10.9609 3.91912 10.5858C4.29419 10.2107 4.8029 9.99999 5.33333 9.99999H10.6667C11.1971 9.99999 11.7058 10.2107 12.0809 10.5858C12.456 10.9609 12.6667 11.4696 12.6667 12V14H3.33333V12Z" fill="#282C3F"/>
</svg>
