<svg width="54" height="54" viewBox="0 0 54 54" fill="none" xmlns="http://www.w3.org/2000/svg">
<g clip-path="url(#clip0_3186_52292)">
<rect width="54" height="54" rx="27" fill="#C5B9FF"/>
<path d="M29.0046 14.5572C28.2667 11.329 31.7655 8.85185 35.3686 10.5524C43.854 14.5572 38.9301 20.5523 35.8864 19.9067C32.8427 19.2611 29.7424 17.7853 29.0046 14.5572Z" fill="url(#paint0_linear_3186_52292)"/>
<path d="M31.0584 34.9036C27.0956 36.8075 26.5175 36.7055 17.7769 29.5541C4.58761 18.7629 17.039 8.89397 30.4128 14.1512C44.8934 20.5153 40.0421 30.5884 31.0584 34.9036Z" fill="url(#paint1_linear_3186_52292)"/>
<path d="M31.427 42.4662C30.0744 45.4177 28.3526 46.8934 26.9999 46.8934C25.6472 46.8934 23.9254 45.4177 22.5727 42.4662V38.7769C22.5727 38.7769 21.9708 38.7954 21.5581 38.7769C17.2433 38.5925 15.8015 31.6516 16.4787 24.7092C16.9745 19.625 21.2814 26.6022 28.2911 21.7139C28.0144 27.0634 30.3202 26.51 31.3348 25.8643C35.9464 23.743 36.0387 32.4129 31.4807 31.741C31.4818 31.8333 31.4639 35.4083 31.427 42.4662Z" fill="url(#paint2_linear_3186_52292)"/>
<path d="M22.5723 38.7776C24.2325 38.6546 26.3006 37.7262 28.7766 35.9922C28.0178 38.6051 25.9497 40.1484 22.5723 40.6223V38.7776Z" fill="#FF9768"/>
<path d="M21.0476 43.5401C21.0476 43.5401 21.326 41.6185 21.9786 41.454C22.6313 41.2894 26.4456 41.2695 26.449 42.0074C26.449 42.1428 26.5803 43.5938 27.0153 43.5938C27.4502 43.5938 27.562 42.142 27.5628 42.0074C27.5663 41.2695 31.3585 41.2979 32.0331 41.454C32.7077 41.61 32.9613 43.5425 32.9613 43.5425C32.9613 43.5425 42.9225 48.2329 43.9708 50.2351C44.8726 51.9568 45.549 55.9535 45.9999 62.2254H8C8.45096 55.9535 9.12733 51.9568 10.0291 50.2351C11.0774 48.2338 21.0476 43.5401 21.0476 43.5401Z" fill="url(#paint3_linear_3186_52292)"/>
<path d="M26.2617 56.1175C26.2617 55.9715 26.305 55.8289 26.3861 55.7075C26.4671 55.5862 26.5824 55.4916 26.7172 55.4358C26.852 55.3799 27.0004 55.3653 27.1435 55.3938C27.2867 55.4223 27.4181 55.4925 27.5213 55.5957C27.6245 55.6989 27.6948 55.8304 27.7233 55.9735C27.7517 56.1166 27.7371 56.265 27.6813 56.3998C27.6254 56.5347 27.5309 56.6499 27.4095 56.731C27.2882 56.8121 27.1455 56.8553 26.9996 56.8553C26.8039 56.8553 26.6162 56.7776 26.4778 56.6392C26.3395 56.5008 26.2617 56.3132 26.2617 56.1175ZM26.2617 52.4282C26.2617 52.2822 26.305 52.1396 26.3861 52.0182C26.4671 51.8969 26.5824 51.8023 26.7172 51.7465C26.852 51.6906 27.0004 51.676 27.1435 51.7045C27.2867 51.7329 27.4181 51.8032 27.5213 51.9064C27.6245 52.0096 27.6948 52.1411 27.7233 52.2842C27.7517 52.4273 27.7371 52.5757 27.6813 52.7105C27.6254 52.8453 27.5309 52.9606 27.4095 53.0417C27.2882 53.1227 27.1455 53.166 26.9996 53.166C26.8039 53.166 26.6162 53.0883 26.4778 52.9499C26.3395 52.8115 26.2617 52.6238 26.2617 52.4282ZM26.2617 48.7388C26.2617 48.5929 26.305 48.4502 26.3861 48.3289C26.4671 48.2076 26.5824 48.113 26.7172 48.0571C26.852 48.0013 27.0004 47.9867 27.1435 48.0152C27.2867 48.0436 27.4181 48.1139 27.5213 48.2171C27.6245 48.3203 27.6948 48.4518 27.7233 48.5949C27.7517 48.738 27.7371 48.8864 27.6813 49.0212C27.6254 49.156 27.5309 49.2713 27.4095 49.3523C27.2882 49.4334 27.1455 49.4767 26.9996 49.4767C26.8039 49.4767 26.6162 49.399 26.4778 49.2606C26.3395 49.1222 26.2617 48.9345 26.2617 48.7388Z" fill="#664F4D"/>
<path d="M28.9537 20.0402C26.0023 27.4189 27.6625 31.0159 29.9683 35.3509C32.2741 39.6858 29.4149 43.7441 29.4149 43.7441C29.4149 43.7441 32.7353 41.6227 32.7353 36.9188C32.7353 32.215 29.4149 29.2635 32.1819 25.3897C34.9489 21.516 31.9052 12.6616 28.9537 20.0402Z" fill="url(#paint4_linear_3186_52292)"/>
</g>
<defs>
<linearGradient id="paint0_linear_3186_52292" x1="34.5014" y1="10" x2="34.5014" y2="19.9548" gradientUnits="userSpaceOnUse">
<stop stop-color="#1D0024"/>
<stop offset="1" stop-color="#100014"/>
</linearGradient>
<linearGradient id="paint1_linear_3186_52292" x1="25.8831" y1="12.6953" x2="25.8831" y2="35.9521" gradientUnits="userSpaceOnUse">
<stop stop-color="#1D0024"/>
<stop offset="1" stop-color="#100014"/>
</linearGradient>
<linearGradient id="paint2_linear_3186_52292" x1="25.5831" y1="21.7139" x2="25.5831" y2="46.8934" gradientUnits="userSpaceOnUse">
<stop stop-color="#F7B186"/>
<stop offset="1" stop-color="#FFC299"/>
</linearGradient>
<linearGradient id="paint3_linear_3186_52292" x1="27" y1="62.2254" x2="27" y2="41.3604" gradientUnits="userSpaceOnUse">
<stop stop-color="#FCF2EB"/>
<stop offset="1" stop-color="#FFF9F5"/>
</linearGradient>
<linearGradient id="paint4_linear_3186_52292" x1="30.3192" y1="17.1943" x2="30.3192" y2="43.7441" gradientUnits="userSpaceOnUse">
<stop stop-color="#1D0024"/>
<stop offset="1" stop-color="#100014"/>
</linearGradient>
<clipPath id="clip0_3186_52292">
<rect width="54" height="54" rx="27" fill="white"/>
</clipPath>
</defs>
</svg>
