<svg width="15" height="15" viewBox="0 0 15 15" fill="none" xmlns="http://www.w3.org/2000/svg">
<path d="M13.6797 9.51942C12.8213 9.51942 11.9805 9.38446 11.1837 9.11971C10.7948 8.98475 10.3532 9.08874 10.0976 9.35128L8.5178 10.5526C6.70515 9.57841 5.54505 8.411 4.59075 6.59905L5.75159 5.04594C6.04381 4.75169 6.14854 4.32101 6.0233 3.91762C5.75818 3.11009 5.62342 2.26274 5.62342 1.3999C5.62342 0.790017 5.13052 0.293701 4.52484 0.293701H1.96149C1.35581 0.293701 0.862915 0.790017 0.862915 1.3999C0.862915 8.51573 6.61287 14.3056 13.6797 14.3056C14.2853 14.3056 14.7782 13.8093 14.7782 13.1994V10.6256C14.7782 10.0157 14.2853 9.51942 13.6797 9.51942Z" fill="url(#paint0_linear_2458_3785)"/>
<defs>
<linearGradient id="paint0_linear_2458_3785" x1="4.85417" y1="-2.84106" x2="-7.16962" y2="9.53474" gradientUnits="userSpaceOnUse">
<stop stop-color="#01DCBA"/>
<stop offset="1" stop-color="#7F30CB"/>
</linearGradient>
</defs>
</svg>
