<svg width="19" height="20" viewBox="0 0 19 20" fill="none" xmlns="http://www.w3.org/2000/svg">
<path fill-rule="evenodd" clip-rule="evenodd" d="M18.488 15.0848L14.6061 12.6688H14.586C14.452 12.5843 14.2711 12.5415 14.0433 12.5415C13.721 12.5415 13.4394 12.6553 13.198 12.8807L12.0515 14.1101C12.0246 14.1382 11.981 14.1627 11.9209 14.1836C11.8602 14.2056 11.8168 14.2166 11.7899 14.2166L11.5386 14.1628C11.3703 14.1272 11.1298 14.0256 10.8145 13.8554C10.4991 13.6864 10.1075 13.4207 9.63809 13.0607C9.16872 12.7007 8.6319 12.1962 8.02911 11.5459C7.41155 10.9104 6.93543 10.3496 6.60049 9.86224C6.26505 9.37489 6.01723 8.96221 5.85627 8.62302C5.66853 8.24097 5.54787 7.90177 5.49455 7.60544C5.49455 7.56381 5.50431 7.51118 5.52434 7.44628C5.54436 7.38383 5.56789 7.33728 5.5948 7.30912L6.58047 6.27073C6.75444 6.08706 6.86884 5.86055 6.92216 5.5936C6.97598 5.32421 6.94219 5.07808 6.82191 4.85154L4.66922 0.551031C4.57585 0.395519 4.46145 0.264471 4.32802 0.159163C4.19397 0.0526314 4.03952 0 3.86492 0C3.62398 0 3.40932 0.0979519 3.22108 0.296324L0.546209 3.11396C0.412159 3.24131 0.297761 3.40782 0.204389 3.61232C0.110016 3.81681 0.050437 4.01765 0.0235269 4.21602C0.0235269 4.24419 0.0166424 4.385 0.00350027 4.6397C-0.0102677 4.89318 0.0166445 5.24333 0.0831064 5.68783C0.150695 6.13356 0.277734 6.6626 0.46598 7.27731C0.653225 7.89202 0.934342 8.57649 1.31033 9.33202C1.68582 10.0888 2.1821 10.9104 2.79915 11.8007C3.41558 12.6909 4.19398 13.6227 5.1317 14.5974C6.31199 15.855 7.42532 16.8432 8.47106 17.5632C9.51693 18.2832 10.4522 18.8232 11.277 19.1845C12.1023 19.5445 12.799 19.771 13.3691 19.8628C13.9387 19.9535 14.3514 20 14.6061 20C14.7136 20 14.8002 19.9963 14.8677 19.9902C14.9341 19.9828 14.9747 19.9792 14.9879 19.9792C15.1761 19.9498 15.3668 19.8873 15.5614 19.7882C15.756 19.689 15.9134 19.569 16.0337 19.4282L18.7096 16.6313C18.9374 16.3913 19.0307 16.1085 18.9912 15.784C18.9374 15.5011 18.7696 15.2685 18.488 15.0848Z" fill="#821494"/>
</svg>
