<svg width="80" height="80" viewBox="0 0 80 80" fill="none" xmlns="http://www.w3.org/2000/svg">
<path d="M46.7854 72.6256L7.60279 75.1816C5.88316 75.2938 4.39799 73.9905 4.28581 72.2709L0.798828 18.8165C0.686652 17.0969 1.98993 15.6117 3.70955 15.4995L42.8922 12.9435C44.6118 12.8313 46.097 14.1346 46.2091 15.8542L49.6961 69.3087C49.8083 71.0283 48.5053 72.5134 46.7854 72.6256Z" fill="#FEC863" fill-opacity="0.5"/>
<path d="M66.4391 72.8397L23.3931 66.8326C21.5039 66.569 20.186 64.8235 20.4496 62.9344L28.6447 4.20944C28.9083 2.32027 30.6538 1.00232 32.5429 1.26596L75.5889 7.27302C77.4781 7.53666 78.796 9.2821 78.5324 11.1713L70.3373 69.8962C70.0737 71.7854 68.3285 73.1033 66.4391 72.8397Z" fill="#C0D7FC"/>
<path d="M46.8184 73.1446L7.63576 75.7006C5.63251 75.8313 3.89663 74.308 3.76595 72.3048L0.278972 18.8504C0.148294 16.8471 1.67157 15.1112 3.67482 14.9806L42.8574 12.4246C44.8607 12.2939 46.5965 13.8172 46.7272 15.8204L50.2142 69.2748C50.3449 71.2781 48.8216 73.0139 46.8184 73.1446ZM3.74252 16.0185C2.31171 16.1118 1.22359 17.3518 1.31692 18.7826L4.8039 72.2371C4.89724 73.6679 6.13723 74.756 7.56805 74.6627L46.7507 72.1067C48.1815 72.0133 49.2696 70.7733 49.1763 69.3425L45.6893 15.8881C45.5959 14.4573 44.3559 13.3692 42.9251 13.4625L3.74252 16.0185Z" fill="#FFA600"/>
<path d="M66.3598 73.4099L23.3139 67.4028C21.1131 67.0957 19.5727 65.0556 19.8798 62.8548L28.0749 4.12993C28.382 1.92917 30.4221 0.388746 32.6228 0.695862L75.6688 6.70292C77.8695 7.01004 79.41 9.05013 79.1029 11.2509L70.9078 69.9758C70.6007 72.1766 68.5606 73.717 66.3598 73.4099ZM32.4637 1.83615C30.8918 1.61679 29.4345 2.71717 29.2152 4.28906L21.0201 63.014C20.8008 64.5859 21.9011 66.0432 23.473 66.2625L66.519 72.2696C68.0908 72.4889 69.5481 71.3886 69.7675 69.8167L77.9626 11.0918C78.1819 9.51987 77.0815 8.06257 75.5097 7.84321L32.4637 1.83615Z" fill="#3762CC"/>
<path d="M62.0908 79.375H14.9033C12.8324 79.375 11.1533 77.6959 11.1533 75.625V11.25C11.1533 9.17906 12.8324 7.5 14.9033 7.5H62.0908C64.1618 7.5 65.8408 9.17906 65.8408 11.25V75.625C65.8408 77.6959 64.1618 79.375 62.0908 79.375Z" fill="#E7E6FF"/>
<path d="M62.0908 80H14.9033C12.4908 80 10.5283 78.0375 10.5283 75.625V11.25C10.5283 8.8375 12.4908 6.875 14.9033 6.875H62.0908C64.5033 6.875 66.4658 8.8375 66.4658 11.25V75.625C66.4658 78.0375 64.503 80 62.0908 80ZM14.9033 8.125C13.1802 8.125 11.7783 9.52687 11.7783 11.25V75.625C11.7783 77.3481 13.1802 78.75 14.9033 78.75H62.0908C63.8139 78.75 65.2158 77.3481 65.2158 75.625V11.25C65.2158 9.52687 63.8139 8.125 62.0908 8.125H14.9033Z" fill="#635BFF"/>
<path d="M36.9346 33.9851V12.8914H37.5698C37.594 12.8914 37.6136 13.591 37.6136 14.4539V32.4226C37.6136 33.2854 37.594 33.9851 37.5698 33.9851H36.9346Z" fill="#6BDDDD"/>
<path d="M15.8408 32.4226V14.4539C15.8408 13.591 16.5405 12.8914 17.4033 12.8914H36.9346V33.9851H17.4033C16.5402 33.9851 15.8408 33.2854 15.8408 32.4226Z" fill="#4671C6" fill-opacity="0.5"/>
<path d="M28.1846 61.5823H17.0908C16.4005 61.5823 15.8408 61.0226 15.8408 60.3323C15.8408 59.642 16.4005 59.0823 17.0908 59.0823H28.1846C28.8749 59.0823 29.4346 59.642 29.4346 60.3323C29.4346 61.0226 28.8749 61.5823 28.1846 61.5823Z" fill="#C5B9FF"/>
<path d="M31.9346 67.7832H17.0908C16.4005 67.7832 15.8408 67.2235 15.8408 66.5332C15.8408 65.8429 16.4005 65.2832 17.0908 65.2832H31.9346C32.6249 65.2832 33.1846 65.8429 33.1846 66.5332C33.1846 67.2235 32.6249 67.7832 31.9346 67.7832Z" fill="#C5B9FF"/>
<path d="M31.9346 73.9839H17.0908C16.4005 73.9839 15.8408 73.4242 15.8408 72.7339C15.8408 72.0436 16.4005 71.4839 17.0908 71.4839H31.9346C32.6249 71.4839 33.1846 72.0436 33.1846 72.7339C33.1846 73.4242 32.6249 73.9839 31.9346 73.9839Z" fill="#C5B9FF"/>
<path d="M59.9033 67.7832H38.1846C37.4943 67.7832 36.9346 67.2235 36.9346 66.5332C36.9346 65.8429 37.4943 65.2832 38.1846 65.2832H59.9033C60.5936 65.2832 61.1533 65.8429 61.1533 66.5332C61.1533 67.2235 60.5936 67.7832 59.9033 67.7832Z" fill="#C5B9FF"/>
<path d="M59.9033 73.9839H38.1846C37.4943 73.9839 36.9346 73.4242 36.9346 72.7339C36.9346 72.0436 37.4943 71.4839 38.1846 71.4839H59.9033C60.5936 71.4839 61.1533 72.0436 61.1533 72.7339C61.1533 73.4242 60.5936 73.9839 59.9033 73.9839Z" fill="#C5B9FF"/>
<path d="M28.1846 41.0691H17.0908C16.4005 41.0691 15.8408 40.5094 15.8408 39.8191C15.8408 39.1288 16.4005 38.5691 17.0908 38.5691H28.1846C28.8749 38.5691 29.4346 39.1288 29.4346 39.8191C29.4346 40.5094 28.8749 41.0691 28.1846 41.0691Z" fill="#C5B9FF"/>
<path d="M31.9346 47.2698H17.0908C16.4005 47.2698 15.8408 46.7101 15.8408 46.0198C15.8408 45.3295 16.4005 44.7698 17.0908 44.7698H31.9346C32.6249 44.7698 33.1846 45.3295 33.1846 46.0198C33.1846 46.7104 32.6249 47.2698 31.9346 47.2698Z" fill="#C5B9FF"/>
<path d="M31.9346 53.4707H17.0908C16.4005 53.4707 15.8408 52.911 15.8408 52.2207C15.8408 51.5304 16.4005 50.9707 17.0908 50.9707H31.9346C32.6249 50.9707 33.1846 51.5304 33.1846 52.2207C33.1846 52.911 32.6249 53.4707 31.9346 53.4707Z" fill="#C5B9FF"/>
<path d="M59.9033 47.2698H38.1846C37.4943 47.2698 36.9346 46.7101 36.9346 46.0198C36.9346 45.3295 37.4943 44.7698 38.1846 44.7698H59.9033C60.5936 44.7698 61.1533 45.3295 61.1533 46.0198C61.1533 46.7104 60.5936 47.2698 59.9033 47.2698Z" fill="#C5B9FF"/>
<path d="M59.9033 53.4707H38.1846C37.4943 53.4707 36.9346 52.911 36.9346 52.2207C36.9346 51.5304 37.4943 50.9707 38.1846 50.9707H59.9033C60.5936 50.9707 61.1533 51.5304 61.1533 52.2207C61.1533 52.911 60.5936 53.4707 59.9033 53.4707Z" fill="#C5B9FF"/>
<path d="M26.388 25.8853C29.1458 25.8853 31.3814 23.6497 31.3814 20.8919C31.3814 18.1341 29.1458 15.8984 26.388 15.8984C23.6302 15.8984 21.3945 18.1341 21.3945 20.8919C21.3945 23.6497 23.6302 25.8853 26.388 25.8853Z" fill="#F9CFCF"/>
<path d="M32.6587 33.9712H20.1162V32.1565C20.1162 28.6931 22.924 25.8853 26.3875 25.8853C29.8509 25.8853 32.6587 28.6931 32.6587 32.1565V33.9712Z" fill="#A4C9D8"/>
<path d="M37.5016 34.6101H36.3416C36.3239 34.6101 36.3096 34.3301 36.3096 33.9851V12.8914C36.3096 12.5464 36.3239 12.2664 36.3416 12.2664H37.5016C37.5633 12.2664 37.6136 13.2476 37.6136 14.4539V32.4226C37.6136 33.6289 37.5633 34.6101 37.5016 34.6101ZM36.3736 33.3601H37.5016C37.528 33.3601 37.5496 32.9395 37.5496 32.4226V14.4539C37.5496 13.937 37.528 13.5164 37.5016 13.5164H36.3736V33.3601Z" fill="#3762CC"/>
<path d="M36.9346 34.6101H17.4033C16.1971 34.6101 15.2158 33.6289 15.2158 32.4226V14.4539C15.2158 13.2476 16.1971 12.2664 17.4033 12.2664H36.9346C37.2796 12.2664 37.5596 12.5464 37.5596 12.8914V33.9851C37.5596 34.3301 37.2796 34.6101 36.9346 34.6101ZM17.4033 13.5164C16.8864 13.5164 16.4658 13.937 16.4658 14.4539V32.4226C16.4658 32.9395 16.8864 33.3601 17.4033 33.3601H36.3096V13.5164H17.4033Z" fill="#3762CC"/>
<path d="M26.388 26.5103C23.2898 26.5103 20.7695 23.99 20.7695 20.8919C20.7695 17.7937 23.2898 15.2734 26.388 15.2734C29.4861 15.2734 32.0064 17.7937 32.0064 20.8919C32.0064 23.99 29.4861 26.5103 26.388 26.5103ZM26.388 16.5234C23.9792 16.5234 22.0195 18.4831 22.0195 20.8919C22.0195 23.3006 23.9792 25.2603 26.388 25.2603C28.7967 25.2603 30.7564 23.3006 30.7564 20.8919C30.7564 18.4831 28.7967 16.5234 26.388 16.5234Z" fill="#3762CC"/>
<path d="M32.6587 34.5963H20.1162C19.7712 34.5963 19.4912 34.3163 19.4912 33.9713V32.1563C19.4912 28.3538 22.5847 25.26 26.3875 25.26C30.1903 25.26 33.2837 28.3534 33.2837 32.1563V33.9709C33.2837 34.3163 33.0037 34.5963 32.6587 34.5963ZM20.7412 33.3463H32.0337V32.1563C32.0337 29.0428 29.5009 26.51 26.3875 26.51C23.274 26.51 20.7412 29.0431 20.7412 32.1563V33.3463Z" fill="#3762CC"/>
<path d="M52.2504 34.2773L52.2504 25.4721L61.0557 25.4721C61.0557 30.3351 57.1134 34.2773 52.2504 34.2773Z" fill="white"/>
<path d="M52.2504 34.2773C47.3873 34.2773 43.4451 30.3351 43.4451 25.4721C43.4451 20.609 47.3873 16.6668 52.2504 16.6668C57.1134 16.6668 61.0557 20.609 61.0557 25.4721L52.2504 25.4721L52.2504 34.2773Z" fill="#927DF9"/>
</svg>
