<svg width="40" height="40" viewBox="0 0 40 40" fill="none" xmlns="http://www.w3.org/2000/svg">
<path d="M6.66562 13.334V19.2198L2.26562 22.8865L4.39896 25.4482L11.6656 19.3923V13.334H6.66562Z" fill="#6C19FF"/>
<path d="M19.9987 2.5C23.6804 2.5 26.6654 5.485 26.6654 9.16667V12.5H13.332V9.16667C13.332 5.48417 16.317 2.5 19.9987 2.5Z" fill="#3DD9EB"/>
<path d="M37.732 22.8865L33.332 19.2198V13.334H28.332V19.3923L35.5987 25.4482L37.732 22.8865Z" fill="#6C19FF"/>
<path d="M36.668 26.666C38.0487 26.666 39.168 25.5467 39.168 24.166C39.168 22.7853 38.0487 21.666 36.668 21.666C35.2873 21.666 34.168 22.7853 34.168 24.166C34.168 25.5467 35.2873 26.666 36.668 26.666Z" fill="#6C19FF"/>
<path d="M16.668 6.66602H23.3346V9.99935H16.668V6.66602Z" fill="#6C19FF"/>
<path d="M6.66797 10V15H10.0013V30H30.0013V15H33.3346V10H6.66797Z" fill="#3DD9EB"/>
<path d="M23.3346 27.5H16.668V36.6667H23.3346V27.5Z" fill="#6C19FF"/>
<path d="M23.3346 27.5H16.668V30H23.3346V27.5Z" fill="#00B3D7"/>
<path d="M3.33203 26.666C4.71274 26.666 5.83203 25.5467 5.83203 24.166C5.83203 22.7853 4.71274 21.666 3.33203 21.666C1.95132 21.666 0.832031 22.7853 0.832031 24.166C0.832031 25.5467 1.95132 26.666 3.33203 26.666Z" fill="#6C19FF"/>
<path d="M26.6654 10H13.332V12.5H26.6654V10Z" fill="#00B3D7"/>
<path d="M21.6654 0H18.332V4.16667H21.6654V0Z" fill="#3DD9EB"/>
</svg>
