<svg width="32" height="33" viewBox="0 0 32 33" fill="none" xmlns="http://www.w3.org/2000/svg">
<g clip-path="url(#clip0_14514_210163)">
<path d="M19 4.33325H13C12.448 4.33325 12 4.78125 12 5.33325V6.33325H20V5.33325C20 4.78125 19.552 4.33325 19 4.33325Z" fill="url(#paint0_linear_14514_210163)"/>
<path d="M27.9994 27.6666H3.99935C3.26602 27.6666 2.66602 27.0666 2.66602 26.3333V8.99992C2.66602 7.53325 3.86602 6.33325 5.33268 6.33325H26.666C28.1327 6.33325 29.3327 7.53325 29.3327 8.99992V26.3333C29.3327 27.0666 28.7327 27.6666 27.9994 27.6666Z" fill="url(#paint1_radial_14514_210163)"/>
<path d="M28.1974 17.1699L15.9994 18.9999L3.80135 17.1699C3.14868 17.0726 2.66602 16.5119 2.66602 15.8519V8.99992C2.66602 7.53325 3.86602 6.33325 5.33268 6.33325H26.666C28.1327 6.33325 29.3327 7.53325 29.3327 8.99992V15.8519C29.3327 16.5119 28.85 17.0726 28.1974 17.1699Z" fill="url(#paint2_linear_14514_210163)"/>
<path d="M16.9994 14.3333H14.9993C14.8153 14.3333 14.666 14.4826 14.666 14.6666V16.6666C14.666 16.8506 14.8153 16.9999 14.9993 16.9999H16.9994C17.1834 16.9999 17.3327 16.8506 17.3327 16.6666V14.6666C17.3327 14.4826 17.1834 14.3333 16.9994 14.3333Z" fill="#F6ECA5"/>
<path d="M25.3327 18.9993L26.8853 19.8706L28.666 19.8926L29.5753 21.4233L31.106 22.3326L31.128 24.1133L31.9993 25.6659L31.128 27.2186L31.106 28.9993L29.5753 29.9086L28.666 31.4393L26.8853 31.4613L25.3327 32.3326L23.78 31.4613L21.9993 31.4393L21.09 29.9086L19.5593 28.9993L19.5373 27.2186L18.666 25.6659L19.5373 24.1133L19.5593 22.3326L21.09 21.4233L21.9993 19.8926L23.78 19.8706L25.3327 18.9993Z" fill="#FDB700"/>
<path d="M25.3327 30.3326C27.91 30.3326 29.9993 28.2433 29.9993 25.6659C29.9993 23.0886 27.91 20.9993 25.3327 20.9993C22.7554 20.9993 20.666 23.0886 20.666 25.6659C20.666 28.2433 22.7554 30.3326 25.3327 30.3326Z" fill="url(#paint3_linear_14514_210163)"/>
</g>
<defs>
<linearGradient id="paint0_linear_14514_210163" x1="16" y1="6.31925" x2="16" y2="4.53859" gradientUnits="userSpaceOnUse">
<stop stop-color="#B33F20"/>
<stop offset="0.129" stop-color="#C74724"/>
<stop offset="0.295" stop-color="#D94F29"/>
<stop offset="0.469" stop-color="#E4532B"/>
<stop offset="0.659" stop-color="#E8552C"/>
</linearGradient>
<radialGradient id="paint1_radial_14514_210163" cx="0" cy="0" r="1" gradientUnits="userSpaceOnUse" gradientTransform="translate(15.8874 4.3279) scale(30.4933 24.5288)">
<stop stop-color="#40150B"/>
<stop offset="0.156" stop-color="#622110"/>
<stop offset="0.417" stop-color="#953218"/>
<stop offset="0.645" stop-color="#BA3F1E"/>
<stop offset="0.828" stop-color="#D14722"/>
<stop offset="0.944" stop-color="#D94A23"/>
</radialGradient>
<linearGradient id="paint2_linear_14514_210163" x1="15.9994" y1="6.35192" x2="15.9994" y2="18.2846" gradientUnits="userSpaceOnUse">
<stop stop-color="#FC7D5B"/>
<stop offset="0.06" stop-color="#F8734F"/>
<stop offset="0.18" stop-color="#F3653D"/>
<stop offset="0.326" stop-color="#F05B31"/>
<stop offset="0.523" stop-color="#EE552A"/>
<stop offset="1" stop-color="#ED5328"/>
</linearGradient>
<linearGradient id="paint3_linear_14514_210163" x1="20.666" y1="25.6659" x2="29.9993" y2="25.6659" gradientUnits="userSpaceOnUse">
<stop stop-color="#FEDE00"/>
<stop offset="1" stop-color="#FFD000"/>
</linearGradient>
<clipPath id="clip0_14514_210163">
<rect width="32" height="32" fill="white" transform="translate(0 0.333252)"/>
</clipPath>
</defs>
</svg>
