<svg width="32" height="33" viewBox="0 0 32 33" fill="none" xmlns="http://www.w3.org/2000/svg">
<path d="M4.92417 2.18428L5.48017 3.85228L7.14817 4.40828C7.3955 4.49095 7.3955 4.84028 7.14817 4.92228L5.48017 5.47895L4.92417 7.14695C4.8415 7.39428 4.49217 7.39428 4.41017 7.14695L3.8535 5.47895L2.1855 4.92295C1.93817 4.84028 1.93817 4.49095 2.1855 4.40895L3.8535 3.85228L4.4095 2.18428C4.49217 1.93695 4.8415 1.93695 4.92417 2.18428Z" fill="#E756F7"/>
<path d="M15.334 29.3328C21.9614 29.3328 27.334 23.9602 27.334 17.3328C27.334 10.7053 21.9614 5.33276 15.334 5.33276C8.70657 5.33276 3.33398 10.7053 3.33398 17.3328C3.33398 23.9602 8.70657 29.3328 15.334 29.3328Z" fill="url(#paint0_linear_14514_210175)"/>
<path d="M26.2676 12.3983L20.2676 6.39826L23.1376 3.52826C23.3982 3.2676 23.8202 3.2676 24.0802 3.52826L29.1376 8.5856C29.3982 8.84626 29.3982 9.26826 29.1376 9.52826L26.2676 12.3983Z" fill="url(#paint1_linear_14514_210175)"/>
<path d="M25.2522 9.80469L22.8615 7.41402C22.6008 7.15336 22.6008 6.73136 22.8615 6.47136L24.9415 4.39136L28.2748 7.72469L26.1948 9.80469C25.9342 10.0654 25.5122 10.0654 25.2522 9.80469Z" fill="url(#paint2_linear_14514_210175)"/>
<path d="M26.7458 3.52826L29.1364 5.91893C29.3971 6.1796 29.3971 6.6016 29.1364 6.8616L28.2738 7.72426L24.9404 4.39093L25.8031 3.52826C26.0638 3.2676 26.4858 3.2676 26.7458 3.52826Z" fill="url(#paint3_linear_14514_210175)"/>
<path d="M14.1917 7.47226L14.609 8.7236L15.8604 9.14093C16.0457 9.20293 16.0457 9.46493 15.8604 9.52693L14.609 9.94426L14.1917 11.1956C14.1297 11.3809 13.8677 11.3809 13.8057 11.1956L13.3884 9.94426L12.137 9.52693C11.9517 9.46493 11.9517 9.20293 12.137 9.14093L13.3884 8.7236L13.8057 7.47226C13.8677 7.28626 14.1304 7.28626 14.1917 7.47226Z" fill="url(#paint4_linear_14514_210175)"/>
<path d="M22.8753 24.8771C24.5953 23.1571 25.6054 20.9957 25.9047 18.7571C25.9047 6.00108 7.33268 20.6677 7.79002 9.79175C3.62468 13.9571 3.62468 20.7111 7.79002 24.8764C11.9553 29.0417 18.7093 29.0424 22.8753 24.8771Z" fill="url(#paint5_linear_14514_210175)"/>
<path d="M22.8753 24.8771C24.5953 23.1571 25.6054 20.9957 25.9047 18.7571C25.3327 22.6677 22.658 16.9511 19.3327 16.0011C14.666 14.6677 5.99935 19.3344 7.79002 9.79175C3.62468 13.9571 3.62468 20.7111 7.79002 24.8764C11.9553 29.0417 18.7093 29.0424 22.8753 24.8771Z" fill="url(#paint6_linear_14514_210175)"/>
<defs>
<linearGradient id="paint0_linear_14514_210175" x1="7.03865" y1="9.03743" x2="23.716" y2="25.7148" gradientUnits="userSpaceOnUse">
<stop stop-color="#63D6FF"/>
<stop offset="1" stop-color="#0A85D9"/>
</linearGradient>
<linearGradient id="paint1_linear_14514_210175" x1="22.1346" y1="4.92592" x2="27.987" y2="10.7783" gradientUnits="userSpaceOnUse">
<stop stop-color="#5CCBF2"/>
<stop offset="1" stop-color="#1EA2E4"/>
</linearGradient>
<linearGradient id="paint2_linear_14514_210175" x1="23.7035" y1="5.70536" x2="26.9635" y2="8.96469" gradientUnits="userSpaceOnUse">
<stop stop-color="#ADA311"/>
<stop offset="0.999" stop-color="#918215"/>
</linearGradient>
<linearGradient id="paint3_linear_14514_210175" x1="25.6784" y1="3.79493" x2="28.9304" y2="7.04693" gradientUnits="userSpaceOnUse">
<stop stop-color="#EBA600"/>
<stop offset="1" stop-color="#C28200"/>
</linearGradient>
<linearGradient id="paint4_linear_14514_210175" x1="10.4924" y1="5.82626" x2="26.3397" y2="21.6736" gradientUnits="userSpaceOnUse">
<stop stop-color="#D160F6"/>
<stop offset="1" stop-color="#C545ED"/>
</linearGradient>
<linearGradient id="paint5_linear_14514_210175" x1="15.2852" y1="9.99606" x2="15.2854" y2="27.8901" gradientUnits="userSpaceOnUse">
<stop stop-color="#D160F6"/>
<stop offset="1" stop-color="#C545ED"/>
</linearGradient>
<linearGradient id="paint6_linear_14514_210175" x1="15.2852" y1="9.99606" x2="15.2854" y2="27.8901" gradientUnits="userSpaceOnUse">
<stop stop-color="#D160F6"/>
<stop offset="1" stop-color="#9014B8"/>
</linearGradient>
</defs>
</svg>
