<svg width="72" height="72" viewBox="0 0 72 72" fill="none" xmlns="http://www.w3.org/2000/svg">
<mask id="mask0_2425_31667" style="mask-type:alpha" maskUnits="userSpaceOnUse" x="0" y="0" width="72" height="72">
<circle cx="36" cy="36" r="36" fill="#1275B1"/>
</mask>
<g mask="url(#mask0_2425_31667)">
<circle cx="36" cy="36" r="36" fill="#1275B1"/>
<rect x="17.625" y="17.625" width="36.75" height="36.75" rx="18.375" fill="#1275B1"/>
<path d="M31.5619 27.7209C31.5619 28.9475 30.4987 29.9419 29.1872 29.9419C27.8757 29.9419 26.8125 28.9475 26.8125 27.7209C26.8125 26.4944 27.8757 25.5 29.1872 25.5C30.4987 25.5 31.5619 26.4944 31.5619 27.7209Z" fill="white"/>
<path d="M27.1372 31.5744H31.1965V43.875H27.1372V31.5744Z" fill="white"/>
<path d="M37.732 31.5744H33.6727V43.875H37.732C37.732 43.875 37.732 40.0026 37.732 37.5814C37.732 36.1281 38.2282 34.6685 40.2081 34.6685C42.4457 34.6685 42.4322 36.5703 42.4218 38.0437C42.4082 39.9696 42.4407 41.9349 42.4407 43.875H46.5V37.383C46.4656 33.2377 45.3855 31.3276 41.8318 31.3276C39.7215 31.3276 38.4133 32.2857 37.732 33.1525V31.5744Z" fill="white"/>
</g>
</svg>
