<svg width="16" height="16" viewBox="0 0 16 16" fill="none" xmlns="http://www.w3.org/2000/svg">
<path d="M11.805 11.8047C11.6793 11.9261 11.5109 11.9933 11.3361 11.9918C11.1613 11.9903 10.9941 11.9201 10.8704 11.7965C10.7468 11.6729 10.6767 11.5057 10.6752 11.3309C10.6737 11.1561 10.7409 10.9877 10.8623 10.862L13.0577 8.66665H1.33366C1.15685 8.66665 0.987279 8.59642 0.862254 8.47139C0.73723 8.34637 0.666992 8.1768 0.666992 7.99999C0.666992 7.82318 0.73723 7.65361 0.862254 7.52858C0.987279 7.40356 1.15685 7.33332 1.33366 7.33332H13.0577L10.8623 5.13799C10.7409 5.01225 10.6737 4.84385 10.6752 4.66905C10.6767 4.49425 10.7468 4.32705 10.8704 4.20344C10.9941 4.07984 11.1613 4.00972 11.3361 4.0082C11.5109 4.00668 11.6793 4.07388 11.805 4.19532L15.1383 7.52865C15.2633 7.65367 15.3335 7.82321 15.3335 7.99999C15.3335 8.17676 15.2633 8.3463 15.1383 8.47132L11.805 11.8047Z" fill="white"/>
</svg>
