<svg width="24" height="24" viewBox="0 0 24 24" fill="none" xmlns="http://www.w3.org/2000/svg">
<path d="M3.62252 14.9999C5.00726 16.3866 6.85129 17.2191 8.80722 17.3405C10.7632 17.4618 12.696 16.8638 14.2415 15.6589L19.5595 20.9769C19.7481 21.1591 20.0007 21.2599 20.2629 21.2576C20.5251 21.2553 20.7759 21.1502 20.9613 20.9648C21.1467 20.7793 21.2519 20.5285 21.2542 20.2663C21.2565 20.0041 21.1557 19.7515 20.9735 19.5629L15.6555 14.2449C16.9138 12.6301 17.5087 10.5961 17.3189 8.5577C17.1291 6.51933 16.1688 4.63013 14.634 3.2754C13.0992 1.92067 11.1054 1.20245 9.05918 1.26721C7.01301 1.33198 5.06861 2.17485 3.62252 3.62393C2.87532 4.37076 2.28258 5.25748 1.87818 6.23345C1.47377 7.20942 1.26562 8.2555 1.26562 9.31193C1.26563 10.3684 1.47377 11.4145 1.87818 12.3904C2.28258 13.3664 2.87532 14.2531 3.62252 14.9999ZM5.03652 5.03993C6.02509 4.05138 7.32584 3.43618 8.71715 3.29913C10.1085 3.16209 11.5042 3.51168 12.6667 4.28836C13.8291 5.06503 14.6863 6.22073 15.0922 7.55855C15.4981 8.89637 15.4276 10.3335 14.8927 11.6252C14.3578 12.9169 13.3915 13.9831 12.1586 14.6422C10.9257 15.3014 9.50245 15.5126 8.13124 15.24C6.76004 14.9674 5.52576 14.2279 4.63872 13.1473C3.75167 12.0667 3.26673 10.712 3.26652 9.31393C3.26378 8.51951 3.41882 7.73245 3.72267 6.99842C4.02651 6.26439 4.4731 5.598 5.03652 5.03793V5.03993Z" fill="#535665"/>
</svg>
