<svg width="15" height="15" viewBox="0 0 15 15" fill="none" xmlns="http://www.w3.org/2000/svg">
<path fill-rule="evenodd" clip-rule="evenodd" d="M10.4999 6.4999C10.4999 7.09084 10.3835 7.67601 10.1573 8.22197C9.93121 8.76794 9.59971 9.26401 9.18191 9.6819C8.76401 10.0997 8.26794 10.4312 7.72197 10.6574C7.17601 10.8835 6.59085 10.9999 5.9999 10.9999C5.40895 10.9999 4.82379 10.8835 4.27782 10.6574C3.73186 10.4312 3.23578 10.0997 2.81792 9.6819C2.40005 9.26401 2.06859 8.76794 1.84244 8.22197C1.61629 7.67601 1.4999 7.09084 1.4999 6.4999C1.4999 5.30642 1.974 4.16183 2.81792 3.31792C3.66183 2.474 4.80642 1.9999 5.9999 1.9999C7.19337 1.9999 8.33796 2.474 9.18191 3.31792C10.0258 4.16183 10.4999 5.30642 10.4999 6.4999ZM9.67991 11.2399C8.47428 12.1759 6.95727 12.6172 5.4377 12.474C3.91813 12.3309 2.51024 11.614 1.50065 10.4693C0.491052 9.32461 -0.0443482 7.83819 0.00343178 6.31265C0.0512218 4.7871 0.678602 3.3371 1.75785 2.25785C2.83711 1.1786 4.2871 0.551222 5.81265 0.503432C7.3382 0.455649 8.82461 0.991052 9.96931 2.00065C11.114 3.01024 11.8309 4.41813 11.974 5.9377C12.1172 7.45726 11.6759 8.97427 10.7399 10.1799L13.7799 13.2199C13.8536 13.2886 13.9127 13.3714 13.9537 13.4634C13.9947 13.5554 14.0167 13.6547 14.0185 13.7554C14.0203 13.8561 14.0017 13.9561 13.964 14.0495C13.9263 14.1429 13.8701 14.2277 13.7989 14.2989C13.7277 14.3702 13.6429 14.4263 13.5495 14.464C13.4561 14.5017 13.3561 14.5203 13.2554 14.5185C13.1547 14.5167 13.0553 14.4947 12.9634 14.4537C12.8714 14.4127 12.7886 14.3536 12.7199 14.2799L9.67991 11.2399Z" fill="#24292E"/>
</svg>
