<svg width="22" height="22" viewBox="0 0 22 22" fill="none" xmlns="http://www.w3.org/2000/svg">
<path d="M10.9997 15C11.7908 15 12.5642 14.7654 13.222 14.3259C13.8798 13.8864 14.3925 13.2616 14.6952 12.5307C14.998 11.7998 15.0772 10.9956 14.9229 10.2196C14.7685 9.44372 14.3876 8.73098 13.8281 8.17157C13.2687 7.61216 12.556 7.2312 11.7801 7.07686C11.0042 6.92252 10.1999 7.00173 9.46898 7.30448C8.73808 7.60723 8.11336 8.11992 7.67384 8.77772C7.23431 9.43552 6.99971 10.2089 6.99971 11C6.99971 12.0609 7.42114 13.0783 8.17129 13.8284C8.92143 14.5786 9.93885 15 10.9997 15ZM10.9997 9C11.3953 9 11.782 9.1173 12.1109 9.33706C12.4398 9.55682 12.6961 9.86918 12.8475 10.2346C12.9988 10.6001 13.0385 11.0022 12.9613 11.3902C12.8841 11.7781 12.6936 12.1345 12.4139 12.4142C12.1342 12.6939 11.7779 12.8844 11.3899 12.9616C11.0019 13.0387 10.5998 12.9991 10.2343 12.8478C9.8689 12.6964 9.55654 12.44 9.33677 12.1111C9.11701 11.7822 8.99971 11.3956 8.99971 11C8.99971 10.4696 9.21043 9.96086 9.5855 9.58579C9.96057 9.21071 10.4693 9 10.9997 9ZM2.49971 11.877L1.49971 12.456C1.27218 12.5872 1.07274 12.762 0.91276 12.9703C0.752782 13.1787 0.635409 13.4165 0.567342 13.6702C0.499275 13.9239 0.481849 14.1885 0.516057 14.4489C0.550266 14.7093 0.635439 14.9605 0.766714 15.188L2.25571 17.766C2.38687 17.9939 2.56168 18.1937 2.77013 18.3539C2.97858 18.5142 3.21658 18.6317 3.47052 18.6999C3.72445 18.7681 3.98934 18.7855 4.25002 18.7512C4.5107 18.7169 4.76206 18.6315 4.98971 18.5L5.99971 17.916C6.15385 17.829 6.32821 17.7842 6.50519 17.7861C6.68217 17.7881 6.85551 17.8367 7.00771 17.927C7.15802 18.014 7.28285 18.139 7.36972 18.2894C7.45659 18.4398 7.50245 18.6103 7.50271 18.784V20C7.50271 20.5304 7.71343 21.0391 8.0885 21.4142C8.46357 21.7893 8.97228 22 9.50271 22H12.5027C13.0331 22 13.5419 21.7893 13.9169 21.4142C14.292 21.0391 14.5027 20.5304 14.5027 20V18.782C14.5054 18.6075 14.5533 18.4367 14.6417 18.2862C14.7301 18.1358 14.856 18.0108 15.0071 17.9236C15.1582 17.8363 15.3294 17.7898 15.5039 17.7884C15.6784 17.7871 15.8503 17.8311 16.0027 17.916L17.0117 18.498C17.4711 18.7632 18.017 18.8351 18.5293 18.6978C19.0417 18.5605 19.4785 18.2253 19.7437 17.766L21.2317 15.188C21.363 14.9605 21.4482 14.7093 21.4824 14.4489C21.5166 14.1885 21.4992 13.9239 21.4311 13.6702C21.363 13.4165 21.2456 13.1787 21.0857 12.9703C20.9257 12.762 20.7262 12.5872 20.4987 12.456L19.4987 11.877C19.3436 11.7867 19.2155 11.6565 19.1276 11.5001C19.0397 11.3436 18.9952 11.1664 18.9987 10.987C18.9991 10.8118 19.0454 10.6398 19.1332 10.4881C19.2209 10.3365 19.347 10.2106 19.4987 10.123L20.4987 9.544C20.7262 9.41276 20.9257 9.23798 21.0857 9.02965C21.2456 8.82132 21.363 8.58352 21.4311 8.32982C21.4992 8.07613 21.5166 7.81151 21.4824 7.55108C21.4482 7.29065 21.363 7.03951 21.2317 6.812L19.7417 4.234C19.6106 4.00639 19.4358 3.80684 19.2275 3.64677C19.0193 3.48669 18.7815 3.36922 18.5278 3.30106C18.2741 3.23289 18.0094 3.21538 17.7489 3.24952C17.4885 3.28365 17.2373 3.36877 17.0097 3.5L15.9997 4.083C15.8472 4.16828 15.6752 4.21248 15.5005 4.21125C15.3258 4.21002 15.1545 4.1634 15.0032 4.07598C14.852 3.98856 14.726 3.86332 14.6378 3.71256C14.5495 3.5618 14.5019 3.39069 14.4997 3.216V2C14.4997 1.46957 14.289 0.960859 13.9139 0.585786C13.5389 0.210714 13.0301 0 12.4997 0H9.49971C8.96928 0 8.46057 0.210714 8.0855 0.585786C7.71043 0.960859 7.49971 1.46957 7.49971 2V3.294C7.49968 3.44408 7.46011 3.5915 7.38497 3.72141C7.30983 3.85132 7.20178 3.95914 7.07171 4.034L6.91771 4.123C6.78756 4.19699 6.64042 4.23589 6.49071 4.23589C6.341 4.23589 6.19386 4.19699 6.06371 4.123L4.98971 3.5C4.76222 3.36853 4.51105 3.28317 4.25056 3.24881C3.99006 3.21444 3.72535 3.23174 3.47154 3.29972C3.21774 3.3677 2.97981 3.48502 2.77137 3.64499C2.56292 3.80495 2.38804 4.00442 2.25671 4.232L0.768714 6.813C0.503743 7.27215 0.431899 7.81771 0.568969 8.3298C0.706039 8.84189 1.04081 9.27861 1.49971 9.544L2.49971 10.122C2.65467 10.2127 2.78267 10.3431 2.87055 10.4997C2.95842 10.6563 3.00301 10.8335 2.99971 11.013C2.99997 11.1883 2.95385 11.3606 2.86604 11.5123C2.77823 11.6641 2.65185 11.7899 2.49971 11.877ZM3.49971 8.39L2.49971 7.812L3.98971 5.234L5.06371 5.854C5.4973 6.10317 5.98864 6.23429 6.48871 6.23429C6.98879 6.23429 7.48013 6.10317 7.91371 5.854L8.06771 5.766C8.50195 5.51541 8.86277 5.15519 9.11407 4.72137C9.36538 4.28755 9.49836 3.79535 9.49971 3.294V2H12.4997V3.216C12.5018 3.74183 12.6417 4.25793 12.9054 4.71284C13.1692 5.16775 13.5476 5.54558 14.0029 5.80864C14.4582 6.0717 14.9745 6.21082 15.5003 6.21211C16.0261 6.2134 16.5431 6.07682 16.9997 5.816L18.0067 5.234L19.4997 7.812L18.4997 8.39C18.0444 8.65664 17.6667 9.03779 17.4043 9.49557C17.1419 9.95335 17.0038 10.4718 17.0038 10.9995C17.0038 11.5272 17.1419 12.0456 17.4043 12.5034C17.6667 12.9612 18.0444 13.3424 18.4997 13.609L19.4997 14.188L18.0117 16.766L16.9997 16.184C16.5431 15.9232 16.0261 15.7866 15.5003 15.7879C14.9745 15.7892 14.4582 15.9283 14.0029 16.1914C13.5476 16.4544 13.1692 16.8322 12.9054 17.2872C12.6417 17.7421 12.5018 18.2582 12.4997 18.784V20H9.49971V18.784C9.49824 18.2579 9.35873 17.7415 9.09513 17.2862C8.83153 16.8309 8.45306 16.4528 7.99756 16.1897C7.54206 15.9265 7.02546 15.7874 6.49939 15.7864C5.97332 15.7855 5.45621 15.9225 4.99971 16.184L3.99271 16.766L2.49971 14.188L3.49971 13.609C3.95505 13.3424 4.33269 12.9612 4.59512 12.5034C4.85754 12.0456 4.99561 11.5272 4.99561 10.9995C4.99561 10.4718 4.85754 9.95335 4.59512 9.49557C4.33269 9.03779 3.95505 8.65664 3.49971 8.39Z" fill="#282C3F"/>
</svg>
