<svg width="16" height="16" viewBox="0 0 16 16" fill="none" xmlns="http://www.w3.org/2000/svg">
<g clip-path="url(#clip0_15296_206368)">
<path d="M7.99954 5.33337C7.47212 5.33337 6.95655 5.48977 6.51802 5.78279C6.07949 6.07581 5.7377 6.49228 5.53586 6.97955C5.33403 7.46682 5.28122 8.003 5.38411 8.52028C5.48701 9.03756 5.74098 9.51272 6.11392 9.88566C6.48686 10.2586 6.96202 10.5126 7.4793 10.6155C7.99658 10.7184 8.53276 10.6656 9.02003 10.4637C9.5073 10.2619 9.92378 9.92009 10.2168 9.48156C10.5098 9.04303 10.6662 8.52746 10.6662 8.00004C10.6662 7.2928 10.3853 6.61452 9.88516 6.11442C9.38506 5.61433 8.70679 5.33337 7.99954 5.33337ZM7.99954 9.33337C7.73583 9.33337 7.47805 9.25517 7.25878 9.10867C7.03952 8.96216 6.86862 8.75392 6.7677 8.51028C6.66678 8.26665 6.64038 7.99856 6.69183 7.73992C6.74327 7.48128 6.87026 7.2437 7.05673 7.05723C7.2432 6.87076 7.48078 6.74377 7.73942 6.69233C7.99806 6.64088 8.26615 6.66728 8.50978 6.7682C8.75342 6.86912 8.96166 7.04001 9.10817 7.25928C9.25468 7.47855 9.33287 7.73633 9.33287 8.00004C9.33287 8.35366 9.1924 8.6928 8.94235 8.94285C8.6923 9.1929 8.35316 9.33337 7.99954 9.33337ZM13.6662 7.41537L14.3329 7.02937C14.4846 6.94188 14.6175 6.82536 14.7242 6.68647C14.8308 6.54759 14.9091 6.38905 14.9545 6.21992C14.9998 6.05079 15.0115 5.87438 14.9886 5.70076C14.9658 5.52714 14.9091 5.35972 14.8215 5.20804L13.8289 3.48937C13.7414 3.33746 13.6249 3.20427 13.4859 3.09744C13.347 2.9906 13.1883 2.91222 13.019 2.86677C12.8497 2.82132 12.6731 2.8097 12.4993 2.83257C12.3256 2.85543 12.158 2.91234 12.0062 3.00004L11.3329 3.38937C11.2301 3.44737 11.1139 3.47724 10.9959 3.47595C10.8779 3.47466 10.7623 3.44227 10.6609 3.38204C10.5607 3.32403 10.4774 3.24073 10.4195 3.14047C10.3616 3.0402 10.3311 2.92649 10.3309 2.81071L10.3309 2.00004C10.3309 1.64642 10.1904 1.30728 9.94035 1.05723C9.6903 0.807184 9.35116 0.666707 8.99754 0.666707L6.99754 0.666707C6.64392 0.666707 6.30478 0.807183 6.05473 1.05723C5.80468 1.30728 5.66421 1.64642 5.66421 2.00004L5.66421 2.81204C5.66243 2.92836 5.63052 3.04224 5.57158 3.14254C5.51264 3.24285 5.4287 3.32615 5.32795 3.38432C5.22719 3.44248 5.11308 3.47353 4.99674 3.47441C4.88041 3.4753 4.76583 3.446 4.66421 3.38937L3.99154 3.00137C3.6853 2.82457 3.32137 2.77666 2.97981 2.86818C2.63825 2.95969 2.34703 3.18314 2.17021 3.48937L1.17821 5.20804C1.09069 5.35971 1.03391 5.52714 1.0111 5.70076C0.988298 5.87438 0.999916 6.05079 1.04529 6.21992C1.09067 6.38905 1.16892 6.54759 1.27557 6.68647C1.38222 6.82536 1.51519 6.94188 1.66687 7.02937L2.33354 7.41537C2.43694 7.47559 2.52236 7.56235 2.58096 7.66667C2.63957 7.77099 2.66923 7.88908 2.66687 8.00871C2.66664 8.1255 2.63572 8.24019 2.57722 8.34127C2.51872 8.44236 2.43469 8.52631 2.33354 8.58471L1.66687 8.97071C1.51519 9.0582 1.38222 9.17472 1.27557 9.31361C1.16892 9.45249 1.09067 9.61103 1.04529 9.78016C0.999916 9.94929 0.988298 10.1257 1.0111 10.2993C1.03391 10.4729 1.09069 10.6404 1.17821 10.792L2.17154 12.5107C2.25898 12.6624 2.37546 12.7955 2.51432 12.9022C2.65318 13.0089 2.81171 13.0872 2.98084 13.1327C3.14997 13.1781 3.3264 13.1898 3.50005 13.167C3.6737 13.1443 3.84116 13.0875 3.99287 13L4.66621 12.6114C4.76785 12.5545 4.88253 12.5251 4.999 12.5259C5.11546 12.5267 5.22971 12.5578 5.33054 12.6161C5.43138 12.6743 5.51534 12.7578 5.57418 12.8583C5.63302 12.9588 5.66474 13.0729 5.66621 13.1894L5.66621 14C5.66621 14.3537 5.80668 14.6928 6.05673 14.9428C6.30678 15.1929 6.64592 15.3334 6.99954 15.3334L8.99954 15.3334C9.35316 15.3334 9.6923 15.1929 9.94235 14.9428C10.1924 14.6928 10.3329 14.3537 10.3329 14L10.3329 13.1374C10.3329 13.0373 10.3593 12.939 10.4094 12.8524C10.4595 12.7658 10.5315 12.6939 10.6182 12.644L10.7209 12.5847C10.8076 12.5354 10.9057 12.5094 11.0055 12.5094C11.1053 12.5094 11.2034 12.5354 11.2902 12.5847L12.0062 13C12.1579 13.0877 12.3253 13.1446 12.499 13.1675C12.6726 13.1904 12.8491 13.1789 13.0183 13.1336C13.1875 13.0882 13.3461 13.01 13.4851 12.9034C13.6241 12.7967 13.7407 12.6638 13.8282 12.512L14.8202 10.7914C14.9969 10.4853 15.0448 10.1216 14.9534 9.78018C14.862 9.43878 14.6388 9.14763 14.3329 8.97071L13.6662 8.58537C13.5629 8.52489 13.4776 8.43798 13.419 8.33358C13.3604 8.22918 13.3307 8.11107 13.3329 7.99137C13.3327 7.8745 13.3634 7.75965 13.422 7.6585C13.4805 7.55734 13.5648 7.47346 13.6662 7.41537ZM12.9995 9.74004L13.6662 10.1254L12.6729 11.844L11.9569 11.4307C11.6678 11.2646 11.3403 11.1772 11.0069 11.1772C10.6735 11.1772 10.3459 11.2646 10.0569 11.4307L9.95421 11.4894C9.66472 11.6564 9.42417 11.8966 9.25663 12.1858C9.0891 12.475 9.00044 12.8031 8.99954 13.1374L8.99954 14L6.99954 14L6.99954 13.1894C6.99816 12.8388 6.9049 12.4948 6.72907 12.1915C6.55324 11.8882 6.30098 11.6363 5.99745 11.4609C5.69391 11.2856 5.3497 11.1928 4.99915 11.192C4.64859 11.1911 4.30393 11.2822 3.99954 11.456L3.32821 11.844L2.33287 10.1254L2.99954 9.74004C3.3031 9.56228 3.55486 9.30818 3.72981 9.00299C3.90476 8.6978 3.99681 8.35215 3.99681 8.00037C3.99681 7.6486 3.90476 7.30294 3.72981 6.99775C3.55486 6.69257 3.3031 6.43847 2.99954 6.26071L2.33287 5.87471L3.32487 4.15604L3.99954 4.54404C4.30393 4.71792 4.64859 4.80897 4.99915 4.80811C5.3497 4.80725 5.69391 4.71451 5.99745 4.53913C6.30098 4.36376 6.55324 4.11188 6.72907 3.8086C6.9049 3.50533 6.99816 3.16126 6.99954 2.81071L6.99954 2.00004L8.99954 2.00004L8.99954 2.81071C9.00053 3.16142 9.09353 3.50573 9.26927 3.80924C9.445 4.11274 9.69731 4.36482 10.001 4.54027C10.3046 4.71573 10.649 4.80842 10.9998 4.80908C11.3505 4.80974 11.6952 4.71835 11.9995 4.54404L12.6709 4.15604L13.6662 5.87471L12.9995 6.26071C12.696 6.43847 12.4442 6.69257 12.2693 6.99775C12.0943 7.30294 12.0023 7.6486 12.0023 8.00037C12.0023 8.35215 12.0943 8.69781 12.2693 9.00299C12.4442 9.30818 12.696 9.56228 12.9995 9.74004Z" fill="#282C3F"/>
</g>
<defs>
<clipPath id="clip0_15296_206368">
<rect width="16" height="16" fill="white" transform="translate(16 16) rotate(-180)"/>
</clipPath>
</defs>
</svg>
