<svg width="25" height="24" viewBox="0 0 25 24" fill="none" xmlns="http://www.w3.org/2000/svg">
<path fill-rule="evenodd" clip-rule="evenodd" d="M12.2752 7.27506C12.1427 7.41723 12.0706 7.60528 12.074 7.79958C12.0774 7.99388 12.1561 8.17926 12.2936 8.31668C12.431 8.45409 12.6164 8.5328 12.8107 8.53623C13.005 8.53966 13.193 8.46754 13.3352 8.33506L14.5852 7.08506C14.771 6.89924 14.9916 6.75183 15.2344 6.65127C15.4772 6.5507 15.7374 6.49894 16.0002 6.49894C16.263 6.49894 16.5232 6.5507 16.766 6.65127C17.0088 6.75183 17.2294 6.89924 17.4152 7.08506C17.601 7.27088 17.7484 7.49148 17.849 7.73426C17.9495 7.97705 18.0013 8.23727 18.0013 8.50006C18.0013 8.76285 17.9495 9.02306 17.849 9.26585C17.7484 9.50863 17.601 9.72923 17.4152 9.91506L14.9152 12.4151C14.7294 12.601 14.5089 12.7485 14.2661 12.8492C14.0233 12.9498 13.763 13.0016 13.5002 13.0016C13.2373 13.0016 12.9771 12.9498 12.7343 12.8492C12.4915 12.7485 12.2709 12.601 12.0852 12.4151C11.943 12.2826 11.755 12.2105 11.5607 12.2139C11.3664 12.2173 11.181 12.296 11.0436 12.4334C10.9061 12.5709 10.8274 12.7562 10.824 12.9505C10.8206 13.1448 10.8927 13.3329 11.0252 13.4751C11.3502 13.8001 11.736 14.058 12.1607 14.2339C12.5854 14.4098 13.0405 14.5003 13.5002 14.5003C13.9598 14.5003 14.415 14.4098 14.8397 14.2339C15.2643 14.058 15.6502 13.8001 15.9752 13.4751L18.4752 10.9751C19.1316 10.3186 19.5004 9.42836 19.5004 8.50006C19.5004 7.57175 19.1316 6.68147 18.4752 6.02506C17.8188 5.36864 16.9285 4.99988 16.0002 4.99988C15.0719 4.99988 14.1816 5.36864 13.5252 6.02506L12.2752 7.27506ZM7.58518 16.9151C7.39922 16.7293 7.2517 16.5088 7.15106 16.266C7.05041 16.0232 6.9986 15.7629 6.9986 15.5001C6.9986 15.2373 7.05041 14.977 7.15106 14.7342C7.2517 14.4914 7.39922 14.2708 7.58518 14.0851L10.0852 11.5851C10.2709 11.3991 10.4915 11.2516 10.7343 11.1509C10.9771 11.0503 11.2373 10.9985 11.5002 10.9985C11.763 10.9985 12.0233 11.0503 12.2661 11.1509C12.5089 11.2516 12.7294 11.3991 12.9152 11.5851C13.0574 11.7175 13.2454 11.7897 13.4397 11.7862C13.634 11.7828 13.8194 11.7041 13.9568 11.5667C14.0942 11.4293 14.1729 11.2439 14.1764 11.0496C14.1798 10.8553 14.1077 10.6672 13.9752 10.5251C13.6502 10.2 13.2643 9.94217 12.8397 9.76626C12.415 9.59035 11.9598 9.4998 11.5002 9.4998C11.0405 9.4998 10.5854 9.59035 10.1607 9.76626C9.73604 9.94217 9.35019 10.2 9.02518 10.5251L6.52518 13.0251C5.86876 13.6815 5.5 14.5718 5.5 15.5001C5.5 16.4284 5.86876 17.3187 6.52518 17.9751C7.18159 18.6315 8.07187 19.0003 9.00018 19.0003C9.92848 19.0003 10.8188 18.6315 11.4752 17.9751L12.7252 16.7251C12.8577 16.5829 12.9298 16.3949 12.9264 16.2006C12.9229 16.0063 12.8442 15.8209 12.7068 15.6835C12.5694 15.5461 12.384 15.4673 12.1897 15.4639C11.9954 15.4605 11.8074 15.5326 11.6652 15.6651L10.4152 16.9151C10.2294 17.101 10.0089 17.2486 9.76606 17.3492C9.52326 17.4499 9.26301 17.5017 9.00018 17.5017C8.73734 17.5017 8.47709 17.4499 8.23429 17.3492C7.9915 17.2486 7.77092 17.101 7.58518 16.9151Z" fill="white"/>
</svg>
