<svg width="14" height="14" viewBox="0 0 14 14" fill="none" xmlns="http://www.w3.org/2000/svg">
<path fill-rule="evenodd" clip-rule="evenodd" d="M6.77518 2.275C6.6427 2.41717 6.57057 2.60522 6.574 2.79952C6.57743 2.99382 6.65614 3.1792 6.79355 3.31662C6.93097 3.45403 7.11635 3.53274 7.31065 3.53617C7.50495 3.5396 7.693 3.46748 7.83518 3.335L9.08518 2.085C9.27098 1.89918 9.49158 1.75177 9.73438 1.65121C9.97718 1.55064 10.2374 1.49888 10.5002 1.49888C10.763 1.49888 11.0232 1.55064 11.266 1.65121C11.5088 1.75177 11.7294 1.89918 11.9152 2.085C12.101 2.27082 12.2484 2.49142 12.349 2.7342C12.4495 2.97699 12.5013 3.23721 12.5013 3.5C12.5013 3.76279 12.4495 4.023 12.349 4.26579C12.2484 4.50857 12.101 4.72917 11.9152 4.915L9.41518 7.415C9.22938 7.60095 9.00888 7.74847 8.76606 7.84911C8.52326 7.94976 8.26301 8.00157 8.00018 8.00157C7.73734 8.00157 7.47709 7.94976 7.23429 7.84911C6.9915 7.74847 6.77092 7.60095 6.58518 7.415C6.443 7.28252 6.25495 7.21039 6.06065 7.21382C5.86635 7.21725 5.68097 7.29596 5.54355 7.43337C5.40614 7.57079 5.32743 7.75617 5.324 7.95047C5.32057 8.14477 5.3927 8.33282 5.52518 8.475C5.85019 8.80004 6.23604 9.0579 6.6607 9.2338C7.08536 9.4097 7.54052 9.5002 8.00018 9.5002C8.45983 9.5002 8.91499 9.4097 9.33968 9.2338C9.76428 9.0579 10.1502 8.80004 10.4752 8.475L12.9752 5.975C13.6316 5.31858 14.0004 4.4283 14.0004 3.5C14.0004 2.57169 13.6316 1.68141 12.9752 1.025C12.3188 0.36858 11.4285 -0.000183105 10.5002 -0.000183105C9.57188 -0.000183105 8.68159 0.36858 8.02517 1.025L6.77518 2.275ZM2.08518 11.915C1.89922 11.7292 1.7517 11.5087 1.65106 11.2659C1.55041 11.0231 1.4986 10.7628 1.4986 10.5C1.4986 10.2372 1.55041 9.9769 1.65106 9.7341C1.7517 9.4913 1.89922 9.2707 2.08518 9.085L4.58518 6.585C4.77092 6.39904 4.9915 6.25152 5.23429 6.15088C5.47709 6.05023 5.73734 5.99842 6.00018 5.99842C6.26301 5.99842 6.52326 6.05023 6.76606 6.15088C7.00885 6.25152 7.22943 6.39904 7.41518 6.585C7.55735 6.71748 7.7454 6.7896 7.9397 6.78617C8.134 6.78274 8.31938 6.70403 8.4568 6.56662C8.59421 6.4292 8.67292 6.24382 8.67635 6.04952C8.67978 5.85522 8.60766 5.66717 8.47518 5.525C8.15017 5.19995 7.76431 4.94211 7.33965 4.7662C6.91499 4.59029 6.45983 4.49974 6.00018 4.49974C5.54052 4.49974 5.08536 4.59029 4.6607 4.7662C4.23604 4.94211 3.85019 5.19995 3.52518 5.525L1.02518 8.02499C0.368763 8.68141 0 9.5717 0 10.5C0 11.4283 0.368763 12.3186 1.02518 12.975C1.68159 13.6314 2.57187 14.0002 3.50018 14.0002C4.42848 14.0002 5.31876 13.6314 5.97518 12.975L7.22518 11.725C7.35766 11.5828 7.42978 11.3948 7.42635 11.2005C7.42292 11.0062 7.34421 10.8208 7.2068 10.6834C7.06938 10.546 6.884 10.4672 6.6897 10.4638C6.4954 10.4604 6.30735 10.5325 6.16518 10.665L4.91518 11.915C4.72943 12.1009 4.50885 12.2485 4.26606 12.3491C4.02326 12.4498 3.76301 12.5016 3.50018 12.5016C3.23734 12.5016 2.97709 12.4498 2.73429 12.3491C2.4915 12.2485 2.27092 12.1009 2.08518 11.915Z" fill="#282C3F"/>
</svg>
