<svg width="32" height="32" viewBox="0 0 32 32" fill="none" xmlns="http://www.w3.org/2000/svg">
<g clip-path="url(#clip0_4099_74944)">
<path d="M4.73569 10.3594C1.84981 13.2452 0 17.2296 0 21.6237C0 22.1419 0.419312 22.5612 0.9375 22.5612C2.97294 22.5612 4.58956 22.5612 6.625 22.5612C7.14319 22.5612 7.5625 22.1419 7.5625 21.6237C7.5625 19.2973 8.50869 17.1879 10.0365 15.6602L9.45912 13.2078L7.88894 11.6376L4.73569 10.3594Z" fill="#EF2E2E"/>
<path d="M16 5.6875C16 5.99425 15.0625 6.29281 15.0625 6.585C15.0625 8.57256 15.0625 10.2665 15.0625 12.2502C15.0625 12.5551 16 12.8668 16 13.1875C18.3264 13.1875 20.4358 14.1337 21.9635 15.6615L22.8164 15.7461L26.7421 11.8204L27.2643 10.3607C24.3784 7.47481 20.3941 5.6875 16 5.6875Z" fill="#17ACE8"/>
<path d="M4.73438 10.3607L10.0352 15.6615C11.563 14.1337 13.6724 13.1875 15.9987 13.1875C15.9987 10.4736 15.9987 8.40144 15.9987 5.6875C11.6046 5.6875 7.62025 7.47481 4.73438 10.3607Z" fill="#FEDB41"/>
<path d="M27.2657 10.3594L21.9648 15.6602C23.4927 17.1879 24.4388 19.2973 24.4388 21.6237C24.4388 22.1419 24.8582 22.5612 25.3763 22.5612C27.4118 22.5612 29.0284 22.5612 31.0638 22.5612C31.582 22.5612 32.0013 22.1419 32.0013 21.6237C32.0013 17.2296 30.1515 13.2452 27.2657 10.3594Z" fill="#10BB67"/>
<path d="M23.2385 14.2926C22.9386 14.0114 22.4698 13.9739 22.1136 14.1988C19.1698 16.0926 16.9386 17.5177 13.9948 19.3927C13.4511 19.7489 13.0011 20.2177 12.7198 20.7613C11.9135 22.2052 12.1573 24.0238 13.3573 25.2051C14.5948 26.4613 16.5261 26.6677 18.0261 25.7302C18.6073 25.3363 19.0948 24.7927 19.3948 24.1363C20.8759 20.9676 22.001 18.5677 23.4823 15.3989C23.6511 15.0238 23.5573 14.5738 23.2385 14.2926Z" fill="#495A79"/>
<path d="M23.4804 15.3993C21.9992 18.568 20.8742 20.968 19.3929 24.1367C19.093 24.793 18.6055 25.3367 18.0242 25.7305C16.5242 26.668 14.5929 26.4617 13.3555 25.2055L23.2367 14.293C23.5555 14.5743 23.6492 15.0243 23.4804 15.3993Z" fill="#42516D"/>
</g>
<defs>
<clipPath id="clip0_4099_74944">
<rect width="32" height="32" fill="white"/>
</clipPath>
</defs>
</svg>
