<svg width="16" height="16" viewBox="0 0 16 16" fill="none" xmlns="http://www.w3.org/2000/svg">
<path d="M14.668 1.99999H12.668V1.33332C12.668 1.15651 12.5977 0.986943 12.4727 0.861919C12.3477 0.736894 12.1781 0.666656 12.0013 0.666656H4.0013C3.82449 0.666656 3.65492 0.736894 3.5299 0.861919C3.40487 0.986943 3.33464 1.15651 3.33464 1.33332V1.99999H1.33464C1.15782 1.99999 0.988255 2.07023 0.863231 2.19525C0.738207 2.32028 0.667969 2.48985 0.667969 2.66666V3.99999C0.670386 4.79831 0.959581 5.56919 1.48285 6.17212C2.00611 6.77505 2.7286 7.16988 3.51864 7.28466C3.76756 8.14753 4.25988 8.92038 4.93664 9.51072C5.61341 10.1011 6.44596 10.4839 7.33463 10.6133V12H4.66797C4.52799 12 4.39156 12.044 4.278 12.1258C4.16445 12.2077 4.07953 12.3232 4.0353 12.456L3.36864 14.456C3.33525 14.5562 3.32617 14.6629 3.34212 14.7674C3.35808 14.8718 3.39862 14.9709 3.46041 15.0566C3.52219 15.1423 3.60346 15.212 3.6975 15.2602C3.79154 15.3083 3.89567 15.3333 4.0013 15.3333H12.0013C12.1069 15.3332 12.2109 15.3081 12.3049 15.2599C12.3988 15.2118 12.48 15.142 12.5417 15.0563C12.6034 14.9707 12.6439 14.8716 12.6598 14.7672C12.6758 14.6628 12.6667 14.5562 12.6333 14.456L11.9666 12.456C11.9224 12.3233 11.8376 12.2079 11.7242 12.126C11.6108 12.0442 11.4745 12.0001 11.3346 12H8.66797V10.6133C9.55665 10.4839 10.3892 10.1011 11.066 9.51072C11.7427 8.92038 12.235 8.14753 12.484 7.28466C13.274 7.16988 13.9965 6.77505 14.5198 6.17212C15.043 5.56919 15.3322 4.79831 15.3346 3.99999V2.66666C15.3346 2.48985 15.2644 2.32028 15.1394 2.19525C15.0143 2.07023 14.8448 1.99999 14.668 1.99999ZM3.33464 5.88599C2.94496 5.7476 2.60764 5.49206 2.36893 5.1544C2.13022 4.81674 2.00181 4.41351 2.0013 3.99999V3.33332H3.33464V5.88599ZM10.854 13.3333L11.076 14H4.92597L5.14864 13.3333H10.854ZM11.3346 5.99999C11.3346 6.88404 10.9834 7.73189 10.3583 8.35701C9.7332 8.98213 8.88536 9.33332 8.0013 9.33332C7.11725 9.33332 6.2694 8.98213 5.64428 8.35701C5.01916 7.73189 4.66797 6.88404 4.66797 5.99999V1.99999H11.3346V5.99999ZM14.0013 3.99999C14.0008 4.41351 13.8724 4.81674 13.6337 5.1544C13.395 5.49206 13.0576 5.7476 12.668 5.88599V3.33332H14.0013V3.99999ZM7.11264 5.77799L6.0013 4.86132L7.33463 4.66666L8.0013 3.33332L8.66797 4.66666L10.0013 4.86132L8.88997 5.77799L9.2373 7.33332L8.0013 6.44466L6.7653 7.33332L7.11264 5.77799Z" fill="#282C3F"/>
</svg>
