<svg width="20" height="16" viewBox="0 0 20 16" fill="none" xmlns="http://www.w3.org/2000/svg">
<path d="M15.7071 15.7071C15.3166 16.0976 14.6834 16.0976 14.2929 15.7071L10.2929 11.7071C9.90237 11.3166 9.90237 10.6834 10.2929 10.2929C10.6834 9.90237 11.3166 9.90237 11.7071 10.2929L14 12.5858L14 1C14 0.447715 14.4477 0 15 0C15.5523 0 16 0.447715 16 1L16 12.5858L18.2929 10.2929C18.6834 9.90237 19.3166 9.90237 19.7071 10.2929C20.0976 10.6834 20.0976 11.3166 19.7071 11.7071L15.7071 15.7071ZM6 3.41421L6 15C6 15.5523 5.55229 16 5 16C4.44771 16 4 15.5523 4 15L4 3.41421L1.70711 5.70711C1.31658 6.09763 0.683418 6.09763 0.292892 5.70711C-0.0976315 5.31658 -0.0976315 4.68342 0.292892 4.29289L4.29289 0.292893C4.48043 0.105357 4.73478 0 5 0C5.26522 0 5.51957 0.105357 5.70711 0.292893L9.70711 4.29289C10.0976 4.68342 10.0976 5.31658 9.70711 5.70711C9.31658 6.09763 8.68342 6.09763 8.29289 5.70711L6 3.41421Z" fill="#282C3F"/>
</svg>
