<svg width="400" height="320" viewBox="0 0 400 320" fill="none" xmlns="http://www.w3.org/2000/svg">
<g filter="url(#filter0_dd_7853_166297)">
<g clip-path="url(#clip0_7853_166297)">
<rect x="10" y="8" width="380" height="300" rx="24" fill="#FFC77A"/>
<g filter="url(#filter1_f_7853_166297)">
<rect x="124" y="58" width="194" height="250" fill="#E0BB87" fill-opacity="0.9"/>
</g>
<rect x="105" y="45" width="190" height="233" rx="3.06452" fill="white"/>
<rect x="258.226" y="67.9839" width="22.9839" height="7.66129" rx="3.83065" fill="#F2F2F2"/>
<rect x="118.789" y="103.226" width="132.54" height="7.66129" rx="3.83065" fill="#F2F2F2"/>
<rect x="118.789" y="237.299" width="132.54" height="7.66129" rx="3.83065" fill="#F2F2F2"/>
<rect x="118.79" y="115.484" width="132.54" height="7.66129" rx="3.83065" fill="#F2F2F2"/>
<rect x="119" y="128" width="132.54" height="7.66129" rx="3.83065" fill="#B7D2FF"/>
<rect x="118.789" y="249.557" width="132.54" height="7.66129" rx="3.83065" fill="#F2F2F2"/>
<rect x="161.695" y="67.9834" width="56.6936" height="10.7258" rx="5.3629" fill="#B7D2FF"/>
<rect x="118.789" y="221.976" width="56.6936" height="7.66129" rx="3.83065" fill="#9AC0FF"/>
<g clip-path="url(#clip1_7853_166297)">
<rect x="118" y="65" width="32" height="32" rx="16" fill="#B7D2FF"/>
<circle cx="134.001" cy="75.2853" r="4.57143" fill="#0061FF"/>
<circle cx="134.002" cy="95.8571" r="14.8571" fill="#0061FF"/>
</g>
<g opacity="0.6" clip-path="url(#clip2_7853_166297)">
<path d="M-79.8855 5.9085C-78.4458 18.5046 -77.3948 31.1714 -72.6871 43.1596C-68.656 53.4655 -61.4576 61.5377 -53.453 69.0728C-48.7309 73.4977 -43.7064 77.6257 -37.3143 79.3645C-26.0416 82.4181 -15.7911 89.5432 -3.71227 88.9636C7.41642 88.4264 18.7179 88.3133 29.5154 84.6094C34.3239 82.9553 39.3052 81.782 44.2433 80.4955C52.8814 78.2336 59.3311 73.2149 64.7587 66.2454C75.4699 52.5042 78.0469 36.0628 81.6605 19.9324C84.6118 6.65776 82.2795 -6.39072 78.6083 -19.0575C74.7661 -31.6036 67.845 -43.0311 58.4529 -52.3361C50.5779 -60.4225 42.4437 -68.523 31.1711 -71.5907C15.3346 -75.8601 -0.501797 -74.1354 -15.8775 -69.0885C-23.5366 -66.5862 -31.498 -64.6353 -38.394 -60.4649C-47.9679 -54.6828 -58.8518 -50.5689 -65.8774 -41.3375C-73.6373 -31.1447 -76.3151 -19.0716 -77.9419 -6.74414C-78.5034 -2.5313 -80.5045 1.48361 -79.8855 5.9085ZM-45.7508 70.8116C-46.0765 71.0434 -46.4738 71.1573 -46.8753 71.1341C-47.2768 71.1109 -47.6577 70.952 -47.9535 70.6844C-54.3744 64.7186 -60.9969 59.0638 -64.4522 50.5674C-68.7712 39.8233 -75.1058 29.8566 -76.4303 17.9674C-77.1213 11.7047 -78.1579 5.42784 -76.9197 -0.778314C-75.4801 -8.22853 -73.2198 -15.5656 -71.6217 -22.931C-69.3619 -33.4523 -63.16 -42.7562 -54.2449 -48.9997C-49.5659 -52.4492 -43.6201 -54.5273 -38.4084 -57.595C-28.3307 -63.5467 -17.0725 -66.4731 -5.94377 -69.0602C5.99114 -71.8876 18.4443 -72.8913 30.5376 -68.6361C41.3316 -64.8066 50.7632 -57.9857 57.6899 -48.9997C65.7233 -38.8352 73.0656 -28.2324 76.564 -15.5939C79.6822 -4.6281 80.5821 6.83141 79.213 18.137C77.7549 29.9888 74.67 41.5922 70.0423 52.6314C63.7797 67.5177 53.2701 76.7492 37.1745 80.2693C26.3193 82.6443 15.5794 85.401 4.40749 85.9241C-2.66131 86.2068 -9.48536 86.7016 -16.2662 83.5067C-22.396 80.625 -28.8192 78.3883 -35.4283 76.834C-39.1571 75.9575 -42.1804 74.0066 -45.506 72.7343C-46.6434 72.2395 -46.8593 71.7447 -45.7508 70.8116Z" fill="#D7AD76"/>
<path d="M-54.3065 -43.1248C-54.9256 -43.7609 -55.4438 -44.4395 -55.559 -44.383C-56.0927 -44.135 -56.5388 -43.7363 -56.8403 -43.2379C-60.9722 -35.4201 -64.9601 -27.5599 -67.1772 -18.9222C-70.9923 -4.10655 -72.4896 10.6667 -69.2791 25.8922C-67.1916 35.7882 -60.9578 42.9839 -55.0263 50.5048C-47.5256 60.0332 -39.1899 68.7981 -28.2484 74.5378C-18.4586 79.6978 -7.54585 79.6695 3.3237 79.2878C12.3792 78.8699 21.3575 77.4472 30.0873 75.0467C41.2447 72.1345 52.647 68.685 61.4002 60.6269C65.5177 56.8948 67.1589 51.8196 67.9363 46.292C68.7137 40.7644 71.4779 35.152 72.2553 29.2003C73.8678 16.477 74.9763 3.75364 72.7448 -9.1252C71.3052 -17.0561 69.9807 -24.789 65.5465 -31.7445C60.7811 -39.3502 54.5185 -45.726 48.4431 -52.3421C43.0057 -58.5882 36.271 -63.6204 28.6908 -67.1012C23.7959 -69.2076 18.8722 -67.8929 13.8909 -67.4405C0.341799 -66.1368 -12.9741 -63.0901 -25.7146 -58.3786C-35.8787 -54.6747 -45.9708 -50.2357 -54.3065 -43.1248ZM-68.1706 7.99475C-69.7542 -2.41011 -65.7087 -12.2636 -63.3477 -22.3292C-61.6776 -29.3977 -58.7263 -36.1976 -52.91 -40.877C-40.6728 -50.7022 -25.6714 -55.014 -11.073 -60.0609C-3.38518 -62.6904 4.56182 -63.7931 12.4512 -64.9241C19.8368 -65.9702 26.992 -66.0974 33.6145 -61.2767C38.9502 -57.4985 43.9147 -53.2389 48.4431 -48.5534C56.1166 -40.566 63.315 -32.2817 67.3317 -21.8909C69.9519 -15.2183 69.5487 -8.10733 70.3694 -1.19432C71.19 5.71869 70.2254 12.7448 70.3694 19.7144C70.5565 28.0835 68.2242 35.9437 65.82 43.8321C63.9484 50.0242 62.7535 56.923 57.0668 60.6835C49.4341 65.7839 40.8997 69.4419 31.9012 71.47C21.1614 73.9641 10.2225 75.5439 -0.793776 76.1918C-10.9579 76.6442 -20.7909 75.7253 -29.0978 70.537C-42.0616 62.4056 -52.5473 50.9857 -59.4461 37.4846C-64.2403 28.2531 -69.783 19.3044 -68.1706 7.99475Z" fill="#D7AD76"/>
<path d="M-58.9401 -2.05777C-59.4728 7.52714 -60.7253 17.0696 -59.8471 26.6828C-59.516 30.2878 -57.3565 33.2707 -55.5281 36.3808C-46.3286 52.4122 -32.0614 62.1809 -14.3966 66.733C-3.30755 69.4373 8.32736 69.0752 19.2198 65.6869C24.2011 64.2732 29.787 64.0611 35.0562 63.3543C49.453 61.4175 64.152 46.6443 64.7855 32.2528C65.1454 24.2513 67.2185 16.4335 66.8154 8.31881C66.2252 -3.79663 64.1232 -15.7142 59.1132 -26.6421C54.5926 -36.538 48.618 -45.7836 38.8138 -51.9615C32.3208 -56.0471 25.1944 -58.5352 18.0537 -60.882C13.4611 -62.3946 8.82534 -60.0196 4.44873 -58.507C-4.49434 -55.4897 -13.6326 -53.0621 -22.9051 -51.2405C-29.9451 -49.8268 -35.8622 -46.8863 -40.282 -41.4294C-43.3773 -37.6266 -47.4803 -34.8981 -51.0075 -31.6466C-55.5281 -27.5469 -55.7009 -21.7507 -57.1693 -16.6613C-58.4363 -11.9537 -58.3787 -6.92091 -58.9401 -2.05777ZM63.4322 16.8576C63.8226 24.7343 62.1732 32.5797 58.6381 39.6606C55.3988 46.2061 51.6989 52.6526 44.2413 55.5931C39.2169 57.5722 34.1636 59.4666 29.1823 61.6296C25.0649 63.425 20.3139 61.9123 16.542 63.4533C4.40554 68.4012 -7.48617 65.0507 -18.9172 62.2233C-28.7502 59.7918 -37.0139 53.5432 -44.2123 45.8526C-51.5749 38.2614 -55.6965 28.189 -55.7297 17.7058C-55.96 5.76001 -52.0729 -5.76168 -51.3387 -17.6368C-50.878 -24.6064 -48.8912 -30.1763 -42.2399 -33.6258C-40.3097 -34.7997 -38.5515 -36.2265 -37.0139 -37.8669C-25.9428 -48.3283 -12.0067 -51.8767 2.60595 -53.9831C7.61602 -54.7041 12.6837 -53.9831 17.593 -54.6476C23.0781 -55.411 27.9298 -55.2979 32.9111 -52.2867C42.6953 -46.3602 50.5095 -37.7634 55.3988 -27.5469C58.4365 -21.4255 61.6182 -15.1063 62.2085 -8.44771C62.9571 -0.0503147 62.6692 8.44604 63.4898 16.8576H63.4322ZM-53.1814 -22.6272C-54.8803 -14.8235 -55.197 -6.83609 -56.5215 1.00997C-56.6422 -6.99636 -55.4861 -14.9719 -53.0951 -22.6272H-53.1814ZM22.5454 -57.4184L7.2417 -56.6267C11.7767 -58.5494 16.3692 -59.9489 22.5454 -57.4184ZM-30.6217 -45.8685L-36.8699 -41.3305C-36.2451 -42.5011 -35.3583 -43.5176 -34.2761 -44.3035C-33.194 -45.0895 -31.9446 -45.6245 -30.6217 -45.8685V-45.8685Z" fill="#D7AD76"/>
<path d="M-43.3611 4.54563C-42.8285 13.4378 -44.2249 22.2876 -44.2537 31.1515C-44.2537 39.7044 -38.9557 45.3593 -32.7363 50.5193C-27.0382 55.3176 -19.6727 57.7689 -12.1778 57.3616C1.09602 56.6689 13.4484 52.244 25.3833 46.5326C32.0778 43.3094 38.4844 39.7751 42.9186 33.8093C47.5111 27.6173 49.7283 20.3932 51.3839 12.9289C53.2411 4.64459 51.7582 -3.49834 51.571 -11.7402C51.3551 -20.8728 46.8489 -28.2947 42.0548 -34.7553C36.44 -42.3752 29.9615 -50.2071 17.7387 -49.9668C1.45594 -49.5851 -13.2431 -45.5277 -25.3364 -35.0239C-33.6433 -27.8282 -41.0001 -19.4732 -42.0366 -7.54154C-42.3822 -3.48421 -43.4619 0.474165 -43.3611 4.54563ZM-41.432 3.96601C-40.4818 -7.17397 -38.8694 -17.9181 -30.5048 -26.471C-27.7551 -29.2984 -25.5524 -32.7196 -22.4571 -35.0522C-14.5854 -40.8112 -5.49071 -44.7498 4.14813 -46.5739C10.857 -47.9876 17.825 -49.4013 24.3036 -47.0263C36.2097 -42.6155 42.0836 -32.0976 46.8921 -21.4665C52.0317 -10.0721 52.0029 1.94442 49.0372 14.0881C46.1579 25.737 41.4501 36.2267 30.2494 41.9946C21.2083 46.6457 11.836 50.802 1.55672 52.7105C-9.22645 54.7038 -19.8369 56.9516 -29.5978 49.8831C-37.0698 44.4403 -42.5549 38.1494 -41.5903 27.8435C-40.8129 19.955 -41.432 11.9393 -41.432 3.96601V3.96601Z" fill="#D7AD76"/>
</g>
<path fill-rule="evenodd" clip-rule="evenodd" d="M339.471 341.58C339.474 341.58 339.698 341.678 340.386 341.422C345.35 339.56 357.49 326.651 361.725 313.158C361.863 312.722 362.324 312.477 362.768 312.601C363.21 312.728 363.47 313.182 363.351 313.624C359.623 327.545 358.877 334.632 359.079 336.822C360.076 335.296 362.311 330.248 365.581 317.615C365.683 317.222 366.065 316.958 366.461 316.987C366.869 317.016 367.198 317.331 367.241 317.735C368.901 333.149 372.494 338.504 374.161 339.182C374.494 339.317 374.751 339.278 375.028 339.054C376.403 337.931 378.218 331.818 375.248 316.708C375.169 316.309 375.39 315.911 375.771 315.764C376.152 315.618 376.587 315.762 376.8 316.11C383.839 327.566 387.538 331.787 388.939 332.924C388.522 330.8 385.724 324.171 377.929 311.724C377.688 311.34 377.797 310.835 378.177 310.583C378.556 310.33 379.068 310.422 379.333 310.789C386.835 321.115 395.095 324.524 399.947 323.308C401.941 322.812 403.172 321.564 403.411 319.796C403.873 316.379 400.604 310.624 390.044 304.722C389.683 304.521 389.523 304.09 389.664 303.704C389.804 303.317 390.208 303.094 390.613 303.164C405.34 305.872 411.484 305.977 413.384 305.681C411.418 304.531 404.088 302.045 388.379 299.289C387.928 299.21 387.623 298.791 387.689 298.342C387.753 297.893 388.175 297.575 388.62 297.627C403.844 299.327 411.827 299.316 414.693 298.952C412.341 298.159 406.079 296.846 392.884 295.459C392.47 295.415 392.149 295.08 392.128 294.666C392.106 294.254 392.391 293.888 392.798 293.801C408.12 290.574 414.157 288.274 415.93 287.247C413.726 286.983 406.433 287.309 389.239 291.071C388.791 291.166 388.349 290.896 388.236 290.456C388.125 290.015 388.386 289.566 388.825 289.443C404.186 285.106 411.896 282 414.54 280.545C411.935 280.723 405.321 281.949 391.924 285.82C391.524 285.938 391.094 285.743 390.919 285.367C390.743 284.99 390.871 284.542 391.22 284.313C404.803 275.385 409.816 270.898 411.179 269.237C408.61 269.92 400.794 273.85 386.855 283.159C386.477 283.412 385.963 283.321 385.695 282.951C385.429 282.581 385.507 282.068 385.871 281.793C398.854 271.993 405.389 265.978 407.387 263.54C404.982 264.656 399.018 268.339 387.311 277.29C386.979 277.544 386.508 277.519 386.207 277.228C385.905 276.939 385.863 276.473 386.108 276.135C397.016 261.055 399.556 252.643 398.601 250.668C398.501 250.461 398.384 250.382 398.156 250.371C396.028 250.288 389.381 255.711 379.761 271.174C379.54 271.529 379.092 271.67 378.704 271.503C378.318 271.337 378.114 270.914 378.225 270.51C382.629 254.567 383.616 247.559 383.641 245.149C382.104 247.681 378.773 256.209 374.292 272.869C374.173 273.31 373.722 273.573 373.278 273.47C372.833 273.365 372.552 272.926 372.646 272.481C376.251 255.306 374.032 246.515 371.661 244.797C371.177 244.445 370.709 244.419 370.187 244.712C367.649 246.141 364.452 254.599 366.048 272.048C366.088 272.501 365.759 272.905 365.305 272.958C364.852 273.016 364.434 272.697 364.367 272.247C361.842 255.183 359.528 246.299 358.295 243.56C358.052 245.994 358.244 253.091 360.766 269.385C360.832 269.799 360.58 270.196 360.177 270.318C359.775 270.439 359.343 270.249 359.164 269.869C352.532 255.77 348.771 249.555 347.122 247.483C347.73 250.553 350.823 259.148 358.125 274.42C358.322 274.831 358.154 275.322 357.745 275.528C357.337 275.736 356.837 275.581 356.618 275.182C348.62 260.617 341.613 255.448 338.699 255.448C338.639 255.448 338.583 255.45 338.526 255.454C337.919 255.501 337.537 255.795 337.325 256.378C336.308 259.175 339.304 267.671 351.726 279.609C352.055 279.926 352.072 280.445 351.763 280.78C351.453 281.115 350.93 281.146 350.585 280.849C337.751 269.856 330.393 264.954 327.883 263.929C329.075 265.77 333.584 270.868 346.098 281.429C346.416 281.699 346.488 282.159 346.268 282.512C346.047 282.866 345.597 283.003 345.215 282.842C332.177 277.267 325.668 275.208 323.075 274.706C325.544 276.488 332.903 280.557 347.812 286.824C348.234 287.001 348.437 287.479 348.271 287.903C348.105 288.325 347.633 288.541 347.199 288.39C331.786 282.957 323.446 281.161 320.855 281.161H320.822C322.463 282.403 328.248 285.462 343.311 290.642C343.705 290.778 343.941 291.178 343.867 291.586C343.794 291.993 343.442 292.296 343.014 292.277C329.541 291.96 323.052 292.461 320.57 292.948C323.416 293.677 331.445 294.706 346.966 294.97C347.423 294.977 347.79 295.344 347.797 295.798C347.804 296.252 347.446 296.628 346.989 296.649C330.832 297.369 323.125 298.895 320.986 299.785C322.867 300.321 329.079 301.009 344.277 300.207C344.667 300.184 345.059 300.464 345.147 300.867C345.237 301.269 345.019 301.676 344.633 301.828C329.256 307.882 324.8 312.731 324.593 314.45C324.557 314.748 324.646 314.942 324.899 315.12C326.675 316.368 334.514 315.688 348.84 308.682C349.209 308.5 349.657 308.613 349.899 308.943C350.141 309.275 350.107 309.73 349.819 310.023C341.047 318.945 337.44 323.607 336.362 325.503C338.579 324.228 344.404 319.602 354.487 309.196C354.809 308.864 355.341 308.851 355.677 309.168C356.015 309.485 356.033 310.012 355.716 310.35C346.172 320.552 338.102 333.22 335.829 338.013C337.502 336.267 341.007 332.104 348.135 322.184C348.406 321.807 348.934 321.72 349.315 321.988C349.546 322.152 349.67 322.41 349.67 322.671C349.67 322.841 349.62 323.012 349.513 323.16C337.991 339.192 339.453 341.561 339.471 341.58V341.58ZM339.744 343.134C338.795 343.134 338.333 342.613 338.135 342.28C337.576 341.337 337.86 339.578 338.981 337.017C335.637 340.929 334.94 340.828 334.523 340.772C334.139 340.719 333.832 340.466 333.7 340.096C333.108 338.444 338.166 329.827 344.779 320.952C340.663 324.643 336.703 327.741 335.283 327.391C334.886 327.292 334.584 327.001 334.473 326.612C333.947 324.771 339.638 318.199 345.554 311.999C335.094 316.631 326.872 318.342 324.054 316.36C323.294 315.825 322.936 315.03 323.047 314.119C323.436 310.894 329.704 306.375 339.721 301.976C331.082 302.296 320.374 302.284 319.123 300.362C318.886 299.997 318.864 299.566 319.066 299.178C319.859 297.652 325.755 296.615 332.092 295.933C325.315 295.473 318.9 294.677 318.137 293.304C317.947 292.963 317.955 292.558 318.158 292.225C319.137 290.622 328.596 290.31 338.002 290.391C329.506 287.322 319.231 283.174 318.803 280.935C318.722 280.515 318.864 280.113 319.193 279.834C320.506 278.719 326.611 280.051 333.015 281.886C326.662 278.839 320.799 275.625 320.607 274.065C320.56 273.679 320.718 273.309 321.031 273.077C322.561 271.933 331.914 275.336 341.043 279.097C333.969 272.946 325.578 265.108 325.993 262.884C326.07 262.471 326.345 262.154 326.745 262.014C328.684 261.342 336.03 266.642 342.501 271.774C336.666 264.324 334.808 258.604 335.862 255.707C336.302 254.496 337.247 253.776 338.525 253.679C342.204 253.415 347.071 257.853 351.628 263.944C348.132 255.976 344.602 246.976 345.712 245.386C345.937 245.063 346.301 244.891 346.699 244.924C348.717 245.093 353.776 254.485 358.393 263.979C357.042 254.372 355.784 242.598 357.493 241.243C357.808 240.994 358.218 240.931 358.596 241.079C360.459 241.808 362.567 251.09 364.13 259.595C364.583 250.142 366.851 244.627 369.47 243.155C370.574 242.532 371.748 242.602 372.774 243.345C375.221 245.118 376.848 250.884 376.204 260.369C378.732 252.138 381.891 243.209 383.835 242.694C384.227 242.59 384.633 242.699 384.918 242.985C386.481 244.548 383.836 256.218 381.376 265.618C388.596 254.828 394.904 248.442 398.35 248.595C399.195 248.639 399.863 249.082 400.231 249.842C401.741 252.966 398.027 261.678 390.646 272.633C398.834 266.535 407.378 260.71 409.178 261.451C409.54 261.6 409.785 261.92 409.835 262.305C410.04 263.877 405.062 268.508 399.55 273.109C405.456 269.641 411.182 266.739 412.732 267.494C413.115 267.682 413.351 268.032 413.378 268.454C413.523 270.719 404.356 277.436 396.684 282.645C406.062 280.072 415.609 277.88 416.98 279.191C417.262 279.46 417.373 279.846 417.278 280.225C416.896 281.747 410.747 284.198 404.144 286.421C410.631 285.41 416.769 284.859 417.933 286.13C418.225 286.449 418.317 286.867 418.183 287.276C417.478 289.447 406.923 292.263 398.241 294.234C407.42 295.33 416.605 296.84 417.366 298.55C417.525 298.909 417.48 299.311 417.247 299.627C416.306 300.899 409.868 300.87 403.147 300.466C409.239 301.941 414.985 303.731 415.569 305.337C415.718 305.748 415.641 306.175 415.357 306.506C413.856 308.263 403.226 306.883 394.803 305.464C401.96 310.248 405.785 315.484 405.191 319.886C404.858 322.345 403.135 324.137 400.462 324.803C395.218 326.107 389.185 323.023 384.063 318.358C387.617 324.56 391.612 332.302 390.599 334.173C390.39 334.559 390.017 334.788 389.577 334.8H389.552C387.341 334.8 381.912 327.016 377.774 320.535C379.347 330.727 378.799 338.101 376.215 340.208C375.458 340.824 374.542 340.961 373.636 340.593C370.554 339.341 367.762 332.239 366.227 322.057C363.998 330.122 361.286 338.243 359.274 338.796C358.851 338.909 358.433 338.8 358.122 338.494C356.693 337.089 358.018 329.319 359.497 322.62C356.848 327.407 353.837 331.284 351.848 333.622C347.189 339.101 342.566 342.827 340.071 343.114C339.956 343.129 339.846 343.134 339.744 343.134V343.134Z" fill="#D7AD76"/>
</g>
</g>
<g filter="url(#filter2_dd_7853_166297)">
<rect x="67" y="118.082" width="162.419" height="47.5" rx="3.06452" transform="rotate(-0.381516 67 118.082)" fill="#F5F5FA"/>
<rect x="74.7109" y="125.692" width="36.0081" height="7.66129" rx="3.83065" transform="rotate(-0.381516 74.7109 125.692)" fill="#9AC0FF"/>
<rect x="74.8047" y="139.482" width="69.7178" height="7.66129" rx="3.83065" transform="rotate(-0.381516 74.8047 139.482)" fill="white"/>
<rect x="74.8047" y="139.482" width="45.2016" height="7.66129" rx="3.83065" transform="rotate(-0.381516 74.8047 139.482)" fill="#9AC0FF"/>
<rect x="152.18" y="138.966" width="69.7178" height="7.66129" rx="3.83065" transform="rotate(-0.381516 152.18 138.966)" fill="white"/>
<rect x="152.18" y="138.966" width="45.2016" height="7.66129" rx="3.83065" transform="rotate(-0.381516 152.18 138.966)" fill="#9AC0FF"/>
<rect x="74.875" y="150.207" width="69.7178" height="7.66129" rx="3.83065" transform="rotate(-0.381516 74.875 150.207)" fill="white"/>
<rect x="74.875" y="150.207" width="45.2016" height="7.66129" rx="3.83065" transform="rotate(-0.381516 74.875 150.207)" fill="#9AC0FF"/>
<rect x="152.254" y="149.692" width="69.7178" height="7.66129" rx="3.83065" transform="rotate(-0.381516 152.254 149.692)" fill="white"/>
<rect x="152.254" y="149.692" width="45.2016" height="7.66129" rx="3.83065" transform="rotate(-0.381516 152.254 149.692)" fill="#9AC0FF"/>
<g filter="url(#filter3_d_7853_166297)">
<path fill-rule="evenodd" clip-rule="evenodd" d="M141.573 124.036C142.053 123.858 143 123.967 143.25 124.509C143.463 124.971 143.646 125.75 143.656 125.584C143.68 125.215 143.632 124.417 143.793 124C143.91 123.696 144.14 123.41 144.479 123.309C144.764 123.223 145.099 123.193 145.395 123.254C145.708 123.318 146.037 123.541 146.16 123.753C146.522 124.376 146.528 125.652 146.545 125.584C146.609 125.312 146.615 124.355 146.828 124C146.969 123.765 147.325 123.555 147.515 123.521C147.809 123.469 148.171 123.453 148.479 123.513C148.728 123.562 149.065 123.857 149.156 124C149.375 124.344 149.498 125.316 149.535 125.658C149.551 125.799 149.609 125.265 149.828 124.922C150.234 124.283 151.672 124.159 151.726 125.561C151.752 126.215 151.746 126.185 151.746 126.625C151.746 127.141 151.734 127.453 151.706 127.827C151.676 128.226 151.59 129.131 151.465 129.569C151.379 129.87 151.094 130.547 150.812 130.953C150.812 130.953 149.738 132.203 149.621 132.765C149.504 133.328 149.543 133.332 149.519 133.73C149.496 134.129 149.64 134.653 149.64 134.653C149.64 134.653 148.839 134.757 148.406 134.687C148.015 134.625 147.531 133.847 147.406 133.609C147.234 133.281 146.867 133.344 146.724 133.586C146.5 133.969 146.015 134.656 145.674 134.699C145.005 134.783 143.619 134.729 142.534 134.719C142.534 134.719 142.719 133.708 142.307 133.361C142.002 133.101 141.477 132.577 141.163 132.301L140.331 131.38C140.048 131.02 139.329 130.451 139.088 129.395C138.875 128.459 138.896 128 139.125 127.625C139.357 127.244 139.795 127.036 139.979 127C140.187 126.958 140.671 126.961 140.854 127.062C141.077 127.185 141.167 127.221 141.342 127.453C141.572 127.76 141.654 127.909 141.555 127.574C141.479 127.312 141.233 126.979 141.121 126.604C141.012 126.243 140.72 125.661 140.741 125.078C140.749 124.857 140.844 124.307 141.573 124.036" fill="white"/>
<path fill-rule="evenodd" clip-rule="evenodd" d="M141.573 124.036C142.053 123.858 143 123.967 143.25 124.509C143.463 124.971 143.646 125.75 143.656 125.584C143.68 125.215 143.632 124.417 143.793 124C143.91 123.696 144.14 123.41 144.479 123.309C144.764 123.223 145.099 123.193 145.395 123.254C145.708 123.318 146.037 123.541 146.16 123.753C146.522 124.376 146.528 125.652 146.545 125.584C146.609 125.312 146.615 124.355 146.828 124C146.969 123.765 147.325 123.555 147.515 123.521C147.809 123.469 148.171 123.453 148.479 123.513C148.728 123.562 149.065 123.857 149.156 124C149.375 124.344 149.498 125.316 149.535 125.658C149.551 125.799 149.609 125.265 149.828 124.922C150.234 124.283 151.672 124.159 151.726 125.561C151.752 126.215 151.746 126.185 151.746 126.625C151.746 127.141 151.734 127.453 151.706 127.827C151.676 128.226 151.59 129.131 151.465 129.569C151.379 129.87 151.094 130.547 150.812 130.953C150.812 130.953 149.738 132.203 149.621 132.765C149.504 133.328 149.543 133.332 149.519 133.73C149.496 134.129 149.64 134.653 149.64 134.653C149.64 134.653 148.839 134.757 148.406 134.687C148.015 134.625 147.531 133.847 147.406 133.609C147.234 133.281 146.867 133.344 146.724 133.586C146.5 133.969 146.015 134.656 145.674 134.699C145.005 134.783 143.619 134.729 142.534 134.719C142.534 134.719 142.719 133.708 142.307 133.361C142.002 133.101 141.477 132.577 141.163 132.301L140.331 131.38C140.048 131.02 139.329 130.451 139.088 129.395C138.875 128.459 138.896 128 139.125 127.625C139.357 127.244 139.795 127.036 139.979 127C140.187 126.958 140.671 126.961 140.854 127.062C141.077 127.185 141.167 127.221 141.342 127.453C141.572 127.76 141.654 127.909 141.555 127.574C141.479 127.312 141.233 126.979 141.121 126.604C141.012 126.243 140.72 125.661 140.741 125.078C140.749 124.857 140.844 124.307 141.573 124.036V124.036Z" stroke="black" stroke-width="0.75" stroke-linejoin="round"/>
<path d="M148.566 131.734L148.566 128.275" stroke="black" stroke-width="0.75" stroke-linecap="round"/>
<path d="M146.551 131.746L146.535 128.273" stroke="black" stroke-width="0.75" stroke-linecap="round"/>
<path d="M144.555 128.305L144.576 131.731" stroke="black" stroke-width="0.75" stroke-linecap="round"/>
</g>
</g>
<defs>
<filter id="filter0_dd_7853_166297" x="0" y="0" width="400" height="320" filterUnits="userSpaceOnUse" color-interpolation-filters="sRGB">
<feFlood flood-opacity="0" result="BackgroundImageFix"/>
<feColorMatrix in="SourceAlpha" type="matrix" values="0 0 0 0 0 0 0 0 0 0 0 0 0 0 0 0 0 0 127 0" result="hardAlpha"/>
<feOffset dy="2"/>
<feGaussianBlur stdDeviation="5"/>
<feColorMatrix type="matrix" values="0 0 0 0 0 0 0 0 0 0 0 0 0 0 0 0 0 0 0.1 0"/>
<feBlend mode="normal" in2="BackgroundImageFix" result="effect1_dropShadow_7853_166297"/>
<feColorMatrix in="SourceAlpha" type="matrix" values="0 0 0 0 0 0 0 0 0 0 0 0 0 0 0 0 0 0 127 0" result="hardAlpha"/>
<feOffset/>
<feGaussianBlur stdDeviation="1"/>
<feColorMatrix type="matrix" values="0 0 0 0 0 0 0 0 0 0 0 0 0 0 0 0 0 0 0.2 0"/>
<feBlend mode="normal" in2="effect1_dropShadow_7853_166297" result="effect2_dropShadow_7853_166297"/>
<feBlend mode="normal" in="SourceGraphic" in2="effect2_dropShadow_7853_166297" result="shape"/>
</filter>
<filter id="filter1_f_7853_166297" x="87" y="21" width="268" height="324" filterUnits="userSpaceOnUse" color-interpolation-filters="sRGB">
<feFlood flood-opacity="0" result="BackgroundImageFix"/>
<feBlend mode="normal" in="SourceGraphic" in2="BackgroundImageFix" result="shape"/>
<feGaussianBlur stdDeviation="18.5" result="effect1_foregroundBlur_7853_166297"/>
</filter>
<filter id="filter2_dd_7853_166297" x="57" y="109" width="182.732" height="68.5806" filterUnits="userSpaceOnUse" color-interpolation-filters="sRGB">
<feFlood flood-opacity="0" result="BackgroundImageFix"/>
<feColorMatrix in="SourceAlpha" type="matrix" values="0 0 0 0 0 0 0 0 0 0 0 0 0 0 0 0 0 0 127 0" result="hardAlpha"/>
<feOffset dy="2"/>
<feGaussianBlur stdDeviation="5"/>
<feColorMatrix type="matrix" values="0 0 0 0 0 0 0 0 0 0 0 0 0 0 0 0 0 0 0.1 0"/>
<feBlend mode="normal" in2="BackgroundImageFix" result="effect1_dropShadow_7853_166297"/>
<feColorMatrix in="SourceAlpha" type="matrix" values="0 0 0 0 0 0 0 0 0 0 0 0 0 0 0 0 0 0 127 0" result="hardAlpha"/>
<feOffset/>
<feGaussianBlur stdDeviation="1"/>
<feColorMatrix type="matrix" values="0 0 0 0 0 0 0 0 0 0 0 0 0 0 0 0 0 0 0.2 0"/>
<feBlend mode="normal" in2="effect1_dropShadow_7853_166297" result="effect2_dropShadow_7853_166297"/>
<feBlend mode="normal" in="SourceGraphic" in2="effect2_dropShadow_7853_166297" result="shape"/>
</filter>
<filter id="filter3_d_7853_166297" x="135.565" y="121.847" width="19.5566" height="18.2734" filterUnits="userSpaceOnUse" color-interpolation-filters="sRGB">
<feFlood flood-opacity="0" result="BackgroundImageFix"/>
<feColorMatrix in="SourceAlpha" type="matrix" values="0 0 0 0 0 0 0 0 0 0 0 0 0 0 0 0 0 0 127 0" result="hardAlpha"/>
<feOffset dy="2"/>
<feGaussianBlur stdDeviation="1.5"/>
<feColorMatrix type="matrix" values="0 0 0 0 0 0 0 0 0 0 0 0 0 0 0 0 0 0 0.402655 0"/>
<feBlend mode="normal" in2="BackgroundImageFix" result="effect1_dropShadow_7853_166297"/>
<feBlend mode="normal" in="SourceGraphic" in2="effect1_dropShadow_7853_166297" result="shape"/>
</filter>
<clipPath id="clip0_7853_166297">
<rect x="10" y="8" width="380" height="300" rx="24" fill="white"/>
</clipPath>
<clipPath id="clip1_7853_166297">
<rect x="118" y="65" width="32" height="32" rx="16" fill="white"/>
</clipPath>
<clipPath id="clip2_7853_166297">
<rect width="163" height="163" fill="white" transform="matrix(-1 0 0 1 83 -74)"/>
</clipPath>
</defs>
</svg>
