<svg width="400" height="320" viewBox="0 0 400 320" fill="none" xmlns="http://www.w3.org/2000/svg">
<g filter="url(#filter0_dd_6478_115189)">
<g clip-path="url(#clip0_6478_115189)">
<rect x="10" y="8" width="380" height="300" rx="24" fill="#B2D1FE"/>
<g opacity="0.6" clip-path="url(#clip1_6478_115189)">
<path d="M-37.8855 265.909C-36.4458 278.505 -35.3948 291.171 -30.6871 303.16C-26.656 313.465 -19.4576 321.538 -11.453 329.073C-6.73091 333.498 -1.70644 337.626 4.68571 339.365C15.9584 342.418 26.2089 349.543 38.2877 348.964C49.4164 348.426 60.7179 348.313 71.5154 344.609C76.3239 342.955 81.3052 341.782 86.2433 340.495C94.8814 338.234 101.331 333.215 106.759 326.245C117.47 312.504 120.047 296.063 123.66 279.932C126.612 266.658 124.28 253.609 120.608 240.943C116.766 228.396 109.845 216.969 100.453 207.664C92.5779 199.578 84.4437 191.477 73.1711 188.409C57.3346 184.14 41.4982 185.865 26.1225 190.912C18.4634 193.414 10.502 195.365 3.60596 199.535C-5.96788 205.317 -16.8518 209.431 -23.8774 218.663C-31.6373 228.855 -34.3151 240.928 -35.9419 253.256C-36.5034 257.469 -38.5045 261.484 -37.8855 265.909ZM-3.75078 330.812C-4.07646 331.043 -4.47375 331.157 -4.87526 331.134C-5.27676 331.111 -5.65773 330.952 -5.95348 330.684C-12.3744 324.719 -18.9969 319.064 -22.4522 310.567C-26.7712 299.823 -33.1057 289.857 -34.4303 277.967C-35.1213 271.705 -36.1579 265.428 -34.9198 259.222C-33.4801 251.771 -31.2198 244.434 -29.6217 237.069C-27.3619 226.548 -21.16 217.244 -12.2449 211C-7.56592 207.551 -1.62006 205.473 3.59156 202.405C13.6693 196.453 24.9275 193.527 36.0562 190.94C47.9911 188.112 60.4443 187.109 72.5376 191.364C83.3316 195.193 92.7632 202.014 99.6899 211C107.723 221.165 115.066 231.768 118.564 244.406C121.682 255.372 122.582 266.831 121.213 278.137C119.755 289.989 116.67 301.592 112.042 312.631C105.78 327.518 95.2701 336.749 79.1745 340.269C68.3193 342.644 57.5794 345.401 46.4075 345.924C39.3387 346.207 32.5146 346.702 25.7338 343.507C19.604 340.625 13.1808 338.388 6.57169 336.834C2.84293 335.958 -0.180389 334.007 -3.50604 332.734C-4.64339 332.239 -4.85933 331.745 -3.75078 330.812Z" fill="#80B4FF"/>
<path d="M-12.3075 216.875C-12.9265 216.239 -13.4448 215.56 -13.56 215.617C-14.0936 215.865 -14.5398 216.264 -14.8413 216.762C-18.9732 224.58 -22.9611 232.44 -25.1782 241.078C-28.9933 255.893 -30.4906 270.667 -27.2801 285.892C-25.1926 295.788 -18.9588 302.984 -13.0273 310.505C-5.52661 320.033 2.80911 328.798 13.7506 334.538C23.5404 339.698 34.4532 339.67 45.3227 339.288C54.3783 338.87 63.3566 337.447 72.0863 335.047C83.2438 332.134 94.646 328.685 103.399 320.627C107.517 316.895 109.158 311.82 109.935 306.292C110.713 300.764 113.477 295.152 114.254 289.2C115.867 276.477 116.975 263.754 114.744 250.875C113.304 242.944 111.98 235.211 107.545 228.256C102.78 220.65 96.5176 214.274 90.4421 207.658C85.0047 201.412 78.27 196.38 70.6898 192.899C65.7949 190.792 60.8712 192.107 55.8899 192.56C42.3408 193.863 29.025 196.91 16.2845 201.621C6.12036 205.325 -3.97176 209.764 -12.3075 216.875ZM-26.1716 267.995C-27.7552 257.59 -23.7097 247.736 -21.3486 237.671C-19.6786 230.602 -16.7273 223.802 -10.911 219.123C1.32624 209.298 16.3277 204.986 30.926 199.939C38.6138 197.31 46.5608 196.207 54.4503 195.076C61.8358 194.03 68.991 193.903 75.6135 198.723C80.9493 202.501 85.9137 206.761 90.4421 211.447C98.1156 219.434 105.314 227.718 109.331 238.109C111.951 244.782 111.548 251.893 112.368 258.806C113.189 265.719 112.224 272.745 112.368 279.714C112.556 288.083 110.223 295.944 107.819 303.832C105.947 310.024 104.753 316.923 99.0658 320.683C91.4331 325.784 82.8987 329.442 73.9003 331.47C63.1604 333.964 52.2216 335.544 41.2052 336.192C31.0411 336.644 21.2082 335.725 12.9012 330.537C-0.0626221 322.406 -10.5482 310.986 -17.4471 297.485C-22.2412 288.253 -27.784 279.304 -26.1716 267.995Z" fill="#80B4FF"/>
<path d="M-16.9401 257.942C-17.4728 267.527 -18.7253 277.07 -17.8471 286.683C-17.516 290.288 -15.3565 293.271 -13.5281 296.381C-4.32859 312.412 9.93858 322.181 27.6034 326.733C38.6925 329.437 50.3274 329.075 61.2198 325.687C66.2011 324.273 71.787 324.061 77.0562 323.354C91.453 321.418 106.152 306.644 106.785 292.253C107.145 284.251 109.219 276.433 108.815 268.319C108.225 256.203 106.123 244.286 101.113 233.358C96.5926 223.462 90.618 214.216 80.8138 208.038C74.3208 203.953 67.1944 201.465 60.0537 199.118C55.4611 197.605 50.8253 199.98 46.4487 201.493C37.5057 204.51 28.3674 206.938 19.0949 208.759C12.0549 210.173 6.13785 213.114 1.71805 218.571C-1.37725 222.373 -5.48032 225.102 -9.00752 228.353C-13.5281 232.453 -13.7009 238.249 -15.1693 243.339C-16.4363 248.046 -16.3787 253.079 -16.9401 257.942ZM105.432 276.858C105.823 284.734 104.173 292.58 100.638 299.661C97.3988 306.206 93.6989 312.653 86.2413 315.593C81.2169 317.572 76.1636 319.467 71.1823 321.63C67.0649 323.425 62.3139 321.912 58.542 323.453C46.4055 328.401 34.5138 325.051 23.0828 322.223C13.2498 319.792 4.98611 313.543 -2.21227 305.853C-9.57495 298.261 -13.6965 288.189 -13.7297 277.706C-13.96 265.76 -10.0729 254.238 -9.33865 242.363C-8.87796 235.394 -6.8912 229.824 -0.239906 226.374C1.69029 225.2 3.44849 223.773 4.98611 222.133C16.0572 211.672 29.9933 208.123 44.6059 206.017C49.616 205.296 54.6837 206.017 59.593 205.352C65.0781 204.589 69.9298 204.702 74.9111 207.713C84.6953 213.64 92.5095 222.237 97.3988 232.453C100.437 238.574 103.618 244.894 104.208 251.552C104.957 259.95 104.669 268.446 105.49 276.858H105.432ZM-11.1814 237.373C-12.8802 245.176 -13.197 253.164 -14.5215 261.01C-14.6422 253.004 -13.4861 245.028 -11.0951 237.373H-11.1814ZM64.5454 202.582L49.2417 203.373C53.7767 201.451 58.3692 200.051 64.5454 202.582ZM11.3783 214.132L5.13008 218.67C5.75494 217.499 6.64172 216.482 7.72387 215.696C8.80602 214.911 10.0554 214.376 11.3783 214.132Z" fill="#80B4FF"/>
<path d="M-1.36114 264.546C-0.828461 273.438 -2.22495 282.288 -2.25375 291.152C-2.25375 299.704 3.04426 305.359 9.26366 310.519C14.9618 315.318 22.3273 317.769 29.8222 317.362C43.096 316.669 55.4484 312.244 67.3833 306.533C74.0778 303.309 80.4844 299.775 84.9186 293.809C89.5111 287.617 91.7283 280.393 93.3839 272.929C95.2411 264.645 93.7582 256.502 93.571 248.26C93.3551 239.127 88.8489 231.705 84.0548 225.245C78.44 217.625 71.9615 209.793 59.7387 210.033C43.4559 210.415 28.7569 214.472 16.6636 224.976C8.35666 232.172 0.999924 240.527 -0.036644 252.458C-0.382164 256.516 -1.46191 260.474 -1.36114 264.546ZM0.568016 263.966C1.5182 252.826 3.13065 242.082 11.4952 233.529C14.2449 230.702 16.4476 227.28 19.5429 224.948C27.4146 219.189 36.5093 215.25 46.1481 213.426C52.857 212.012 59.8251 210.599 66.3036 212.974C78.2097 217.384 84.0836 227.902 88.8921 238.533C94.0317 249.928 94.0029 261.944 91.0372 274.088C88.1579 285.737 83.4501 296.227 72.2494 301.995C63.2083 306.646 53.836 310.802 43.5567 312.711C32.7736 314.704 22.1631 316.952 12.4022 309.883C4.93024 304.44 -0.554932 298.149 0.409653 287.843C1.18708 279.955 0.568016 271.939 0.568016 263.966Z" fill="#80B4FF"/>
</g>
<g opacity="0.6" clip-path="url(#clip2_6478_115189)">
<path d="M308.115 7.9085C309.554 20.5046 310.605 33.1714 315.313 45.1596C319.344 55.4655 326.542 63.5377 334.547 71.0728C339.269 75.4977 344.294 79.6257 350.686 81.3645C361.958 84.4181 372.209 91.5432 384.288 90.9636C395.416 90.4264 406.718 90.3133 417.515 86.6094C422.324 84.9553 427.305 83.782 432.243 82.4955C440.881 80.2336 447.331 75.2149 452.759 68.2454C463.47 54.5042 466.047 38.0628 469.66 21.9324C472.612 8.65776 470.28 -4.39072 466.608 -17.0575C462.766 -29.6036 455.845 -41.0311 446.453 -50.3361C438.578 -58.4225 430.444 -66.523 419.171 -69.5907C403.335 -73.8601 387.498 -72.1354 372.122 -67.0885C364.463 -64.5862 356.502 -62.6353 349.606 -58.4649C340.032 -52.6828 329.148 -48.5689 322.123 -39.3375C314.363 -29.1447 311.685 -17.0716 310.058 -4.74414C309.497 -0.531303 307.495 3.48361 308.115 7.9085ZM342.249 72.8116C341.924 73.0434 341.526 73.1573 341.125 73.1341C340.723 73.1109 340.342 72.952 340.047 72.6844C333.626 66.7186 327.003 61.0638 323.548 52.5674C319.229 41.8232 312.894 31.8566 311.57 19.9674C310.879 13.7047 309.842 7.42784 311.08 1.22169C312.52 -6.22853 314.78 -13.5656 316.378 -20.931C318.638 -31.4523 324.84 -40.7562 333.755 -46.9997C338.434 -50.4492 344.38 -52.5273 349.592 -55.595C359.669 -61.5467 370.928 -64.4731 382.056 -67.0602C393.991 -69.8876 406.444 -70.8913 418.538 -66.6361C429.332 -62.8066 438.763 -55.9857 445.69 -46.9997C453.723 -36.8352 461.066 -26.2324 464.564 -13.5939C467.682 -2.6281 468.582 8.83141 467.213 20.137C465.755 31.9888 462.67 43.5922 458.042 54.6314C451.78 69.5177 441.27 78.7492 425.174 82.2693C414.319 84.6443 403.579 87.401 392.407 87.9241C385.339 88.2068 378.515 88.7016 371.734 85.5067C365.604 82.625 359.181 80.3883 352.572 78.834C348.843 77.9575 345.82 76.0066 342.494 74.7343C341.357 74.2395 341.141 73.7447 342.249 72.8116Z" fill="#80B4FF"/>
<path d="M333.693 -41.1248C333.073 -41.7609 332.555 -42.4395 332.44 -42.383C331.906 -42.135 331.46 -41.7363 331.159 -41.2379C327.027 -33.4201 323.039 -25.5599 320.822 -16.9222C317.007 -2.10655 315.509 12.6667 318.72 27.8922C320.807 37.7882 327.041 44.9839 332.973 52.5048C340.473 62.0332 348.809 70.7981 359.751 76.5378C369.54 81.6978 380.453 81.6695 391.323 81.2878C400.378 80.8699 409.357 79.4472 418.086 77.0467C429.244 74.1345 440.646 70.685 449.399 62.6269C453.517 58.8948 455.158 53.8195 455.935 48.292C456.713 42.7644 459.477 37.152 460.254 31.2003C461.867 18.477 462.975 5.75364 460.744 -7.1252C459.304 -15.0561 457.98 -22.789 453.545 -29.7445C448.78 -37.3502 442.518 -43.726 436.442 -50.3421C431.005 -56.5882 424.27 -61.6204 416.69 -65.1012C411.795 -67.2076 406.871 -65.8929 401.89 -65.4405C388.341 -64.1368 375.025 -61.0901 362.284 -56.3786C352.12 -52.6747 342.028 -48.2357 333.693 -41.1248ZM319.828 9.99475C318.245 -0.41011 322.29 -10.2636 324.651 -20.3292C326.321 -27.3977 329.273 -34.1976 335.089 -38.877C347.326 -48.7022 362.328 -53.014 376.926 -58.0609C384.614 -60.6904 392.561 -61.7931 400.45 -62.9241C407.836 -63.9702 414.991 -64.0974 421.613 -59.2767C426.949 -55.4985 431.914 -51.2389 436.442 -46.5534C444.116 -38.566 451.314 -30.2817 455.331 -19.8909C457.951 -13.2183 457.548 -6.10733 458.368 0.805679C459.189 7.71869 458.224 14.7448 458.368 21.7144C458.556 30.0835 456.223 37.9437 453.819 45.8321C451.947 52.0242 450.753 58.923 445.066 62.6835C437.433 67.7839 428.899 71.442 419.9 73.47C409.16 75.9641 398.222 77.5439 387.205 78.1918C377.041 78.6442 367.208 77.7253 358.901 72.537C345.937 64.4056 335.452 52.9857 328.553 39.4846C323.759 30.2531 318.216 21.3044 319.828 9.99475Z" fill="#80B4FF"/>
<path d="M329.06 -0.0577736C328.527 9.52714 327.275 19.0696 328.153 28.6828C328.484 32.2878 330.644 35.2707 332.472 38.3808C341.671 54.4122 355.939 64.1809 373.603 68.733C384.692 71.4373 396.327 71.0752 407.22 67.6869C412.201 66.2732 417.787 66.0611 423.056 65.3543C437.453 63.4175 452.152 48.6443 452.785 34.2528C453.145 26.2513 455.219 18.4335 454.815 10.3188C454.225 -1.79663 452.123 -13.7142 447.113 -24.6421C442.593 -34.538 436.618 -43.7836 426.814 -49.9615C420.321 -54.0471 413.194 -56.5352 406.054 -58.882C401.461 -60.3946 396.825 -58.0196 392.449 -56.507C383.506 -53.4897 374.367 -51.0621 365.095 -49.2405C358.055 -47.8268 352.138 -44.8863 347.718 -39.4294C344.623 -35.6266 340.52 -32.8981 336.992 -29.6466C332.472 -25.5469 332.299 -19.7507 330.831 -14.6613C329.564 -9.9537 329.621 -4.92091 329.06 -0.0577736ZM451.432 18.8576C451.823 26.7343 450.173 34.5797 446.638 41.6606C443.399 48.2061 439.699 54.6525 432.241 57.5931C427.217 59.5722 422.164 61.4666 417.182 63.6296C413.065 65.425 408.314 63.9123 404.542 65.4533C392.406 70.4012 380.514 67.0507 369.083 64.2233C359.25 61.7918 350.986 55.5432 343.788 47.8526C336.425 40.2614 332.304 30.189 332.27 19.7058C332.04 7.76001 335.927 -3.76168 336.661 -15.6368C337.122 -22.6063 339.109 -28.1763 345.76 -31.6258C347.69 -32.7997 349.448 -34.2265 350.986 -35.8669C362.057 -46.3283 375.993 -49.8767 390.606 -51.9831C395.616 -52.7041 400.684 -51.9831 405.593 -52.6476C411.078 -53.411 415.93 -53.2979 420.911 -50.2867C430.695 -44.3602 438.509 -35.7635 443.399 -25.5469C446.437 -19.4255 449.618 -13.1063 450.208 -6.44772C450.957 1.94968 450.669 10.446 451.49 18.8576H451.432ZM334.819 -20.6272C333.12 -12.8235 332.803 -4.83609 331.479 3.00997C331.358 -4.99636 332.514 -12.9719 334.905 -20.6272H334.819ZM410.545 -55.4184L395.242 -54.6267C399.777 -56.5494 404.369 -57.9489 410.545 -55.4184ZM357.378 -43.8685L351.13 -39.3305C351.755 -40.5011 352.642 -41.5176 353.724 -42.3035C354.806 -43.0895 356.055 -43.6245 357.378 -43.8685Z" fill="#80B4FF"/>
<path d="M344.639 6.54563C345.172 15.4378 343.775 24.2876 343.746 33.1515C343.746 41.7044 349.044 47.3593 355.264 52.5193C360.962 57.3176 368.327 59.7689 375.822 59.3616C389.096 58.6689 401.448 54.244 413.383 48.5326C420.078 45.3094 426.484 41.7751 430.919 35.8093C435.511 29.6173 437.728 22.3932 439.384 14.9289C441.241 6.64459 439.758 -1.49834 439.571 -9.74023C439.355 -18.8728 434.849 -26.2947 430.055 -32.7553C424.44 -40.3752 417.962 -48.2071 405.739 -47.9668C389.456 -47.5851 374.757 -43.5277 362.664 -33.0239C354.357 -25.8282 347 -17.4732 345.963 -5.54154C345.618 -1.48421 344.538 2.47417 344.639 6.54563ZM346.568 5.96601C347.518 -5.17397 349.131 -15.9181 357.495 -24.471C360.245 -27.2984 362.448 -30.7196 365.543 -33.0522C373.415 -38.8112 382.509 -42.7498 392.148 -44.5739C398.857 -45.9876 405.825 -47.4013 412.304 -45.0263C424.21 -40.6155 430.084 -30.0976 434.892 -19.4665C440.032 -8.07206 440.003 3.94442 437.037 16.0881C434.158 27.737 429.45 38.2267 418.249 43.9946C409.208 48.6457 399.836 52.802 389.557 54.7105C378.774 56.7038 368.163 58.9516 358.402 51.8831C350.93 46.4403 345.445 40.1494 346.41 29.8435C347.187 21.955 346.568 13.9393 346.568 5.96601Z" fill="#80B4FF"/>
</g>
<path d="M138 121H38V253H138V121Z" fill="white"/>
<path d="M61.3345 157.028C68.9816 157.028 75.1808 151.298 75.1808 144.229C75.1808 137.16 68.9816 131.43 61.3345 131.43C53.6875 131.43 47.4883 137.16 47.4883 144.229C47.4883 151.298 53.6875 157.028 61.3345 157.028Z" fill="#F2F2F2"/>
<path d="M128.004 134.274H97.2109V136.645H128.004V134.274Z" fill="#F2F2F2"/>
<path d="M123.146 134.274H97.2109V136.645H123.146V134.274Z" fill="#A9A9FF"/>
<path d="M128.004 141.855H97.2109V144.226H128.004V141.855Z" fill="#F2F2F2"/>
<path d="M128.004 149.441H97.2109V151.812H128.004V149.441Z" fill="#F2F2F2"/>
<path d="M128.004 157.026H97.2109V159.397H128.004V157.026Z" fill="#F2F2F2"/>
<path d="M128.004 164.61H97.2109V166.981H128.004V164.61Z" fill="#F2F2F2"/>
<path d="M88.7908 134.274H84.1484V136.645H88.7908V134.274Z" fill="#F2F2F2"/>
<path d="M88.7908 141.855H84.1484V144.226H88.7908V141.855Z" fill="#F2F2F2"/>
<path d="M88.7908 149.441H84.1484V151.812H88.7908V149.441Z" fill="#F2F2F2"/>
<path d="M88.7908 157.026H84.1484V159.397H88.7908V157.026Z" fill="#F2F2F2"/>
<path d="M88.7908 164.61H84.1484V166.981H88.7908V164.61Z" fill="#F2F2F2"/>
<path d="M75.1835 175.75H51.5938V193.763H75.1835V175.75Z" fill="#F2F2F2"/>
<path d="M74.345 176.623H52.5391V193.274H74.345V176.623Z" fill="#BEDCFF"/>
<path d="M75.1835 197.556H51.5938V215.569H75.1835V197.556Z" fill="#F2F2F2"/>
<path d="M75.1835 220.772H51.5938V238.786H75.1835V220.772Z" fill="#F2F2F2"/>
<path d="M127.995 189.146H84.1484V191.221H127.995V189.146Z" fill="#F2F2F2"/>
<path d="M128.69 184.755H92.6211V186.391H128.69V184.755Z" fill="#F2F2F2"/>
<path d="M127.995 195.69H84.1484V197.446H127.995V195.69Z" fill="#F2F2F2"/>
<path d="M127.995 201.599H84.1484V203.354H127.995V201.599Z" fill="#F2F2F2"/>
<path d="M127.995 207.503H84.1484V209.259H127.995V207.503Z" fill="#F2F2F2"/>
<path d="M127.995 213.408H84.1484V215.164H127.995V213.408Z" fill="#F2F2F2"/>
<path d="M127.995 219.312H84.1484V221.067H127.995V219.312Z" fill="#F2F2F2"/>
<path d="M127.995 225.221H84.1484V226.976H127.995V225.221Z" fill="#F2F2F2"/>
<path d="M127.995 231.125H84.1484V232.881H127.995V231.125Z" fill="#F2F2F2"/>
<path d="M127.995 237.03H84.1484V238.786H127.995V237.03Z" fill="#F2F2F2"/>
<path d="M125.482 141.855H97.2109V144.226H125.482V141.855Z" fill="#A9A9FF"/>
<path d="M118.59 149.441H97.2109V151.812H118.59V149.441Z" fill="#A9A9FF"/>
<path d="M110.996 157.026H97.2109V159.397H110.996V157.026Z" fill="#A9A9FF"/>
<path d="M115.669 164.61H97.2109V166.981H115.669V164.61Z" fill="#A9A9FF"/>
<path d="M74.345 198.236H52.5391V214.887H74.345V198.236Z" fill="#BEDCFF"/>
<path d="M74.345 221.457H52.5391V238.108H74.345V221.457Z" fill="#BEDCFF"/>
<path d="M250 63H150V195H250V63Z" fill="#7777F3"/>
<path d="M173.335 99.028C180.982 99.028 187.181 93.2977 187.181 86.2291C187.181 79.1604 180.982 73.4302 173.335 73.4302C165.687 73.4302 159.488 79.1604 159.488 86.2291C159.488 93.2977 165.687 99.028 173.335 99.028Z" fill="white"/>
<path d="M240.004 76.2744H209.211V78.6447H240.004V76.2744Z" fill="white"/>
<path d="M235.146 76.2744H209.211V78.6447H235.146V76.2744Z" fill="#A9A9FF"/>
<path d="M240.004 83.8555H209.211V86.2257H240.004V83.8555Z" fill="white"/>
<path d="M240.004 91.4414H209.211V93.8117H240.004V91.4414Z" fill="white"/>
<path d="M240.004 99.0264H209.211V101.397H240.004V99.0264Z" fill="white"/>
<path d="M240.004 106.611H209.211V108.982H240.004V106.611Z" fill="white"/>
<path d="M200.795 76.2744H196.152V78.6447H200.795V76.2744Z" fill="white"/>
<path d="M200.795 83.8555H196.152V86.2257H200.795V83.8555Z" fill="white"/>
<path d="M200.795 91.4419H196.152V93.8122H200.795V91.4419Z" fill="white"/>
<path d="M200.795 99.0264H196.152V101.397H200.795V99.0264Z" fill="white"/>
<path d="M200.795 106.611H196.152V108.981H200.795V106.611Z" fill="white"/>
<path d="M187.183 117.75H163.594V135.763H187.183V117.75Z" fill="white"/>
<path d="M186.345 118.623H164.539V135.274H186.345V118.623Z" fill="#EAF1F9"/>
<path d="M187.183 139.556H163.594V157.569H187.183V139.556Z" fill="white"/>
<path d="M187.183 162.772H163.594V180.785H187.183V162.772Z" fill="white"/>
<path d="M239.999 131.146H196.152V133.221H239.999V131.146Z" fill="white"/>
<path d="M240.686 126.756H204.617V128.392H240.686V126.756Z" fill="white"/>
<path d="M239.999 137.69H196.152V139.446H239.999V137.69Z" fill="white"/>
<path d="M239.999 143.599H196.152V145.354H239.999V143.599Z" fill="white"/>
<path d="M239.999 149.502H196.152V151.258H239.999V149.502Z" fill="white"/>
<path d="M239.999 155.408H196.152V157.164H239.999V155.408Z" fill="white"/>
<path d="M239.999 161.312H196.152V163.068H239.999V161.312Z" fill="white"/>
<path d="M239.999 167.221H196.152V168.976H239.999V167.221Z" fill="white"/>
<path d="M239.999 173.125H196.152V174.881H239.999V173.125Z" fill="white"/>
<path d="M239.999 179.03H196.152V180.786H239.999V179.03Z" fill="white"/>
<path d="M237.482 83.8555H209.211V86.2257H237.482V83.8555Z" fill="#A9A9FF"/>
<path d="M230.59 91.4414H209.211V93.8117H230.59V91.4414Z" fill="#A9A9FF"/>
<path d="M222.996 99.0264H209.211V101.397H222.996V99.0264Z" fill="#A9A9FF"/>
<path d="M227.669 106.611H209.211V108.982H227.669V106.611Z" fill="#A9A9FF"/>
<path d="M186.345 140.236H164.539V156.887H186.345V140.236Z" fill="#EAF1F9"/>
<path d="M186.345 163.457H164.539V180.108H186.345V163.457Z" fill="#EAF1F9"/>
<path d="M362 122H262V254H362V122Z" fill="#027858" fill-opacity="0.6"/>
<path d="M285.335 158.028C292.982 158.028 299.181 152.298 299.181 145.229C299.181 138.16 292.982 132.43 285.335 132.43C277.687 132.43 271.488 138.16 271.488 145.229C271.488 152.298 277.687 158.028 285.335 158.028Z" fill="white"/>
<path d="M352.004 135.274H321.211V137.645H352.004V135.274Z" fill="white"/>
<path d="M347.146 135.274H321.211V137.645H347.146V135.274Z" fill="#A9A9FF"/>
<path d="M352.004 142.855H321.211V145.226H352.004V142.855Z" fill="white"/>
<path d="M352.004 150.441H321.211V152.812H352.004V150.441Z" fill="white"/>
<path d="M352.004 158.026H321.211V160.397H352.004V158.026Z" fill="white"/>
<path d="M352.004 165.611H321.211V167.982H352.004V165.611Z" fill="white"/>
<path d="M312.795 135.274H308.152V137.645H312.795V135.274Z" fill="white"/>
<path d="M312.795 142.855H308.152V145.226H312.795V142.855Z" fill="white"/>
<path d="M312.795 150.442H308.152V152.812H312.795V150.442Z" fill="white"/>
<path d="M312.795 158.026H308.152V160.397H312.795V158.026Z" fill="white"/>
<path d="M312.795 165.611H308.152V167.981H312.795V165.611Z" fill="white"/>
<path d="M299.183 176.75H275.594V194.763H299.183V176.75Z" fill="white"/>
<path d="M298.345 177.623H276.539V194.274H298.345V177.623Z" fill="#EAF1F9"/>
<path d="M299.183 198.556H275.594V216.569H299.183V198.556Z" fill="white"/>
<path d="M299.183 221.772H275.594V239.785H299.183V221.772Z" fill="white"/>
<path d="M351.999 190.146H308.152V192.221H351.999V190.146Z" fill="white"/>
<path d="M352.686 185.756H316.617V187.392H352.686V185.756Z" fill="white"/>
<path d="M351.999 196.69H308.152V198.446H351.999V196.69Z" fill="white"/>
<path d="M351.999 202.599H308.152V204.354H351.999V202.599Z" fill="white"/>
<path d="M351.999 208.502H308.152V210.258H351.999V208.502Z" fill="white"/>
<path d="M351.999 214.408H308.152V216.164H351.999V214.408Z" fill="white"/>
<path d="M351.999 220.312H308.152V222.068H351.999V220.312Z" fill="white"/>
<path d="M351.999 226.221H308.152V227.976H351.999V226.221Z" fill="white"/>
<path d="M351.999 232.125H308.152V233.881H351.999V232.125Z" fill="white"/>
<path d="M351.999 238.03H308.152V239.786H351.999V238.03Z" fill="white"/>
<path d="M349.482 142.855H321.211V145.226H349.482V142.855Z" fill="#A9A9FF"/>
<path d="M342.59 150.441H321.211V152.812H342.59V150.441Z" fill="#A9A9FF"/>
<path d="M334.996 158.026H321.211V160.397H334.996V158.026Z" fill="#A9A9FF"/>
<path d="M339.669 165.611H321.211V167.982H339.669V165.611Z" fill="#A9A9FF"/>
<path d="M298.345 199.236H276.539V215.887H298.345V199.236Z" fill="#EAF1F9"/>
<path d="M298.345 222.457H276.539V239.108H298.345V222.457Z" fill="#EAF1F9"/>
<path d="M168.779 226.787C156.779 217.765 154.379 200.662 163.402 188.662C172.424 176.662 189.527 174.262 201.527 183.285C213.527 192.307 215.927 209.41 206.904 221.41C197.882 233.41 180.779 235.81 168.779 226.787ZM199.172 186.426C188.908 178.711 174.286 180.756 166.57 191.02C158.855 201.284 160.9 215.907 171.164 223.622C181.428 231.337 196.051 229.292 203.766 219.028C211.478 208.791 209.433 194.169 199.172 186.426Z" fill="#D6695D"/>
<path d="M140.433 264.269C137.389 262.016 136.761 257.719 139.062 254.722L151.503 238.384C153.776 235.384 158.126 234.776 161.167 237.057C164.21 239.31 164.839 243.608 162.538 246.604L150.097 262.943C147.796 265.939 143.477 266.523 140.433 264.269Z" fill="#312DA4"/>
<path d="M172.665 226.099L168.434 222.912L139.157 261.783L143.388 264.97L172.665 226.099Z" fill="#D6695D"/>
<path d="M165.758 226.471C153.885 217.546 151.511 200.629 160.437 188.76C169.363 176.89 186.284 174.517 198.157 183.442C210.03 192.367 212.404 209.284 203.478 221.154C194.551 233.023 177.627 235.423 165.758 226.471ZM195.824 186.576C185.669 178.944 171.202 180.967 163.569 191.119C155.936 201.272 157.96 215.736 168.115 223.367C178.27 230.999 192.737 228.977 200.37 218.824C208.003 208.672 205.979 194.208 195.824 186.576Z" fill="url(#paint0_linear_6478_115189)"/>
<path d="M140.299 265.195L136.101 261.976L165.206 222.576L169.377 225.792L140.299 265.195Z" fill="url(#paint1_linear_6478_115189)"/>
<path d="M137.411 264.507C134.448 262.235 133.843 257.968 136.098 254.966L148.29 238.599C150.518 235.595 154.767 234.975 157.73 237.247C160.697 239.491 161.299 243.786 159.044 246.788L146.851 263.154C144.624 266.159 140.378 266.751 137.411 264.507Z" fill="url(#paint2_linear_6478_115189)"/>
<path opacity="0.6" d="M179.648 227.722C192.359 229.174 203.84 220.047 205.292 207.336C206.743 194.626 197.616 183.145 184.905 181.693C172.195 180.241 160.714 189.368 159.262 202.079C157.81 214.79 166.938 226.271 179.648 227.722Z" fill="white"/>
</g>
</g>
<defs>
<filter id="filter0_dd_6478_115189" x="0" y="0" width="400" height="320" filterUnits="userSpaceOnUse" color-interpolation-filters="sRGB">
<feFlood flood-opacity="0" result="BackgroundImageFix"/>
<feColorMatrix in="SourceAlpha" type="matrix" values="0 0 0 0 0 0 0 0 0 0 0 0 0 0 0 0 0 0 127 0" result="hardAlpha"/>
<feOffset dy="2"/>
<feGaussianBlur stdDeviation="5"/>
<feColorMatrix type="matrix" values="0 0 0 0 0 0 0 0 0 0 0 0 0 0 0 0 0 0 0.1 0"/>
<feBlend mode="normal" in2="BackgroundImageFix" result="effect1_dropShadow_6478_115189"/>
<feColorMatrix in="SourceAlpha" type="matrix" values="0 0 0 0 0 0 0 0 0 0 0 0 0 0 0 0 0 0 127 0" result="hardAlpha"/>
<feOffset/>
<feGaussianBlur stdDeviation="1"/>
<feColorMatrix type="matrix" values="0 0 0 0 0 0 0 0 0 0 0 0 0 0 0 0 0 0 0.2 0"/>
<feBlend mode="normal" in2="effect1_dropShadow_6478_115189" result="effect2_dropShadow_6478_115189"/>
<feBlend mode="normal" in="SourceGraphic" in2="effect2_dropShadow_6478_115189" result="shape"/>
</filter>
<linearGradient id="paint0_linear_6478_115189" x1="148.15" y1="223.885" x2="202.66" y2="193.387" gradientUnits="userSpaceOnUse">
<stop stop-color="#EB6C85"/>
<stop offset="0.2154" stop-color="#ED7281"/>
<stop offset="0.4896" stop-color="#F18176"/>
<stop offset="0.7943" stop-color="#F99B63"/>
<stop offset="1" stop-color="#FFB154"/>
</linearGradient>
<linearGradient id="paint1_linear_6478_115189" x1="157.594" y1="241.108" x2="212.666" y2="211.067" gradientUnits="userSpaceOnUse">
<stop stop-color="#EB6C85"/>
<stop offset="0.2154" stop-color="#ED7281"/>
<stop offset="0.4896" stop-color="#F18176"/>
<stop offset="0.7943" stop-color="#F99B63"/>
<stop offset="1" stop-color="#FFB154"/>
</linearGradient>
<linearGradient id="paint2_linear_6478_115189" x1="134.953" y1="250.591" x2="160.202" y2="251.212" gradientUnits="userSpaceOnUse">
<stop offset="8e-08" stop-color="#3934C4"/>
<stop offset="0.272" stop-color="#3F39C9"/>
<stop offset="0.6182" stop-color="#4E47D7"/>
<stop offset="1" stop-color="#685EEE"/>
</linearGradient>
<clipPath id="clip0_6478_115189">
<rect x="10" y="8" width="380" height="300" rx="24" fill="white"/>
</clipPath>
<clipPath id="clip1_6478_115189">
<rect width="163" height="163" fill="white" transform="matrix(-1 0 0 1 125 186)"/>
</clipPath>
<clipPath id="clip2_6478_115189">
<rect width="163" height="163" fill="white" transform="matrix(-1 0 0 1 471 -72)"/>
</clipPath>
</defs>
</svg>
