<svg width="400" height="320" viewBox="0 0 400 320" fill="none" xmlns="http://www.w3.org/2000/svg">
<g filter="url(#filter0_dd_6478_115348)">
<g clip-path="url(#clip0_6478_115348)">
<rect x="10" y="8" width="380" height="300" rx="24" fill="#FFA1A1"/>
<rect x="100" y="107" width="190" height="233" rx="3.06452" fill="white"/>
<g clip-path="url(#clip1_6478_115348)">
<rect x="115.789" y="124.788" width="43.2121" height="43.2121" rx="21.6061" fill="#B7D2FF"/>
<circle cx="137.396" cy="138.678" r="6.17316" fill="#0061FF"/>
<circle cx="137.395" cy="166.457" r="20.0628" fill="#0061FF"/>
</g>
<rect x="166" y="128" width="36" height="6" rx="3" fill="#F2F2F2"/>
<rect x="166" y="140" width="108" height="4" rx="2" fill="#F2F2F2"/>
<rect x="117" y="255" width="157" height="8" rx="4" fill="#F2F2F2"/>
<rect x="117" y="267" width="157" height="8" rx="4" fill="#F2F2F2"/>
<rect x="117" y="279" width="157" height="8" rx="4" fill="#F2F2F2"/>
<rect x="117" y="291" width="79" height="8" rx="4" fill="#F2F2F2"/>
<rect x="166" y="184" width="108" height="14" rx="5" fill="#F2F2F2"/>
<rect x="166" y="204" width="108" height="14" rx="5" fill="#F2F2F2"/>
<rect x="166" y="224" width="108" height="14" rx="5" fill="#F2F2F2"/>
<rect x="116" y="184" width="43" height="47" rx="5" fill="#FDFDFD"/>
<rect x="166" y="148" width="108" height="4" rx="2" fill="#F2F2F2"/>
<rect x="166" y="156" width="57" height="4" rx="2" fill="#F2F2F2"/>
<rect x="100" y="176" width="190" height="0.3" rx="0.15" fill="#B7D2FF"/>
<rect x="100" y="246" width="190" height="0.3" rx="0.15" fill="#B7D2FF"/>
<rect x="100" y="307" width="190" height="0.3" rx="0.15" fill="#B7D2FF"/>
<rect x="121" y="192" width="33" height="3" rx="1.5" fill="#F2F2F2"/>
<rect x="121" y="198" width="22" height="3" rx="1.5" fill="#F2F2F2"/>
<rect x="121" y="203" width="22" height="3" rx="1.5" fill="#F2F2F2"/>
<rect x="121" y="210" width="13" height="13" rx="6.5" fill="#F2F2F2"/>
<circle cx="174" cy="191" r="5" fill="#B7D2FF"/>
<circle cx="174" cy="211" r="5" fill="#FFA1A1"/>
<circle cx="174" cy="231" r="5" fill="#FFC77A"/>
<rect x="182" y="188" width="83" height="3" rx="1.5" fill="#DADADA"/>
<rect x="182" y="208" width="83" height="3" rx="1.5" fill="#DADADA"/>
<rect x="182" y="228" width="83" height="3" rx="1.5" fill="#DADADA"/>
<rect x="182" y="193" width="33" height="3" rx="1.5" fill="#DADADA"/>
<rect x="182" y="213" width="33" height="3" rx="1.5" fill="#DADADA"/>
<rect x="182" y="233" width="33" height="3" rx="1.5" fill="#DADADA"/>
<rect x="240" y="57.7012" width="66" height="40" rx="8" transform="rotate(-24.8166 240 57.7012)" fill="white"/>
<path d="M261.438 76.4327L263.326 75.5599L262.019 67.169L262.101 67.1308L267.643 73.5639L269.53 72.6911L267.627 60.7509L265.569 61.7024L267.258 70.349L267.165 70.3919L261.536 63.5673L259.664 64.4329L261.221 73.134L261.123 73.1793L255.631 66.2978L253.574 67.2493L261.438 76.4327ZM280.106 61.3904C278.527 57.9764 275.514 56.9285 272.744 58.2092C269.97 59.4921 268.822 62.4645 270.4 65.8785C271.977 69.2874 274.987 70.3428 277.762 69.0598C280.531 67.7792 281.685 64.8044 280.106 61.3904ZM278.182 62.2799C279.294 64.6831 278.69 66.5459 276.968 67.3424C275.251 68.1366 273.435 67.3922 272.324 64.989C271.213 62.5858 271.821 60.7206 273.539 59.9265C275.261 59.13 277.071 59.8767 278.182 62.2799ZM284.197 65.9087L286.11 65.024L284.322 61.1561L286.271 60.2547L290.133 63.1639L292.268 62.1766L288.047 59.0455C289.059 57.9705 289.222 56.6053 288.559 55.1716C287.627 53.1551 285.698 52.3946 283.274 53.5154L279.313 55.3469L284.197 65.9087ZM283.587 59.5677L281.966 56.0609L283.719 55.2501C285.148 54.5895 286.09 54.9487 286.61 56.073C287.13 57.1973 286.769 58.0964 285.351 58.7522L283.587 59.5677ZM297.062 59.9599C300.28 58.4718 301.267 55.5988 299.741 52.2983C298.22 49.008 295.396 47.91 292.25 49.3647L288.599 51.0531L293.483 61.6149L297.062 59.9599ZM294.631 59.0748L291.278 51.8238L292.907 51.0702C295.053 50.0782 296.725 50.7572 297.843 53.1758C298.967 55.6049 298.406 57.3291 296.203 58.3474L294.631 59.0748Z" fill="#FD6060"/>
<path d="M343.772 35.3303L352.899 50.7922L346.365 53.0965L343.772 35.3303Z" fill="#EAD300"/>
<path d="M297.197 51.6826L311.495 50.3591L311.069 55.7752L297.197 51.6826Z" fill="#EA0000"/>
<circle cx="328.5" cy="57.5" r="1.5" fill="#9F00EA"/>
<circle cx="331.5" cy="42.5" r="3.5" fill="#EAA900"/>
<rect x="314" y="71.1431" width="10" height="5" transform="rotate(-45.5869 314 71.1431)" fill="#EAA900"/>
<rect x="361.873" y="36" width="3" height="5" transform="rotate(21.9912 361.873 36)" fill="#EA0000"/>
<rect x="327.404" y="31.5156" width="12" height="4" transform="rotate(-116.768 327.404 31.5156)" fill="#EA0000"/>
<path d="M288.001 44.5575C288.001 44.5575 294.395 41.3727 295.845 43.042C296.642 43.9591 297.244 45.0698 296.53 45.9722C295.98 46.6679 295.186 46.7566 294.255 46.5931C292.284 46.247 292.314 43.5101 293.105 41.8151C294.198 39.4747 299.996 40.8561 299.996 40.8561" stroke="#05EA00" stroke-width="1.2"/>
<path d="M310.082 64C310.082 64 309.595 61.1082 310.992 60.5318C312.166 60.0476 313.184 62.189 314.148 61.4127C315.125 60.6263 312.686 59.3805 313.48 58.4399C314.316 57.4501 317 58.4399 317 58.4399" stroke="#005EEA" stroke-width="1.2"/>
<path d="M306.808 27.5C306.808 29.9853 310.791 32 308.019 32C305.247 32 303 29.9853 303 27.5C303 25.0147 305.247 23 308.019 23C310.791 23 306.808 25.0147 306.808 27.5Z" fill="#9F00EA"/>
<path d="M365.239 56.7445C366.888 56.9105 368.49 54.4027 368.305 56.2414C368.12 58.08 366.633 59.4361 364.985 59.2702C363.336 59.1042 362.15 57.4792 362.335 55.6405C362.52 53.8018 363.591 56.5786 365.239 56.7445Z" fill="#005EEA"/>
<path d="M350 61L351.123 64.4549H354.755L351.816 66.5902L352.939 70.0451L350 67.9098L347.061 70.0451L348.184 66.5902L345.245 64.4549H348.877L350 61Z" fill="#05EA00"/>
<path d="M314 44L314.674 46.0729H316.853L315.09 47.3541L315.763 49.4271L314 48.1459L312.237 49.4271L312.91 47.3541L311.147 46.0729H313.326L314 44Z" fill="#EAD300"/>
<path d="M341.673 31.3155L342.171 27.0202L345.643 29.2211L346.039 25.6179L349.205 27.7993L350.191 23.9039" stroke="#005EEA"/>
<path d="M71.7723 32.3303L80.8985 47.7922L74.3648 50.0965L71.7723 32.3303Z" fill="#EAD300"/>
<path d="M131.772 34.3303L140.899 49.7922L134.365 52.0965L131.772 34.3303Z" fill="#EAD300"/>
<path d="M25.1972 48.6826L39.4949 47.3591L39.0688 52.7752L25.1972 48.6826Z" fill="#EA0000"/>
<circle cx="56.5" cy="54.5" r="1.5" fill="#9F00EA"/>
<circle cx="59.5" cy="39.5" r="3.5" fill="#EAA900"/>
<rect x="42" y="68.1431" width="10" height="5" transform="rotate(-45.5869 42 68.1431)" fill="#EAA900"/>
<rect x="89.873" y="33" width="3" height="5" transform="rotate(21.9912 89.873 33)" fill="#EA0000"/>
<rect x="55.4043" y="28.5156" width="12" height="4" transform="rotate(-116.768 55.4043 28.5156)" fill="#EA0000"/>
<path d="M16.0006 41.5575C16.0006 41.5575 22.3949 38.3727 23.8454 40.042C24.6423 40.9591 25.2441 42.0698 24.5304 42.9722C23.9802 43.6679 23.1859 43.7566 22.2553 43.5931C20.2844 43.247 20.3143 40.5101 21.1054 38.8151C22.1977 36.4747 27.9962 37.8561 27.9962 37.8561" stroke="#05EA00" stroke-width="1.2"/>
<path d="M38.0821 61C38.0821 61 37.5953 58.1082 38.9924 57.5318C40.166 57.0476 41.1835 59.189 42.1479 58.4127C43.1247 57.6263 40.6862 56.3805 41.4804 55.4399C42.3162 54.4501 45 55.4399 45 55.4399" stroke="#005EEA" stroke-width="1.2"/>
<path d="M34.8076 24.5C34.8076 26.9853 38.791 29 36.0191 29C33.2471 29 31 26.9853 31 24.5C31 22.0147 33.2471 20 36.0191 20C38.791 20 34.8076 22.0147 34.8076 24.5Z" fill="#9F00EA"/>
<path d="M93.2391 53.7445C94.8876 53.9105 96.49 51.4027 96.3049 53.2414C96.1199 55.08 94.6334 56.4361 92.9849 56.2702C91.3364 56.1042 90.15 54.4792 90.3351 52.6405C90.5201 50.8018 91.5906 53.5786 93.2391 53.7445Z" fill="#005EEA"/>
<path d="M78 58L79.1226 61.4549H82.7553L79.8164 63.5902L80.9389 67.0451L78 64.9098L75.0611 67.0451L76.1836 63.5902L73.2447 61.4549H76.8774L78 58Z" fill="#05EA00"/>
<path d="M42 41L42.6735 43.0729H44.8532L43.0898 44.3541L43.7634 46.4271L42 45.1459L40.2366 46.4271L40.9102 44.3541L39.1468 43.0729H41.3265L42 41Z" fill="#EAD300"/>
<path d="M69.6732 28.3155L70.1712 24.0202L73.6429 26.2211L74.0386 22.6179L77.2052 24.7993L78.1915 20.9039" stroke="#005EEA"/>
<path d="M236.185 22.4798L249.307 44.7103L239.913 48.0233L236.185 22.4798Z" fill="#EAD300"/>
<path d="M169.221 45.99L189.778 44.0871L189.165 51.8742L169.221 45.99Z" fill="#EA0000"/>
<circle cx="214.231" cy="54.3539" r="2.15663" fill="#9F00EA"/>
<circle cx="218.544" cy="32.787" r="5.03215" fill="#EAA900"/>
<rect x="193.383" y="73.9697" width="14.3776" height="7.18878" transform="rotate(-45.5869 193.383 73.9697)" fill="#EAA900"/>
<rect x="262.213" y="23.4414" width="4.31327" height="7.18878" transform="rotate(21.9912 262.213 23.4414)" fill="#EA0000"/>
<rect x="212.652" y="16.9946" width="17.2531" height="5.75102" transform="rotate(-116.768 212.652 16.9946)" fill="#EA0000"/>
<path d="M156.002 35.7448C156.002 35.7448 165.195 31.1658 167.281 33.5658C168.426 34.8843 169.292 36.4813 168.265 37.7788C167.474 38.779 166.332 38.9065 164.994 38.6715C162.161 38.1738 162.204 34.2388 163.341 31.8018C164.912 28.437 173.248 30.423 173.248 30.423" stroke="#05EA00" stroke-width="1.72531"/>
<path d="M187.747 63.6988C187.747 63.6988 187.047 59.5411 189.056 58.7124C190.743 58.0163 192.206 61.095 193.593 59.9788C194.997 58.8482 191.491 57.0571 192.633 55.7048C193.835 54.2816 197.693 55.7048 197.693 55.7048" stroke="#005EEA" stroke-width="1.72531"/>
<path d="M183.041 11.2209C183.041 14.7941 188.768 17.6908 184.783 17.6908C180.797 17.6908 177.566 14.7941 177.566 11.2209C177.566 7.64765 180.797 4.75098 184.783 4.75098C188.768 4.75098 183.041 7.64765 183.041 11.2209Z" fill="#9F00EA"/>
<path d="M267.052 53.2675C269.422 53.5061 271.726 49.9005 271.459 52.5441C271.193 55.1876 269.056 57.1373 266.686 56.8987C264.316 56.6602 262.61 54.3238 262.876 51.6802C263.142 49.0366 264.681 53.029 267.052 53.2675Z" fill="#005EEA"/>
<path d="M245.142 59.3857L246.756 64.3531H251.979L247.753 67.423L249.367 72.3904L245.142 69.3204L240.916 72.3904L242.53 67.423L238.305 64.3531H243.528L245.142 59.3857Z" fill="#05EA00"/>
<path d="M193.384 34.9443L194.352 37.9247H197.486L194.95 39.7667L195.919 42.7471L193.384 40.9051L190.848 42.7471L191.817 39.7667L189.281 37.9247H192.415L193.384 34.9443Z" fill="#EAD300"/>
<path d="M233.167 16.7074L233.883 10.5319L238.875 13.6962L239.444 8.51561L243.997 11.6519L245.415 6.05128" stroke="#005EEA" stroke-width="1.43776"/>
<rect x="159" y="53.79" width="52" height="40" rx="8" transform="rotate(-16.5245 159 53.79)" fill="white"/>
<path d="M175.165 76.1142L182.1 74.057L181.597 72.3629L176.684 73.8206L173.877 64.3589L171.856 64.9584L175.165 76.1142ZM182.396 61.8313L180.375 62.4309L183.685 73.5867L185.706 72.9871L182.396 61.8313ZM193.583 58.5123L191.573 59.1087L193.829 66.7129L193.731 66.742L186.224 60.6956L184.416 61.2322L187.725 72.3879L189.746 71.7884L187.492 64.1896L187.584 64.1621L195.095 70.2014L196.893 69.6681L193.583 58.5123ZM198.926 69.0649L200.947 68.4653L199.961 65.1425L200.765 63.3159L205.512 67.1111L207.941 66.3903L201.764 61.5317L204.593 55.2458L202.126 55.9779L199.294 62.3949L199.158 62.4353L197.637 57.3095L195.616 57.9091L198.926 69.0649Z" fill="#FD6060"/>
<rect x="80" y="51.1699" width="47" height="40" rx="8" transform="rotate(-8.77475 80 51.1699)" fill="white"/>
<path d="M93.0072 75.4702L95.0904 75.1486L94.4906 71.2628L96.6918 70.9231C99.3479 70.5131 100.528 68.6982 100.187 66.4857C99.8476 64.2901 98.1894 62.8961 95.5446 63.3044L91.232 63.97L93.0072 75.4702ZM94.2263 69.5502L93.584 65.3892L95.4932 65.0945C97.0543 64.8535 97.875 65.5892 98.0639 66.8134C98.2529 68.0375 97.6965 69.0145 96.1467 69.2537L94.2263 69.5502ZM106.907 73.3247C110.411 72.7839 112.154 70.2956 111.599 66.7018C111.046 63.1193 108.635 61.2837 105.21 61.8124L101.234 62.4261L103.01 73.9263L106.907 73.3247ZM104.815 71.8022L103.596 63.907L105.37 63.6331C107.706 63.2726 109.126 64.3872 109.532 67.0208C109.941 69.6656 108.925 71.1677 106.527 71.5378L104.815 71.8022ZM114.294 72.1845L116.377 71.8629L115.623 66.9776L120.402 66.24L120.132 64.4936L115.353 65.2312L114.871 62.1091L120.155 61.2935L119.886 59.5471L112.519 60.6843L114.294 72.1845Z" fill="#FD6060"/>
</g>
</g>
<defs>
<filter id="filter0_dd_6478_115348" x="0" y="0" width="400" height="320" filterUnits="userSpaceOnUse" color-interpolation-filters="sRGB">
<feFlood flood-opacity="0" result="BackgroundImageFix"/>
<feColorMatrix in="SourceAlpha" type="matrix" values="0 0 0 0 0 0 0 0 0 0 0 0 0 0 0 0 0 0 127 0" result="hardAlpha"/>
<feOffset dy="2"/>
<feGaussianBlur stdDeviation="5"/>
<feColorMatrix type="matrix" values="0 0 0 0 0 0 0 0 0 0 0 0 0 0 0 0 0 0 0.1 0"/>
<feBlend mode="normal" in2="BackgroundImageFix" result="effect1_dropShadow_6478_115348"/>
<feColorMatrix in="SourceAlpha" type="matrix" values="0 0 0 0 0 0 0 0 0 0 0 0 0 0 0 0 0 0 127 0" result="hardAlpha"/>
<feOffset/>
<feGaussianBlur stdDeviation="1"/>
<feColorMatrix type="matrix" values="0 0 0 0 0 0 0 0 0 0 0 0 0 0 0 0 0 0 0.2 0"/>
<feBlend mode="normal" in2="effect1_dropShadow_6478_115348" result="effect2_dropShadow_6478_115348"/>
<feBlend mode="normal" in="SourceGraphic" in2="effect2_dropShadow_6478_115348" result="shape"/>
</filter>
<clipPath id="clip0_6478_115348">
<rect x="10" y="8" width="380" height="300" rx="24" fill="white"/>
</clipPath>
<clipPath id="clip1_6478_115348">
<rect x="115.789" y="124.788" width="43.2121" height="43.2121" rx="21.6061" fill="white"/>
</clipPath>
</defs>
</svg>
