<svg width="16" height="16" viewBox="0 0 16 16" fill="none" xmlns="http://www.w3.org/2000/svg">
<path d="M13.25 8.66699C13.25 11.5665 10.8995 13.917 8 13.917V15.417C11.7279 15.417 14.75 12.3949 14.75 8.66699H13.25ZM8 13.917C5.1005 13.917 2.75 11.5665 2.75 8.66699H1.25C1.25 12.3949 4.27208 15.417 8 15.417V13.917ZM2.75 8.66699C2.75 5.7675 5.1005 3.41699 8 3.41699V1.91699C4.27208 1.91699 1.25 4.93907 1.25 8.66699H2.75ZM8 3.41699C10.8995 3.41699 13.25 5.7675 13.25 8.66699H14.75C14.75 4.93907 11.7279 1.91699 8 1.91699V3.41699ZM10.5833 8.66699C10.5833 10.0937 9.42674 11.2503 8 11.2503V12.7503C10.2552 12.7503 12.0833 10.9222 12.0833 8.66699H10.5833ZM8 11.2503C6.57326 11.2503 5.41667 10.0937 5.41667 8.66699H3.91667C3.91667 10.9222 5.74484 12.7503 8 12.7503V11.2503ZM5.41667 8.66699C5.41667 7.24026 6.57326 6.08366 8 6.08366V4.58366C5.74484 4.58366 3.91667 6.41183 3.91667 8.66699H5.41667ZM8 6.08366C9.42674 6.08366 10.5833 7.24026 10.5833 8.66699H12.0833C12.0833 6.41183 10.2552 4.58366 8 4.58366V6.08366ZM6.58333 8.66699C6.58333 9.4494 7.2176 10.0837 8 10.0837V8.58366C8.04602 8.58366 8.08333 8.62097 8.08333 8.66699H6.58333ZM8 10.0837C8.7824 10.0837 9.41667 9.4494 9.41667 8.66699H7.91667C7.91667 8.62097 7.95398 8.58366 8 8.58366V10.0837ZM9.41667 8.66699C9.41667 7.88459 8.7824 7.25033 8 7.25033V8.75033C7.95398 8.75033 7.91667 8.71302 7.91667 8.66699H9.41667ZM8 7.25033C7.2176 7.25033 6.58333 7.88459 6.58333 8.66699H8.08333C8.08333 8.71302 8.04602 8.75033 8 8.75033V7.25033Z" fill="#282C3F"/>
<path fill-rule="evenodd" clip-rule="evenodd" d="M12.2079 0.670911L12.9503 2.00424L14.3479 2.26196L13.022 4.04531L11.9043 4.0189L8.38445 8.75315C8.21969 8.97475 7.90648 9.02084 7.68488 8.85608C7.46327 8.69132 7.41719 8.37811 7.58195 8.1565L11.1248 3.39124L10.882 2.45426L12.2079 0.670911Z" fill="#282C3F"/>
</svg>
