<svg width="54" height="54" viewBox="0 0 54 54" fill="none" xmlns="http://www.w3.org/2000/svg">
<rect width="54" height="54" rx="27" fill="#FFD0D5"/>
<path d="M39.75 28.416C39.75 35.4576 34.0416 41.166 27 41.166C19.9584 41.166 14.25 35.4576 14.25 28.416C14.25 21.3744 19.9584 15.666 27 15.666C34.0416 15.666 39.75 21.3744 39.75 28.416Z" stroke="#FF5365" stroke-width="2"/>
<path d="M34.0833 28.416C34.0833 32.328 30.912 35.4993 27 35.4993C23.088 35.4993 19.9167 32.328 19.9167 28.416C19.9167 24.504 23.088 21.3327 27 21.3327C30.912 21.3327 34.0833 24.504 34.0833 28.416Z" stroke="#FF5365" stroke-width="2"/>
<path d="M25.5833 28.416C25.5833 29.1984 26.2176 29.8327 27 29.8327C27.7824 29.8327 28.4167 29.1984 28.4167 28.416C28.4167 27.6336 27.7824 26.9993 27 26.9993C26.2176 26.9993 25.5833 27.6336 25.5833 28.416Z" stroke="#FF5365" stroke-width="2"/>
<path fill-rule="evenodd" clip-rule="evenodd" d="M35.9427 11.4238L37.5204 14.2572L40.4902 14.8048L37.6727 18.5944L35.2983 18.5383L27.8186 28.5988C27.4684 29.0697 26.8029 29.1677 26.332 28.8175C25.861 28.4674 25.7631 27.8019 26.1132 27.3309L33.6414 17.2053L33.1252 15.2134L35.9427 11.4238Z" fill="#323232"/>
</svg>
