<svg width="25" height="24" viewBox="0 0 25 24" fill="none" xmlns="http://www.w3.org/2000/svg">
<path d="M10.5 4C10.5 3.60444 10.6173 3.21776 10.8371 2.88886C11.0568 2.55996 11.3692 2.30362 11.7346 2.15224C12.1001 2.00087 12.5022 1.96126 12.8902 2.03843C13.2781 2.1156 13.6345 2.30608 13.9142 2.58579C14.1939 2.86549 14.3844 3.22186 14.4616 3.60982C14.5387 3.99778 14.4991 4.39992 14.3478 4.76537C14.1964 5.13082 13.94 5.44318 13.6111 5.66294C13.2822 5.8827 12.8956 6 12.5 6C11.9696 6 11.4609 5.78929 11.0858 5.41421C10.7107 5.03914 10.5 4.53043 10.5 4ZM12.5 14C12.8956 14 13.2822 13.8827 13.6111 13.6629C13.94 13.4432 14.1964 13.1308 14.3478 12.7654C14.4991 12.3999 14.5387 11.9978 14.4616 11.6098C14.3844 11.2219 14.1939 10.8655 13.9142 10.5858C13.6345 10.3061 13.2781 10.1156 12.8902 10.0384C12.5022 9.96126 12.1001 10.0009 11.7346 10.1522C11.3692 10.3036 11.0568 10.56 10.8371 10.8889C10.6173 11.2178 10.5 11.6044 10.5 12C10.5 12.5304 10.7107 13.0391 11.0858 13.4142C11.4609 13.7893 11.9696 14 12.5 14ZM12.5 22C12.8956 22 13.2822 21.8827 13.6111 21.6629C13.94 21.4432 14.1964 21.1308 14.3478 20.7654C14.4991 20.3999 14.5387 19.9978 14.4616 19.6098C14.3844 19.2219 14.1939 18.8655 13.9142 18.5858C13.6345 18.3061 13.2781 18.1156 12.8902 18.0384C12.5022 17.9613 12.1001 18.0009 11.7346 18.1522C11.3692 18.3036 11.0568 18.56 10.8371 18.8889C10.6173 19.2178 10.5 19.6044 10.5 20C10.5 20.5304 10.7107 21.0391 11.0858 21.4142C11.4609 21.7893 11.9696 22 12.5 22Z" fill="white"/>
</svg>
