<svg width="24" height="24" viewBox="0 0 24 24" fill="none" xmlns="http://www.w3.org/2000/svg">
<path d="M5.55382 10.8491C5.32157 12.1731 5.50136 13.5365 6.06889 14.7551C6.63642 15.9737 7.56435 16.9887 8.72727 17.6629V20.7273C8.72727 21.5953 9.07208 22.4277 9.68583 23.0414C10.2996 23.6552 11.132 24 12 24C12.868 24 13.7004 23.6552 14.3142 23.0414C14.9279 22.4277 15.2727 21.5953 15.2727 20.7273V17.6629C16.2252 17.1126 17.0237 16.331 17.5942 15.3905C18.1648 14.45 18.4892 13.3808 18.5373 12.2818C18.5854 11.1828 18.3558 10.0894 17.8696 9.10261C17.3834 8.11582 16.6563 7.26748 15.7556 6.63597C14.8548 6.00447 13.8095 5.61017 12.716 5.48951C11.6226 5.36885 10.5164 5.52572 9.49964 5.94563C8.48287 6.36553 7.58833 7.03493 6.89867 7.89196C6.20902 8.749 5.74649 9.76603 5.55382 10.8491ZM12.0087 7.63636C13.0089 7.63505 13.9783 7.98222 14.7502 8.61818C15.3306 9.09039 15.7799 9.70394 16.0549 10.3999C16.3298 11.0958 16.4212 11.8508 16.3202 12.5922C16.2191 13.3336 15.9292 14.0366 15.4781 14.6337C15.027 15.2307 14.43 15.7017 13.7444 16.0015C13.5499 16.0863 13.3844 16.2261 13.2682 16.4035C13.1519 16.581 13.0899 16.7886 13.0898 17.0007V20.7273C13.0898 21.0166 12.9749 21.2941 12.7703 21.4987C12.5657 21.7032 12.2882 21.8182 11.9989 21.8182C11.7096 21.8182 11.4321 21.7032 11.2275 21.4987C11.0229 21.2941 10.908 21.0166 10.908 20.7273V16.9942C10.9079 16.782 10.8459 16.5745 10.7297 16.397C10.6134 16.2195 10.4479 16.0798 10.2535 15.9949C9.40938 15.6273 8.70321 15.0021 8.23597 14.2088C7.76874 13.4155 7.56438 12.4948 7.65214 11.5783C7.7399 10.6618 8.11528 9.7966 8.72458 9.1064C9.33387 8.4162 10.1459 7.9364 11.0444 7.73564C11.3615 7.66942 11.6847 7.63615 12.0087 7.63636ZM12 3.27273C11.7107 3.27273 11.4332 3.15779 11.2286 2.95321C11.024 2.74862 10.9091 2.47115 10.9091 2.18182V1.09091C10.9091 0.801582 11.024 0.524105 11.2286 0.31952C11.4332 0.114935 11.7107 0 12 0C12.2893 0 12.5668 0.114935 12.7714 0.31952C12.976 0.524105 13.0909 0.801582 13.0909 1.09091V2.18182C13.0909 2.47115 12.976 2.74862 12.7714 2.95321C12.5668 3.15779 12.2893 3.27273 12 3.27273ZM20.4851 5.05746L19.7138 5.82873C19.5081 6.02745 19.2325 6.1374 18.9465 6.13492C18.6604 6.13243 18.3868 6.0177 18.1846 5.81544C17.9823 5.61318 17.8676 5.33956 17.8651 5.05353C17.8626 4.7675 17.9726 4.49193 18.1713 4.28618L18.9425 3.51491C19.1483 3.31619 19.4239 3.20623 19.7099 3.20872C19.9959 3.2112 20.2695 3.32593 20.4718 3.5282C20.6741 3.73046 20.7888 4.00408 20.7913 4.29011C20.7938 4.57614 20.6838 4.85171 20.4851 5.05746ZM4.28618 20.8047C4.07045 20.8047 3.85958 20.7407 3.68023 20.6208C3.50087 20.5009 3.36108 20.3306 3.27853 20.1313C3.19598 19.932 3.17438 19.7126 3.21645 19.5011C3.25853 19.2895 3.36239 19.0951 3.51491 18.9425L4.28509 18.1713C4.38638 18.0699 4.50663 17.9895 4.639 17.9346C4.77136 17.8797 4.91323 17.8515 5.05652 17.8514C5.19981 17.8514 5.34171 17.8795 5.47411 17.9343C5.60651 17.9891 5.72683 18.0694 5.82818 18.1707C5.92954 18.272 6.00995 18.3923 6.06483 18.5246C6.11972 18.657 6.14799 18.7989 6.14804 18.9422C6.14809 19.0854 6.11992 19.2273 6.06513 19.3597C6.01034 19.4921 5.93001 19.6125 5.82873 19.7138L5.05855 20.4851C4.95714 20.5865 4.83672 20.667 4.70419 20.7218C4.57166 20.7767 4.42961 20.8048 4.28618 20.8047ZM24 12C24 12.2893 23.8851 12.5668 23.6805 12.7714C23.4759 12.976 23.1984 13.0909 22.9091 13.0909H21.8182C21.5289 13.0909 21.2514 12.976 21.0468 12.7714C20.8422 12.5668 20.7273 12.2893 20.7273 12C20.7273 11.7107 20.8422 11.4332 21.0468 11.2286C21.2514 11.024 21.5289 10.9091 21.8182 10.9091H22.9091C23.1984 10.9091 23.4759 11.024 23.6805 11.2286C23.8851 11.4332 24 11.7107 24 12ZM3.27273 12C3.27273 12.2893 3.15779 12.5668 2.95321 12.7714C2.74862 12.976 2.47115 13.0909 2.18182 13.0909H1.09091C0.801582 13.0909 0.524105 12.976 0.31952 12.7714C0.114935 12.5668 0 12.2893 0 12C0 11.7107 0.114935 11.4332 0.31952 11.2286C0.524105 11.024 0.801582 10.9091 1.09091 10.9091H2.18182C2.47115 10.9091 2.74862 11.024 2.95321 11.2286C3.15779 11.4332 3.27273 11.7107 3.27273 12ZM20.4851 18.9425C20.5893 19.0432 20.6724 19.1636 20.7296 19.2966C20.7867 19.4297 20.8168 19.5729 20.8181 19.7177C20.8194 19.8626 20.7917 20.0062 20.7369 20.1403C20.682 20.2744 20.601 20.3962 20.4986 20.4986C20.3962 20.601 20.2744 20.682 20.1403 20.7369C20.0062 20.7917 19.8626 20.8194 19.7177 20.8181C19.5729 20.8168 19.4297 20.7867 19.2966 20.7296C19.1636 20.6724 19.0432 20.5893 18.9425 20.4851L18.1713 19.7138C17.9726 19.5081 17.8626 19.2325 17.8651 18.9465C17.8676 18.6604 17.9823 18.3868 18.1846 18.1846C18.3868 17.9823 18.6604 17.8676 18.9465 17.8651C19.2325 17.8626 19.5081 17.9726 19.7138 18.1713L20.4851 18.9425ZM5.82873 4.28618C6.03328 4.49088 6.14814 4.76845 6.14804 5.05784C6.14794 5.34723 6.03288 5.62472 5.82818 5.82927C5.62348 6.03383 5.34591 6.14869 5.05652 6.14858C4.76714 6.14848 4.48965 6.03343 4.28509 5.82873L3.51491 5.05746C3.31036 4.85276 3.1955 4.57518 3.1956 4.2858C3.1957 3.99641 3.31076 3.71892 3.51545 3.51436C3.72015 3.30981 3.99773 3.19495 4.28711 3.19505C4.5765 3.19515 4.85399 3.31021 5.05855 3.51491L5.82873 4.28618Z" fill="#131523"/>
</svg>
