<svg width="32" height="32" viewBox="0 0 32 32" fill="none" xmlns="http://www.w3.org/2000/svg">
<circle cx="16" cy="16" r="16" fill="#2AA3EF"/>
<path fill-rule="evenodd" clip-rule="evenodd" d="M22.5657 11.9292C22.083 12.1433 21.5632 12.2881 21.0187 12.3536C21.5748 12.0199 22.0019 11.4926 22.2027 10.864C21.6822 11.1726 21.106 11.3966 20.492 11.517C20.0008 10.9936 19.301 10.6667 18.5264 10.6667C17.0389 10.6667 15.8325 11.8721 15.8325 13.3594C15.8325 13.5713 15.8572 13.7762 15.9027 13.9736C13.6645 13.8616 11.6804 12.7887 10.3519 11.1597C10.1195 11.5574 9.9874 12.0199 9.9874 12.5137C9.9874 13.4478 10.4632 14.2723 11.1853 14.7546C10.7435 14.7409 10.328 14.6197 9.96578 14.4178C9.96578 14.4292 9.96578 14.4407 9.96578 14.4521C9.96578 15.7566 10.8934 16.8446 12.126 17.0923C11.8997 17.154 11.6626 17.1868 11.4162 17.1868C11.2432 17.1868 11.0741 17.17 10.9096 17.138C11.2525 18.2078 12.2473 18.9865 13.4259 19.0086C12.5037 19.7302 11.3421 20.1607 10.0801 20.1607C9.86306 20.1607 9.64835 20.1485 9.4375 20.1233C10.6292 20.8876 12.0449 21.3333 13.5664 21.3333C18.5202 21.3333 21.2296 17.2302 21.2296 13.6718C21.2296 13.5545 21.2265 13.4394 21.2218 13.3236C21.7478 12.9442 22.205 12.4695 22.5657 11.93V11.9292Z" fill="white"/>
</svg>
