<svg width="22" height="19" viewBox="0 0 22 19" fill="none" xmlns="http://www.w3.org/2000/svg">
<path d="M21.3625 2.98337C21.224 2.83013 21.0008 2.79159 20.8176 2.88611C20.7037 2.94483 20.4895 3.02191 20.2353 3.09807C20.5561 2.66864 20.8139 2.18782 20.9278 1.75564C20.9771 1.56937 20.9051 1.373 20.7483 1.26197C20.5916 1.15186 20.3829 1.15186 20.2262 1.26197C19.9792 1.4354 18.7873 1.95659 18.0337 2.12543C16.3305 0.623333 14.3485 0.467344 12.2882 1.67856C10.6133 2.66313 10.2487 4.66531 10.3198 5.8857C6.48614 5.51408 4.10319 3.4752 2.76181 1.78775C2.66795 1.66938 2.51668 1.60699 2.37452 1.61616C2.22507 1.62717 2.0902 1.71068 2.01366 1.84006C1.37942 2.91822 1.20355 4.11017 1.507 5.28743C1.67285 5.92975 1.96263 6.4959 2.29888 6.95469C2.13759 6.87486 1.98176 6.77484 1.83505 6.65556C1.70018 6.54361 1.51155 6.52251 1.35208 6.59683C1.19352 6.67299 1.09237 6.83449 1.09237 7.01158C1.09237 9.03303 2.34809 10.3819 3.52089 11.0866C3.33135 11.0637 3.1336 11.0214 2.93404 10.96C2.76272 10.9077 2.57682 10.96 2.45836 11.0958C2.33989 11.2307 2.31164 11.4233 2.38545 11.5876C3.0443 13.0548 4.29273 14.0642 5.83732 14.4303C4.48865 15.2277 2.68344 15.6186 1.03041 15.4268C0.816258 15.3965 0.612135 15.5332 0.544702 15.7406C0.477268 15.948 0.565661 16.1755 0.754292 16.282C3.26209 17.6996 5.52931 18.2062 7.48853 18.2062C10.3399 18.2062 12.5406 17.1344 13.8801 16.2379C17.4915 13.8247 19.7423 9.49182 19.4288 5.61501C20.0075 5.18466 20.8732 4.39003 21.4099 3.53576C21.5211 3.36325 21.501 3.13569 21.3625 2.98337Z" fill="url(#paint0_linear_2458_3804)"/>
<defs>
<linearGradient id="paint0_linear_2458_3804" x1="7.40194" y1="-10.3609" x2="-11.8805" y2="16.5737" gradientUnits="userSpaceOnUse">
<stop stop-color="#01DCBA"/>
<stop offset="1" stop-color="#7F30CB"/>
</linearGradient>
</defs>
</svg>
