<svg width="44" height="44" viewBox="0 0 44 44" fill="none" xmlns="http://www.w3.org/2000/svg">
<g filter="url(#filter0_dd_12340_195234)">
<path d="M34 28C34 30.2091 32.2091 32 30 32L14 32C11.7909 32 10 30.2091 10 28L10 12C10 9.79086 11.7909 8 14 8L30 8C32.2091 8 34 9.79086 34 12L34 28Z" fill="white"/>
<path d="M28.7071 22.7071C28.3166 23.0976 27.6834 23.0976 27.2929 22.7071L22 17.4142L16.7071 22.7071C16.3166 23.0976 15.6834 23.0976 15.2929 22.7071C14.9024 22.3166 14.9024 21.6834 15.2929 21.2929L21.2929 15.2929C21.6834 14.9024 22.3166 14.9024 22.7071 15.2929L28.7071 21.2929C29.0976 21.6834 29.0976 22.3166 28.7071 22.7071Z" fill="#282C3F"/>
</g>
<defs>
<filter id="filter0_dd_12340_195234" x="0" y="0" width="44" height="44" filterUnits="userSpaceOnUse" color-interpolation-filters="sRGB">
<feFlood flood-opacity="0" result="BackgroundImageFix"/>
<feColorMatrix in="SourceAlpha" type="matrix" values="0 0 0 0 0 0 0 0 0 0 0 0 0 0 0 0 0 0 127 0" result="hardAlpha"/>
<feOffset dy="2"/>
<feGaussianBlur stdDeviation="5"/>
<feColorMatrix type="matrix" values="0 0 0 0 0 0 0 0 0 0 0 0 0 0 0 0 0 0 0.1 0"/>
<feBlend mode="normal" in2="BackgroundImageFix" result="effect1_dropShadow_12340_195234"/>
<feColorMatrix in="SourceAlpha" type="matrix" values="0 0 0 0 0 0 0 0 0 0 0 0 0 0 0 0 0 0 127 0" result="hardAlpha"/>
<feOffset/>
<feGaussianBlur stdDeviation="1"/>
<feColorMatrix type="matrix" values="0 0 0 0 0 0 0 0 0 0 0 0 0 0 0 0 0 0 0.2 0"/>
<feBlend mode="normal" in2="effect1_dropShadow_12340_195234" result="effect2_dropShadow_12340_195234"/>
<feBlend mode="normal" in="SourceGraphic" in2="effect2_dropShadow_12340_195234" result="shape"/>
</filter>
</defs>
</svg>
