<svg width="12" height="15" viewBox="0 0 12 15" fill="none" xmlns="http://www.w3.org/2000/svg">
<path d="M0.666667 12.8335H11.3333C11.5101 12.8335 11.6797 12.9037 11.8047 13.0288C11.9298 13.1538 12 13.3234 12 13.5002C12 13.677 11.9298 13.8465 11.8047 13.9716C11.6797 14.0966 11.5101 14.1668 11.3333 14.1668H0.666667C0.489856 14.1668 0.320286 14.0966 0.195262 13.9716C0.0702379 13.8465 0 13.677 0 13.5002C0 13.3234 0.0702379 13.1538 0.195262 13.0288C0.320286 12.9037 0.489856 12.8335 0.666667 12.8335ZM6.66667 10.8335V3.1095L8.19533 4.63817C8.32107 4.7596 8.48947 4.8268 8.66427 4.82528C8.83907 4.82376 9.00627 4.75365 9.12988 4.63004C9.25348 4.50644 9.3236 4.33923 9.32512 4.16443C9.32664 3.98964 9.25944 3.82123 9.138 3.6955L6.47133 1.02883C6.40927 0.96707 6.33564 0.918139 6.25467 0.884833C6.17404 0.850949 6.08746 0.833496 6 0.833496C5.91254 0.833496 5.82596 0.850949 5.74533 0.884833C5.66436 0.918139 5.59073 0.96707 5.52867 1.02883L2.862 3.6955C2.79833 3.757 2.74754 3.83056 2.7126 3.9119C2.67766 3.99323 2.65927 4.08071 2.6585 4.16923C2.65773 4.25775 2.6746 4.34554 2.70812 4.42747C2.74164 4.5094 2.79114 4.58383 2.85374 4.64643C2.91633 4.70902 2.99077 4.75853 3.0727 4.79205C3.15463 4.82557 3.24241 4.84244 3.33093 4.84167C3.41945 4.8409 3.50693 4.82251 3.58827 4.78757C3.66961 4.75263 3.74317 4.70184 3.80467 4.63817L5.33333 3.1095V10.8335C5.33333 11.0103 5.40357 11.1799 5.5286 11.3049C5.65362 11.4299 5.82319 11.5002 6 11.5002C6.17681 11.5002 6.34638 11.4299 6.4714 11.3049C6.59643 11.1799 6.66667 11.0103 6.66667 10.8335Z" fill="#282C3F"/>
</svg>
