<svg width="81" height="80" viewBox="0 0 81 80" fill="none" xmlns="http://www.w3.org/2000/svg">
<rect x="1" y="0.5" width="79" height="79" rx="39.5" fill="#F5F5FA"/>
<path d="M33 48H49C49.2652 48 49.5196 48.1054 49.7071 48.2929C49.8946 48.4804 50 48.7348 50 49C50 49.2652 49.8946 49.5196 49.7071 49.7071C49.5196 49.8947 49.2652 50 49 50H33C32.7348 50 32.4804 49.8947 32.2929 49.7071C32.1054 49.5196 32 49.2652 32 49C32 48.7348 32.1054 48.4804 32.2929 48.2929C32.4804 48.1054 32.7348 48 33 48ZM42 45V33.414L44.293 35.707C44.4816 35.8892 44.7342 35.99 44.9964 35.9877C45.2586 35.9854 45.5094 35.8802 45.6948 35.6948C45.8802 35.5094 45.9854 35.2586 45.9877 34.9964C45.99 34.7342 45.8892 34.4816 45.707 34.293L41.707 30.293C41.6139 30.2004 41.5035 30.127 41.382 30.077C41.2611 30.0262 41.1312 30 41 30C40.8688 30 40.7389 30.0262 40.618 30.077C40.4965 30.127 40.3861 30.2004 40.293 30.293L36.293 34.293C36.1975 34.3853 36.1213 34.4956 36.0689 34.6176C36.0165 34.7396 35.9889 34.8708 35.9877 35.0036C35.9866 35.1364 36.0119 35.2681 36.0622 35.391C36.1125 35.5139 36.1867 35.6255 36.2806 35.7194C36.3745 35.8133 36.4861 35.8875 36.609 35.9378C36.7319 35.9881 36.8636 36.0134 36.9964 36.0123C37.1292 36.0111 37.2604 35.9835 37.3824 35.9311C37.5044 35.8787 37.6148 35.8025 37.707 35.707L40 33.414V45C40 45.2652 40.1054 45.5196 40.2929 45.7071C40.4804 45.8947 40.7348 46 41 46C41.2652 46 41.5196 45.8947 41.7071 45.7071C41.8946 45.5196 42 45.2652 42 45Z" fill="#0061FF"/>
<rect x="1" y="0.5" width="79" height="79" rx="39.5" stroke="#0061FF"/>
</svg>
