<svg width="44" height="38" viewBox="0 0 44 38" fill="none" xmlns="http://www.w3.org/2000/svg">
<path d="M23.1641 30.9355H24.6794V33.048H23.1641V30.9355Z" fill="#ACAAC2"/>
<path d="M23.1637 35.918H22.4062V37.4326H24.6787V35.1602H23.1637L23.1637 35.918Z" fill="#ACAAC2"/>
<path d="M16.8799 35.918H19.6435V37.4333H16.8799V35.918Z" fill="#ACAAC2"/>
<path d="M5.82617 35.918H8.58978V37.4333H5.82617V35.918Z" fill="#ACAAC2"/>
<path d="M11.3516 35.918H14.1152V37.4333H11.3516V35.918Z" fill="#ACAAC2"/>
<path d="M2.30403 35.1602H0.789062V37.4326H3.06152V35.918H2.30402L2.30403 35.1602Z" fill="#ACAAC2"/>
<path d="M0.789062 18.5786H2.3044V21.3422H0.789062V18.5786Z" fill="#ACAAC2"/>
<path d="M0.789062 24.1055H2.3044V26.8691H0.789062V24.1055Z" fill="#ACAAC2"/>
<path d="M0.789062 29.6328H2.3044V32.3965H0.789062V29.6328Z" fill="#ACAAC2"/>
<path d="M0.789062 15.8158H2.30403V15.0579H3.06154V13.543H0.789081L0.789062 15.8158Z" fill="#ACAAC2"/>
<path d="M5.62109 13.543H8.17927V15.0583H5.62109V13.543Z" fill="#ACAAC2"/>
<path d="M43.1023 23.2096C43.0377 22.9481 42.8405 22.7396 42.5834 22.6603L34.5266 20.2509L34.5263 7.20591C34.527 7.00484 34.4463 6.81234 34.3027 6.67162L28.3898 0.754821C28.2491 0.611251 28.0566 0.530895 27.8556 0.531251H12.2533C11.8354 0.53268 11.4972 0.87089 11.4958 1.28911V13.5433H10.7383V15.0586L11.4958 15.0583V28.0658H23.1666V28.8233H24.682V28.0658H30.0798L31.7312 33.138C31.8141 33.3851 32.0166 33.5733 32.2691 33.638C32.3283 33.653 32.3894 33.6605 32.4508 33.6609C32.6469 33.6598 32.8355 33.5841 32.9773 33.4487L36.1591 30.3919L39.0151 33.2479H39.0155C39.3115 33.5433 39.7912 33.5433 40.0873 33.2479L42.5116 30.8236C42.6545 30.6811 42.7352 30.4875 42.7352 30.2854C42.7359 30.0847 42.6552 29.8922 42.5116 29.7515L39.7313 26.9672L42.8906 23.9329V23.9332C43.0849 23.7468 43.1659 23.4714 43.1027 23.2097L43.1023 23.2096ZM28.5076 3.01206L32.0419 6.54989H28.5076V3.01206ZM33.0116 19.7965L28.163 18.3458V18.3462C27.8927 18.2658 27.6005 18.3423 27.4041 18.544C27.2077 18.7462 27.1394 19.0405 27.2273 19.3083L29.5873 26.5508H13.0113V2.04616H26.9925V7.3076C26.9939 7.72546 27.3321 8.06402 27.7504 8.0651H33.0118V19.7963L33.0116 19.7965Z" fill="#ACAAC2"/>
<path d="M30.108 10.5272C30.1083 10.6779 30.0483 10.8226 29.9419 10.9293C29.8351 11.0358 29.6905 11.0958 29.5398 11.0954H16.1875C15.8747 11.0943 15.6211 10.8404 15.6211 10.5272C15.6211 10.2143 15.8747 9.96005 16.1875 9.95898H29.5398C29.6905 9.95898 29.8351 10.0186 29.9419 10.1254C30.0483 10.2318 30.1083 10.3765 30.108 10.5272Z" fill="#ACAAC2"/>
<path d="M30.1096 13.2772C30.1099 13.4283 30.0499 13.5729 29.9435 13.6793C29.8367 13.7858 29.6921 13.8458 29.5414 13.8454H16.1891C16.0381 13.8461 15.8931 13.7865 15.7863 13.6797C15.6795 13.5733 15.6191 13.4283 15.6191 13.2772C15.6191 13.1265 15.6795 12.9815 15.7863 12.8751C15.8931 12.7683 16.0381 12.7086 16.1891 12.709H29.5414C29.6921 12.709 29.8367 12.7686 29.9435 12.8754C30.0499 12.9818 30.1099 13.1265 30.1096 13.2772Z" fill="#ACAAC2"/>
<path d="M30.108 16.0311C30.1083 16.1818 30.0483 16.3265 29.9419 16.4332C29.8351 16.5397 29.6905 16.5997 29.5398 16.5993H16.1875C15.8747 16.5982 15.6211 16.3443 15.6211 16.0311C15.6211 15.7179 15.8747 15.464 16.1875 15.4629H29.5398C29.6905 15.4629 29.8351 15.5225 29.9419 15.6293C30.0483 15.7357 30.1083 15.8804 30.108 16.0311Z" fill="#ACAAC2"/>
</svg>
