<svg width="16" height="16" viewBox="0 0 16 16" fill="none" xmlns="http://www.w3.org/2000/svg">
<path d="M8 7.33317C8.65927 7.33317 9.30374 7.13768 9.8519 6.7714C10.4001 6.40513 10.8273 5.88454 11.0796 5.27545C11.3319 4.66636 11.3979 3.99614 11.2693 3.34954C11.1407 2.70293 10.8232 2.10899 10.357 1.64282C9.89085 1.17664 9.2969 0.859172 8.6503 0.730554C8.0037 0.601937 7.33348 0.667948 6.72439 0.92024C6.1153 1.17253 5.59471 1.59977 5.22843 2.14794C4.86216 2.6961 4.66667 3.34057 4.66667 3.99984C4.66773 4.88357 5.01925 5.7308 5.64415 6.35569C6.26904 6.98058 7.11627 7.33211 8 7.33317ZM8 1.99984C8.39556 1.99984 8.78224 2.11714 9.11114 2.3369C9.44004 2.55666 9.69638 2.86902 9.84776 3.23447C9.99913 3.59992 10.0387 4.00206 9.96157 4.39002C9.8844 4.77798 9.69392 5.13435 9.41421 5.41405C9.13451 5.69376 8.77814 5.88424 8.39018 5.96141C8.00222 6.03858 7.60009 5.99897 7.23463 5.8476C6.86918 5.69622 6.55682 5.43988 6.33706 5.11098C6.1173 4.78208 6 4.3954 6 3.99984C6 3.46941 6.21071 2.9607 6.58579 2.58563C6.96086 2.21055 7.46957 1.99984 8 1.99984ZM2.66667 15.3332H13.3333C13.5101 15.3332 13.6797 15.2629 13.8047 15.1379C13.9298 15.0129 14 14.8433 14 14.6665V11.9998C13.9989 11.1161 13.6474 10.2689 13.0225 9.64399C12.3976 9.01909 11.5504 8.66756 10.6667 8.66651H5.33333C4.4496 8.66756 3.60237 9.01909 2.97748 9.64399C2.35259 10.2689 2.00106 11.1161 2 11.9998V14.6665C2 14.8433 2.07024 15.0129 2.19526 15.1379C2.32029 15.2629 2.48986 15.3332 2.66667 15.3332ZM3.33333 11.9998C3.33333 11.4694 3.54405 10.9607 3.91912 10.5856C4.29419 10.2106 4.8029 9.99984 5.33333 9.99984H10.6667C11.1971 9.99984 11.7058 10.2106 12.0809 10.5856C12.456 10.9607 12.6667 11.4694 12.6667 11.9998V13.9998H3.33333V11.9998Z" fill="#282C3F"/>
</svg>
